<svg xmlns="http://www.w3.org/2000/svg" xmlns:xlink="http://www.w3.org/1999/xlink" viewBox="0 0 300.52 821.26"><defs><style>.cls-1{fill:#0e131a;}.cls-2{fill:#866c57;}.cls-3{fill:#9e8979;}.cls-4{fill:#474849;}.cls-5{fill:#655141;}.cls-6{fill:#43362c;}.cls-7{fill:#b6a79a;}.cls-8{fill:#414042;}.cls-9{fill:#2b96f4;}.cls-10{fill:#0071d6;}.cls-11{fill:#fcae88;}.cls-12{fill:#b06d4d;opacity:0.32;}.cls-13{fill:#36200b;}.cls-14{fill:#f09261;}.cls-15{fill:url(#linear-gradient);}.cls-16{fill:#f28a83;opacity:0.3;}.cls-17{fill:url(#linear-gradient-2);}.cls-18{fill:#482b0e;}.cls-19{fill:#fff;}.cls-20{fill:#603913;}.cls-21{fill:#231f20;}.cls-22{fill:#fba983;}.cls-23{fill:url(#linear-gradient-3);}.cls-24{fill:#f1f2f2;}.cls-25{fill:#f8ba8c;}</style><linearGradient id="linear-gradient" x1="134.76" y1="85.46" x2="146.71" y2="119.77" gradientUnits="userSpaceOnUse"><stop offset="0" stop-color="#f47b54"/><stop offset="0.17" stop-color="#f68a64"/><stop offset="0.44" stop-color="#fa9e78"/><stop offset="0.72" stop-color="#fbaa84"/><stop offset="1" stop-color="#fcae88"/></linearGradient><linearGradient id="linear-gradient-2" x1="155.71" y1="176.27" x2="145.82" y2="123.06" gradientUnits="userSpaceOnUse"><stop offset="0" stop-color="#36200b"/><stop offset="0.05" stop-color="#38210b"/><stop offset="0.53" stop-color="#44290d"/><stop offset="1" stop-color="#482b0e"/></linearGradient><linearGradient id="linear-gradient-3" x1="145.6" y1="132.83" x2="146.31" y2="109.41" gradientUnits="userSpaceOnUse"><stop offset="0" stop-color="#f47b54"/><stop offset="0.06" stop-color="#f68760"/><stop offset="0.13" stop-color="#f89069"/><stop offset="0.24" stop-color="#f8936c"/><stop offset="1" stop-color="#fcae88"/></linearGradient></defs><g id="OBJECT"><g id="doctor"><polygon class="cls-1" points="201.35 756.89 202.73 723.68 184.85 723.68 183.47 756.89 201.35 756.89"/><path class="cls-2" d="M253.64,773.14H172.72s-1.88-6.78-.95-11.09c.35-1.68,1.14-3,2.62-3.37,0-5.28,2.5-16.13,10.28-17.52h0c0,.38-1.42,11.23,15.3,0,4.16-2.79,27.73,21.11,45.05,20.85,4-.06,6.35,4,7.54,7.26A24.47,24.47,0,0,1,253.64,773.14Z"/><path class="cls-3" d="M184.67,741.05c-.24.33-9.17,12.9-5.33,22.37a22.3,22.3,0,0,1-7.57-1.49c.35-1.67,1.14-3,2.62-3.36,0-5.29,2.5-16.13,10.28-17.52Z"/><rect class="cls-4" x="172.45" y="773.14" width="81.25" height="2.12"/><path class="cls-5" d="M253.64,773.14H172.72s-3.62-13.07,1.67-14.46c0,0,49.43,19.76,78.17,10.59A24.47,24.47,0,0,1,253.64,773.14Z"/><path class="cls-6" d="M210.9,751.09a1.81,1.81,0,1,1-1.8-1.81A1.8,1.8,0,0,1,210.9,751.09Z"/><path class="cls-6" d="M216.79,754.29a1.81,1.81,0,1,1-1.81-1.81A1.81,1.81,0,0,1,216.79,754.29Z"/><path class="cls-6" d="M222.68,757.49a1.81,1.81,0,1,1-1.81-1.81A1.81,1.81,0,0,1,222.68,757.49Z"/><path class="cls-7" d="M246.92,764.13c0,.68-1.37,1.24-3.06,1.24s-3.06-.56-3.06-1.24,1.37-1.24,3.06-1.24S246.92,763.44,246.92,764.13Z"/><polygon class="cls-1" points="107.26 756.89 105.88 723.68 123.75 723.68 125.14 756.89 107.26 756.89"/><path class="cls-2" d="M55,773.14h80.92s1.88-6.78,1-11.09c-.35-1.68-1.14-3-2.62-3.37,0-5.28-2.5-16.13-10.28-17.52h0c0,.38,1.42,11.23-15.3,0-4.16-2.79-27.73,21.11-45,20.85-4.05-.06-6.35,4-7.54,7.26A24.47,24.47,0,0,0,55,773.14Z"/><path class="cls-3" d="M123.94,741.05c.24.33,9.17,12.9,5.33,22.37a22.3,22.3,0,0,0,7.57-1.49c-.35-1.67-1.14-3-2.62-3.36,0-5.29-2.5-16.13-10.28-17.52Z"/><rect class="cls-4" x="54.47" y="773.14" width="81.25" height="2.12"/><path class="cls-5" d="M55,773.14h80.92s3.62-13.07-1.67-14.46c0,0-49.44,19.76-78.17,10.59A24.47,24.47,0,0,0,55,773.14Z"/><path class="cls-6" d="M97.71,751.09a1.81,1.81,0,1,0,1.8-1.81A1.8,1.8,0,0,0,97.71,751.09Z"/><path class="cls-6" d="M91.82,754.29a1.81,1.81,0,1,0,1.81-1.81A1.81,1.81,0,0,0,91.82,754.29Z"/><path class="cls-6" d="M85.93,757.49a1.81,1.81,0,1,0,1.81-1.81A1.81,1.81,0,0,0,85.93,757.49Z"/><path class="cls-7" d="M61.69,764.13c0,.68,1.37,1.24,3.06,1.24s3.06-.56,3.06-1.24-1.37-1.24-3.06-1.24S61.69,763.44,61.69,764.13Z"/><path class="cls-8" d="M88.3,395.16l9.48,346.19h37.95c6.67-146.07,14.2-288.06,14.2-288.06s2.47,117.23,23.87,288.06h35.39l4.4-346.19Z"/></g><path class="cls-9" d="M214.27,401.62c-20.33,15.45-102.3,13.13-124.5-.92-7.44-16.23-3.22-140.79-3.22-140.79S69,204.54,74.1,198.79c10.32-11.69,70.69-24.22,70.69-24.22s64.23,14.18,71.26,24.22c3.41,4.88-5.71,50.08-3.15,98.89C215.62,349.35,218.48,383.84,214.27,401.62Z"/><path class="cls-9" d="M226.28,212.27c-10.56-24.7-49.52-28.67-49.52-28.67l-4.29-1.19L160.68,192,152,196.41h-6.21l-12.93-1.23H126.2L123,192l-9.9-10c-3.37,1-9.59,2.81-20.43,6-36.78,10.62-37.4,53-44.52,99.3-2,13.33,3.2,36.5,4.57,39.34,2.38,4.95,10.92,13.89,14.22,12.75,5.25-1.8,8.17-3.78,8.09-12.11-.07-8.67,2.52-17.74,3.32-25.53v0a258.21,258.21,0,0,1,6.75-38s-1.26,25.06-2,35,6.09,95.64,2.67,101.45S85.39,510,85.39,510s-4.09,114-3.48,132c.61,17.72,152.51,13.1,149.47-23.78A13.77,13.77,0,0,0,231,616c-9.49-38.91-8.2-216.23-8.2-216.23L213.9,280.08a121.7,121.7,0,0,1,13.66,33.59c1.47,6.22,2,15,2.11,24l.53-.11a23.14,23.14,0,0,1,6-.08c1.09-1,4.42-3.48,4.21-1.85s1.38,1.27,1.61,1.22c3.83-4.39,8.5-6,14.2-15.94C256,279,235.73,234.31,226.28,212.27Z"/><path class="cls-10" d="M81.46,642c-.61-18.08,3.48-132,3.48-132s-3-104.09.46-109.89S82,308.51,82.73,298.61s2-35,2-35a259.09,259.09,0,0,0-6.74,38c-.27-16.38,1.75-32,10-44.68,8.48,5.32,9.77,35,11.06,44.78a418.45,418.45,0,0,1,3.28,49c.45,33.41-2,66.76-3.42,100.13-1.62,38.47-1.44,78.43,14.42,113.52s51.49,64,89.82,60.32c9.51-.93,18.67-3.74,27.84-6.52C234,655.08,82.07,659.7,81.46,642Z"/><rect class="cls-11" x="130.06" y="158.47" width="30.38" height="36.74"/><path class="cls-12" d="M130.06,158.47V174a25.7,25.7,0,0,0,30.38,0V158.47Z"/><path class="cls-13" d="M166.2,67.67s17.62,5,20.09,9c5.3,8.76-6.38,40.44-6.38,40.44Z"/><path class="cls-13" d="M111.61,114.64s-9.83-27.49-6.29-35.88c2.92-6.94,24.87-17,24.87-17L141.8,77.1Z"/><path class="cls-11" d="M187.45,124.17a6.51,6.51,0,0,1-8.4,3.76h0a6.52,6.52,0,0,1-3.76-8.41l3.36-8.78a6.52,6.52,0,0,1,8.41-3.76h0a6.52,6.52,0,0,1,3.75,8.41Z"/><path class="cls-14" d="M180.88,114.56s13.74-5.78,2.17,9.4C183.05,121.07,190.29,115.29,180.88,114.56Z"/><path class="cls-11" d="M104.54,124.17a6.52,6.52,0,0,0,8.41,3.76h0a6.52,6.52,0,0,0,3.75-8.41l-3.36-8.78a6.51,6.51,0,0,0-8.4-3.76h0a6.52,6.52,0,0,0-3.76,8.41Z"/><path class="cls-14" d="M111.11,114.56s-13.74-5.78-2.17,9.4C108.94,121.07,101.71,115.29,111.11,114.56Z"/><path class="cls-15" d="M179.93,117.11a86.58,86.58,0,0,1-2.17,19.46h0c-.33,1.47-.71,2.89-1.11,4.29-.35,1.18-.72,2.33-1.12,3.45-5.85,16.83-17,28.19-29.74,28.19-12.54,0-23.52-11-29.45-27.35-.5-1.4-1-2.82-1.4-4.29s-.78-2.81-1.12-4.27v0a86.57,86.57,0,0,1-2.18-19.46c0-2.5.11-5,.31-7.37,0-.15,0-.22,0-.22,2.29-27,16.57-47.78,33.83-47.78s31.64,20.92,33.85,48.05C179.82,112.18,179.93,114.63,179.93,117.11Z"/><path class="cls-16" d="M179.91,117.11a87.16,87.16,0,0,1-2.17,19.46h0c-.33,1.47-.71,2.89-1.12,4.29-.31,1.07-.65,2.12-1,3.14,0,.1-.07.21-.11.32-5.85,16.82-17,28.19-29.74,28.19-7.62,0-14.66-4.06-20.35-10.91,59.3-14.52,47.35-77.77,42.57-77.48-26.18,1.61-39.35-2.69-43.72-10,5.87-7.73,13.35-12.35,21.5-12.35,16.54,0,30.33,19.07,33.47,44.4.15,1.2.28,2.41.38,3.65C179.8,112.18,179.91,114.63,179.91,117.11Z"/><path class="cls-17" d="M179.23,106.17s-.49,40.05-6.23,35.73c-13-9.8-44-11.62-55.06.29-5.18,5.58-5.74-35.38-5.74-35.38-3.46,6.67-.54,29.55-.54,29.55h0c1.26,12.22,7.07,36.57,33.24,37h.71c25.26-.39,31.48-23.39,33-35.9h0S182.36,112.15,179.23,106.17Z"/><path class="cls-18" d="M155.5,91.6v2.58h-1.42V91.34l-4.5-.83s-1.29,6,0,7.34c3.55,3.57,20,0,20,0V94.18Z"/><path class="cls-18" d="M135.72,90.89v2.59h1.41V90.63l4.5-.82s1.29,6,0,7.33c-3.54,3.57-20,0-20,0V93.48Z"/><path class="cls-11" d="M169.75,110.79c-.11-.23-.21-.44-.32-.65h0C169.54,110.34,169.64,110.56,169.75,110.79Z"/><path class="cls-19" d="M169.59,110.45l-.16-.31-.05.34-.77,5.38a14.79,14.79,0,0,1-15.42.21l.19-4h0c.53-.66.94-1.37,1.41-2.09h0l.44-.66c.16-.24.34-.49.51-.73l.21-.28.21-.27c.35-.45.72-.89,1.1-1.3l.47-.47q.24-.24.48-.45l.25-.21.25-.21.25-.19c.17-.13.34-.24.51-.35a6.85,6.85,0,0,1,.79-.44l.25-.11a5.37,5.37,0,0,1,.56-.21l.28-.08.16,0,.15,0a4.52,4.52,0,0,1,1.6,0l.52.13a6.51,6.51,0,0,1,2.69,1.74c.27.28.55.58.82.92a19.87,19.87,0,0,1,2,3.17c0,.08.09.16.13.25Z"/><path class="cls-18" d="M169.43,110.14l-.05.34c-6.8-11.55-14.59-.5-14.59-.5v0h0l.44-.66c.16-.24.34-.49.51-.73l.21-.28.21-.27c.35-.45.72-.89,1.1-1.3l.47-.47q.24-.24.48-.45l.25-.21.25-.21.25-.19c.17-.13.34-.24.51-.35a6.85,6.85,0,0,1,.79-.44l.25-.11a5.37,5.37,0,0,1,.56-.21l.28-.08.16,0,.15,0a4.52,4.52,0,0,1,1.6,0l.52.13a6.51,6.51,0,0,1,2.69,1.74c.27.28.55.58.82.92a19.87,19.87,0,0,1,2,3.17C169.34,110,169.39,110.05,169.43,110.14Z"/><path class="cls-20" d="M165.54,112.09a4.75,4.75,0,1,1-3.92-5.46A4.76,4.76,0,0,1,165.54,112.09Z"/><path class="cls-18" d="M164.4,108.16a4.69,4.69,0,0,1,.56,3.12,4.75,4.75,0,0,1-5.46,3.92,4.69,4.69,0,0,1-2.78-1.53,4.75,4.75,0,0,0,8.82-1.58A4.72,4.72,0,0,0,164.4,108.16Z"/><path class="cls-21" d="M162.6,111.62a2.23,2.23,0,1,1-1.84-2.56A2.23,2.23,0,0,1,162.6,111.62Z"/><path class="cls-19" d="M160.65,109.72a.58.58,0,0,1-.66.47.58.58,0,0,1-.48-.66.58.58,0,0,1,1.14.19Z"/><path class="cls-22" d="M149.83,114.67,172,114S165.88,124,149.83,114.67Z"/><path class="cls-16" d="M168.71,114.09c-3.72,2.2-15.52.55-15.52.55l.8-.1Z"/><path class="cls-19" d="M122.83,110.45c.06-.1.11-.21.16-.31l.05.34.78,5.38a14.77,14.77,0,0,0,15.41.21l0-4h0a5,5,0,0,1-1.41-2.09h0a1.87,1.87,0,0,1-.64-.66l-.52-.73-.21-.28-.21-.27c-.35-.45-.72-.89-1.1-1.3l-.47-.47q-.24-.24-.48-.45l-.25-.21-.25-.21-.25-.19c-.17-.13-.34-.24-.51-.35a6.85,6.85,0,0,0-.79-.44l-.25-.11a5.37,5.37,0,0,0-.56-.21l-.28-.08-.16,0a.8.8,0,0,0-.15,0,4.47,4.47,0,0,0-1.59,0l-.53.13A6.51,6.51,0,0,0,126,105.8c-.27.28-.55.58-.82.92a19.87,19.87,0,0,0-2,3.17c0,.08-.09.16-.13.25Z"/><path class="cls-18" d="M123.2,110.14l0,.34c6.81-11.55,14.6-.5,14.6-.5v0h0l-.44-.66c-.17-.24-.34-.49-.52-.73l-.2-.28-.21-.27c-.35-.45-.72-.89-1.11-1.3l-.46-.47c-.16-.16-.32-.31-.49-.45l-.24-.21-.25-.21-.26-.19c-.17-.13-.33-.24-.5-.35a6.85,6.85,0,0,0-.79-.44l-.25-.11q-.28-.12-.57-.21l-.27-.08-.16,0-.15,0a4.52,4.52,0,0,0-1.6,0l-.52.13a6.45,6.45,0,0,0-2.69,1.74,10.69,10.69,0,0,0-.82.92,19.87,19.87,0,0,0-2,3.17A2,2,0,0,0,123.2,110.14Z"/><path class="cls-20" d="M126.88,112.09a4.75,4.75,0,1,0,3.92-5.46A4.76,4.76,0,0,0,126.88,112.09Z"/><path class="cls-18" d="M128,108.16a4.69,4.69,0,0,0-.56,3.12,4.75,4.75,0,0,0,5.46,3.92,4.69,4.69,0,0,0,2.78-1.53,4.75,4.75,0,1,1-7.68-5.51Z"/><path class="cls-21" d="M129.83,111.62a2.23,2.23,0,1,0,1.83-2.56A2.22,2.22,0,0,0,129.83,111.62Z"/><path class="cls-19" d="M131.77,109.72a.58.58,0,0,0,1.14-.19.58.58,0,0,0-1.14.19Z"/><path class="cls-22" d="M142.59,114.67,120.38,114S126.54,124,142.59,114.67Z"/><path class="cls-16" d="M123.71,114.09c3.72,2.2,15.52.55,15.52.55l-.79-.1Z"/><path class="cls-23" d="M149.92,116.87c.25-7.47-4-15.16-4-15.16s-4.52,7.69-4.27,15.16c-3.14,7.39-4.4,15.8,2.48,20.6a2.79,2.79,0,0,0,1.65.57h.06a2.79,2.79,0,0,0,1.65-.57C154.31,132.67,153.05,124.26,149.92,116.87Z"/><path class="cls-18" d="M133.39,87.53S62.69,82.47,132.11,46c-5.64,14.8,36.12-16.46,51.49,28.41C177.89,83.61,158.17,90.88,133.39,87.53Z"/><path class="cls-24" d="M134.73,146.17c0-3.66,5-.82,11.09-.81s11.1-2.83,11.09.84-5,10-11.1,10S134.73,149.84,134.73,146.17Z"/><path class="cls-25" d="M242.71,457.72c2-7.12-8-33.05-14-32.9C223.7,425,215.66,445,216,454.5c1.94,1.09,3.37,4.92,4.16,6.78S240.73,464.85,242.71,457.72Z"/><path class="cls-25" d="M227.2,482c-.42-5.18-.89-13.32-.74-20.43a15.84,15.84,0,0,0,4.82-1c1,6.6,1.45,15,1.74,20,.41,7.33-.6,11.07-2.55,11.32C228.8,492.15,227.72,488.72,227.2,482Z"/><path class="cls-25" d="M234.28,479.24c-.72-4.83-1.69-12.44-2-19.1a19.81,19.81,0,0,0,5.11-1.38c1.43,6.14,1.89,14.29,2.47,19,.86,6.84.09,10.37-1.8,10.66C236.47,488.68,235.21,485.5,234.28,479.24Z"/><path class="cls-25" d="M240.08,474.59c-.62-4.12-1.45-10.62-1.69-16.3a16.34,16.34,0,0,0,4.37-1.18c1.22,5.25,1.6,12.19,2.11,16.22.73,5.84.07,8.85-1.54,9.1C242,482.65,240.87,479.94,240.08,474.59Z"/><path class="cls-25" d="M219.45,479.69c.09-4.88.14-14.33,1-20.94,1.62.14,4,1.6,5.53,1.26.39,6.3-.51,14.4-.71,19.16-.29,6.89-1.63,10.24-3.54,10.22C220.05,489.37,219.33,486,219.45,479.69Z"/><path class="cls-25" d="M208.27,452.64c3.82-3,7.17-13.75,12.93-17.1.88,1.38,5.28,8.1,6.49,9.12-4.78,4.13-10.37,9-14.27,11.74-5.66,3.94-10.28,2.42-11.41.89C201,456,206.34,454.18,208.27,452.64Z"/><path class="cls-9" d="M240.38,437.52l-21.3-2.69s12.52-94.52,6.72-122.45c-6.42-30.95-29.71-61.6-29.71-61.6s-1.28-61.71,15.19-55.65,41.09,74.7,45.78,117.74C260.68,346.08,240.38,437.52,240.38,437.52Z"/><path class="cls-25" d="M70.35,458.91c-2.54-7,5.26-33.6,11.29-33.93,5-.28,14.64,19.09,15.1,28.55-1.85,1.25-3,5.18-3.61,7.1S72.91,465.85,70.35,458.91Z"/><path class="cls-25" d="M87.78,481.88c0-5.2-.19-13.35-.91-20.42a16.13,16.13,0,0,1-4.9-.63c-.5,6.66-.23,15.06-.11,20.11.18,7.33,1.5,11,3.46,11.08C87,492.1,87.8,488.59,87.78,481.88Z"/><path class="cls-25" d="M80.5,479.67c.32-4.87.67-12.53.42-19.2a19.82,19.82,0,0,1-5.21-1c-.93,6.24-.72,14.39-.93,19.14-.3,6.89.75,10.35,2.65,10.49C79.07,489.26,80.07,486,80.5,479.67Z"/><path class="cls-25" d="M74.34,475.51c.28-4.16.58-10.7.37-16.39a16.42,16.42,0,0,1-4.46-.82c-.78,5.33-.61,12.28-.78,16.34-.26,5.88.64,8.83,2.26,8.95C73.13,483.69,74,480.9,74.34,475.51Z"/><path class="cls-25" d="M95.32,478.93c-.49-4.86-1.3-14.28-2.66-20.8-1.6.27-3.84,1.91-5.41,1.7.13,6.31,1.67,14.32,2.26,19,.84,6.84,2.45,10.08,4.35,9.9C95.5,488.61,95.94,485.23,95.32,478.93Z"/><path class="cls-25" d="M104.27,451.06c-4.06-2.72-8.26-13.13-14.28-16-.75,1.44-4.6,8.5-5.72,9.61,5.09,3.73,11.07,8.16,15.17,10.55,6,3.47,10.44,1.59,11.45,0C111.76,453.79,106.32,452.44,104.27,451.06Z"/><path class="cls-9" d="M71,438.61l21-4.22s-17.32-90-14.07-118.28c3.59-31.3,19.75-65.33,19.75-65.33s-5.1-62.78-21-55.56S43.81,272.34,43,315.57C42.43,348.93,71,438.61,71,438.61Z"/><polygon class="cls-10" points="145.42 194.64 132.37 205.74 116.79 181.4 128.95 177.32 145.42 194.64"/><polygon class="cls-10" points="145.42 194.64 156.91 205.63 177.14 181.97 160.51 177.45 145.42 194.64"/></g></svg>