<?xml version="1.0" encoding="utf-8"?>
<!-- Generator: Adobe Illustrator 22.1.0, SVG Export Plug-In . SVG Version: 6.00 Build 0)  -->
<svg version="1.1" id="Layer_1" xmlns="http://www.w3.org/2000/svg" xmlns:xlink="http://www.w3.org/1999/xlink" x="0px" y="0px"
	 viewBox="0 0 300.5 821.3" style="enable-background:new 0 0 300.5 821.3;" xml:space="preserve">
<style type="text/css">
	.st0{fill:#0E131A;}
	.st1{fill:#22366B;}
	.st2{fill:#18294C;}
	.st3{fill:#CFCFCF;}
	.st4{fill:#43362C;}
	.st5{fill:#22AA66;}
	.st6{fill:#F7E88F;}
	.st7{fill:#0071D6;}
	.st8{fill:#FCAE88;}
	.st9{opacity:0.32;fill:#B06D4D;enable-background:new    ;}
	.st10{fill:#F2D453;}
	.st11{fill:#B77A65;}
	.st12{fill:#005EA5;}
	.st13{fill:#1E3144;}
	.st14{fill:#FFFFFF;}
	.st15{fill:#DB7269;}
	.st16{fill:#FFC5B6;}
</style>
<g id="BACKGROUND">
</g>
<g id="OBJECT">
	<g>
		<g>
			<g id="doctor_16_">
				<g>
					<g>
						<polygon class="st0" points="206.4,756.9 207.8,723.7 189.9,723.7 188.5,756.9 						"/>
						<g>
							<path class="st1" d="M258.7,773.1h-80.9c0,0-1.9-6.8-0.9-11.1c0.4-1.7,1.1-3,2.6-3.4c0-5.3,2.5-16.1,10.3-17.5l0,0
								c-0.1,0.4-1.4,11.2,15.3,0c4.2-2.8,27.7,21.1,45,20.8c4-0.1,6.4,4,7.5,7.3C258.4,771.4,258.7,773.1,258.7,773.1z"/>
							<path class="st2" d="M189.7,741.1c-0.2,0.3-9.2,12.9-5.3,22.4c-2.6,0-5.1-0.6-7.6-1.5c0.4-1.7,1.1-3,2.6-3.4
								C179.4,753.3,181.9,742.4,189.7,741.1C189.7,741,189.7,741,189.7,741.1z"/>
							<rect x="177.5" y="773.1" class="st3" width="81.2" height="2.1"/>
							<path class="st2" d="M258.7,773.1h-80.9c0,0-3.6-13.1,1.7-14.5c0,0,49.4,19.8,78.2,10.6C258.4,771.4,258.7,773.1,258.7,773.1
								z"/>
							<g>
								<path class="st4" d="M216,751.1c0,1-0.8,1.8-1.8,1.8s-1.8-0.8-1.8-1.8s0.8-1.8,1.8-1.8S216,750.1,216,751.1z"/>
								<path class="st4" d="M221.8,754.3c0,1-0.8,1.8-1.8,1.8s-1.8-0.8-1.8-1.8s0.8-1.8,1.8-1.8S221.8,753.3,221.8,754.3z"/>
								<path class="st4" d="M227.7,757.5c0,1-0.8,1.8-1.8,1.8s-1.8-0.8-1.8-1.8s0.8-1.8,1.8-1.8S227.7,756.5,227.7,757.5z"/>
							</g>
						</g>
					</g>
					<g>
						<polygon class="st0" points="112.3,756.9 110.9,723.7 128.8,723.7 130.2,756.9 						"/>
						<g>
							<path class="st1" d="M60,773.1h81c0,0,1.9-6.8,0.9-11.1c-0.4-1.7-1.1-3-2.6-3.4c0-5.3-2.5-16.1-10.3-17.5l0,0
								c0.1,0.4,1.4,11.2-15.3,0c-4.2-2.8-27.7,21.1-45,20.8c-4.1-0.1-6.4,4-7.5,7.3C60.3,771.4,60,773.1,60,773.1z"/>
							<path class="st2" d="M129,741.1c0.2,0.3,9.2,12.9,5.3,22.4c2.6,0,5.1-0.6,7.6-1.5c-0.4-1.7-1.1-3-2.6-3.4
								C139.3,753.3,136.8,742.4,129,741.1C129,741,129,741,129,741.1z"/>
							<rect x="59.5" y="773.1" class="st3" width="81.2" height="2.1"/>
							<path class="st2" d="M60,773.1h81c0,0,3.6-13.1-1.7-14.5c0,0-49.4,19.8-78.2,10.6C60.3,771.4,60,773.1,60,773.1z"/>
							<g>
								<path class="st4" d="M102.8,751.1c0,1,0.8,1.8,1.8,1.8s1.8-0.8,1.8-1.8s-0.8-1.8-1.8-1.8
									C103.6,749.3,102.8,750.1,102.8,751.1z"/>
								<path class="st4" d="M96.9,754.3c0,1,0.8,1.8,1.8,1.8s1.8-0.8,1.8-1.8s-0.8-1.8-1.8-1.8C97.7,752.5,96.9,753.3,96.9,754.3z"
									/>
								<path class="st4" d="M91,757.5c0,1,0.8,1.8,1.8,1.8s1.8-0.8,1.8-1.8s-0.8-1.8-1.8-1.8S91,756.5,91,757.5z"/>
							</g>
						</g>
					</g>
					<g>
						<path class="st5" d="M93.4,395.2l9.5,346.2h37.9c6.7-146.1,14.2-288.1,14.2-288.1s2.5,117.2,23.9,288.1h35.4l4.4-346.2H93.4z"
							/>
					</g>
				</g>
			</g>
			<path class="st6" d="M219.3,401.6C199,417.1,117,414.7,94.8,400.7c-7.4-16.2-3.2-140.8-3.2-140.8s-17.5-55.4-12.4-61.1
				c10.3-11.7,70.7-24.2,70.7-24.2s64.2,14.2,71.3,24.2c3.4,4.9-5.7,50.1-3.1,98.9C220.7,349.3,223.5,383.8,219.3,401.6z"/>
			<path class="st7" d="M161.4,400.8c-27.8,1-49.9-13.1-54.3-27.7s-3.2-77.3-5.1-104.8c-1.3-18.9-3-32.6-15.4-44.5
				c3.9,17.3,4.9,36,4.9,36s-4.2,124.6,3.2,140.8c16.1,10.2,66.2,12.7,100.2,7.5C183.4,407.7,172.6,400.4,161.4,400.8z"/>
			<path class="st7" d="M218,297.7c-1.5-29.4,1.1-57.4,2.8-76.2c-7.9,14.4-15.9,30.1-15.4,46c0.6,19.3,3.7,38.1,8.5,56.7
				c2.3,9,4.2,18.2,6.6,27.2c0.8,3,1.9,5.9,3.1,8.8"/>
			<g>
				<rect x="135.1" y="158.5" class="st8" width="30.4" height="36.7"/>
				<path class="st9" d="M135.1,158.5V174c4.7,3.2,9.8,5,15.2,5s10.5-1.8,15.2-5v-15.5H135.1z"/>
			</g>
			<g>
				<path class="st6" d="M235.1,616c-9.5-38.9-8.2-216.2-8.2-216.2L218,280.1c0,0,9.1,14.4,13.7,33.6c0,0,0,0,0,0.1
					c5.3,3.7,11,5.1,17.4,5.2c4.3-1.5,5.8-8,9.1-10.9c-2.8-39.1-19-75.4-27.8-95.8c-10.6-24.7-49.5-28.7-49.5-28.7l-4.3-1.2
					l-11.8,9.6l-8.7,4.4h-6.2l-12.9-1.2h-6.6l-3.2-3.2l-8.7-9.7c-3.4,1-10.8,2.4-21.7,5.6c-32.5,9.6-37.4,53-44.5,99.3
					c-2,13.3,17.3,19.7,26.9,12.5c0,0,0.2-10.9,2.2-5c2.2-21.7,7.8-31.1,7.8-31.1s-1.3,25.1-2,35s6.1,95.6,2.7,101.5
					c-3.4,5.8-0.5,109.9-0.5,109.9s-4.1,114-3.5,132c0.6,17.7,152.5,13.1,149.5-23.8C235.5,617.5,235.3,616.7,235.1,616z"/>
				<path class="st10" d="M85.6,642c-0.6-18.1,3.5-132,3.5-132s-3-104.1,0.5-109.9c3.4-5.8-3.4-91.6-2.7-101.5c0.7-9.9,2-35,2-35
					s-5,5.9,3.2-6.7c8.5,5.3,9.8,35,11.1,44.8c2.1,16.3,3.1,32.6,3.3,49c0.5,33.4-2,66.8-3.4,100.1c-1.6,38.5-1.4,78.4,14.4,113.5
					c15.9,35.1,51.5,64,89.8,60.3c9.5-0.9,18.7-3.7,27.8-6.5C238.1,655.1,86.2,659.7,85.6,642z"/>
			</g>
			<g>
				<g>
					<polygon class="st10" points="150.5,194.6 137.4,205.7 121.9,181.4 134,177.3 					"/>
				</g>
				<g>
					<polygon class="st10" points="150.5,194.6 162,205.6 182.2,182 165.6,177.5 					"/>
				</g>
			</g>
			<g>
				<g>
					<path class="st11" d="M276.9,175c-0.1,0.3,0.1,0.5,0.3,0.6c0.3,0.1,0.5-0.1,0.6-0.3l0,0l3.4-10.7c0.1-0.3,0-0.5-0.3-0.6l0,0
						c-0.3-0.1-0.6,0.1-0.6,0.3L276.9,175z"/>
					<path class="st11" d="M270.2,173.1c-0.1,0.3,0.1,0.6,0.3,0.6c0.3,0.1,0.5-0.1,0.6-0.3l4.6-14.5c0.1-0.3-0.1-0.5-0.3-0.6
						c-0.3-0.1-0.5,0.1-0.6,0.3l0,0L270.2,173.1z"/>
					<path class="st7" d="M258.3,222.9l8.9-29l-6.2-7c-1.2-1.3-2-2.8-2.4-4.5c-0.4-1.3-2.9-9.2-2.9-9.9c0-2,2.7-1.9,3.8-1.6
						c2,0.5,4.2,4.2,5.5,7.5c0.5,1.2,2.1,2.3,2.4,1.5l6.7-22.8c1-3.5,2.3-3.8,3.5-3.5c1.2,0.1,2.1,1,2.4,2.1
						c0.3,2.2,0.2,4.4-0.2,6.5c0,0,1.4-7.2,4.9-6.1c3.5,1.1,1.6,6.3,1.2,8.3c-0.2,1.2,0.7-2.5,2.5-3.8c0.8-0.6,2-0.2,2.8,0.4
						c2.7,2,0.1,8.4,0.1,8.4s1.2-2.9,2.7-3.1c0.9-0.1,2,0.6,2.6,2c0.7,1.7,0.6,3.6-0.2,5.2l-10.1,24.9l-6.3,31.4L258.3,222.9z"/>
					<path class="st12" d="M287.9,178.4c-0.1,0.3,0.1,0.5,0.3,0.6c0.3,0.1,0.5-0.1,0.6-0.3l3.4-10.7c0.1-0.3-0.1-0.5-0.3-0.6
						c-0.3-0.1-0.5,0.1-0.6,0.3l0,0L287.9,178.4z"/>
					<path class="st12" d="M281.2,176.5c-0.1,0.3,0.1,0.5,0.3,0.6c0.3,0.1,0.5-0.1,0.6-0.3l0,0l4.6-14.5c0.1-0.3-0.1-0.5-0.3-0.6
						c-0.3-0.1-0.5,0.1-0.6,0.3L281.2,176.5z"/>
					<path class="st12" d="M274.7,175.1c-0.1,0.2-0.1,0.6,0.2,0.7c0.2,0.1,0.6,0.1,0.7-0.2c0-0.1,0.1-0.1,0.1-0.2l5.5-16.8
						c0.1-0.2,0-0.6-0.2-0.7c-0.2-0.1-0.6,0-0.7,0.2c0,0.1,0,0.1-0.1,0.2L274.7,175.1z"/>
				</g>
				<g>
					<g>
						<path class="st6" d="M221.6,199.3L263.5,302c0,0-19.6,24.4-28.5,22c-7.4-2.1-13-19.3-16-26.3c-6.1-14-10.5-39.5-10.5-39.5
							L221.6,199.3z"/>
					</g>
					<path class="st6" d="M263,201.2c0,0-57.8,127.1-21,124.8c6.4-0.4,29.6-12.4,44.8-115.8C276.1,203.2,263,201.2,263,201.2z"/>
				</g>
			</g>
			<g>
				<g>
					<path class="st11" d="M19.3,164.4c-0.1-0.3-0.4-0.4-0.6-0.3l0,0c-0.3,0.1-0.4,0.4-0.3,0.6l3.4,10.7l0,0
						c0.1,0.3,0.4,0.4,0.6,0.3c0.3-0.1,0.4-0.4,0.3-0.6L19.3,164.4z"/>
					<path class="st11" d="M24.8,158.7L24.8,158.7c-0.1-0.3-0.4-0.4-0.6-0.3c-0.3,0.1-0.4,0.4-0.3,0.6l4.6,14.5
						c0.1,0.3,0.4,0.4,0.6,0.3c0.3-0.1,0.4-0.4,0.3-0.6L24.8,158.7z"/>
					<path class="st7" d="M19.5,229.6l-6.3-31.4L3,173.3c-0.8-1.6-0.8-3.5-0.2-5.2c0.6-1.4,1.7-2.1,2.6-2c1.5,0.2,2.7,3.1,2.7,3.1
						s-2.6-6.4,0.1-8.4c0.8-0.6,2.1-0.9,2.8-0.4c1.8,1.3,2.7,5,2.5,3.8c-0.3-1.9-2.3-7.1,1.2-8.3s4.9,6.1,4.9,6.1
						c-0.5-2.1-0.5-4.3-0.2-6.5c0.2-1.1,1.2-2,2.4-2.1c1.2-0.3,2.5,0,3.5,3.5l6.7,22.8c0.3,0.8,1.9-0.2,2.4-1.5
						c1.3-3.3,3.5-6.9,5.5-7.5c1.1-0.3,3.8-0.4,3.8,1.6c0,0.8-2.5,8.6-2.9,9.9c-0.4,1.7-1.2,3.2-2.4,4.5l-6.2,7l8.9,29L19.5,229.6z"
						/>
					<path class="st12" d="M8.3,167.7L8.3,167.7c-0.1-0.3-0.4-0.4-0.6-0.3c-0.3,0.1-0.4,0.4-0.3,0.6l3.4,10.7
						c0.1,0.3,0.4,0.4,0.6,0.3c0.3-0.1,0.4-0.4,0.3-0.6L8.3,167.7z"/>
					<path class="st12" d="M13.8,162.1c-0.1-0.3-0.4-0.4-0.6-0.3c-0.3,0.1-0.4,0.4-0.3,0.6l4.6,14.5l0,0c0.1,0.3,0.4,0.4,0.6,0.3
						c0.3-0.1,0.4-0.4,0.3-0.6L13.8,162.1z"/>
					<path class="st12" d="M19.5,158.3c0-0.1,0-0.1-0.1-0.2c-0.1-0.2-0.4-0.3-0.7-0.2c-0.2,0.1-0.3,0.4-0.2,0.7l5.5,16.8
						c0,0.1,0,0.1,0.1,0.2c0.1,0.2,0.4,0.3,0.7,0.2c0.2-0.1,0.3-0.4,0.2-0.7L19.5,158.3z"/>
				</g>
				<g>
					<g>
						<path class="st6" d="M78,199.3L36.1,302c0,0,19.6,24.4,28.5,22c7.4-2.1,13-19.3,16-26.3c6.1-14,10.5-39.5,10.5-39.5L78,199.3z
							"/>
					</g>
					<path class="st6" d="M36.6,201.2c0,0,57.8,127.1,21,124.8c-6.4-0.4-29.6-12.4-44.8-115.8C23.5,203.2,36.6,201.2,36.6,201.2z"/>
				</g>
			</g>
		</g>
		<g>
			<g>
				<path class="st8" d="M182.6,120.1c0,0,2.8-6.3,6.1-4.5s-2.4,27.6-6.3,24.2C178.5,136.3,182.6,120.1,182.6,120.1z"/>
				<path class="st8" d="M114.5,120.1c0,0-2.8-6.3-6.1-4.5c-3.3,1.8,2.4,27.6,6.3,24.2C118.6,136.3,114.5,120.1,114.5,120.1z"/>
				<path class="st8" d="M148.7,173.9L148.7,173.9c-5.3,0-10.4-2.3-14.1-6.4c-7.8-8.7-20.4-24.2-20.4-33.8L112,96.4
					C112,76,129.6,63,148.7,63l0,0c11.8,0,23.1,4.9,29.9,13.5c4.2,5.3,6.8,11.9,6.8,19.7l-2.1,37.5c0,9.7-12.6,25.1-20.4,33.8
					C159.2,171.6,154.1,173.9,148.7,173.9z"/>
				<path class="st13" d="M189.7,61.6c-1.3-2.6-2.9-5.1-4.7-7.4c-6.3-8-15.7-13.8-25.8-14.8c-7.7-0.8-15.4,1.1-22.8,3.3
					c-4.2,1.3-8.5,2.7-12.1,5.3s-6.5,6.4-6.9,10.8c-2.4-0.2-4.7,1.1-6.3,3c-1.5,1.9-2.4,4.2-3.1,6.5c-1.1,3.5-1.8,7.2-2.3,10.9
					c-0.9,7.1-0.7,14.3,0.7,21.3c1.2,6.3,3.9,12,5.3,18.4c1,4.7,2.6,10,2.5,14.8l0.3-15.7c0.1-3.4-0.1-6.8,0-10.3
					c0-1.4-0.1-3,0.1-4.4c0.2-1.6,1-2.1,2-3.2c1.2-1.4,1.5-3.3,1.8-5.1c0.8-6.2,1.6-12.3,2.3-18.5c5.9,4,11,8.8,16.2,13.5
					c1.9,1.8,4.8,3.2,7,4.6c2.8,1.7,5.8,3,9,3.6c1.7,0.3,3.5,0.4,4.9-0.5s2-3.2,0.8-4.3c3.8,1.8,7.6,3.7,11.8,4.2s8.8-0.7,11.3-4.1
					c1.9,7.8,1.5,16.5,1.2,24.4l0.3,15.7c0.1-3.6,0.9-7.2,1.6-10.7c2.3-11.5,4.3-23,6-34.7c1.3,0.8,3.1-0.1,3.8-1.4s0.7-2.9,0.6-4.5
					C194.8,75.2,193,68,189.7,61.6z"/>
			</g>
			<g>
				<path class="st9" d="M153.4,139.7c-2.1,1-5,1.4-5,1.4s-2.9-0.4-5-1.4s-3.8-1.5-3.8-0.9s4.8,5.9,8.8,5.9s8.7-5.3,8.8-5.9
					C157.3,138.2,155.5,138.7,153.4,139.7z"/>
				<g>
					<g>
						<path class="st13" d="M131.7,123.5c5.6,0,5.6-8.6,0-8.6C126.1,114.9,126.1,123.5,131.7,123.5L131.7,123.5z"/>
					</g>
					<path class="st14" d="M134.2,118.2c0,0.7-0.6,1.3-1.3,1.3s-1.3-0.6-1.3-1.3c0-0.7,0.6-1.3,1.3-1.3
						C133.6,116.8,134.2,117.4,134.2,118.2z"/>
					<g>
						<path class="st13" d="M125.5,118.3c4.1-2.8,8.4-0.7,12.7,0.1c0.5,0.1,1-0.5,0.5-0.9C135,114.5,127.8,112.8,125.5,118.3
							C125.4,118.3,125.5,118.4,125.5,118.3L125.5,118.3z"/>
					</g>
				</g>
				<g>
					<g>
						<path class="st13" d="M164.9,123.5c-5.6,0-5.6-8.6,0-8.6C170.4,114.9,170.5,123.5,164.9,123.5L164.9,123.5z"/>
					</g>
					<path class="st14" d="M162.4,118.2c0,0.7,0.6,1.3,1.3,1.3s1.3-0.6,1.3-1.3c0-0.7-0.6-1.3-1.3-1.3
						C163,116.8,162.4,117.4,162.4,118.2z"/>
					<g>
						<path class="st13" d="M171.1,118.2c-2.3-5.5-9.6-3.7-13.3-0.8c-0.5,0.4,0.1,1,0.5,0.9C162.7,117.7,166.9,115.5,171.1,118.2
							C171.1,118.4,171.2,118.3,171.1,118.2L171.1,118.2z"/>
					</g>
				</g>
				<g>
					<path class="st13" d="M119.4,103.8c3.8-0.8,8-0.8,11.8-0.1c2.8,0.4,5.6,1.8,8.4,1.6c0.9-0.1,1.3-1,0.7-1.7
						c-4.8-5.3-15.5-2.7-21.1-0.4C118.9,103.4,119,103.9,119.4,103.8L119.4,103.8z"/>
				</g>
				<g>
					<path class="st13" d="M178.2,103.2c-5.7-2.3-16.3-4.9-21.1,0.4c-0.6,0.7-0.2,1.6,0.7,1.7c2.8,0.2,5.6-1.2,8.4-1.6
						c3.9-0.6,8-0.6,11.8,0.1C178.5,103.9,178.6,103.4,178.2,103.2L178.2,103.2z"/>
				</g>
				<g>
					<path class="st15" d="M138,149.9c1.9,0.4,3.6,0.8,5.3,1c1.7,0.3,3.4,0.4,5.1,0.4c1.7,0,3.4-0.1,5.1-0.3
						c1.7-0.2,3.5-0.5,5.3-0.9c-1.3,1.4-3,2.4-4.8,3.1c-1.8,0.7-3.8,1-5.7,1s-3.9-0.4-5.7-1.1C140.9,152.4,139.3,151.3,138,149.9z"
						/>
				</g>
				<g>
					<path class="st16" d="M148.5,124.8c-0.6,2.6-0.1,5,0.2,7.6c0.3,2,0.2,4.4,1.4,6.1c0.4,0.5,1.2,0.5,1.4-0.2
						c0.6-2-0.2-4.2-0.6-6.2c-0.4-2.6-0.7-5-1.9-7.3C149,124.5,148.6,124.6,148.5,124.8L148.5,124.8z"/>
				</g>
			</g>
		</g>
	</g>
</g>
</svg>
