<svg xmlns="http://www.w3.org/2000/svg" viewBox="0 0 300.52 821.26"><defs><style>.cls-1{fill:#0e131a;}.cls-2{fill:#866c57;}.cls-3{fill:#9e8979;}.cls-4{fill:#474849;}.cls-5{fill:#655141;}.cls-6{fill:#43362c;}.cls-7{fill:#b6a79a;}.cls-8{fill:#414042;}.cls-9{fill:#2b96f4;}.cls-10,.cls-14{fill:#0071d6;}.cls-11{fill:#fcae88;}.cls-12{fill:#b06d4d;opacity:0.32;}.cls-13{fill:#b77a65;}.cls-13,.cls-14,.cls-15{fill-rule:evenodd;}.cls-15{fill:#005ea5;}.cls-16{fill:#1e3144;}.cls-17{fill:#fff;}.cls-18{fill:#db7269;}.cls-19{fill:#ffc5b6;}</style></defs><g id="OBJECT"><g id="doctor"><polygon class="cls-1" points="206.41 756.89 207.78 723.68 189.91 723.68 188.53 756.89 206.41 756.89"/><path class="cls-2" d="M258.7,773.14H177.77s-1.87-6.78-.94-11.09c.35-1.68,1.13-3,2.61-3.37,0-5.28,2.5-16.13,10.29-17.52h0c-.05.38-1.42,11.23,15.31,0,4.15-2.79,27.73,21.11,45,20.85,4.05-.06,6.36,4,7.55,7.26A24.47,24.47,0,0,1,258.7,773.14Z"/><path class="cls-3" d="M189.72,741.05c-.23.33-9.16,12.9-5.32,22.37a22.3,22.3,0,0,1-7.57-1.49c.35-1.67,1.13-3,2.61-3.36,0-5.29,2.5-16.13,10.29-17.52Z"/><rect class="cls-4" x="177.51" y="773.14" width="81.25" height="2.12"/><path class="cls-5" d="M258.7,773.14H177.77s-3.61-13.07,1.67-14.46c0,0,49.44,19.76,78.18,10.59A24.47,24.47,0,0,1,258.7,773.14Z"/><path class="cls-6" d="M216,751.09a1.81,1.81,0,1,1-1.8-1.81A1.8,1.8,0,0,1,216,751.09Z"/><path class="cls-6" d="M221.85,754.29a1.81,1.81,0,1,1-1.81-1.81A1.81,1.81,0,0,1,221.85,754.29Z"/><path class="cls-6" d="M227.74,757.49a1.81,1.81,0,1,1-1.81-1.81A1.81,1.81,0,0,1,227.74,757.49Z"/><path class="cls-7" d="M252,764.13c0,.68-1.36,1.24-3.05,1.24s-3.06-.56-3.06-1.24,1.37-1.24,3.06-1.24S252,763.44,252,764.13Z"/><polygon class="cls-1" points="112.32 756.89 110.94 723.68 128.81 723.68 130.19 756.89 112.32 756.89"/><path class="cls-2" d="M60,773.14H141s1.88-6.78,1-11.09c-.36-1.68-1.14-3-2.62-3.37,0-5.28-2.5-16.13-10.29-17.52h0c.05.38,1.42,11.23-15.3,0-4.16-2.79-27.73,21.11-45,20.85-4.05-.06-6.36,4-7.54,7.26A23.94,23.94,0,0,0,60,773.14Z"/><path class="cls-3" d="M129,741.05c.23.33,9.17,12.9,5.32,22.37a22.36,22.36,0,0,0,7.58-1.49c-.36-1.67-1.14-3-2.62-3.36,0-5.29-2.5-16.13-10.29-17.52Z"/><rect class="cls-4" x="59.52" y="773.14" width="81.25" height="2.12"/><path class="cls-5" d="M60,773.14H141s3.62-13.07-1.67-14.46c0,0-49.44,19.76-78.17,10.59A23.94,23.94,0,0,0,60,773.14Z"/><path class="cls-6" d="M102.76,751.09a1.81,1.81,0,1,0,1.81-1.81A1.81,1.81,0,0,0,102.76,751.09Z"/><path class="cls-6" d="M96.87,754.29a1.81,1.81,0,1,0,1.81-1.81A1.81,1.81,0,0,0,96.87,754.29Z"/><path class="cls-6" d="M91,757.49a1.81,1.81,0,1,0,1.8-1.81A1.81,1.81,0,0,0,91,757.49Z"/><path class="cls-7" d="M66.75,764.13c0,.68,1.37,1.24,3.06,1.24s3.06-.56,3.06-1.24-1.37-1.24-3.06-1.24S66.75,763.44,66.75,764.13Z"/><path class="cls-8" d="M93.36,395.16l9.48,346.19h37.95C147.45,595.28,155,453.29,155,453.29s2.47,117.23,23.86,288.06h35.4l4.4-346.19Z"/></g><path class="cls-9" d="M219.32,401.62C199,417.07,117,414.75,94.83,400.7c-7.44-16.23-3.22-140.79-3.22-140.79s-17.53-55.37-12.45-61.12c10.32-11.69,70.69-24.22,70.69-24.22s64.23,14.18,71.25,24.22c3.42,4.88-5.71,50.08-3.14,98.89C220.67,349.35,223.54,383.84,219.32,401.62Z"/><path class="cls-10" d="M161.44,400.76c-27.82,1-49.86-13.07-54.26-27.67s-3.15-77.3-5.07-104.75c-1.32-18.95-3-32.56-15.39-44.46a240.45,240.45,0,0,1,4.89,36S87.39,384.47,94.83,400.7C110.94,410.89,161,413.44,195,408.15,183.41,407.66,172.6,400.36,161.44,400.76Z"/><path class="cls-10" d="M218,297.68c-1.54-29.37,1.14-57.42,2.79-76.18-7.95,14.4-15.89,30.12-15.41,46a258.39,258.39,0,0,0,8.51,56.73c2.33,9,4.25,18.17,6.57,27.2a66,66,0,0,0,3.09,8.8"/><rect class="cls-11" x="135.12" y="158.47" width="30.38" height="36.74"/><path class="cls-12" d="M135.12,158.47V174a25.7,25.7,0,0,0,30.38,0V158.47Z"/><path class="cls-9" d="M235.15,616c-9.49-38.91-8.21-216.23-8.21-216.23L218,280.08a121.87,121.87,0,0,1,13.65,33.59l0,.06c5.26,3.72,11,5.14,17.35,5.24,4.26-1.46,5.79-8,9.13-10.88-2.84-39.07-19-75.43-27.77-95.82-10.57-24.7-49.53-28.67-49.53-28.67l-4.29-1.19L164.81,192l-8.71,4.44h-6.21L137,195.18h-6.63L127.17,192l-8.67-9.71c-3.38,1-10.83,2.43-21.66,5.64-32.51,9.63-37.4,53-44.52,99.3-2,13.33,17.31,19.73,26.94,12.53,0,0,.2-10.87,2.18-5,2.24-21.7,7.83-31.08,7.83-31.08s-1.26,25.06-2,35S93.4,394.25,90,400.06,89.52,510,89.52,510s-4.09,114-3.47,132c.6,17.72,152.5,13.1,149.46-23.78A14.9,14.9,0,0,0,235.15,616Z"/><path class="cls-10" d="M85.59,642C85,623.9,89.07,510,89.07,510s-3-104.09.46-109.89-3.37-91.55-2.67-101.45,2-35,2-35-5,6,3.23-6.7c8.48,5.32,9.78,35,11.06,44.78a416.3,416.3,0,0,1,3.28,49c.45,33.41-2,66.76-3.42,100.13-1.62,38.47-1.44,78.43,14.43,113.52s51.48,64,89.81,60.32c9.52-.93,18.68-3.74,27.85-6.52C238.1,655.08,86.2,659.7,85.59,642Z"/><polygon class="cls-10" points="150.48 194.64 137.43 205.74 121.85 181.4 134 177.32 150.48 194.64"/><polygon class="cls-10" points="150.48 194.64 161.97 205.63 182.2 181.97 165.57 177.45 150.48 194.64"/><path class="cls-13" d="M276.92,175a.52.52,0,0,0,.33.64.5.5,0,0,0,.63-.32h0l3.4-10.66A.5.5,0,0,0,281,164h0a.51.51,0,0,0-.64.32Z"/><path class="cls-13" d="M270.16,173.14a.51.51,0,0,0,1,.31L275.75,159a.51.51,0,0,0-.34-.63.48.48,0,0,0-.62.31v0Z"/><path class="cls-14" d="M258.28,222.89l8.91-29-6.2-7a9.81,9.81,0,0,1-2.36-4.52c-.36-1.3-2.87-9.17-2.86-9.92,0-2,2.68-1.92,3.77-1.63,2,.54,4.23,4.19,5.54,7.47.48,1.23,2.12,2.29,2.41,1.46L274.18,157c1-3.49,2.34-3.81,3.54-3.53a2.67,2.67,0,0,1,2.38,2.1,18.68,18.68,0,0,1-.25,6.5s1.4-7.2,4.92-6.07,1.56,6.34,1.25,8.27c-.2,1.21.74-2.51,2.53-3.81a2.63,2.63,0,0,1,2.85.35c2.72,2,.09,8.43.09,8.43s1.17-2.85,2.69-3.07a2.8,2.8,0,0,1,2.6,2,6.42,6.42,0,0,1-.16,5.22l-10.14,24.91-6.32,31.37Z"/><path class="cls-15" d="M287.94,178.41a.51.51,0,0,0,1,.31L292.3,168a.52.52,0,0,0-.32-.64.5.5,0,0,0-.63.32v0Z"/><path class="cls-15" d="M281.18,176.53a.51.51,0,0,0,.33.63.49.49,0,0,0,.63-.31v0l4.62-14.46a.51.51,0,0,0-.33-.63.51.51,0,0,0-.64.32Z"/><path class="cls-15" d="M274.67,175.06a.51.51,0,0,0,.19.69.51.51,0,0,0,.69-.18.49.49,0,0,0,.07-.19l5.48-16.79a.51.51,0,0,0-.88-.5.58.58,0,0,0-.06.17Z"/><path class="cls-9" d="M221.62,199.3,263.5,302s-19.65,24.4-28.45,22c-7.43-2.05-13-19.26-16-26.33-6.08-14-10.51-39.53-10.51-39.53Z"/><path class="cls-9" d="M263,201.22S205.21,328.3,242,326c6.42-.4,29.63-12.4,44.78-115.77C276.1,203.17,263,201.22,263,201.22Z"/><path class="cls-13" d="M19.3,164.36a.51.51,0,0,0-.64-.32h0a.5.5,0,0,0-.31.63l3.4,10.66h0a.5.5,0,0,0,.63.32.52.52,0,0,0,.33-.64Z"/><path class="cls-13" d="M24.84,158.68v0a.5.5,0,0,0-.63-.31.51.51,0,0,0-.33.63l4.62,14.47a.51.51,0,0,0,.63.33.51.51,0,0,0,.33-.64Z"/><path class="cls-14" d="M19.46,229.61l-6.33-31.37L3,173.33a6.5,6.5,0,0,1-.16-5.22,2.8,2.8,0,0,1,2.6-2c1.52.22,2.7,3.07,2.7,3.07s-2.63-6.45.09-8.43a2.61,2.61,0,0,1,2.84-.35c1.8,1.3,2.74,5,2.54,3.81-.31-1.93-2.27-7.14,1.25-8.27S19.76,162,19.76,162a18.92,18.92,0,0,1-.25-6.5,2.68,2.68,0,0,1,2.38-2.1c1.21-.28,2.51,0,3.55,3.53l6.69,22.76c.29.83,1.93-.23,2.41-1.46,1.3-3.28,3.52-6.93,5.53-7.47,1.09-.29,3.77-.36,3.77,1.63,0,.75-2.5,8.62-2.85,9.92a9.9,9.9,0,0,1-2.36,4.52l-6.2,7,8.91,29Z"/><path class="cls-15" d="M8.27,167.73v0a.5.5,0,1,0-.95.32l3.39,10.69a.51.51,0,0,0,.64.32.51.51,0,0,0,.33-.63Z"/><path class="cls-15" d="M13.82,162.06a.51.51,0,0,0-.64-.32.51.51,0,0,0-.33.63l4.62,14.46v0a.5.5,0,0,0,.63.31.5.5,0,0,0,.33-.63Z"/><path class="cls-15" d="M19.45,158.26a.55.55,0,0,0-.05-.17.51.51,0,0,0-.89.5L24,175.38a.7.7,0,0,0,.06.19.51.51,0,0,0,.69.18.5.5,0,0,0,.19-.69Z"/><path class="cls-9" d="M78,199.3,36.12,302s19.64,24.4,28.45,22c7.43-2.05,13-19.26,16-26.33,6.08-14,10.5-39.53,10.5-39.53Z"/><path class="cls-9" d="M36.63,201.22S94.4,328.3,57.61,326c-6.43-.4-29.63-12.4-44.78-115.77C23.52,203.17,36.63,201.22,36.63,201.22Z"/><path class="cls-11" d="M182.65,120.14s2.78-6.32,6.12-4.53-2.38,27.64-6.31,24.16S182.65,120.14,182.65,120.14Z"/><path class="cls-11" d="M114.47,120.14s-2.78-6.32-6.12-4.53,2.39,27.64,6.32,24.16S114.47,120.14,114.47,120.14Z"/><path class="cls-11" d="M148.75,173.94h0a19.05,19.05,0,0,1-14.13-6.43c-7.83-8.68-20.44-24.16-20.44-33.82L112,96.44c0-20.38,17.62-33.37,36.71-33.37h0c11.83,0,23.09,4.89,29.95,13.46a30.93,30.93,0,0,1,6.76,19.66l-2.14,37.5c0,9.66-12.62,25.14-20.45,33.82A19,19,0,0,1,148.75,173.94Z"/><path class="cls-16" d="M189.67,61.58a45.23,45.23,0,0,0-4.75-7.43c-6.3-8-15.66-13.77-25.8-14.81-7.69-.78-15.39,1.09-22.79,3.32-4.23,1.28-8.5,2.72-12.1,5.28s-6.51,6.45-6.91,10.85a7.59,7.59,0,0,0-6.25,3A18.23,18.23,0,0,0,108,68.29a66.66,66.66,0,0,0-2.29,10.85,68,68,0,0,0,.68,21.25c1.22,6.35,3.88,12,5.27,18.36,1,4.7,2.62,10,2.52,14.85,0,0,.33-15.72.33-15.74.07-3.42-.07-6.84,0-10.26a37.8,37.8,0,0,1,.13-4.39c.2-1.56,1-2.09,2-3.19,1.24-1.35,1.52-3.29,1.75-5.11q1.17-9.24,2.35-18.5c5.91,4,11,8.76,16.24,13.54a44.2,44.2,0,0,0,7,4.58,28.5,28.5,0,0,0,9,3.6,6.79,6.79,0,0,0,4.93-.49c1.43-.92,2-3.2.76-4.33,3.78,1.84,7.64,3.7,11.81,4.16s8.77-.73,11.33-4c1.87,7.79,1.54,16.45,1.23,24.44l.33,15.74A65.06,65.06,0,0,1,185,122.94c2.32-11.54,4.25-23,6-34.69,1.3.8,3.1-.06,3.84-1.39a7.85,7.85,0,0,0,.58-4.46A55.24,55.24,0,0,0,189.67,61.58Z"/><path class="cls-12" d="M153.43,139.7a21.64,21.64,0,0,1-5,1.39,21.62,21.62,0,0,1-5-1.39c-2.06-1-3.83-1.5-3.78-.87s4.76,5.88,8.78,5.88,8.74-5.25,8.78-5.88S155.49,138.73,153.43,139.7Z"/><path class="cls-16" d="M131.71,123.51c5.56,0,5.57-8.65,0-8.65s-5.57,8.65,0,8.65Z"/><path class="cls-17" d="M134.21,118.16a1.33,1.33,0,1,1-1.33-1.34A1.33,1.33,0,0,1,134.21,118.16Z"/><path class="cls-16" d="M125.55,118.34c4.12-2.85,8.35-.67,12.68.06.48.08,1-.54.54-.92-3.76-3-11-4.7-13.31.77,0,0,0,.13.09.09Z"/><path class="cls-16" d="M164.89,123.51c-5.56,0-5.57-8.65,0-8.65s5.57,8.65,0,8.65Z"/><path class="cls-17" d="M162.38,118.16a1.34,1.34,0,1,0,1.33-1.34A1.34,1.34,0,0,0,162.38,118.16Z"/><path class="cls-16" d="M171.13,118.25c-2.34-5.47-9.55-3.75-13.31-.77-.48.38.06,1,.54.92,4.33-.73,8.57-2.91,12.68-.06.06,0,.11,0,.09-.09Z"/><path class="cls-16" d="M119.42,103.84a34,34,0,0,1,11.81-.15c2.81.44,5.6,1.84,8.42,1.62a1,1,0,0,0,.7-1.71c-4.84-5.3-15.45-2.73-21.1-.39a.33.33,0,0,0,.17.63Z"/><path class="cls-16" d="M178.25,103.21c-5.66-2.35-16.26-4.91-21.11.39a1,1,0,0,0,.71,1.71c2.79.22,5.63-1.19,8.41-1.62a33.7,33.7,0,0,1,11.81.15.33.33,0,0,0,.18-.63Z"/><path class="cls-18" d="M138,149.86c1.87.43,3.59.81,5.31,1a38.64,38.64,0,0,0,5.12.4,36.94,36.94,0,0,0,5.13-.29c1.73-.2,3.46-.54,5.34-.92a12.11,12.11,0,0,1-4.79,3.12,16.19,16.19,0,0,1-11.39-.13A12.15,12.15,0,0,1,138,149.86Z"/><path class="cls-19" d="M148.54,124.82c-.56,2.56-.14,5,.21,7.57.27,2,.19,4.44,1.37,6.12a.77.77,0,0,0,1.4-.18c.57-2-.23-4.25-.57-6.24-.42-2.55-.68-5-1.88-7.34a.29.29,0,0,0-.53.07Z"/></g></svg>