<svg xmlns="http://www.w3.org/2000/svg" xmlns:xlink="http://www.w3.org/1999/xlink" viewBox="0 0 300.52 821.26"><defs><style>.cls-1{fill:#0e131a;}.cls-2{fill:#866c57;}.cls-3{fill:#9e8979;}.cls-4{fill:#474849;}.cls-5{fill:#655141;}.cls-6{fill:#43362c;}.cls-7{fill:#b6a79a;}.cls-8{fill:#414042;}.cls-9{fill:#2b96f4;}.cls-10,.cls-26{fill:#0071d6;}.cls-11{fill:#fcae88;}.cls-12{fill:#b06d4d;opacity:0.32;}.cls-13{fill:#36200b;}.cls-14{fill:#f09261;}.cls-15{fill:url(#linear-gradient);}.cls-16{fill:#f28a83;opacity:0.3;}.cls-17{fill:url(#linear-gradient-2);}.cls-18{fill:#482b0e;}.cls-19{fill:#fff;}.cls-20{fill:#603913;}.cls-21{fill:#231f20;}.cls-22{fill:#fba983;}.cls-23{fill:url(#linear-gradient-3);}.cls-24{fill:#f1f2f2;}.cls-25{fill:#b77a65;}.cls-25,.cls-26,.cls-27{fill-rule:evenodd;}.cls-27{fill:#005ea5;}</style><linearGradient id="linear-gradient" x1="139.82" y1="85.46" x2="151.77" y2="119.77" gradientUnits="userSpaceOnUse"><stop offset="0" stop-color="#f47b54"/><stop offset="0.17" stop-color="#f68a64"/><stop offset="0.44" stop-color="#fa9e78"/><stop offset="0.72" stop-color="#fbaa84"/><stop offset="1" stop-color="#fcae88"/></linearGradient><linearGradient id="linear-gradient-2" x1="160.77" y1="176.27" x2="150.88" y2="123.06" gradientUnits="userSpaceOnUse"><stop offset="0" stop-color="#36200b"/><stop offset="0.05" stop-color="#38210b"/><stop offset="0.53" stop-color="#44290d"/><stop offset="1" stop-color="#482b0e"/></linearGradient><linearGradient id="linear-gradient-3" x1="150.65" y1="132.83" x2="151.36" y2="109.41" gradientUnits="userSpaceOnUse"><stop offset="0" stop-color="#f47b54"/><stop offset="0.06" stop-color="#f68760"/><stop offset="0.13" stop-color="#f89069"/><stop offset="0.24" stop-color="#f8936c"/><stop offset="1" stop-color="#fcae88"/></linearGradient></defs><g id="OBJECT"><g id="doctor"><polygon class="cls-1" points="206.41 756.89 207.78 723.68 189.91 723.68 188.53 756.89 206.41 756.89"/><path class="cls-2" d="M258.7,773.14H177.77s-1.87-6.78-.94-11.09c.35-1.68,1.13-3,2.61-3.37,0-5.28,2.5-16.13,10.29-17.52h0c-.05.38-1.42,11.23,15.31,0,4.15-2.79,27.73,21.11,45,20.85,4.05-.06,6.36,4,7.55,7.26A24.47,24.47,0,0,1,258.7,773.14Z"/><path class="cls-3" d="M189.72,741.05c-.23.33-9.16,12.9-5.32,22.37a22.3,22.3,0,0,1-7.57-1.49c.35-1.67,1.13-3,2.61-3.36,0-5.29,2.5-16.13,10.29-17.52Z"/><rect class="cls-4" x="177.51" y="773.14" width="81.25" height="2.12"/><path class="cls-5" d="M258.7,773.14H177.77s-3.61-13.07,1.67-14.46c0,0,49.44,19.76,78.18,10.59A24.47,24.47,0,0,1,258.7,773.14Z"/><path class="cls-6" d="M216,751.09a1.81,1.81,0,1,1-1.8-1.81A1.8,1.8,0,0,1,216,751.09Z"/><path class="cls-6" d="M221.85,754.29a1.81,1.81,0,1,1-1.81-1.81A1.81,1.81,0,0,1,221.85,754.29Z"/><path class="cls-6" d="M227.74,757.49a1.81,1.81,0,1,1-1.81-1.81A1.81,1.81,0,0,1,227.74,757.49Z"/><path class="cls-7" d="M252,764.13c0,.68-1.36,1.24-3.05,1.24s-3.06-.56-3.06-1.24,1.37-1.24,3.06-1.24S252,763.44,252,764.13Z"/><polygon class="cls-1" points="112.32 756.89 110.94 723.68 128.81 723.68 130.19 756.89 112.32 756.89"/><path class="cls-2" d="M60,773.14H141s1.88-6.78,1-11.09c-.36-1.68-1.14-3-2.62-3.37,0-5.28-2.5-16.13-10.29-17.52h0c.05.38,1.42,11.23-15.3,0-4.16-2.79-27.73,21.11-45,20.85-4.05-.06-6.36,4-7.54,7.26A23.94,23.94,0,0,0,60,773.14Z"/><path class="cls-3" d="M129,741.05c.23.33,9.17,12.9,5.32,22.37a22.36,22.36,0,0,0,7.58-1.49c-.36-1.67-1.14-3-2.62-3.36,0-5.29-2.5-16.13-10.29-17.52Z"/><rect class="cls-4" x="59.52" y="773.14" width="81.25" height="2.12"/><path class="cls-5" d="M60,773.14H141s3.62-13.07-1.67-14.46c0,0-49.44,19.76-78.17,10.59A23.94,23.94,0,0,0,60,773.14Z"/><path class="cls-6" d="M102.76,751.09a1.81,1.81,0,1,0,1.81-1.81A1.81,1.81,0,0,0,102.76,751.09Z"/><path class="cls-6" d="M96.87,754.29a1.81,1.81,0,1,0,1.81-1.81A1.81,1.81,0,0,0,96.87,754.29Z"/><path class="cls-6" d="M91,757.49a1.81,1.81,0,1,0,1.8-1.81A1.81,1.81,0,0,0,91,757.49Z"/><path class="cls-7" d="M66.75,764.13c0,.68,1.37,1.24,3.06,1.24s3.06-.56,3.06-1.24-1.37-1.24-3.06-1.24S66.75,763.44,66.75,764.13Z"/><path class="cls-8" d="M93.36,395.16l9.48,346.19h37.95C147.45,595.28,155,453.29,155,453.29s2.47,117.23,23.86,288.06h35.4l4.4-346.19Z"/></g><path class="cls-9" d="M219.32,401.62C199,417.07,117,414.75,94.83,400.7c-7.44-16.23-3.22-140.79-3.22-140.79s-17.53-55.37-12.45-61.12c10.32-11.69,70.69-24.22,70.69-24.22s64.23,14.18,71.25,24.22c3.42,4.88-5.71,50.08-3.14,98.89C220.67,349.35,223.54,383.84,219.32,401.62Z"/><path class="cls-10" d="M161.44,400.76c-27.82,1-49.86-13.07-54.26-27.67s-3.15-77.3-5.07-104.75c-1.32-18.95-3-32.56-15.39-44.46a240.45,240.45,0,0,1,4.89,36S87.39,384.47,94.83,400.7C110.94,410.89,161,413.44,195,408.15,183.41,407.66,172.6,400.36,161.44,400.76Z"/><path class="cls-10" d="M218,297.68c-1.54-29.37,1.14-57.42,2.79-76.18-7.95,14.4-15.89,30.12-15.41,46a258.39,258.39,0,0,0,8.51,56.73c2.33,9,4.25,18.17,6.57,27.2a66,66,0,0,0,3.09,8.8"/><rect class="cls-11" x="135.12" y="158.47" width="30.38" height="36.74"/><path class="cls-12" d="M135.12,158.47V174a25.7,25.7,0,0,0,30.38,0V158.47Z"/><path class="cls-13" d="M171.25,67.67s17.63,5,20.1,9c5.29,8.76-6.39,40.44-6.39,40.44Z"/><path class="cls-13" d="M116.67,114.64s-9.83-27.49-6.3-35.88c2.93-6.94,24.88-17,24.88-17l11.6,15.34Z"/><path class="cls-11" d="M192.51,124.17a6.51,6.51,0,0,1-8.4,3.76h0a6.51,6.51,0,0,1-3.76-8.41l3.36-8.78a6.51,6.51,0,0,1,8.4-3.76h0a6.52,6.52,0,0,1,3.76,8.41Z"/><path class="cls-14" d="M185.94,114.56s13.74-5.78,2.17,9.4C188.11,121.07,195.34,115.29,185.94,114.56Z"/><path class="cls-11" d="M109.6,124.17a6.51,6.51,0,0,0,8.4,3.76h0a6.52,6.52,0,0,0,3.76-8.41l-3.36-8.78A6.51,6.51,0,0,0,110,107h0a6.52,6.52,0,0,0-3.76,8.41Z"/><path class="cls-14" d="M116.17,114.56s-13.74-5.78-2.17,9.4C114,121.07,106.77,115.29,116.17,114.56Z"/><path class="cls-15" d="M185,117.11a87.16,87.16,0,0,1-2.17,19.46h0c-.33,1.47-.71,2.89-1.12,4.29q-.51,1.77-1.11,3.45c-5.85,16.83-17,28.19-29.74,28.19-12.55,0-23.52-11-29.45-27.35-.5-1.4-1-2.82-1.4-4.29s-.78-2.81-1.12-4.27v0a86,86,0,0,1-2.18-19.46q0-3.75.31-7.37c0-.15,0-.22,0-.22,2.28-27,16.56-47.78,33.83-47.78s31.64,20.92,33.85,48.05C184.88,112.18,185,114.63,185,117.11Z"/><path class="cls-16" d="M185,117.11a87.16,87.16,0,0,1-2.17,19.46h0c-.34,1.47-.71,2.89-1.12,4.29-.31,1.07-.65,2.12-1,3.14,0,.1-.07.21-.11.32-5.85,16.82-17,28.19-29.74,28.19-7.62,0-14.67-4.06-20.35-10.91,59.3-14.52,47.35-77.77,42.56-77.48-26.18,1.61-39.34-2.69-43.71-10,5.86-7.73,13.35-12.35,21.5-12.35,16.53,0,30.33,19.07,33.47,44.4.15,1.2.28,2.41.38,3.65C184.86,112.18,185,114.63,185,117.11Z"/><path class="cls-17" d="M184.29,106.17s-.49,40.05-6.23,35.73c-13-9.8-44-11.62-55.06.29-5.18,5.58-5.74-35.38-5.74-35.38-3.46,6.67-.54,29.55-.54,29.55h0c1.26,12.22,7.07,36.57,33.24,37h.7c25.27-.39,31.49-23.39,33-35.9h0S187.41,112.15,184.29,106.17Z"/><path class="cls-18" d="M160.56,91.6v2.58h-1.42V91.34l-4.5-.83s-1.29,6,0,7.34c3.54,3.57,20.05,0,20.05,0V94.18Z"/><path class="cls-18" d="M140.77,90.89v2.59h1.42V90.63l4.5-.82s1.29,6,0,7.33c-3.54,3.57-20,0-20,0V93.48Z"/><path class="cls-11" d="M174.81,110.79c-.11-.23-.22-.44-.33-.65h0Z"/><path class="cls-19" d="M174.65,110.45l-.17-.31,0,.34-.78,5.38a14.79,14.79,0,0,1-15.42.21l.2-4h0c.53-.66.94-1.37,1.41-2.09h0l.43-.66.52-.73.21-.28.2-.27c.35-.45.72-.89,1.11-1.3l.46-.47c.17-.16.32-.31.49-.45l.24-.21.25-.21.26-.19c.17-.13.34-.24.51-.35a6.85,6.85,0,0,1,.79-.44l.25-.11a5.37,5.37,0,0,1,.56-.21l.28-.08.16,0a.66.66,0,0,1,.15,0,4.47,4.47,0,0,1,1.59,0l.52.13a6.54,6.54,0,0,1,2.7,1.74,10.62,10.62,0,0,1,.81.92,19.18,19.18,0,0,1,2,3.17l.13.25C174.54,110.24,174.59,110.35,174.65,110.45Z"/><path class="cls-18" d="M174.48,110.14l0,.34c-6.8-11.55-14.59-.5-14.59-.5v0h0l.43-.66.52-.73.21-.28.2-.27c.35-.45.72-.89,1.11-1.3l.46-.47c.17-.16.32-.31.49-.45l.24-.21.25-.21.26-.19c.17-.13.34-.24.51-.35a6.85,6.85,0,0,1,.79-.44l.25-.11a5.37,5.37,0,0,1,.56-.21l.28-.08.16,0a.66.66,0,0,1,.15,0,4.47,4.47,0,0,1,1.59,0l.52.13a6.54,6.54,0,0,1,2.7,1.74,10.62,10.62,0,0,1,.81.92,19.18,19.18,0,0,1,2,3.17Z"/><path class="cls-20" d="M170.6,112.09a4.75,4.75,0,1,1-3.92-5.46A4.76,4.76,0,0,1,170.6,112.09Z"/><path class="cls-18" d="M169.46,108.16a4.69,4.69,0,0,1,.56,3.12,4.75,4.75,0,0,1-5.46,3.92,4.69,4.69,0,0,1-2.78-1.53,4.75,4.75,0,1,0,7.68-5.51Z"/><path class="cls-21" d="M167.65,111.62a2.23,2.23,0,1,1-1.84-2.56A2.22,2.22,0,0,1,167.65,111.62Z"/><path class="cls-19" d="M165.71,109.72a.59.59,0,0,1-.67.47.58.58,0,0,1-.47-.66.57.57,0,0,1,.66-.47A.58.58,0,0,1,165.71,109.72Z"/><path class="cls-22" d="M154.89,114.67l22.2-.68S170.94,124,154.89,114.67Z"/><path class="cls-16" d="M173.77,114.09c-3.72,2.2-15.53.55-15.53.55l.8-.1Z"/><path class="cls-19" d="M127.89,110.45l.16-.31,0,.34.77,5.38a14.79,14.79,0,0,0,15.42.21l0-4h0a5,5,0,0,1-1.42-2.09h0a2.07,2.07,0,0,1-.64-.66c-.16-.24-.34-.49-.52-.73l-.2-.28-.21-.27c-.35-.45-.72-.89-1.1-1.3l-.47-.47q-.24-.24-.48-.45l-.25-.21-.25-.21-.26-.19a5.62,5.62,0,0,0-.5-.35,6.85,6.85,0,0,0-.79-.44l-.25-.11a5.54,5.54,0,0,0-.57-.21l-.27-.08-.16,0-.15,0a4.52,4.52,0,0,0-1.6,0l-.52.13A6.45,6.45,0,0,0,131,105.8a10.69,10.69,0,0,0-.82.92,19.87,19.87,0,0,0-2,3.17c0,.08-.09.16-.13.25S127.94,110.35,127.89,110.45Z"/><path class="cls-18" d="M128.26,110.14l0,.34c6.8-11.55,14.6-.5,14.6-.5v0h0l-.43-.66-.52-.73-.21-.28-.2-.27c-.36-.45-.72-.89-1.11-1.3-.15-.16-.31-.32-.47-.47s-.31-.31-.48-.45l-.24-.21-.25-.21-.26-.19c-.17-.13-.34-.24-.51-.35a6.85,6.85,0,0,0-.79-.44l-.25-.11a5.37,5.37,0,0,0-.56-.21l-.28-.08-.16,0a.66.66,0,0,0-.15,0,4.47,4.47,0,0,0-1.59,0l-.52.13a6.48,6.48,0,0,0-2.7,1.74c-.27.28-.55.58-.82.92a19.87,19.87,0,0,0-2,3.17Z"/><path class="cls-20" d="M131.93,112.09a4.76,4.76,0,1,0,3.93-5.46A4.77,4.77,0,0,0,131.93,112.09Z"/><path class="cls-18" d="M133.08,108.16a4.69,4.69,0,0,0-.57,3.12A4.76,4.76,0,0,0,138,115.2a4.69,4.69,0,0,0,2.78-1.53,4.75,4.75,0,1,1-7.68-5.51Z"/><path class="cls-21" d="M134.88,111.62a2.23,2.23,0,1,0,1.84-2.56A2.23,2.23,0,0,0,134.88,111.62Z"/><path class="cls-19" d="M136.83,109.72a.58.58,0,0,0,.66.47.58.58,0,0,0,.48-.66.58.58,0,0,0-1.14.19Z"/><path class="cls-22" d="M147.65,114.67,125.44,114S131.59,124,147.65,114.67Z"/><path class="cls-16" d="M128.77,114.09c3.71,2.2,15.52.55,15.52.55l-.8-.1Z"/><path class="cls-23" d="M155,116.87c.25-7.47-4-15.16-4-15.16s-4.53,7.69-4.28,15.16c-3.13,7.39-4.39,15.8,2.49,20.6a2.78,2.78,0,0,0,1.64.57h.07a2.78,2.78,0,0,0,1.64-.57C159.37,132.67,158.11,124.26,155,116.87Z"/><path class="cls-18" d="M138.44,87.53S67.75,82.47,137.17,46c-5.64,14.8,36.12-16.46,51.49,28.41C183,83.61,163.23,90.88,138.44,87.53Z"/><path class="cls-24" d="M139.79,146.17c0-3.66,5-.82,11.09-.81s11.09-2.83,11.09.84-5,10-11.1,10S139.79,149.84,139.79,146.17Z"/><path class="cls-9" d="M235.15,616c-9.49-38.91-8.21-216.23-8.21-216.23L218,280.08a121.87,121.87,0,0,1,13.65,33.59l0,.06c5.26,3.72,11,5.14,17.35,5.24,4.26-1.46,5.79-8,9.13-10.88-2.84-39.07-19-75.43-27.77-95.82-10.57-24.7-49.53-28.67-49.53-28.67l-4.29-1.19L164.81,192l-8.71,4.44h-6.21L137,195.18h-6.63L127.17,192l-8.67-9.71c-3.38,1-10.83,2.43-21.66,5.64-32.51,9.63-37.4,53-44.52,99.3-2,13.33,17.31,19.73,26.94,12.53,0,0,.2-10.87,2.18-5,2.24-21.7,7.83-31.08,7.83-31.08s-1.26,25.06-2,35S93.4,394.25,90,400.06,89.52,510,89.52,510s-4.09,114-3.47,132c.6,17.72,152.5,13.1,149.46-23.78A14.9,14.9,0,0,0,235.15,616Z"/><path class="cls-10" d="M85.59,642C85,623.9,89.07,510,89.07,510s-3-104.09.46-109.89-3.37-91.55-2.67-101.45,2-35,2-35-5,6,3.23-6.7c8.48,5.32,9.78,35,11.06,44.78a416.3,416.3,0,0,1,3.28,49c.45,33.41-2,66.76-3.42,100.13-1.62,38.47-1.44,78.43,14.43,113.52s51.48,64,89.81,60.32c9.52-.93,18.68-3.74,27.85-6.52C238.1,655.08,86.2,659.7,85.59,642Z"/><polygon class="cls-10" points="150.48 194.64 137.43 205.74 121.85 181.4 134 177.32 150.48 194.64"/><polygon class="cls-10" points="150.48 194.64 161.97 205.63 182.2 181.97 165.57 177.45 150.48 194.64"/><path class="cls-25" d="M276.92,175a.52.52,0,0,0,.33.64.5.5,0,0,0,.63-.32h0l3.4-10.66A.5.5,0,0,0,281,164h0a.51.51,0,0,0-.64.32Z"/><path class="cls-25" d="M270.16,173.14a.51.51,0,0,0,1,.31L275.75,159a.51.51,0,0,0-.34-.63.48.48,0,0,0-.62.31v0Z"/><path class="cls-26" d="M258.28,222.89l8.91-29-6.2-7a9.81,9.81,0,0,1-2.36-4.52c-.36-1.3-2.87-9.17-2.86-9.92,0-2,2.68-1.92,3.77-1.63,2,.54,4.23,4.19,5.54,7.47.48,1.23,2.12,2.29,2.41,1.46L274.18,157c1-3.49,2.34-3.81,3.54-3.53a2.67,2.67,0,0,1,2.38,2.1,18.68,18.68,0,0,1-.25,6.5s1.4-7.2,4.92-6.07,1.56,6.34,1.25,8.27c-.2,1.21.74-2.51,2.53-3.81a2.63,2.63,0,0,1,2.85.35c2.72,2,.09,8.43.09,8.43s1.17-2.85,2.69-3.07a2.8,2.8,0,0,1,2.6,2,6.42,6.42,0,0,1-.16,5.22l-10.14,24.91-6.32,31.37Z"/><path class="cls-27" d="M287.94,178.41a.51.51,0,0,0,1,.31L292.3,168a.52.52,0,0,0-.32-.64.5.5,0,0,0-.63.32v0Z"/><path class="cls-27" d="M281.18,176.53a.51.51,0,0,0,.33.63.49.49,0,0,0,.63-.31v0l4.62-14.46a.51.51,0,0,0-.33-.63.51.51,0,0,0-.64.32Z"/><path class="cls-27" d="M274.67,175.06a.51.51,0,0,0,.19.69.51.51,0,0,0,.69-.18.49.49,0,0,0,.07-.19l5.48-16.79a.51.51,0,0,0-.88-.5.58.58,0,0,0-.06.17Z"/><path class="cls-9" d="M221.62,199.3,263.5,302s-19.65,24.4-28.45,22c-7.43-2.05-13-19.26-16-26.33-6.08-14-10.51-39.53-10.51-39.53Z"/><path class="cls-9" d="M263,201.22S205.21,328.3,242,326c6.42-.4,29.63-12.4,44.78-115.77C276.1,203.17,263,201.22,263,201.22Z"/><path class="cls-25" d="M19.3,164.36a.51.51,0,0,0-.64-.32h0a.5.5,0,0,0-.31.63l3.4,10.66h0a.5.5,0,0,0,.63.32.52.52,0,0,0,.33-.64Z"/><path class="cls-25" d="M24.84,158.68v0a.5.5,0,0,0-.63-.31.51.51,0,0,0-.33.63l4.62,14.47a.51.51,0,0,0,.63.33.51.51,0,0,0,.33-.64Z"/><path class="cls-26" d="M19.46,229.61l-6.33-31.37L3,173.33a6.5,6.5,0,0,1-.16-5.22,2.8,2.8,0,0,1,2.6-2c1.52.22,2.7,3.07,2.7,3.07s-2.63-6.45.09-8.43a2.61,2.61,0,0,1,2.84-.35c1.8,1.3,2.74,5,2.54,3.81-.31-1.93-2.27-7.14,1.25-8.27S19.76,162,19.76,162a18.92,18.92,0,0,1-.25-6.5,2.68,2.68,0,0,1,2.38-2.1c1.21-.28,2.51,0,3.55,3.53l6.69,22.76c.29.83,1.93-.23,2.41-1.46,1.3-3.28,3.52-6.93,5.53-7.47,1.09-.29,3.77-.36,3.77,1.63,0,.75-2.5,8.62-2.85,9.92a9.9,9.9,0,0,1-2.36,4.52l-6.2,7,8.91,29Z"/><path class="cls-27" d="M8.27,167.73v0a.5.5,0,1,0-.95.32l3.39,10.69a.51.51,0,0,0,.64.32.51.51,0,0,0,.33-.63Z"/><path class="cls-27" d="M13.82,162.06a.51.51,0,0,0-.64-.32.51.51,0,0,0-.33.63l4.62,14.46v0a.5.5,0,0,0,.63.31.5.5,0,0,0,.33-.63Z"/><path class="cls-27" d="M19.45,158.26a.55.55,0,0,0-.05-.17.51.51,0,0,0-.89.5L24,175.38a.7.7,0,0,0,.06.19.51.51,0,0,0,.69.18.5.5,0,0,0,.19-.69Z"/><path class="cls-9" d="M78,199.3,36.12,302s19.64,24.4,28.45,22c7.43-2.05,13-19.26,16-26.33,6.08-14,10.5-39.53,10.5-39.53Z"/><path class="cls-9" d="M36.63,201.22S94.4,328.3,57.61,326c-6.43-.4-29.63-12.4-44.78-115.77C23.52,203.17,36.63,201.22,36.63,201.22Z"/></g></svg>