<svg xmlns="http://www.w3.org/2000/svg" viewBox="0 0 300.52 821.26"><defs><style>.cls-1{fill:#0e131a;}.cls-2{fill:#866c57;}.cls-3{fill:#9e8979;}.cls-4{fill:#474849;}.cls-5{fill:#655141;}.cls-6{fill:#43362c;}.cls-7{fill:#b6a79a;}.cls-8{fill:#414042;}.cls-9{fill:#f7e88f;}.cls-10{fill:#f2d453;}.cls-11{fill:#fcae88;}.cls-12{fill:#b06d4d;opacity:0.32;}.cls-13{fill:#f8ba8c;}.cls-14{fill:#1e3144;}.cls-15{fill:#fff;}.cls-16{fill:#db7269;}.cls-17{fill:#ffc5b6;}</style></defs><g id="OBJECT"><g id="doctor"><polygon class="cls-1" points="201.35 756.89 202.73 723.68 184.85 723.68 183.47 756.89 201.35 756.89"/><path class="cls-2" d="M253.64,773.14H172.72s-1.88-6.78-.95-11.09c.35-1.68,1.14-3,2.62-3.37,0-5.28,2.5-16.13,10.28-17.52h0c0,.38-1.42,11.23,15.3,0,4.16-2.79,27.73,21.11,45.05,20.85,4-.06,6.35,4,7.54,7.26A24.47,24.47,0,0,1,253.64,773.14Z"/><path class="cls-3" d="M184.67,741.05c-.24.33-9.17,12.9-5.33,22.37a22.3,22.3,0,0,1-7.57-1.49c.35-1.67,1.14-3,2.62-3.36,0-5.29,2.5-16.13,10.28-17.52Z"/><rect class="cls-4" x="172.45" y="773.14" width="81.25" height="2.12"/><path class="cls-5" d="M253.64,773.14H172.72s-3.62-13.07,1.67-14.46c0,0,49.43,19.76,78.17,10.59A24.47,24.47,0,0,1,253.64,773.14Z"/><path class="cls-6" d="M210.9,751.09a1.81,1.81,0,1,1-1.8-1.81A1.8,1.8,0,0,1,210.9,751.09Z"/><path class="cls-6" d="M216.79,754.29a1.81,1.81,0,1,1-1.81-1.81A1.81,1.81,0,0,1,216.79,754.29Z"/><path class="cls-6" d="M222.68,757.49a1.81,1.81,0,1,1-1.81-1.81A1.81,1.81,0,0,1,222.68,757.49Z"/><path class="cls-7" d="M246.92,764.13c0,.68-1.37,1.24-3.06,1.24s-3.06-.56-3.06-1.24,1.37-1.24,3.06-1.24S246.92,763.44,246.92,764.13Z"/><polygon class="cls-1" points="107.26 756.89 105.88 723.68 123.75 723.68 125.14 756.89 107.26 756.89"/><path class="cls-2" d="M55,773.14h80.92s1.88-6.78,1-11.09c-.35-1.68-1.14-3-2.62-3.37,0-5.28-2.5-16.13-10.28-17.52h0c0,.38,1.42,11.23-15.3,0-4.16-2.79-27.73,21.11-45,20.85-4.05-.06-6.35,4-7.54,7.26A24.47,24.47,0,0,0,55,773.14Z"/><path class="cls-3" d="M123.94,741.05c.24.33,9.17,12.9,5.33,22.37a22.3,22.3,0,0,0,7.57-1.49c-.35-1.67-1.14-3-2.62-3.36,0-5.29-2.5-16.13-10.28-17.52Z"/><rect class="cls-4" x="54.47" y="773.14" width="81.25" height="2.12"/><path class="cls-5" d="M55,773.14h80.92s3.62-13.07-1.67-14.46c0,0-49.44,19.76-78.17,10.59A24.47,24.47,0,0,0,55,773.14Z"/><path class="cls-6" d="M97.71,751.09a1.81,1.81,0,1,0,1.8-1.81A1.8,1.8,0,0,0,97.71,751.09Z"/><path class="cls-6" d="M91.82,754.29a1.81,1.81,0,1,0,1.81-1.81A1.81,1.81,0,0,0,91.82,754.29Z"/><path class="cls-6" d="M85.93,757.49a1.81,1.81,0,1,0,1.81-1.81A1.81,1.81,0,0,0,85.93,757.49Z"/><path class="cls-7" d="M61.69,764.13c0,.68,1.37,1.24,3.06,1.24s3.06-.56,3.06-1.24-1.37-1.24-3.06-1.24S61.69,763.44,61.69,764.13Z"/><path class="cls-8" d="M88.3,395.16l9.48,346.19h37.95c6.67-146.07,14.2-288.06,14.2-288.06s2.47,117.23,23.87,288.06h35.39l4.4-346.19Z"/></g><path class="cls-9" d="M214.27,401.62c-20.33,15.45-102.3,13.13-124.5-.92-7.44-16.23-3.22-140.79-3.22-140.79S69,204.54,74.1,198.79c10.32-11.69,70.69-24.22,70.69-24.22s64.23,14.18,71.26,24.22c3.41,4.88-5.71,50.08-3.15,98.89C215.62,349.35,218.48,383.84,214.27,401.62Z"/><path class="cls-9" d="M226.28,212.27c-10.56-24.7-49.52-28.67-49.52-28.67l-4.29-1.19L160.68,192,152,196.41h-6.21l-12.93-1.23H126.2L123,192l-9.9-10c-3.37,1-9.59,2.81-20.43,6-36.78,10.62-37.4,53-44.52,99.3-2,13.33,3.2,36.5,4.57,39.34,2.38,4.95,10.92,13.89,14.22,12.75,5.25-1.8,8.17-3.78,8.09-12.11-.07-8.67,2.52-17.74,3.32-25.53v0a258.21,258.21,0,0,1,6.75-38s-1.26,25.06-2,35,6.09,95.64,2.67,101.45S85.39,510,85.39,510s-4.09,114-3.48,132c.61,17.72,152.51,13.1,149.47-23.78A13.77,13.77,0,0,0,231,616c-9.49-38.91-8.2-216.23-8.2-216.23L213.9,280.08a121.7,121.7,0,0,1,13.66,33.59c1.47,6.22,2,15,2.11,24l.53-.11a23.14,23.14,0,0,1,6-.08c1.09-1,4.42-3.48,4.21-1.85s1.38,1.27,1.61,1.22c3.83-4.39,8.5-6,14.2-15.94C256,279,235.73,234.31,226.28,212.27Z"/><path class="cls-10" d="M81.46,642c-.61-18.08,3.48-132,3.48-132s-3-104.09.46-109.89S82,308.51,82.73,298.61s2-35,2-35a259.09,259.09,0,0,0-6.74,38c-.27-16.38,1.75-32,10-44.68,8.48,5.32,9.77,35,11.06,44.78a418.45,418.45,0,0,1,3.28,49c.45,33.41-2,66.76-3.42,100.13-1.62,38.47-1.44,78.43,14.42,113.52s51.49,64,89.82,60.32c9.51-.93,18.67-3.74,27.84-6.52C234,655.08,82.07,659.7,81.46,642Z"/><rect class="cls-11" x="130.06" y="158.47" width="30.38" height="36.74"/><path class="cls-12" d="M130.06,158.47V174a25.7,25.7,0,0,0,30.38,0V158.47Z"/><path class="cls-13" d="M242.71,457.72c2-7.12-8-33.05-14-32.9C223.7,425,215.66,445,216,454.5c1.94,1.09,3.37,4.92,4.16,6.78S240.73,464.85,242.71,457.72Z"/><path class="cls-13" d="M227.2,482c-.42-5.18-.89-13.32-.74-20.43a15.84,15.84,0,0,0,4.82-1c1,6.6,1.45,15,1.74,20,.41,7.33-.6,11.07-2.55,11.32C228.8,492.15,227.72,488.72,227.2,482Z"/><path class="cls-13" d="M234.28,479.24c-.72-4.83-1.69-12.44-2-19.1a19.81,19.81,0,0,0,5.11-1.38c1.43,6.14,1.89,14.29,2.47,19,.86,6.84.09,10.37-1.8,10.66C236.47,488.68,235.21,485.5,234.28,479.24Z"/><path class="cls-13" d="M240.08,474.59c-.62-4.12-1.45-10.62-1.69-16.3a16.34,16.34,0,0,0,4.37-1.18c1.22,5.25,1.6,12.19,2.11,16.22.73,5.84.07,8.85-1.54,9.1C242,482.65,240.87,479.94,240.08,474.59Z"/><path class="cls-13" d="M219.45,479.69c.09-4.88.14-14.33,1-20.94,1.62.14,4,1.6,5.53,1.26.39,6.3-.51,14.4-.71,19.16-.29,6.89-1.63,10.24-3.54,10.22C220.05,489.37,219.33,486,219.45,479.69Z"/><path class="cls-13" d="M208.27,452.64c3.82-3,7.17-13.75,12.93-17.1.88,1.38,5.28,8.1,6.49,9.12-4.78,4.13-10.37,9-14.27,11.74-5.66,3.94-10.28,2.42-11.41.89C201,456,206.34,454.18,208.27,452.64Z"/><path class="cls-9" d="M240.38,437.52l-21.3-2.69s12.52-94.52,6.72-122.45c-6.42-30.95-29.71-61.6-29.71-61.6s-1.28-61.71,15.19-55.65,41.09,74.7,45.78,117.74C260.68,346.08,240.38,437.52,240.38,437.52Z"/><path class="cls-13" d="M70.35,458.91c-2.54-7,5.26-33.6,11.29-33.93,5-.28,14.64,19.09,15.1,28.55-1.85,1.25-3,5.18-3.61,7.1S72.91,465.85,70.35,458.91Z"/><path class="cls-13" d="M87.78,481.88c0-5.2-.19-13.35-.91-20.42a16.13,16.13,0,0,1-4.9-.63c-.5,6.66-.23,15.06-.11,20.11.18,7.33,1.5,11,3.46,11.08C87,492.1,87.8,488.59,87.78,481.88Z"/><path class="cls-13" d="M80.5,479.67c.32-4.87.67-12.53.42-19.2a19.82,19.82,0,0,1-5.21-1c-.93,6.24-.72,14.39-.93,19.14-.3,6.89.75,10.35,2.65,10.49C79.07,489.26,80.07,486,80.5,479.67Z"/><path class="cls-13" d="M74.34,475.51c.28-4.16.58-10.7.37-16.39a16.42,16.42,0,0,1-4.46-.82c-.78,5.33-.61,12.28-.78,16.34-.26,5.88.64,8.83,2.26,8.95C73.13,483.69,74,480.9,74.34,475.51Z"/><path class="cls-13" d="M95.32,478.93c-.49-4.86-1.3-14.28-2.66-20.8-1.6.27-3.84,1.91-5.41,1.7.13,6.31,1.67,14.32,2.26,19,.84,6.84,2.45,10.08,4.35,9.9C95.5,488.61,95.94,485.23,95.32,478.93Z"/><path class="cls-13" d="M104.27,451.06c-4.06-2.72-8.26-13.13-14.28-16-.75,1.44-4.6,8.5-5.72,9.61,5.09,3.73,11.07,8.16,15.17,10.55,6,3.47,10.44,1.59,11.45,0C111.76,453.79,106.32,452.44,104.27,451.06Z"/><path class="cls-9" d="M71,438.61l21-4.22s-17.32-90-14.07-118.28c3.59-31.3,19.75-65.33,19.75-65.33s-5.1-62.78-21-55.56S43.81,272.34,43,315.57C42.43,348.93,71,438.61,71,438.61Z"/><polygon class="cls-10" points="145.42 194.64 132.37 205.74 116.79 181.4 128.95 177.32 145.42 194.64"/><polygon class="cls-10" points="145.42 194.64 156.91 205.63 177.14 181.97 160.51 177.45 145.42 194.64"/><path class="cls-11" d="M180.65,120.14s2.78-6.32,6.12-4.53-2.38,27.64-6.31,24.16S180.65,120.14,180.65,120.14Z"/><path class="cls-11" d="M112.47,120.14s-2.78-6.32-6.12-4.53,2.39,27.64,6.32,24.16S112.47,120.14,112.47,120.14Z"/><path class="cls-11" d="M146.75,173.94h0a19.05,19.05,0,0,1-14.13-6.43c-7.83-8.68-20.44-24.16-20.44-33.82L110,96.44c0-20.38,17.62-33.37,36.71-33.37h0c11.83,0,23.09,4.89,29.95,13.46a30.93,30.93,0,0,1,6.76,19.66l-2.14,37.5c0,9.66-12.62,25.14-20.45,33.82A19,19,0,0,1,146.75,173.94Z"/><path class="cls-14" d="M187.67,61.58a45.23,45.23,0,0,0-4.75-7.43c-6.3-8-15.66-13.77-25.8-14.81-7.69-.78-15.39,1.09-22.79,3.32-4.23,1.28-8.5,2.72-12.1,5.28s-6.51,6.45-6.91,10.85a7.59,7.59,0,0,0-6.25,3A18.23,18.23,0,0,0,106,68.29a66.66,66.66,0,0,0-2.29,10.85,68,68,0,0,0,.68,21.25c1.22,6.35,3.88,12,5.27,18.36,1,4.7,2.62,10,2.52,14.85,0,0,.33-15.72.33-15.74.07-3.42-.07-6.84,0-10.26a37.8,37.8,0,0,1,.13-4.39c.2-1.56,1-2.09,2-3.19,1.24-1.35,1.52-3.29,1.75-5.11q1.17-9.24,2.35-18.5c5.91,4,11,8.76,16.24,13.54a44.2,44.2,0,0,0,7,4.58,28.5,28.5,0,0,0,9,3.6,6.79,6.79,0,0,0,4.93-.49c1.43-.92,2-3.2.76-4.33,3.77,1.84,7.64,3.7,11.81,4.16s8.77-.73,11.33-4c1.87,7.79,1.54,16.45,1.23,24.44l.33,15.74A65.06,65.06,0,0,1,183,122.94c2.32-11.54,4.25-23,6-34.69,1.3.8,3.1-.06,3.84-1.39a7.85,7.85,0,0,0,.58-4.46A55.24,55.24,0,0,0,187.67,61.58Z"/><path class="cls-12" d="M151.43,139.7a21.64,21.64,0,0,1-5,1.39,21.62,21.62,0,0,1-5-1.39c-2.06-1-3.83-1.5-3.78-.87s4.76,5.88,8.78,5.88,8.74-5.25,8.78-5.88S153.49,138.73,151.43,139.7Z"/><path class="cls-14" d="M129.71,123.51c5.56,0,5.57-8.65,0-8.65s-5.57,8.65,0,8.65Z"/><path class="cls-15" d="M132.21,118.16a1.33,1.33,0,1,1-1.33-1.34A1.33,1.33,0,0,1,132.21,118.16Z"/><path class="cls-14" d="M123.55,118.34c4.12-2.85,8.35-.67,12.68.06.48.08,1-.54.54-.92-3.76-3-11-4.7-13.31.77,0,0,0,.13.09.09Z"/><path class="cls-14" d="M162.89,123.51c-5.56,0-5.57-8.65,0-8.65s5.57,8.65,0,8.65Z"/><path class="cls-15" d="M160.38,118.16a1.34,1.34,0,1,0,1.33-1.34A1.34,1.34,0,0,0,160.38,118.16Z"/><path class="cls-14" d="M169.13,118.25c-2.34-5.47-9.55-3.75-13.31-.77-.48.38.06,1,.54.92,4.33-.73,8.57-2.91,12.68-.06.06,0,.11,0,.09-.09Z"/><path class="cls-14" d="M117.42,103.84a34,34,0,0,1,11.81-.15c2.81.44,5.6,1.84,8.42,1.62a1,1,0,0,0,.7-1.71c-4.84-5.3-15.45-2.73-21.1-.39a.33.33,0,0,0,.17.63Z"/><path class="cls-14" d="M176.25,103.21c-5.66-2.35-16.26-4.91-21.11.39a1,1,0,0,0,.71,1.71c2.79.22,5.63-1.19,8.41-1.62a33.7,33.7,0,0,1,11.81.15.33.33,0,0,0,.18-.63Z"/><path class="cls-16" d="M136,149.86c1.87.43,3.59.81,5.31,1a38.64,38.64,0,0,0,5.12.4,36.94,36.94,0,0,0,5.13-.29c1.73-.2,3.46-.54,5.34-.92a12.11,12.11,0,0,1-4.79,3.12,16.19,16.19,0,0,1-11.39-.13A12.15,12.15,0,0,1,136,149.86Z"/><path class="cls-17" d="M146.54,124.82c-.56,2.56-.14,5,.21,7.57.27,2,.19,4.44,1.37,6.12a.77.77,0,0,0,1.4-.18c.57-2-.23-4.25-.57-6.24-.42-2.55-.68-5-1.88-7.34a.29.29,0,0,0-.53.07Z"/></g></svg>