<svg xmlns="http://www.w3.org/2000/svg" xmlns:xlink="http://www.w3.org/1999/xlink" viewBox="0 0 300.52 821.26"><defs><style>.cls-1{isolation:isolate;}.cls-2{fill:#2b96f4;}.cls-3{fill:#0071d6;}.cls-4{fill:#ddcfc9;mix-blend-mode:multiply;}.cls-5{fill:#0e131a;}.cls-6{fill:#866c57;}.cls-7{fill:#9e8979;}.cls-8{fill:#474849;}.cls-9{fill:#655141;}.cls-10{fill:#43362c;}.cls-11{fill:#b6a79a;}.cls-12{fill:#414042;}.cls-13{fill:#fcae88;}.cls-14{fill:#b06d4d;opacity:0.32;}.cls-15{fill:#36200b;}.cls-16{fill:#f09261;}.cls-17{fill:url(#linear-gradient);}.cls-18{fill:#f28a83;opacity:0.3;}.cls-19{fill:url(#linear-gradient-2);}.cls-20{fill:#482b0e;}.cls-21{fill:#fff;}.cls-22{fill:#603913;}.cls-23{fill:#231f20;}.cls-24{fill:#fba983;}.cls-25{fill:url(#linear-gradient-3);}.cls-26{fill:#f1f2f2;}.cls-27,.cls-28,.cls-29{fill:none;stroke:#fff;stroke-linecap:round;stroke-linejoin:round;}.cls-27{stroke-width:2.33px;}.cls-28{stroke-width:1.94px;}.cls-29{stroke-width:0.93px;}</style><linearGradient id="linear-gradient" x1="137.22" y1="85.46" x2="149.17" y2="119.77" gradientUnits="userSpaceOnUse"><stop offset="0" stop-color="#f47b54"/><stop offset="0.17" stop-color="#f68a64"/><stop offset="0.44" stop-color="#fa9e78"/><stop offset="0.72" stop-color="#fbaa84"/><stop offset="1" stop-color="#fcae88"/></linearGradient><linearGradient id="linear-gradient-2" x1="158.17" y1="176.27" x2="148.28" y2="123.06" gradientUnits="userSpaceOnUse"><stop offset="0" stop-color="#36200b"/><stop offset="0.05" stop-color="#38210b"/><stop offset="0.53" stop-color="#44290d"/><stop offset="1" stop-color="#482b0e"/></linearGradient><linearGradient id="linear-gradient-3" x1="148.06" y1="132.83" x2="148.77" y2="109.41" gradientUnits="userSpaceOnUse"><stop offset="0" stop-color="#f47b54"/><stop offset="0.06" stop-color="#f68760"/><stop offset="0.13" stop-color="#f89069"/><stop offset="0.24" stop-color="#f8936c"/><stop offset="1" stop-color="#fcae88"/></linearGradient></defs><g class="cls-1"><g id="OBJECT"><polygon class="cls-2" points="76.22 199.3 44.92 303.17 75.64 315.04 95.71 259.92 76.22 199.3"/><polygon class="cls-3" points="88.54 279.61 80.4 301.97 85.43 242.1 88.54 279.61"/><polygon class="cls-2" points="219.21 199.3 250.57 300.2 227.86 315.89 205.27 261.43 219.21 199.3"/><polygon class="cls-3" points="213.9 282.24 222.46 302.88 213.9 242.75 213.9 282.24"/><path class="cls-4" d="M158.84,400.76c-27.82,1-49.85-13.07-54.26-27.67s-3.15-77.3-5.06-104.75c-1.33-18.95-8.4-34-20.84-45.89C82.62,239.72,89,259.91,89,259.91S84.79,384.47,92.23,400.7c16.11,10.19,66.19,12.74,100.22,7.45C180.81,407.66,170,400.36,158.84,400.76Z"/><g id="doctor"><polygon class="cls-5" points="203.81 756.89 205.19 723.68 187.31 723.68 185.94 756.89 203.81 756.89"/><path class="cls-6" d="M256.1,773.14H175.18s-1.88-6.78-1-11.09c.36-1.68,1.14-3,2.62-3.37,0-5.28,2.5-16.13,10.28-17.52h0c0,.38-1.42,11.23,15.3,0,4.16-2.79,27.73,21.11,45,20.85,4.05-.06,6.35,4,7.54,7.26A24.47,24.47,0,0,1,256.1,773.14Z"/><path class="cls-7" d="M187.13,741.05c-.23.33-9.17,12.9-5.33,22.37a22.3,22.3,0,0,1-7.57-1.49c.36-1.67,1.14-3,2.62-3.36,0-5.29,2.5-16.13,10.28-17.52Z"/><rect class="cls-8" x="174.92" y="773.14" width="81.25" height="2.12"/><path class="cls-9" d="M256.1,773.14H175.18s-3.62-13.07,1.67-14.46c0,0,49.44,19.76,78.17,10.59A24.47,24.47,0,0,1,256.1,773.14Z"/><path class="cls-10" d="M213.37,751.09a1.81,1.81,0,1,1-1.81-1.81A1.81,1.81,0,0,1,213.37,751.09Z"/><path class="cls-10" d="M219.25,754.29a1.81,1.81,0,1,1-1.81-1.81A1.81,1.81,0,0,1,219.25,754.29Z"/><path class="cls-10" d="M225.14,757.49a1.81,1.81,0,1,1-1.8-1.81A1.81,1.81,0,0,1,225.14,757.49Z"/><path class="cls-11" d="M249.38,764.13c0,.68-1.37,1.24-3.06,1.24s-3.06-.56-3.06-1.24,1.37-1.24,3.06-1.24S249.38,763.44,249.38,764.13Z"/><polygon class="cls-5" points="109.72 756.89 108.34 723.68 126.22 723.68 127.6 756.89 109.72 756.89"/><path class="cls-6" d="M57.43,773.14h80.92s1.88-6.78,1-11.09c-.35-1.68-1.13-3-2.62-3.37,0-5.28-2.5-16.13-10.28-17.52h0c0,.38,1.42,11.23-15.3,0-4.16-2.79-27.73,21.11-45,20.85-4-.06-6.35,4-7.54,7.26A24.47,24.47,0,0,0,57.43,773.14Z"/><path class="cls-7" d="M126.4,741.05c.24.33,9.17,12.9,5.33,22.37a22.3,22.3,0,0,0,7.57-1.49c-.35-1.67-1.13-3-2.62-3.36,0-5.29-2.5-16.13-10.28-17.52Z"/><rect class="cls-8" x="56.93" y="773.14" width="81.25" height="2.12"/><path class="cls-9" d="M57.43,773.14h80.92s3.62-13.07-1.67-14.46c0,0-49.43,19.76-78.17,10.59A24.47,24.47,0,0,0,57.43,773.14Z"/><path class="cls-10" d="M100.17,751.09a1.81,1.81,0,1,0,1.8-1.81A1.8,1.8,0,0,0,100.17,751.09Z"/><path class="cls-10" d="M94.28,754.29a1.81,1.81,0,1,0,1.81-1.81A1.81,1.81,0,0,0,94.28,754.29Z"/><path class="cls-10" d="M88.39,757.49a1.81,1.81,0,1,0,1.81-1.81A1.81,1.81,0,0,0,88.39,757.49Z"/><path class="cls-11" d="M64.15,764.13c0,.68,1.37,1.24,3.06,1.24s3.06-.56,3.06-1.24-1.37-1.24-3.06-1.24S64.15,763.44,64.15,764.13Z"/><path class="cls-12" d="M90.76,395.16l9.48,346.19h38c6.67-146.07,14.2-288.06,14.2-288.06s2.47,117.23,23.87,288.06h35.39l4.4-346.19Z"/></g><path class="cls-2" d="M216.73,401.62c-20.33,15.45-102.3,13.13-124.5-.92C84.79,384.47,89,259.91,89,259.91s-17.53-55.37-12.45-61.12c10.32-11.69,70.69-24.22,70.69-24.22s64.23,14.18,71.26,24.22c3.41,4.88-5.71,50.08-3.15,98.89C218.08,349.35,220.94,383.84,216.73,401.62Z"/><rect class="cls-13" x="132.52" y="158.47" width="30.38" height="36.74"/><path class="cls-14" d="M132.52,158.47V174a25.7,25.7,0,0,0,30.38,0V158.47Z"/><polygon class="cls-3" points="147.88 194.64 134.83 205.74 119.25 181.4 131.41 177.32 147.88 194.64"/><polygon class="cls-3" points="147.88 194.64 159.37 205.63 179.6 181.97 162.97 177.45 147.88 194.64"/><path class="cls-15" d="M168.66,67.67s17.62,5,20.09,9c5.3,8.76-6.38,40.44-6.38,40.44Z"/><path class="cls-15" d="M114.07,114.64s-9.83-27.49-6.29-35.88c2.92-6.94,24.88-17,24.88-17l11.6,15.34Z"/><path class="cls-13" d="M189.92,124.17a6.52,6.52,0,0,1-8.41,3.76h0a6.52,6.52,0,0,1-3.76-8.41l3.36-8.78a6.52,6.52,0,0,1,8.41-3.76h0a6.52,6.52,0,0,1,3.75,8.41Z"/><path class="cls-16" d="M183.34,114.56s13.75-5.78,2.17,9.4C185.51,121.07,192.75,115.29,183.34,114.56Z"/><path class="cls-13" d="M107,124.17a6.52,6.52,0,0,0,8.41,3.76h0a6.51,6.51,0,0,0,3.75-8.41l-3.36-8.78a6.51,6.51,0,0,0-8.4-3.76h0a6.52,6.52,0,0,0-3.76,8.41Z"/><path class="cls-16" d="M113.57,114.56s-13.74-5.78-2.17,9.4C111.4,121.07,104.17,115.29,113.57,114.56Z"/><path class="cls-17" d="M182.39,117.11a86.58,86.58,0,0,1-2.17,19.46h0c-.32,1.47-.71,2.89-1.11,4.29-.35,1.18-.72,2.33-1.12,3.45-5.85,16.83-17,28.19-29.74,28.19-12.54,0-23.52-11-29.45-27.35-.5-1.4-1-2.82-1.4-4.29s-.78-2.81-1.12-4.27v0a86.57,86.57,0,0,1-2.18-19.46c0-2.5.11-5,.31-7.37,0-.15,0-.22,0-.22,2.29-27,16.57-47.78,33.83-47.78s31.65,20.92,33.85,48.05C182.28,112.18,182.39,114.63,182.39,117.11Z"/><path class="cls-18" d="M182.37,117.11a87.16,87.16,0,0,1-2.17,19.46h0c-.33,1.47-.71,2.89-1.12,4.29-.31,1.07-.65,2.12-1,3.14,0,.1-.07.21-.11.32-5.85,16.82-17,28.19-29.74,28.19-7.62,0-14.66-4.06-20.35-10.91,59.3-14.52,47.35-77.77,42.57-77.48-26.18,1.61-39.35-2.69-43.72-10,5.87-7.73,13.35-12.35,21.5-12.35,16.54,0,30.33,19.07,33.47,44.4.15,1.2.28,2.41.38,3.65C182.26,112.18,182.37,114.63,182.37,117.11Z"/><path class="cls-19" d="M181.69,106.17s-.49,40.05-6.23,35.73c-13-9.8-44-11.62-55.06.29-5.18,5.58-5.74-35.38-5.74-35.38-3.46,6.67-.54,29.55-.54,29.55h0c1.26,12.22,7.07,36.57,33.24,37h.71c25.26-.39,31.48-23.39,33-35.9h0S184.82,112.15,181.69,106.17Z"/><path class="cls-20" d="M158,91.6v2.58h-1.41V91.34L152,90.51s-1.29,6,0,7.34c3.55,3.57,20.05,0,20.05,0V94.18Z"/><path class="cls-20" d="M138.18,90.89v2.59h1.41V90.63l4.5-.82s1.29,6,0,7.33c-3.54,3.57-20,0-20,0V93.48Z"/><path class="cls-13" d="M172.21,110.79c-.11-.23-.21-.44-.32-.65h0C172,110.34,172.1,110.56,172.21,110.79Z"/><path class="cls-21" d="M172.05,110.45l-.16-.31,0,.34-.77,5.38a14.79,14.79,0,0,1-15.42.21l.19-4h0a23.15,23.15,0,0,0,1.41-2.09h0c.14-.22.29-.44.44-.66s.34-.49.52-.73l.2-.28.21-.27c.35-.45.72-.89,1.1-1.3l.47-.47q.24-.24.48-.45l.25-.21.25-.21.25-.19c.17-.13.34-.24.51-.35a6.85,6.85,0,0,1,.79-.44l.25-.11a5.37,5.37,0,0,1,.56-.21l.28-.08.16,0,.15,0a4.52,4.52,0,0,1,1.6,0l.52.13a6.51,6.51,0,0,1,2.69,1.74,10.69,10.69,0,0,1,.82.92,19.87,19.87,0,0,1,2,3.17c0,.08.09.16.13.25S172,110.35,172.05,110.45Z"/><path class="cls-20" d="M171.89,110.14l0,.34c-6.8-11.55-14.59-.5-14.59-.5v0h0c.14-.22.29-.44.44-.66s.34-.49.52-.73l.2-.28.21-.27c.35-.45.72-.89,1.1-1.3l.47-.47q.24-.24.48-.45l.25-.21.25-.21.25-.19c.17-.13.34-.24.51-.35a6.85,6.85,0,0,1,.79-.44l.25-.11a5.37,5.37,0,0,1,.56-.21l.28-.08.16,0,.15,0a4.52,4.52,0,0,1,1.6,0l.52.13a6.51,6.51,0,0,1,2.69,1.74,10.69,10.69,0,0,1,.82.92,19.87,19.87,0,0,1,2,3.17A2,2,0,0,1,171.89,110.14Z"/><path class="cls-22" d="M168,112.09a4.76,4.76,0,1,1-3.93-5.46A4.78,4.78,0,0,1,168,112.09Z"/><path class="cls-20" d="M166.86,108.16a4.69,4.69,0,0,1,.56,3.12A4.75,4.75,0,0,1,162,115.2a4.69,4.69,0,0,1-2.78-1.53,4.75,4.75,0,1,0,7.68-5.51Z"/><path class="cls-23" d="M165.06,111.62a2.23,2.23,0,1,1-1.84-2.56A2.23,2.23,0,0,1,165.06,111.62Z"/><path class="cls-21" d="M163.11,109.72a.58.58,0,0,1-.66.47.57.57,0,1,1,.19-1.13A.57.57,0,0,1,163.11,109.72Z"/><path class="cls-24" d="M152.29,114.67,174.5,114S168.34,124,152.29,114.67Z"/><path class="cls-18" d="M171.17,114.09c-3.71,2.2-15.52.55-15.52.55l.8-.1Z"/><path class="cls-21" d="M125.29,110.45c.06-.1.11-.21.16-.31l0,.34.78,5.38a14.77,14.77,0,0,0,15.41.21l0-4h0A5,5,0,0,1,140.3,110h0a1.87,1.87,0,0,1-.64-.66l-.52-.73-.21-.28-.2-.27c-.36-.45-.73-.89-1.11-1.3l-.47-.47c-.16-.16-.31-.31-.48-.45l-.24-.21-.25-.21-.26-.19c-.17-.13-.34-.24-.51-.35a6.85,6.85,0,0,0-.79-.44l-.25-.11a5.37,5.37,0,0,0-.56-.21l-.28-.08-.16,0-.15,0a4.47,4.47,0,0,0-1.59,0l-.53.13a6.51,6.51,0,0,0-2.69,1.74c-.27.28-.55.58-.82.92a19.87,19.87,0,0,0-2,3.17l-.13.25C125.4,110.24,125.35,110.35,125.29,110.45Z"/><path class="cls-20" d="M125.66,110.14l0,.34c6.81-11.55,14.6-.5,14.6-.5v0h0l-.44-.66c-.17-.24-.34-.49-.52-.73l-.2-.28-.21-.27c-.35-.45-.72-.89-1.1-1.3l-.47-.47-.48-.45-.25-.21-.25-.21-.26-.19a5.62,5.62,0,0,0-.5-.35,6.85,6.85,0,0,0-.79-.44l-.25-.11q-.29-.12-.57-.21l-.27-.08-.16,0-.15,0a4.52,4.52,0,0,0-1.6,0l-.52.13a6.45,6.45,0,0,0-2.69,1.74,10.69,10.69,0,0,0-.82.92,19.87,19.87,0,0,0-2,3.17A2,2,0,0,0,125.66,110.14Z"/><path class="cls-22" d="M129.34,112.09a4.75,4.75,0,1,0,3.92-5.46A4.76,4.76,0,0,0,129.34,112.09Z"/><path class="cls-20" d="M130.48,108.16a4.69,4.69,0,0,0-.56,3.12,4.75,4.75,0,0,0,5.46,3.92,4.69,4.69,0,0,0,2.78-1.53,4.75,4.75,0,1,1-7.68-5.51Z"/><path class="cls-23" d="M132.29,111.62a2.23,2.23,0,1,0,1.84-2.56A2.22,2.22,0,0,0,132.29,111.62Z"/><path class="cls-21" d="M134.23,109.72a.58.58,0,0,0,1.14-.19.57.57,0,0,0-.66-.47A.58.58,0,0,0,134.23,109.72Z"/><path class="cls-24" d="M145.05,114.67l-22.2-.68S129,124,145.05,114.67Z"/><path class="cls-18" d="M126.17,114.09c3.72,2.2,15.52.55,15.52.55l-.79-.1Z"/><path class="cls-25" d="M152.38,116.87c.25-7.47-4-15.16-4-15.16s-4.52,7.69-4.27,15.16c-3.13,7.39-4.4,15.8,2.48,20.6a2.79,2.79,0,0,0,1.65.57h.06a2.79,2.79,0,0,0,1.65-.57C156.77,132.67,155.51,124.26,152.38,116.87Z"/><path class="cls-20" d="M135.85,87.53S65.15,82.47,134.57,46c-5.63,14.8,36.12-16.46,51.49,28.41C180.35,83.61,160.63,90.88,135.85,87.53Z"/><path class="cls-26" d="M137.2,146.17c0-3.66,5-.82,11.08-.81s11.1-2.83,11.09.84-5,10-11.1,10S137.19,149.84,137.2,146.17Z"/><path class="cls-13" d="M232.43,308.06v.28a27.91,27.91,0,0,1-9.66,23.27c-11.6,10-31.33,24.9-52.17,31.7-5.51,4.18-11.86,12.39-15.5,14.53s-14.77,3.84-17.51,4.18-6-2-3.62-4.56c-4.21,1-5.68-.24-5.14-2.92-3.23,1.41-7.37-1.11-4.66-4.63-1.62-.57-4.57-1.78.39-5.83s10.71-8.92,10.71-8.92-6.25.54-4.52-2.43,12.9-10.73,17.75-10.27,35.2,7.44,73.73-29.79"/><path class="cls-14" d="M140.61,345.24s3.75-3.08,7.7-1.94S163,349.15,165.77,352s2.81,4.24,1.53,5-2.27,1.27-2.27,1.27l5.63,5.08-2.37,2s-25.07,16.7-26.5,16.12c-4.7-1.93-13.13-10.6-13.13-10.6s-5.14-5.77-5.39-6.16S140.61,345.24,140.61,345.24Z"/><path class="cls-13" d="M56.06,308.09v.27a27.34,27.34,0,0,0,10,22.92c12.47,10.19,34.31,26,57.21,33.33,6,4.3,12.93,12.65,16.88,14.87s15.9,4.11,18.85,4.49,6.38-2,3.8-4.51c4.51,1.08,6.09-.14,5.45-2.84,3.48,1.47,7.9-1,4.92-4.57,1.72-.55,4.88-1.71-.51-5.87S161.09,357,161.09,357s6.71.65,4.81-2.36-14-11-19.21-10.64-32.58,8.22-74.52-29.79"/><line class="cls-27" x1="188.6" y1="375.15" x2="188.6" y2="383.78"/><line class="cls-27" x1="192.91" y1="379.46" x2="184.28" y2="379.46"/><line class="cls-28" x1="140.86" y1="325.25" x2="140.86" y2="332.44"/><line class="cls-28" x1="144.45" y1="328.85" x2="137.26" y2="328.85"/><circle class="cls-29" cx="113.42" cy="381.41" r="2.22"/><path class="cls-2" d="M250.45,302.75c5.1-21.34-81.66,31.37-86.77,39.85A61.71,61.71,0,0,1,185.74,357S241.84,338.8,250.45,302.75Z"/><path class="cls-2" d="M44.53,305c2.11-22.16,80.76,32.45,85.88,40.93a61.69,61.69,0,0,0-22.07,14.41S40.53,347,44.53,305Z"/></g></g></svg>