<svg xmlns="http://www.w3.org/2000/svg" viewBox="0 0 300.52 821.26"><defs><style>.cls-1{isolation:isolate;}.cls-2{fill:#2b96f4;}.cls-3{fill:#0071d6;}.cls-4{fill:#ddcfc9;mix-blend-mode:multiply;}.cls-5{fill:#0e131a;}.cls-6{fill:#866c57;}.cls-7{fill:#9e8979;}.cls-8{fill:#474849;}.cls-9{fill:#655141;}.cls-10{fill:#43362c;}.cls-11{fill:#b6a79a;}.cls-12{fill:#414042;}.cls-13{fill:#fcae88;}.cls-14{fill:#b06d4d;opacity:0.32;}.cls-15,.cls-16,.cls-17{fill:none;stroke:#fff;stroke-linecap:round;stroke-linejoin:round;}.cls-15{stroke-width:2.33px;}.cls-16{stroke-width:1.94px;}.cls-17{stroke-width:0.93px;}.cls-18{fill:#1e3144;}.cls-19{fill:#fff;}.cls-20{fill:#db7269;}.cls-21{fill:#ffc5b6;}</style></defs><g class="cls-1"><g id="OBJECT"><polygon class="cls-2" points="76.22 199.3 44.92 303.17 75.64 315.04 95.71 259.92 76.22 199.3"/><polygon class="cls-3" points="88.54 279.61 80.4 301.97 85.43 242.1 88.54 279.61"/><polygon class="cls-2" points="219.21 199.3 250.57 300.2 227.86 315.89 205.27 261.43 219.21 199.3"/><polygon class="cls-3" points="213.9 282.24 222.46 302.88 213.9 242.75 213.9 282.24"/><path class="cls-4" d="M158.84,400.76c-27.82,1-49.85-13.07-54.26-27.67s-3.15-77.3-5.06-104.75c-1.33-18.95-8.4-34-20.84-45.89C82.62,239.72,89,259.91,89,259.91S84.79,384.47,92.23,400.7c16.11,10.19,66.19,12.74,100.22,7.45C180.81,407.66,170,400.36,158.84,400.76Z"/><g id="doctor"><polygon class="cls-5" points="203.81 756.89 205.19 723.68 187.31 723.68 185.94 756.89 203.81 756.89"/><path class="cls-6" d="M256.1,773.14H175.18s-1.88-6.78-1-11.09c.36-1.68,1.14-3,2.62-3.37,0-5.28,2.5-16.13,10.28-17.52h0c0,.38-1.42,11.23,15.3,0,4.16-2.79,27.73,21.11,45,20.85,4.05-.06,6.35,4,7.54,7.26A24.47,24.47,0,0,1,256.1,773.14Z"/><path class="cls-7" d="M187.13,741.05c-.23.33-9.17,12.9-5.33,22.37a22.3,22.3,0,0,1-7.57-1.49c.36-1.67,1.14-3,2.62-3.36,0-5.29,2.5-16.13,10.28-17.52Z"/><rect class="cls-8" x="174.92" y="773.14" width="81.25" height="2.12"/><path class="cls-9" d="M256.1,773.14H175.18s-3.62-13.07,1.67-14.46c0,0,49.44,19.76,78.17,10.59A24.47,24.47,0,0,1,256.1,773.14Z"/><path class="cls-10" d="M213.37,751.09a1.81,1.81,0,1,1-1.81-1.81A1.81,1.81,0,0,1,213.37,751.09Z"/><path class="cls-10" d="M219.25,754.29a1.81,1.81,0,1,1-1.81-1.81A1.81,1.81,0,0,1,219.25,754.29Z"/><path class="cls-10" d="M225.14,757.49a1.81,1.81,0,1,1-1.8-1.81A1.81,1.81,0,0,1,225.14,757.49Z"/><path class="cls-11" d="M249.38,764.13c0,.68-1.37,1.24-3.06,1.24s-3.06-.56-3.06-1.24,1.37-1.24,3.06-1.24S249.38,763.44,249.38,764.13Z"/><polygon class="cls-5" points="109.72 756.89 108.34 723.68 126.22 723.68 127.6 756.89 109.72 756.89"/><path class="cls-6" d="M57.43,773.14h80.92s1.88-6.78,1-11.09c-.35-1.68-1.13-3-2.62-3.37,0-5.28-2.5-16.13-10.28-17.52h0c0,.38,1.42,11.23-15.3,0-4.16-2.79-27.73,21.11-45,20.85-4-.06-6.35,4-7.54,7.26A24.47,24.47,0,0,0,57.43,773.14Z"/><path class="cls-7" d="M126.4,741.05c.24.33,9.17,12.9,5.33,22.37a22.3,22.3,0,0,0,7.57-1.49c-.35-1.67-1.13-3-2.62-3.36,0-5.29-2.5-16.13-10.28-17.52Z"/><rect class="cls-8" x="56.93" y="773.14" width="81.25" height="2.12"/><path class="cls-9" d="M57.43,773.14h80.92s3.62-13.07-1.67-14.46c0,0-49.43,19.76-78.17,10.59A24.47,24.47,0,0,0,57.43,773.14Z"/><path class="cls-10" d="M100.17,751.09a1.81,1.81,0,1,0,1.8-1.81A1.8,1.8,0,0,0,100.17,751.09Z"/><path class="cls-10" d="M94.28,754.29a1.81,1.81,0,1,0,1.81-1.81A1.81,1.81,0,0,0,94.28,754.29Z"/><path class="cls-10" d="M88.39,757.49a1.81,1.81,0,1,0,1.81-1.81A1.81,1.81,0,0,0,88.39,757.49Z"/><path class="cls-11" d="M64.15,764.13c0,.68,1.37,1.24,3.06,1.24s3.06-.56,3.06-1.24-1.37-1.24-3.06-1.24S64.15,763.44,64.15,764.13Z"/><path class="cls-12" d="M90.76,395.16l9.48,346.19h38c6.67-146.07,14.2-288.06,14.2-288.06s2.47,117.23,23.87,288.06h35.39l4.4-346.19Z"/></g><path class="cls-2" d="M216.73,401.62c-20.33,15.45-102.3,13.13-124.5-.92C84.79,384.47,89,259.91,89,259.91s-17.53-55.37-12.45-61.12c10.32-11.69,70.69-24.22,70.69-24.22s64.23,14.18,71.26,24.22c3.41,4.88-5.71,50.08-3.15,98.89C218.08,349.35,220.94,383.84,216.73,401.62Z"/><rect class="cls-13" x="132.52" y="158.47" width="30.38" height="36.74"/><path class="cls-14" d="M132.52,158.47V174a25.7,25.7,0,0,0,30.38,0V158.47Z"/><polygon class="cls-3" points="147.88 194.64 134.83 205.74 119.25 181.4 131.41 177.32 147.88 194.64"/><polygon class="cls-3" points="147.88 194.64 159.37 205.63 179.6 181.97 162.97 177.45 147.88 194.64"/><path class="cls-13" d="M232.43,308.06v.28a27.91,27.91,0,0,1-9.66,23.27c-11.6,10-31.33,24.9-52.17,31.7-5.51,4.18-11.86,12.39-15.5,14.53s-14.77,3.84-17.51,4.18-6-2-3.62-4.56c-4.21,1-5.68-.24-5.14-2.92-3.23,1.41-7.37-1.11-4.66-4.63-1.62-.57-4.57-1.78.39-5.83s10.71-8.92,10.71-8.92-6.25.54-4.52-2.43,12.9-10.73,17.75-10.27,35.2,7.44,73.73-29.79"/><path class="cls-14" d="M140.61,345.24s3.75-3.08,7.7-1.94S163,349.15,165.77,352s2.81,4.24,1.53,5-2.27,1.27-2.27,1.27l5.63,5.08-2.37,2s-25.07,16.7-26.5,16.12c-4.7-1.93-13.13-10.6-13.13-10.6s-5.14-5.77-5.39-6.16S140.61,345.24,140.61,345.24Z"/><path class="cls-13" d="M56.06,308.09v.27a27.34,27.34,0,0,0,10,22.92c12.47,10.19,34.31,26,57.21,33.33,6,4.3,12.93,12.65,16.88,14.87s15.9,4.11,18.85,4.49,6.38-2,3.8-4.51c4.51,1.08,6.09-.14,5.45-2.84,3.48,1.47,7.9-1,4.92-4.57,1.72-.55,4.88-1.71-.51-5.87S161.09,357,161.09,357s6.71.65,4.81-2.36-14-11-19.21-10.64-32.58,8.22-74.52-29.79"/><line class="cls-15" x1="188.6" y1="375.15" x2="188.6" y2="383.78"/><line class="cls-15" x1="192.91" y1="379.46" x2="184.28" y2="379.46"/><line class="cls-16" x1="140.86" y1="325.25" x2="140.86" y2="332.44"/><line class="cls-16" x1="144.45" y1="328.85" x2="137.26" y2="328.85"/><circle class="cls-17" cx="113.42" cy="381.41" r="2.22"/><path class="cls-2" d="M250.45,302.75c5.1-21.34-81.66,31.37-86.77,39.85A61.71,61.71,0,0,1,185.74,357S241.84,338.8,250.45,302.75Z"/><path class="cls-2" d="M44.53,305c2.11-22.16,80.76,32.45,85.88,40.93a61.69,61.69,0,0,0-22.07,14.41S40.53,347,44.53,305Z"/><path class="cls-13" d="M182.65,120.14s2.78-6.32,6.12-4.53-2.38,27.64-6.31,24.16S182.65,120.14,182.65,120.14Z"/><path class="cls-13" d="M114.47,120.14s-2.78-6.32-6.12-4.53,2.39,27.64,6.32,24.16S114.47,120.14,114.47,120.14Z"/><path class="cls-13" d="M148.75,173.94h0a19.05,19.05,0,0,1-14.13-6.43c-7.83-8.68-20.44-24.16-20.44-33.82L112,96.44c0-20.38,17.62-33.37,36.71-33.37h0c11.83,0,23.09,4.89,29.95,13.46a30.93,30.93,0,0,1,6.76,19.66l-2.14,37.5c0,9.66-12.62,25.14-20.45,33.82A19,19,0,0,1,148.75,173.94Z"/><path class="cls-18" d="M189.67,61.58a45.23,45.23,0,0,0-4.75-7.43c-6.3-8-15.66-13.77-25.8-14.81-7.69-.78-15.39,1.09-22.79,3.32-4.23,1.28-8.5,2.72-12.1,5.28s-6.51,6.45-6.91,10.85a7.59,7.59,0,0,0-6.25,3A18.23,18.23,0,0,0,108,68.29a66.66,66.66,0,0,0-2.29,10.85,68,68,0,0,0,.68,21.25c1.22,6.35,3.88,12,5.27,18.36,1,4.7,2.62,10,2.52,14.85,0,0,.33-15.72.33-15.74.07-3.42-.07-6.84,0-10.26a37.8,37.8,0,0,1,.13-4.39c.2-1.56,1-2.09,2-3.19,1.24-1.35,1.52-3.29,1.75-5.11q1.17-9.24,2.35-18.5c5.91,4,11,8.76,16.24,13.54a44.2,44.2,0,0,0,7,4.58,28.5,28.5,0,0,0,9,3.6,6.79,6.79,0,0,0,4.93-.49c1.43-.92,2-3.2.76-4.33,3.78,1.84,7.64,3.7,11.81,4.16s8.77-.73,11.33-4c1.87,7.79,1.54,16.45,1.23,24.44l.33,15.74A65.06,65.06,0,0,1,185,122.94c2.32-11.54,4.25-23,6-34.69,1.3.8,3.1-.06,3.84-1.39a7.85,7.85,0,0,0,.58-4.46A55.24,55.24,0,0,0,189.67,61.58Z"/><path class="cls-14" d="M153.43,139.7a21.64,21.64,0,0,1-5,1.39,21.62,21.62,0,0,1-5-1.39c-2.06-1-3.83-1.5-3.78-.87s4.76,5.88,8.78,5.88,8.74-5.25,8.78-5.88S155.49,138.73,153.43,139.7Z"/><path class="cls-18" d="M131.71,123.51c5.56,0,5.57-8.65,0-8.65s-5.57,8.65,0,8.65Z"/><path class="cls-19" d="M134.21,118.16a1.33,1.33,0,1,1-1.33-1.34A1.33,1.33,0,0,1,134.21,118.16Z"/><path class="cls-18" d="M125.55,118.34c4.12-2.85,8.35-.67,12.68.06.48.08,1-.54.54-.92-3.76-3-11-4.7-13.31.77,0,0,0,.13.09.09Z"/><path class="cls-18" d="M164.89,123.51c-5.56,0-5.57-8.65,0-8.65s5.57,8.65,0,8.65Z"/><path class="cls-19" d="M162.38,118.16a1.34,1.34,0,1,0,1.33-1.34A1.34,1.34,0,0,0,162.38,118.16Z"/><path class="cls-18" d="M171.13,118.25c-2.34-5.47-9.55-3.75-13.31-.77-.48.38.06,1,.54.92,4.33-.73,8.57-2.91,12.68-.06.06,0,.11,0,.09-.09Z"/><path class="cls-18" d="M119.42,103.84a34,34,0,0,1,11.81-.15c2.81.44,5.6,1.84,8.42,1.62a1,1,0,0,0,.7-1.71c-4.84-5.3-15.45-2.73-21.1-.39a.33.33,0,0,0,.17.63Z"/><path class="cls-18" d="M178.25,103.21c-5.66-2.35-16.26-4.91-21.11.39a1,1,0,0,0,.71,1.71c2.79.22,5.63-1.19,8.41-1.62a33.7,33.7,0,0,1,11.81.15.33.33,0,0,0,.18-.63Z"/><path class="cls-20" d="M138,149.86c1.87.43,3.59.81,5.31,1a38.64,38.64,0,0,0,5.12.4,36.94,36.94,0,0,0,5.13-.29c1.73-.2,3.46-.54,5.34-.92a12.11,12.11,0,0,1-4.79,3.12,16.19,16.19,0,0,1-11.39-.13A12.15,12.15,0,0,1,138,149.86Z"/><path class="cls-21" d="M148.54,124.82c-.56,2.56-.14,5,.21,7.57.27,2,.19,4.44,1.37,6.12a.77.77,0,0,0,1.4-.18c.57-2-.23-4.25-.57-6.24-.42-2.55-.68-5-1.88-7.34a.29.29,0,0,0-.53.07Z"/></g></g></svg>