<?xml version="1.0" encoding="utf-8"?>
<!-- Generator: Adobe Illustrator 22.1.0, SVG Export Plug-In . SVG Version: 6.00 Build 0)  -->
<svg version="1.1" id="Layer_1" xmlns="http://www.w3.org/2000/svg" xmlns:xlink="http://www.w3.org/1999/xlink" x="0px" y="0px"
	 viewBox="0 0 300.5 821.3" style="enable-background:new 0 0 300.5 821.3;" xml:space="preserve">
<style type="text/css">
	.st0{fill:#0E131A;}
	.st1{fill:#22366B;}
	.st2{fill:#18294C;}
	.st3{fill:#CFCFCF;}
	.st4{fill:#43362C;}
	.st5{fill:#22AA66;}
	.st6{fill:#F7E88F;}
	.st7{fill:#F2D453;}
	.st8{fill:#FCAE88;}
	.st9{opacity:0.32;fill:#B06D4D;enable-background:new    ;}
	.st10{fill:#F8BA8C;}
	.st11{fill:#1E3144;}
	.st12{fill:#FFFFFF;}
	.st13{fill:#DB7269;}
	.st14{fill:#FFC5B6;}
</style>
<g id="BACKGROUND">
</g>
<g id="OBJECT">
	<g>
		<g>
			<g id="doctor_26_">
				<g>
					<g>
						<polygon class="st0" points="201.4,756.9 202.7,723.7 184.9,723.7 183.5,756.9 						"/>
						<g>
							<path class="st1" d="M253.6,773.1h-80.9c0,0-1.9-6.8-0.9-11.1c0.4-1.7,1.1-3,2.6-3.4c0-5.3,2.5-16.1,10.3-17.5l0,0
								c-0.1,0.4-1.4,11.2,15.3,0c4.2-2.8,27.7,21.1,45,20.8c4-0.1,6.4,4,7.5,7.3C253.3,771.4,253.6,773.1,253.6,773.1z"/>
							<path class="st2" d="M184.7,741.1c-0.2,0.3-9.2,12.9-5.3,22.4c-2.6,0-5.1-0.6-7.6-1.5c0.4-1.7,1.1-3,2.6-3.4
								C174.4,753.3,176.9,742.4,184.7,741.1C184.7,741,184.7,741,184.7,741.1z"/>
							<rect x="172.5" y="773.1" class="st3" width="81.2" height="2.1"/>
							<path class="st2" d="M253.6,773.1h-80.9c0,0-3.6-13.1,1.7-14.5c0,0,49.4,19.8,78.2,10.6C253.3,771.4,253.6,773.1,253.6,773.1
								z"/>
							<g>
								<path class="st4" d="M210.9,751.1c0,1-0.8,1.8-1.8,1.8s-1.8-0.8-1.8-1.8s0.8-1.8,1.8-1.8
									C210.1,749.3,210.9,750.1,210.9,751.1z"/>
								<path class="st4" d="M216.8,754.3c0,1-0.8,1.8-1.8,1.8s-1.8-0.8-1.8-1.8s0.8-1.8,1.8-1.8S216.8,753.3,216.8,754.3z"/>
								<path class="st4" d="M222.7,757.5c0,1-0.8,1.8-1.8,1.8s-1.8-0.8-1.8-1.8s0.8-1.8,1.8-1.8S222.7,756.5,222.7,757.5z"/>
							</g>
						</g>
					</g>
					<g>
						<polygon class="st0" points="107.3,756.9 105.9,723.7 123.8,723.7 125.1,756.9 						"/>
						<g>
							<path class="st1" d="M55,773.1h80.9c0,0,1.9-6.8,0.9-11.1c-0.4-1.7-1.1-3-2.6-3.4c0-5.3-2.5-16.1-10.3-17.5l0,0
								c0.1,0.4,1.4,11.2-15.3,0c-4.2-2.8-27.7,21.1-45,20.8c-4.1-0.1-6.4,4-7.5,7.3C55.3,771.4,55,773.1,55,773.1z"/>
							<path class="st2" d="M123.9,741.1c0.2,0.3,9.2,12.9,5.3,22.4c2.6,0,5.1-0.6,7.6-1.5c-0.4-1.7-1.1-3-2.6-3.4
								C134.2,753.3,131.7,742.4,123.9,741.1C123.9,741,123.9,741,123.9,741.1z"/>
							<rect x="54.5" y="773.1" class="st3" width="81.2" height="2.1"/>
							<path class="st2" d="M55,773.1h80.9c0,0,3.6-13.1-1.7-14.5c0,0-49.4,19.8-78.2,10.6C55.3,771.4,55,773.1,55,773.1z"/>
							<g>
								<path class="st4" d="M97.7,751.1c0,1,0.8,1.8,1.8,1.8s1.8-0.8,1.8-1.8s-0.8-1.8-1.8-1.8S97.7,750.1,97.7,751.1z"/>
								<path class="st4" d="M91.8,754.3c0,1,0.8,1.8,1.8,1.8s1.8-0.8,1.8-1.8s-0.8-1.8-1.8-1.8C92.6,752.5,91.8,753.3,91.8,754.3z"
									/>
								<path class="st4" d="M85.9,757.5c0,1,0.8,1.8,1.8,1.8s1.8-0.8,1.8-1.8s-0.8-1.8-1.8-1.8C86.7,755.7,85.9,756.5,85.9,757.5z"
									/>
							</g>
						</g>
					</g>
					<g>
						<path class="st5" d="M88.3,395.2l9.5,346.2h37.9c6.7-146.1,14.2-288.1,14.2-288.1s2.5,117.2,23.9,288.1h35.4l4.4-346.2H88.3z"
							/>
					</g>
				</g>
			</g>
			<path class="st6" d="M214.3,401.6C194,417.1,112,414.7,89.8,400.7c-7.4-16.2-3.2-140.8-3.2-140.8S69,204.5,74.1,198.8
				c10.3-11.7,70.7-24.2,70.7-24.2s64.2,14.2,71.3,24.2c3.4,4.9-5.7,50.1-3.1,98.9C215.6,349.3,218.5,383.8,214.3,401.6z"/>
			<g>
				<path class="st6" d="M226.3,212.3c-10.6-24.7-49.5-28.7-49.5-28.7l-4.3-1.2l-11.8,9.6l-8.7,4.4h-6.2l-12.9-1.2h-6.6L123,192
					l-9.9-10c-3.4,1-9.6,2.8-20.4,5.9c-36.8,10.6-37.4,53-44.5,99.3c-2,13.3,3.2,36.5,4.6,39.3c2.4,5,10.9,13.9,14.2,12.8
					c5.2-1.8,8.2-3.8,8.1-12.1c-0.1-8.7,2.5-17.7,3.3-25.5l0,0c2.2-21.7,6.7-38,6.7-38s-1.3,25.1-2,35s6.1,95.6,2.7,101.5
					c-3.4,5.8-0.5,109.9-0.5,109.9s-4.1,114-3.5,132c0.6,17.7,152.5,13.1,149.5-23.8c-0.1-0.7-0.2-1.5-0.4-2.2
					c-9.5-38.9-8.2-216.2-8.2-216.2l-8.9-119.7c0,0,9.1,14.4,13.7,33.6c1.5,6.2,2,15,2.1,24c0.2,0,0.3-0.1,0.5-0.1
					c2.1-0.3,4.1-0.3,6-0.1c1.1-1,4.4-3.5,4.2-1.9c-0.2,1.7,1.4,1.3,1.6,1.2c3.8-4.4,8.5-6,14.2-15.9
					C255.9,279,235.7,234.3,226.3,212.3z"/>
				<path class="st7" d="M81.5,642C80.9,623.9,85,510,85,510s-3-104.1,0.5-109.9c3.4-5.8-3.4-91.6-2.7-101.5c0.7-9.9,2-35,2-35
					s-4.5,16.3-6.7,38c-0.3-16.4,1.7-32,10-44.7c8.5,5.3,9.8,35,11.1,44.8c2.1,16.3,3.1,32.6,3.3,49c0.5,33.4-2,66.8-3.4,100.1
					c-1.6,38.5-1.4,78.4,14.4,113.5c15.9,35.1,51.5,64,89.8,60.3c9.5-0.9,18.7-3.7,27.8-6.5C234,655.1,82.1,659.7,81.5,642z"/>
			</g>
			<g>
				<rect x="130.1" y="158.5" class="st8" width="30.4" height="36.7"/>
				<path class="st9" d="M130.1,158.5V174c4.7,3.2,9.8,5,15.2,5s10.5-1.8,15.2-5v-15.5H130.1z"/>
			</g>
			<g>
				<path class="st10" d="M242.7,457.7c2-7.1-8-33.1-14-32.9c-5,0.1-13.1,20.2-12.7,29.7c1.9,1.1,3.4,4.9,4.2,6.8
					C220.9,463.2,240.7,464.8,242.7,457.7z"/>
				<path class="st10" d="M227.2,482c-0.4-5.2-0.9-13.3-0.7-20.4c1.7-0.1,3.3-0.4,4.8-1c1,6.6,1.5,15,1.7,20
					c0.4,7.3-0.6,11.1-2.6,11.3C228.8,492.1,227.7,488.7,227.2,482z"/>
				<path class="st10" d="M234.3,479.2c-0.7-4.8-1.7-12.4-2-19.1c1.6-0.1,3.6-0.8,5.1-1.4c1.4,6.1,1.9,14.3,2.5,19
					c0.9,6.8,0.1,10.4-1.8,10.7C236.5,488.7,235.2,485.5,234.3,479.2z"/>
				<path class="st10" d="M240.1,474.6c-0.6-4.1-1.4-10.6-1.7-16.3c1.4-0.1,3.1-0.7,4.4-1.2c1.2,5.2,1.6,12.2,2.1,16.2
					c0.7,5.8,0.1,8.9-1.5,9.1C241.9,482.6,240.9,479.9,240.1,474.6z"/>
				<path class="st10" d="M219.4,479.7c0.1-4.9,0.1-14.3,1-20.9c1.6,0.1,4,1.6,5.5,1.3c0.4,6.3-0.5,14.4-0.7,19.2
					c-0.3,6.9-1.6,10.2-3.5,10.2C220,489.4,219.3,486,219.4,479.7z"/>
				<path class="st10" d="M208.3,452.6c3.8-3,7.2-13.8,12.9-17.1c0.9,1.4,5.3,8.1,6.5,9.1c-4.8,4.1-10.4,9-14.3,11.7
					c-5.7,3.9-10.3,2.4-11.4,0.9C201,456,206.3,454.2,208.3,452.6z"/>
			</g>
			<path class="st6" d="M240.4,437.5l-21.3-2.7c0,0,12.5-94.5,6.7-122.5c-6.4-30.9-29.7-61.6-29.7-61.6s-1.3-61.7,15.2-55.7
				c16.5,6.1,41.1,74.7,45.8,117.7C260.7,346.1,240.4,437.5,240.4,437.5z"/>
			<g>
				<path class="st10" d="M70.4,458.9c-2.5-6.9,5.3-33.6,11.3-33.9c5-0.3,14.6,19.1,15.1,28.6c-1.8,1.2-3,5.2-3.6,7.1
					C92.5,462.6,72.9,465.8,70.4,458.9z"/>
				<path class="st10" d="M87.8,481.9c0-5.2-0.2-13.3-0.9-20.4c-1.7,0.1-3.3-0.2-4.9-0.6c-0.5,6.7-0.2,15.1-0.1,20.1
					c0.2,7.3,1.5,11,3.5,11.1C87,492.1,87.8,488.6,87.8,481.9z"/>
				<path class="st10" d="M80.5,479.7c0.3-4.9,0.7-12.5,0.4-19.2c-1.6,0-3.7-0.5-5.2-1c-0.9,6.2-0.7,14.4-0.9,19.1
					c-0.3,6.9,0.8,10.3,2.7,10.5C79.1,489.3,80.1,486,80.5,479.7z"/>
				<path class="st10" d="M74.3,475.5c0.3-4.2,0.6-10.7,0.4-16.4c-1.4,0-3.2-0.4-4.5-0.8c-0.8,5.3-0.6,12.3-0.8,16.3
					c-0.3,5.9,0.6,8.8,2.3,9C73.1,483.7,74,480.9,74.3,475.5z"/>
				<path class="st10" d="M95.3,478.9c-0.5-4.9-1.3-14.3-2.7-20.8c-1.6,0.3-3.8,1.9-5.4,1.7c0.1,6.3,1.7,14.3,2.3,19
					c0.8,6.8,2.5,10.1,4.4,9.9C95.5,488.6,95.9,485.2,95.3,478.9z"/>
				<path class="st10" d="M104.3,451.1c-4.1-2.7-8.3-13.1-14.3-16c-0.8,1.4-4.6,8.5-5.7,9.6c5.1,3.7,11.1,8.2,15.2,10.5
					c6,3.5,10.4,1.6,11.4,0C111.8,453.8,106.3,452.4,104.3,451.1z"/>
			</g>
			<path class="st6" d="M71,438.6l21-4.2c0,0-17.3-90-14.1-118.3c3.6-31.3,19.8-65.3,19.8-65.3s-5.1-62.8-21-55.6
				c-15.9,7.2-32.8,77.1-33.6,120.3C42.4,348.9,71,438.6,71,438.6z"/>
			<g>
				<g>
					<polygon class="st7" points="145.4,194.6 132.4,205.7 116.8,181.4 128.9,177.3 					"/>
				</g>
				<g>
					<polygon class="st7" points="145.4,194.6 156.9,205.6 177.1,182 160.5,177.5 					"/>
				</g>
			</g>
		</g>
		<g>
			<g>
				<path class="st8" d="M180.6,120.1c0,0,2.8-6.3,6.1-4.5s-2.4,27.6-6.3,24.2C176.5,136.3,180.6,120.1,180.6,120.1z"/>
				<path class="st8" d="M112.5,120.1c0,0-2.8-6.3-6.1-4.5c-3.3,1.8,2.4,27.6,6.3,24.2C116.6,136.3,112.5,120.1,112.5,120.1z"/>
				<path class="st8" d="M146.7,173.9L146.7,173.9c-5.3,0-10.4-2.3-14.1-6.4c-7.8-8.7-20.4-24.2-20.4-33.8L110,96.4
					C110,76,127.6,63,146.7,63l0,0c11.8,0,23.1,4.9,29.9,13.5c4.2,5.3,6.8,11.9,6.8,19.7l-2.1,37.5c0,9.7-12.6,25.1-20.4,33.8
					C157.2,171.6,152.1,173.9,146.7,173.9z"/>
				<path class="st11" d="M187.7,61.6c-1.3-2.6-2.9-5.1-4.7-7.4c-6.3-8-15.7-13.8-25.8-14.8c-7.7-0.8-15.4,1.1-22.8,3.3
					c-4.2,1.3-8.5,2.7-12.1,5.3s-6.5,6.4-6.9,10.8c-2.4-0.2-4.7,1.1-6.3,3c-1.5,1.9-2.4,4.2-3.1,6.5c-1.1,3.5-1.8,7.2-2.3,10.9
					c-0.9,7.1-0.7,14.3,0.7,21.3c1.2,6.3,3.9,12,5.3,18.4c1,4.7,2.6,10,2.5,14.8l0.3-15.7c0.1-3.4-0.1-6.8,0-10.3
					c0-1.4-0.1-3,0.1-4.4c0.2-1.6,1-2.1,2-3.2c1.2-1.4,1.5-3.3,1.8-5.1c0.8-6.2,1.6-12.3,2.3-18.5c5.9,4,11,8.8,16.2,13.5
					c1.9,1.8,4.8,3.2,7,4.6c2.8,1.7,5.8,3,9,3.6c1.7,0.3,3.5,0.4,4.9-0.5s2-3.2,0.8-4.3c3.8,1.8,7.6,3.7,11.8,4.2s8.8-0.7,11.3-4.1
					c1.9,7.8,1.5,16.5,1.2,24.4l0.3,15.7c0.1-3.6,0.9-7.2,1.6-10.7c2.3-11.5,4.3-23,6-34.7c1.3,0.8,3.1-0.1,3.8-1.4s0.7-2.9,0.6-4.5
					C192.8,75.2,191,68,187.7,61.6z"/>
			</g>
			<g>
				<path class="st9" d="M151.4,139.7c-2.1,1-5,1.4-5,1.4s-2.9-0.4-5-1.4s-3.8-1.5-3.8-0.9s4.8,5.9,8.8,5.9s8.7-5.3,8.8-5.9
					C155.3,138.2,153.5,138.7,151.4,139.7z"/>
				<g>
					<g>
						<path class="st11" d="M129.7,123.5c5.6,0,5.6-8.6,0-8.6C124.1,114.9,124.1,123.5,129.7,123.5L129.7,123.5z"/>
					</g>
					<path class="st12" d="M132.2,118.2c0,0.7-0.6,1.3-1.3,1.3s-1.3-0.6-1.3-1.3c0-0.7,0.6-1.3,1.3-1.3
						C131.6,116.8,132.2,117.4,132.2,118.2z"/>
					<g>
						<path class="st11" d="M123.5,118.3c4.1-2.8,8.4-0.7,12.7,0.1c0.5,0.1,1-0.5,0.5-0.9C133,114.5,125.8,112.8,123.5,118.3
							C123.4,118.3,123.5,118.4,123.5,118.3L123.5,118.3z"/>
					</g>
				</g>
				<g>
					<g>
						<path class="st11" d="M162.9,123.5c-5.6,0-5.6-8.6,0-8.6C168.4,114.9,168.5,123.5,162.9,123.5L162.9,123.5z"/>
					</g>
					<path class="st12" d="M160.4,118.2c0,0.7,0.6,1.3,1.3,1.3s1.3-0.6,1.3-1.3c0-0.7-0.6-1.3-1.3-1.3
						C161,116.8,160.4,117.4,160.4,118.2z"/>
					<g>
						<path class="st11" d="M169.1,118.2c-2.3-5.5-9.6-3.7-13.3-0.8c-0.5,0.4,0.1,1,0.5,0.9C160.7,117.7,164.9,115.5,169.1,118.2
							C169.1,118.4,169.2,118.3,169.1,118.2L169.1,118.2z"/>
					</g>
				</g>
				<g>
					<path class="st11" d="M117.4,103.8c3.8-0.8,8-0.8,11.8-0.1c2.8,0.4,5.6,1.8,8.4,1.6c0.9-0.1,1.3-1,0.7-1.7
						c-4.8-5.3-15.5-2.7-21.1-0.4C116.9,103.4,117,103.9,117.4,103.8L117.4,103.8z"/>
				</g>
				<g>
					<path class="st11" d="M176.2,103.2c-5.7-2.3-16.3-4.9-21.1,0.4c-0.6,0.7-0.2,1.6,0.7,1.7c2.8,0.2,5.6-1.2,8.4-1.6
						c3.9-0.6,8-0.6,11.8,0.1C176.5,103.9,176.6,103.4,176.2,103.2L176.2,103.2z"/>
				</g>
				<g>
					<path class="st13" d="M136,149.9c1.9,0.4,3.6,0.8,5.3,1c1.7,0.3,3.4,0.4,5.1,0.4c1.7,0,3.4-0.1,5.1-0.3
						c1.7-0.2,3.5-0.5,5.3-0.9c-1.3,1.4-3,2.4-4.8,3.1c-1.8,0.7-3.8,1-5.7,1s-3.9-0.4-5.7-1.1C138.9,152.4,137.3,151.3,136,149.9z"
						/>
				</g>
				<g>
					<path class="st14" d="M146.5,124.8c-0.6,2.6-0.1,5,0.2,7.6c0.3,2,0.2,4.4,1.4,6.1c0.4,0.5,1.2,0.5,1.4-0.2
						c0.6-2-0.2-4.2-0.6-6.2c-0.4-2.6-0.7-5-1.9-7.3C147,124.5,146.6,124.6,146.5,124.8L146.5,124.8z"/>
				</g>
			</g>
		</g>
	</g>
</g>
</svg>
