<?xml version="1.0" encoding="utf-8"?>
<!-- Generator: Adobe Illustrator 22.1.0, SVG Export Plug-In . SVG Version: 6.00 Build 0)  -->
<svg version="1.1" id="Layer_1" xmlns="http://www.w3.org/2000/svg" xmlns:xlink="http://www.w3.org/1999/xlink" x="0px" y="0px"
	 viewBox="0 0 1440 704" style="enable-background:new 0 0 1440 704;" xml:space="preserve">
<style type="text/css">
	.st0{opacity:0.4;}
	.st1{filter:url(#Adobe_OpacityMaskFilter);}
	.st2{fill:#FFFFFF;}
	.st3{mask:url(#mask-2_1_);fill:#F646FF;}
	.st4{filter:url(#Adobe_OpacityMaskFilter_1_);}
	.st5{mask:url(#mask-4_1_);fill:#C61CD3;}
	.st6{filter:url(#Adobe_OpacityMaskFilter_2_);}
	.st7{mask:url(#mask-6_1_);fill:#F646FF;}
</style>
<title>Group 10</title>
<desc>Created with Sketch.</desc>
<g id="Page-1" class="st0">
	<g id="Home" transform="translate(0.000000, -2958.000000)">
		<g id="Group-10" transform="translate(0.000000, 2958.000000)">
			<g id="Group-3" transform="translate(246.000000, 0.000000)">
				<g id="Clip-2">
				</g>
				<defs>
					<filter id="Adobe_OpacityMaskFilter" filterUnits="userSpaceOnUse" x="0.8" y="0.3" width="1193" height="574.7">
						<feColorMatrix  type="matrix" values="1 0 0 0 0  0 1 0 0 0  0 0 1 0 0  0 0 0 1 0"/>
					</filter>
				</defs>
				<mask maskUnits="userSpaceOnUse" x="0.8" y="0.3" width="1193" height="574.7" id="mask-2_1_">
					<g class="st1">
						<path id="path-1_1_" class="st2" d="M671.3,124.8C494.1,51,300.1-22.8,0.8,314.1l0,0l11.7,240.1c0,0,778.2,64.8,934.8-35.1
							l0,0c103.8-66.2,147.5-61.6,185.6-57l0,0c19.4,2.3,37.3,4.7,61-2.3l0,0V0.3C986.6,262,836.2,193.4,671.3,124.8"/>
					</g>
				</mask>
				<path id="Fill-1" class="st3" d="M671.3,124.8C494.1,51,300.1-22.8,0.8,314.1l0,0l11.7,240.1c0,0,778.2,64.8,934.8-35.1l0,0
					c103.8-66.2,147.5-61.6,185.6-57l0,0c19.4,2.3,37.3,4.7,61-2.3l0,0V0.3C986.6,262,836.2,193.4,671.3,124.8"/>
			</g>
			<g id="Group-6" transform="translate(301.000000, 268.000000)">
				<g id="Clip-5">
				</g>
				<defs>
					<filter id="Adobe_OpacityMaskFilter_1_" filterUnits="userSpaceOnUse" x="0.3" y="0.1" width="1139.4" height="311.8">
						<feColorMatrix  type="matrix" values="1 0 0 0 0  0 1 0 0 0  0 0 1 0 0  0 0 0 1 0"/>
					</filter>
				</defs>
				<mask maskUnits="userSpaceOnUse" x="0.3" y="0.1" width="1139.4" height="311.8" id="mask-4_1_">
					<g class="st4">
						<path id="path-3_1_" class="st2" d="M788.7,262.2c-104.4,21.6-123.3-6.3-315-124.3l0,0C282.9,20.8,134.4,56.9,134.4,56.9l0,0
							L0.3,92l72,101.8c0,0,287.1,102.7,412.2,116.2l0,0C609.6,323.5,836.4,264,905.7,255l0,0c70.2-9,234,13.5,234,13.5l0,0V0.1
							C966,75.8,960.6,227.1,788.7,262.2"/>
					</g>
				</mask>
				<path id="Fill-4" class="st5" d="M788.7,262.2c-104.4,21.6-123.3-6.3-315-124.3l0,0C282.9,20.8,134.4,56.9,134.4,56.9l0,0
					L0.3,92l72,101.8c0,0,287.1,102.7,412.2,116.2l0,0C609.6,323.5,836.4,264,905.7,255l0,0c70.2-9,234,13.5,234,13.5l0,0V0.1
					C966,75.8,960.6,227.1,788.7,262.2"/>
			</g>
			<g id="Group-9" transform="translate(0.000000, 170.000000)">
				<g id="Clip-8">
				</g>
				<defs>
					<filter id="Adobe_OpacityMaskFilter_2_" filterUnits="userSpaceOnUse" x="0" y="0.9" width="1440" height="532.7">
						<feColorMatrix  type="matrix" values="1 0 0 0 0  0 1 0 0 0  0 0 1 0 0  0 0 0 1 0"/>
					</filter>
				</defs>
				<mask maskUnits="userSpaceOnUse" x="0" y="0.9" width="1440" height="532.7" id="mask-6_1_">
					<g class="st6">
						<path id="path-5_1_" class="st2" d="M0,468.6c149.2,48.1,273.2,64.8,384.3,64.9l0,0h1.9c125.7-0.1,234.8-21.5,345.2-43l0,0
							c197.9-38.4,399.8-76.9,708.6,7.7l0,0V350.8c0,0-176.4-24.3-322.2,15.3l0,0c-337.5,91.8-348.3-100.8-579.6-107l0,0h-63
							l47.7-45l-205.2-10.8l-126.9,95.4c0,0,0-104.4-63-117.8l0,0c-62.1-13.5-58.5-45.9-72.9-111.5l0,0C47.7,36.8,23.4,15.2,0,0.9
							l0,0V468.6z M1440,350.8v-0.9V350.8z"/>
					</g>
				</mask>
				<path id="Fill-7" class="st7" d="M0,468.6c149.2,48.1,273.2,64.8,384.3,64.9l0,0h1.9c125.7-0.1,234.8-21.5,345.2-43l0,0
					c197.9-38.4,399.8-76.9,708.6,7.7l0,0V350.8c0,0-176.4-24.3-322.2,15.3l0,0c-337.5,91.8-348.3-100.8-579.6-107l0,0h-63l47.7-45
					l-205.2-10.8l-126.9,95.4c0,0,0-104.4-63-117.8l0,0c-62.1-13.5-58.5-45.9-72.9-111.5l0,0C47.7,36.8,23.4,15.2,0,0.9l0,0V468.6z
					 M1440,350.8v-0.9V350.8z"/>
			</g>
		</g>
	</g>
</g>
</svg>
