<?xml version="1.0" encoding="UTF-8"?>
<svg width="504px" height="482px" viewBox="0 0 504 482" version="1.1" xmlns="http://www.w3.org/2000/svg" xmlns:xlink="http://www.w3.org/1999/xlink">
    <!-- Generator: Sketch 61.1 (89650) - https://sketch.com -->
    <title>Group 27</title>
    <desc>Created with Sketch.</desc>
    <defs>
        <polygon id="path-1" points="0.000108079124 0.384445532 483.890308 0.384445532 483.890308 371.886479 0.000108079124 371.886479"></polygon>
        <polygon id="path-3" points="0.0401675286 0.0605901639 1.99452302 0.0605901639 1.99452302 5.90828482 0.0401675286 5.90828482"></polygon>
        <polygon id="path-5" points="0.0549807319 0.0525503457 1.9910957 0.0525503457 1.9910957 6 0.0549807319 6"></polygon>
        <polygon id="path-7" points="0.0641955692 0.0254188017 5.92986885 0.0254188017 5.92986885 1.93374966 0.0641955692 1.93374966"></polygon>
        <polygon id="path-9" points="0.0200837643 0.0403934426 0.997261511 0.0403934426 0.997261511 3.93885654 0.0200837643 3.93885654"></polygon>
        <polygon id="path-11" points="0.0274903659 0.0350335638 0.995547852 0.0350335638 0.995547852 4 0.0274903659 4"></polygon>
        <polygon id="path-13" points="0.0427970461 0.0127094009 3.9532459 0.0127094009 3.9532459 0.966874828 0.0427970461 0.966874828"></polygon>
        <polygon id="path-15" points="0.120502586 0.141377049 5.98356906 0.141377049 5.98356906 13.7859979 0.120502586 13.7859979"></polygon>
        <polygon id="path-17" points="0.164942196 0.122617473 5.97328711 0.122617473 5.97328711 14 0.164942196 14"></polygon>
        <polygon id="path-19" points="0.149789661 0.0762564052 13.8363607 0.0762564052 13.8363607 5.80124897 0.149789661 5.80124897"></polygon>
        <polygon id="path-21" points="0.0200837643 0.030295082 0.997261511 0.030295082 0.997261511 2.95414241 0.0200837643 2.95414241"></polygon>
        <polygon id="path-23" points="0.0274903659 0.0262751729 0.995547852 0.0262751729 0.995547852 3 0.0274903659 3"></polygon>
        <polygon id="path-25" points="0.0320977846 0.0127094009 2.96493443 0.0127094009 2.96493443 0.966874828 0.0320977846 0.966874828"></polygon>
        <polygon id="path-27" points="0.000561876209 0.584 162.467365 0.584 162.467365 118.6307 0.000561876209 118.6307"></polygon>
    </defs>
    <g id="Page-1" stroke="none" stroke-width="1" fill="none" fill-rule="evenodd">
        <g id="Home-Copy" transform="translate(-234.000000, -1754.000000)">
            <g id="Group-27" transform="translate(234.000000, 1753.000000)">
                <g id="Group-26" transform="translate(0.000000, 36.000000)">
                    <g id="Group-4" transform="translate(0.000000, 10.000000)">
                        <g id="Group-2" opacity="0.439429874">
                            <g id="Group-12-Copy" transform="translate(0.851955, 0.473282)">
                                <path d="M28.2995746,56.8092347 C28.9204354,44.8473644 30.62752,32.4608858 37.182182,22.4289504 C46.8750749,7.59363386 65.5116436,0.780138968 83.2367116,0.074340624 C111.272141,-1.04251468 138.272802,10.5771846 162.522563,24.6711306 C186.771759,38.7650766 209.557013,55.6184117 235.327826,66.6988811 C282.562444,87.0083696 335.687889,86.368634 386.959233,90.3724868 C403.881931,91.694306 421.838833,93.9901268 434.921015,104.789971 C445.825096,113.791441 451.78208,127.666307 453.96414,141.624739 C459.712475,178.387799 440.931152,215.980313 412.633355,240.187502 C384.335558,264.39582 347.789021,276.930799 311.236263,284.155351 C270.573836,292.191853 228.125728,294.239798 187.876643,284.342246 C112.408124,265.784267 58.3095448,206.330073 37.2234596,133.105471 C30.1056124,108.389542 26.9668159,82.5042469 28.2995746,56.8092347" id="Fill-1" fill="#90CCFF"></path>
                                <g id="Group-5">
                                    <mask id="mask-2" fill="white">
                                        <use xlink:href="#path-1"></use>
                                    </mask>
                                    <g id="Clip-4"></g>
                                    <path d="M266.080018,58.5485252 C304.498649,34.4514025 342.733518,5.576101 387.890831,0.953438273 C402.71842,-0.564535078 418.169102,0.765241132 431.578616,7.25240787 C450.455181,16.3850404 463.343378,34.7646888 471.23156,54.1422328 C488.623896,96.8686186 485.045915,144.972146 478.457635,190.610516 C473.769167,223.086919 467.432499,256.111574 450.879812,284.474686 C428.497074,322.826333 388.791546,349.250564 346.076284,361.758349 C303.362153,374.266134 257.745153,373.889176 213.668924,367.635284 C170.44535,361.501409 127.489784,349.585262 90.058943,327.188675 C52.6281019,304.792089 20.9605925,271.214112 6.17201776,230.27729 C0.7502,215.27054 -2.34491215,198.70074 2.18410654,183.402679 C14.924728,140.370895 84.4884196,138.819114 119.180364,127.424171 C170.70205,110.502206 220.166172,87.3460686 266.080018,58.5485252" id="Fill-3" fill="#4DBCFF" mask="url(#mask-2)"></path>
                                </g>
                                <path d="M269.323514,329 C253.631271,329 236.601004,327.709365 218.70642,325.166471 C175.055301,318.961606 139.842156,307.556391 111.055142,290.301843 C92.4392575,279.143243 75.5378747,264.691747 62.66413,247.162932 C53.0701547,234.100829 31.2547707,203.021197 48.3370439,188.874442 C53.4862026,184.61089 60.1898883,182.754791 66.7545145,181.470365 C76.8058035,179.504785 86.8327852,177.729951 96.8264153,175.641911 C109.194797,173.058384 120.878057,170.616506 131.573203,167.097876 C186.505665,149.022784 239.066766,124.334248 287.795817,93.7162416 C293.629533,90.0503202 299.44403,86.2890261 305.065764,82.6518858 C334.792843,63.420471 362.870992,45.2550854 391.234044,42.3470661 C393.482738,42.1162531 395.672642,42 397.745533,42 C403.511981,42 408.419198,42.898986 411.938082,44.6015853 C428.484468,52.60668 435.03157,78.7337065 437.681049,95.151346 C446.179507,147.802127 439.339023,229.642017 405.68097,273.485218 C373.923396,314.852681 319.265097,329 269.323514,329 Z" id="Stroke-6" stroke="#FFF0DE" stroke-width="1.33"></path>
                                <path d="M270.538678,288 C238.311248,287.941225 204.000499,282.056835 173.95268,272.977495 C158.690871,268.36565 143.674892,262.348232 130.202992,253.734209 C127.059322,251.724063 93.8785954,223.006314 97.2386403,221.043719 C103.516917,217.376094 110.862909,216.115436 117.993092,214.685521 C169.347629,204.39081 217.945932,183.617413 263.7121,158.54125 C283.151308,147.887079 301.881915,135.78318 320.958044,124.498963 C329.097033,119.683896 384.864603,80.331789 392.676764,86.6939498 C394.454778,88.1408474 395.062554,90.5523435 395.523059,92.7979785 C401.199791,120.454895 398.987327,154.069792 395.525891,182.077112 C392.149986,209.392117 382.878709,237.032051 363.417411,256.505165 C343.472384,276.462843 314.791353,285.741442 286.622939,287.520062 C281.341007,287.854049 275.96958,288.00972 270.538678,288 Z" id="Stroke-8" stroke="#FFF0DE" stroke-width="1.33"></path>
                                <path d="M269.954078,244.998873 C247.436581,244.957726 222.310022,241.55892 198,235.332847 C225.602276,225.073299 253.993852,211.963375 283.607115,195.837926 C297.077439,188.49921 310.00189,180.653772 322.500199,173.06705 C329.277634,168.954099 335.678294,165.069427 342.179956,161.246192 C344.45707,159.906961 347.130253,158.161339 352.480024,154.649802 C353.331176,154.091789 354.171546,153.541667 355,153 C354.475691,160.454828 353.689794,168.39665 352.644013,176.808555 C350.739136,192.125731 345.726988,213.110965 332.665217,226.102523 C322.004261,236.705334 304.471675,243.275796 283.297296,244.606573 C279.147649,244.866979 274.784079,245 270.328017,245 L269.954078,244.998873 Z" id="Stroke-10" stroke="#FFF0DE" stroke-width="1.33"></path>
                            </g>
                        </g>
                        <path d="" id="Path-2" stroke="#979797"></path>
                    </g>
                    <g id="Group-50-Copy" transform="translate(348.500000, 40.500000) scale(1, -1) rotate(43.000000) translate(-348.500000, -40.500000) translate(323.000000, 10.000000)">
                        <path d="M29.1163943,10.644937 C29.8136585,8.99564489 32.0103685,8.50975569 33.609785,8.05283042 C34.2947398,7.85713117 34.0029955,6.82808569 33.3137842,7.02488623 C31.2436195,7.61627902 28.9248509,8.27485051 28.0427156,10.3616851 C27.7739796,10.9972397 28.8506494,11.2737736 29.1163943,10.644937" id="Fill-1" fill="#0066CF"></path>
                        <path d="M27.1016194,6.25161473 C26.4714742,4.7555798 27.3431673,3.07622064 27.9491015,1.74418602 C28.2055701,1.18045391 27.4224633,0.683495529 27.1648686,1.24985811 C26.3820433,2.97079909 25.5207666,4.85462749 26.3172927,6.74594263 C26.5586529,7.31888142 27.3416658,6.82172069 27.1016194,6.25161473" id="Fill-3" fill="#0066CF"></path>
                        <g id="Group-7" transform="translate(17.000000, 0.000000)">
                            <mask id="mask-4" fill="white">
                                <use xlink:href="#path-3"></use>
                            </mask>
                            <g id="Clip-6"></g>
                            <path d="M1.88297647,5.22634426 C0.670858824,3.88785246 1.28497647,2.14106557 1.71485882,0.653557377 C1.88697647,0.0582786885 0.789211765,-0.195786885 0.616858824,0.40047541 C0.117917647,2.12680328 -0.501847059,4.15913115 0.899682353,5.70693443 C1.33650588,6.18919672 2.3258,5.71539344 1.88297647,5.22634426" id="Fill-5" fill="#0066CF" mask="url(#mask-4)"></path>
                        </g>
                        <path d="M11.8614096,7.16705397 C10.7550208,6.06349408 10.816404,4.10658977 10.8018244,2.48839049 C10.7959429,1.83803923 9.99415068,1.83636765 10.0000322,2.48839049 C10.0169312,4.3666258 10.0146946,6.60550569 11.294464,7.88207468 C11.6949045,8.28158363 12.2660748,7.5706374 11.8614096,7.16705397" id="Fill-8" fill="#0066CF"></path>
                        <path d="M6.51792325,11.8380074 C4.84296254,11.6947791 3.80657088,9.70372635 2.95441972,8.26077639 C2.59236693,7.64783129 1.72238269,8.22757619 2.08785694,8.8462744 C3.17930302,10.6944585 4.40833331,12.8177128 6.51792325,12.9980965 C7.16219474,13.0532304 7.159188,11.8927818 6.51792325,11.8380074" id="Fill-10" fill="#0066CF"></path>
                        <path d="M5.38477023,17.1185561 C3.71047153,17.5464997 2.11092854,16.7013996 0.745856082,16.0595235 C0.193517634,15.7997652 -0.313009519,16.4588063 0.237246597,16.717541 C1.84668066,17.474454 3.69662403,18.3534117 5.65266218,17.8534224 C6.26372238,17.6972839 6.00155684,16.9608429 5.38477023,17.1185561" id="Fill-12" fill="#0066CF"></path>
                        <path d="M7.01140442,22.2994457 C6.14942482,24.1445756 4.04140654,24.4696066 2.3850276,24.8358212 C1.71088137,24.9850198 1.99622025,26.135575 2.6691518,25.9867463 C4.62489363,25.5541938 6.92494144,25.0622085 7.93433877,22.9019119 C8.25214267,22.2216405 7.3299813,21.6175712 7.01140442,22.2994457" id="Fill-14" fill="#0066CF"></path>
                        <path d="M11.0114955,28.2994583 C10.1495043,30.1446435 8.04145786,30.4696841 6.38494633,30.8359097 C5.71090151,30.9849894 5.99624421,32.135579 6.66918476,31.9867459 C8.62495275,31.5543037 10.9250313,31.0621804 11.9343317,28.9018193 C12.2521399,28.2216508 11.3300766,27.6175635 11.0114955,28.2994583" id="Fill-16" fill="#0066CF"></path>
                        <path d="M17.0114375,32.2995316 C16.1494563,34.1445569 14.0414342,34.4695911 12.3849419,34.8359327 C11.7109049,34.9850095 11.9962443,36.1355763 12.669177,35.9867462 C14.6249224,35.5543126 16.9249744,35.062199 17.9343735,32.9018806 C18.2520676,32.2216023 17.330015,31.6175269 17.0114375,32.2995316" id="Fill-18" fill="#0066CF"></path>
                        <path d="M18.2956014,40.0562013 C16.9054353,40.6763774 15.1192598,40.3265948 13.6056936,40.0817346 C12.9978676,39.9833815 12.7385662,40.561849 13.3462913,40.6601401 C15.1095813,40.9454695 17.1759274,41.2934548 18.7880927,40.5741199 C19.2914721,40.3495873 18.8050299,39.8289418 18.2956014,40.0562013" id="Fill-20" fill="#0066CF"></path>
                        <path d="M17.1200403,50.5063816 C17.3264247,48.7946329 19.3263929,47.7929413 20.738108,46.974911 C21.3457313,46.6227688 20.7861875,45.7271261 20.1747595,46.0814063 C18.3438189,47.1424297 16.2660242,48.3333416 16.0040659,50.5063816 C15.9243946,51.167156 17.0410609,51.1619177 17.1200403,50.5063816" id="Fill-22" fill="#0066CF"></path>
                        <path d="M21.3106389,56.3465591 C20.9118495,54.6281627 22.6084741,53.1246468 23.8424663,51.9121999 C24.3631736,51.4006467 23.4701581,50.6589107 22.9452558,51.1745589 C21.3583573,52.7337886 19.5836003,54.4539092 20.0871342,56.6238345 C20.2398593,57.2824849 21.4631017,57.003593 21.3106389,56.3465591" id="Fill-24" fill="#0066CF"></path>
                        <g id="Group-28" transform="translate(29.000000, 55.000000)">
                            <mask id="mask-6" fill="white">
                                <use xlink:href="#path-5"></use>
                            </mask>
                            <g id="Clip-27"></g>
                            <path d="M1.88110588,5.30496 C0.680164706,3.93836 1.31016471,2.16386 1.75134118,0.65486 C1.92816471,0.05026 0.830282353,-0.20764 0.653341176,0.39756 C0.140752941,2.15036 -0.492070588,4.21176 0.897811765,5.79356 C1.33134118,6.28676 2.32028235,5.80476 1.88110588,5.30496" id="Fill-26" fill="#0066CF" mask="url(#mask-6)"></path>
                        </g>
                        <path d="M40.5738253,58.0406992 C38.6098989,57.5368182 37.8796023,55.7012517 37.2271616,54.327676 C36.9525701,53.7496125 35.7639012,54 36.0417949,54.5850152 C36.8684907,56.3255042 37.7901886,58.3434277 40.2470334,58.9737789 C41.0009536,59.1672332 41.3239352,58.2331538 40.5738253,58.0406992" id="Fill-29" fill="#0066CF"></path>
                        <path d="M48.5259919,49.8044091 C46.877441,49.7144242 45.8157933,47.7232779 44.9412801,46.2594502 C44.5731067,45.6431341 43.7195217,46.2387129 44.0921651,46.8624351 C45.2022727,48.720394 46.4589791,50.8862023 48.5259919,50.9992697 C49.1587136,51.0337083 49.1572913,49.8388477 48.5259919,49.8044091" id="Fill-31" fill="#0066CF"></path>
                        <path d="M30.1163943,17.6449295 C30.8136585,15.9956028 33.0103685,15.5095933 34.609785,15.0527686 C35.2947398,14.8570652 35.0029955,13.8279982 34.3137842,14.024913 C32.2436195,14.616208 29.9248509,15.2747933 29.0427156,17.3616717 C28.7739796,17.9972396 29.8506494,18.2737794 30.1163943,17.6449295" id="Fill-33" fill="#0066CF"></path>
                        <path d="M33.1163943,24.6450171 C33.8136585,22.9956996 36.0103685,22.5096928 37.609785,22.0527605 C38.2947398,21.8571683 38.0029955,20.8279968 37.3137842,21.0249106 C35.2436195,21.6163125 32.9248509,22.274784 32.0427156,24.3616508 C31.7739796,24.9972151 32.8506494,25.2737533 33.1163943,24.6450171" id="Fill-35" fill="#0066CF"></path>
                        <path d="M39.1195696,30.5062666 C39.3266676,28.7940549 41.3266556,27.7928227 42.7380797,26.9751106 C43.3456593,26.6230431 42.786368,25.7271531 42.1749852,26.0813596 C40.3441791,27.1420539 38.2670912,28.3323673 38.0040986,30.5062666 C37.9241175,31.1671954 39.04028,31.161955 39.1195696,30.5062666" id="Fill-37" fill="#0066CF"></path>
                        <path d="M43.9826712,35.6943001 C44.8752397,33.8063877 46.9822902,33.5370532 48.6183568,33.2102522 C49.28672,33.0766777 49.0033008,31.8773359 48.337773,32.0102676 C46.3892802,32.3995491 44.1232358,32.8414118 43.0712372,35.066153 C42.7402726,35.7664226 43.6514885,36.3945697 43.9826712,35.6943001" id="Fill-39" fill="#0066CF"></path>
                        <g id="Group-43" transform="translate(45.000000, 39.000000)">
                            <mask id="mask-8" fill="white">
                                <use xlink:href="#path-7"></use>
                            </mask>
                            <g id="Clip-42"></g>
                            <path d="M0.888816393,1.79694737 C2.07799672,0.647263158 3.89717705,1.04663158 5.3320623,1.28357895 C5.93147213,1.38263158 6.18976721,0.401052632 5.58514426,0.301157895 C3.7615377,-0.000105263158 1.70796393,-0.366210526 0.215636066,1.07652632 C-0.239970492,1.51705263 0.434980328,2.23568421 0.888816393,1.79694737" id="Fill-41" fill="#0066CF" mask="url(#mask-8)"></path>
                        </g>
                        <path d="M10.0207312,8.33480668 C6.99359589,10.8682806 4.86885248,14.773047 5.00630219,18.5740124 C5.11230704,21.508785 6.78731327,24.894547 8.84527687,26.960971 C11.2468647,29.37232 14.6407487,29.7358925 16.6263135,32.7784541 C19.6963478,37.4833386 17.7693505,43.2621255 19.7310344,48.1945526 C21.6135119,52.9276778 25.0770933,55.4211621 30.0798521,55.9344535 C35.4126198,56.4815908 40.8404786,53.5506986 43.7812756,49.1130232 C47.6260854,43.3111695 46.2548301,36.7818474 41.3567794,32.2652704 C37.4395708,28.6530436 32.0098751,25.7424158 31.0032072,20.0314282 C30.6565573,18.0650325 30.8254519,16.0471136 30.6717935,14.0565731 C30.0034551,5.40251322 19.7415161,3.18583129 12.9562334,6.40452028 C12.000785,6.96383768 11.0246976,7.6127278 10.0207312,8.33480668" id="Fill-44" fill="#00ADFF"></path>
                        <path d="M41.2641441,32.5898296 C37.2687845,29.0269983 31.7307627,26.1561719 30.7040112,20.5232794 C30.3504454,18.5838795 30.5227096,16.5934483 30.3658754,14.6301275 C29.9716407,9.69242944 26.3028445,6.87954475 21.9402527,6 C24.0854536,7.57824753 25.7016284,9.85009472 26.0069205,11.911757 C27.0736797,20.3497731 30.9140787,27.1413938 37.3147437,32.698271 C43.075287,37.6375638 40.3016472,46.281406 33.9009822,49.1627576 C31.7674639,49.9859554 28.7805604,50.6034334 26.4336683,49.5744097 C23.6600284,48.3395599 20.8863886,46.4873384 19.8196294,43.6059867 C19.3169444,42.3329698 18.7205777,41.0606971 18,39.8823007 C18.2038955,42.7318641 18.1128589,45.6412829 19.2069511,48.3012864 C21.1269852,52.9695821 24.6596674,55.4290754 29.7621243,55.9353479 C35.2012843,56.4750033 40.7374324,53.584296 43.7370106,49.2073037 C47.6585269,43.4847875 46.2599141,37.0446446 41.2641441,32.5898296" id="Fill-46" fill="#0066CF" opacity="0.745186942"></path>
                        <path d="M19.0817372,20.4385101 C17.8265735,21.5314423 16.9456312,23.2158193 17.0026123,24.8553816 C17.046533,26.1213423 17.7410492,27.5819737 18.5943962,28.4733491 C19.5901433,29.5134874 20.9972916,29.6703389 21.8206208,30.9828631 C23.0935845,33.0123134 22.2945855,35.5052132 23.1080141,37.6329278 C23.8884759,39.6746201 25.3245887,40.7502823 27.398974,40.9717325 C29.6100717,41.2077202 31.8606664,39.943399 33.0800194,38.0291554 C34.6742258,35.5263089 34.1056789,32.7098688 32.0747931,30.7614129 C30.450569,29.2032822 28.1992369,27.9477054 27.7818321,25.4840991 C27.6380628,24.6358989 27.7081042,23.7654006 27.6443823,22.9067072 C27.367271,19.1736424 23.1123325,18.2174497 20.2988784,19.605831 C19.9027493,19.8471746 19.4979835,20.1269932 19.0817372,20.4385101" id="Fill-48" fill="#0066CF" opacity="0.569545201"></path>
                    </g>
                    <g id="Group-50-Copy-4" opacity="0.554338728" transform="translate(50.500000, 202.500000) scale(1, -1) rotate(-52.000000) translate(-50.500000, -202.500000) translate(33.000000, 182.000000)">
                        <path d="M20.2442629,7.73370272 C20.7091057,6.49673367 22.173579,6.13231677 23.2398567,5.78962282 C23.6964932,5.64284838 23.501997,4.87106427 23.0425228,5.01866468 C21.662413,5.46220927 20.1165672,5.95613788 19.5284771,7.52126386 C19.3493197,7.99792975 20.0670996,8.20533021 20.2442629,7.73370272" id="Fill-1" fill="#0066CF"></path>
                        <path d="M19.0508097,4.50107649 C18.7357371,3.50371986 19.1715836,2.38414709 19.4745507,1.49612401 C19.6027851,1.12030261 19.2112317,0.788997019 19.0824343,1.16657208 C18.6910216,2.31386606 18.2603833,3.56975166 18.6586463,4.83062842 C18.7793264,5.21258761 19.1708329,4.88114713 19.0508097,4.50107649" id="Fill-3" fill="#0066CF"></path>
                        <g id="Group-7" transform="translate(12.500000, 0.000000)">
                            <mask id="mask-10" fill="white">
                                <use xlink:href="#path-9"></use>
                            </mask>
                            <g id="Clip-6"></g>
                            <path d="M0.941488235,3.48422951 C0.335429412,2.59190164 0.642488235,1.42737705 0.857429412,0.435704918 C0.943488235,0.038852459 0.394605882,-0.13052459 0.308429412,0.266983607 C0.0589588235,1.41786885 -0.250923529,2.7727541 0.449841176,3.80462295 C0.668252941,4.12613115 1.1629,3.8102623 0.941488235,3.48422951" id="Fill-5" fill="#0066CF" mask="url(#mask-10)"></path>
                        </g>
                        <path d="M8.43070479,4.44470264 C7.87751039,3.70899605 7.90820199,2.40439318 7.90091222,1.32559366 C7.89797146,0.892026155 7.49707534,0.890911765 7.5000161,1.32559366 C7.50846561,2.57775053 7.50734729,4.07033713 8.14723201,4.92138312 C8.34745226,5.18772242 8.63303742,4.71375827 8.43070479,4.44470264" id="Fill-8" fill="#0066CF"></path>
                        <path d="M5.21075395,8.30280445 C4.20577753,8.21686749 3.58394253,7.02223581 3.07265183,6.15646583 C2.85542016,5.78869877 2.33342962,6.13654572 2.55271417,6.50776464 C3.20758181,7.6166751 3.94499998,8.89062768 5.21075395,8.99885791 C5.59731684,9.03193825 5.5955128,8.33566905 5.21075395,8.30280445" id="Fill-10" fill="#0066CF"></path>
                        <path d="M4.08984682,11.559278 C2.97364769,11.7732499 1.90728569,11.3506998 0.997237388,11.0297617 C0.629011756,10.8998826 0.291326987,11.2294032 0.658164398,11.3587705 C1.73112044,11.737227 2.96441602,12.1767059 4.26844146,11.9267112 C4.67581492,11.848642 4.50103789,11.4804215 4.08984682,11.559278" id="Fill-12" fill="#0066CF"></path>
                        <path d="M5.84093628,15.2245842 C5.26628321,16.6084317 3.8609377,16.8522049 2.75668507,17.1268659 C2.30725424,17.2387648 2.49748016,18.1016812 2.9461012,17.9900597 C4.24992909,17.6656453 5.78329429,17.2966563 6.45622585,15.6764339 C6.66809512,15.1662303 6.05332087,14.7131784 5.84093628,15.2245842" id="Fill-14" fill="#0066CF"></path>
                        <path d="M7.84099697,19.2245937 C7.26633622,20.6084826 5.86097191,20.8522631 4.75663089,21.1269323 C4.30726767,21.2387421 4.49749614,22.1016842 4.94612317,21.9900594 C6.2499685,21.6657278 7.78335421,21.2966353 8.45622115,19.6763644 C8.66809325,19.1662381 8.0533844,18.7131726 7.84099697,19.2245937" id="Fill-16" fill="#0066CF"></path>
                        <path d="M11.8409583,21.2246487 C11.2663042,22.6084177 9.86095617,22.8521933 8.75662792,23.1269496 C8.3072699,23.2387571 8.49749617,24.1016822 8.94611801,23.9900596 C10.2499483,23.6657344 11.7833162,23.2966492 12.456249,21.6764105 C12.668045,21.1662017 12.0533433,20.7131452 11.8409583,21.2246487" id="Fill-18" fill="#0066CF"></path>
                        <path d="M13.030401,27.0562013 C12.1036235,27.6763774 10.9128399,27.3265948 9.90379571,27.0817346 C9.49857842,26.9833815 9.32571081,27.561849 9.73086088,27.6601401 C10.9063876,27.9454695 12.2839516,28.2934548 13.3587284,27.5741199 C13.6943148,27.3495873 13.37002,26.8289418 13.030401,27.0562013" id="Fill-20" fill="#0066CF"></path>
                        <path d="M12.1720242,33.703829 C12.2958548,32.6767797 13.4958357,32.0757648 14.3428648,31.5849466 C14.7074388,31.3736613 14.3717125,30.8362757 14.0048557,31.0488438 C12.9062913,31.6854578 11.6596145,32.400005 11.5024396,33.703829 C11.4546368,34.1002936 12.1246365,34.0971506 12.1720242,33.703829" id="Fill-22" fill="#0066CF"></path>
                        <path d="M15.4829792,37.5643727 C15.1838871,36.4187752 16.4563556,35.4164312 17.3818498,34.6081333 C17.7723802,34.2670978 17.1026185,33.7726071 16.7089419,34.1163726 C15.5187679,35.1558591 14.1877003,36.3026061 14.5653506,37.749223 C14.6798944,38.1883232 15.5973263,38.0023953 15.4829792,37.5643727" id="Fill-24" fill="#0066CF"></path>
                        <g id="Group-28" transform="translate(20.500000, 37.000000)">
                            <mask id="mask-12" fill="white">
                                <use xlink:href="#path-11"></use>
                            </mask>
                            <g id="Clip-27"></g>
                            <path d="M0.940552941,3.53664 C0.340082353,2.62557333 0.655082353,1.44257333 0.875670588,0.436573333 C0.964082353,0.0335066667 0.415141176,-0.138426667 0.326670588,0.26504 C0.0703764706,1.43357333 -0.246035294,2.80784 0.448905882,3.86237333 C0.665670588,4.19117333 1.16014118,3.86984 0.940552941,3.53664" id="Fill-26" fill="#0066CF" mask="url(#mask-12)"></path>
                        </g>
                        <path d="M28.2442952,38.4244195 C27.0659393,38.1220909 26.6277614,37.020751 26.236297,36.1966056 C26.071542,35.8497675 25.3583407,36 25.525077,36.3510091 C26.0210944,37.3953025 26.5741131,38.6060566 28.04822,38.9842673 C28.5005721,39.1003399 28.6943611,38.5398923 28.2442952,38.4244195" id="Fill-29" fill="#0066CF"></path>
                        <path d="M33.2155952,33.2826454 C32.2264646,33.2286545 31.589476,32.0339667 31.064768,31.1556701 C30.843864,30.7858805 30.331713,31.1432277 30.555299,31.5174611 C31.2213636,32.6322364 31.9753875,33.9317214 33.2155952,33.9995618 C33.5952282,34.020225 33.5943748,33.3033086 33.2155952,33.2826454" id="Fill-31" fill="#0066CF"></path>
                        <path d="M21.2442629,11.7336971 C21.7091057,10.4967021 23.173579,10.132195 24.2398567,9.78957644 C24.6964932,9.64279892 24.501997,8.87099862 24.0425228,9.01868472 C22.662413,9.46215602 21.1165672,9.956095 20.5284771,11.5212538 C20.3493197,11.9979297 21.0670996,12.2053345 21.2442629,11.7336971" id="Fill-33" fill="#0066CF"></path>
                        <path d="M23.2442629,16.7337628 C23.7091057,15.4967747 25.173579,15.1322696 26.2398567,14.7895704 C26.6964932,14.6428762 26.501997,13.8709976 26.0425228,14.0186829 C24.662413,14.4622344 23.1165672,14.956088 22.5284771,16.5212381 C22.3493197,16.9979113 23.0670996,17.205315 23.2442629,16.7337628" id="Fill-35" fill="#0066CF"></path>
                        <path d="M27.1717418,20.70376 C27.2960006,19.6764329 28.4959934,19.0756936 29.3428478,18.5850664 C29.7073956,18.3738258 29.3718208,17.8362919 29.0049911,18.0488158 C27.9065075,18.6852324 26.6602547,19.3994204 26.5024592,20.70376 C26.4544705,21.1003172 27.124168,21.097173 27.1717418,20.70376" id="Fill-37" fill="#0066CF"></path>
                        <path d="M30.1551142,23.7707251 C30.7501598,22.3547908 32.1548602,22.1527899 33.2455712,21.9076892 C33.6911466,21.8075083 33.5022006,20.9080019 33.0585153,21.0077007 C31.7595201,21.2996618 30.2488239,21.6310589 29.5474915,23.2996147 C29.3268484,23.8248169 29.9343257,24.2959272 30.1551142,23.7707251" id="Fill-39" fill="#0066CF"></path>
                        <g id="Group-43" transform="translate(30.500000, 26.000000)">
                            <mask id="mask-14" fill="white">
                                <use xlink:href="#path-13"></use>
                            </mask>
                            <g id="Clip-42"></g>
                            <path d="M0.592544262,0.898473684 C1.38533115,0.323631579 2.59811803,0.523315789 3.5547082,0.641789474 C3.95431475,0.691315789 4.12651148,0.200526316 3.72342951,0.150578947 C2.5076918,-5.26315789e-05 1.13864262,-0.183105263 0.143757377,0.538263158 C-0.159980328,0.758526316 0.289986885,1.11784211 0.592544262,0.898473684" id="Fill-41" fill="#0066CF" mask="url(#mask-14)"></path>
                        </g>
                        <path d="M7.80633519,5.22320445 C5.81285583,6.91218709 4.41363456,9.51536464 4.50415022,12.0493416 C4.57395829,14.0058567 5.67701118,16.2630314 7.0322555,17.6406474 C8.61378898,19.2482133 10.8487858,19.490595 12.1563528,21.5189694 C14.1780827,24.6555591 12.9090845,28.5080836 14.2009251,31.7963684 C15.4406054,34.9517852 17.7215005,36.614108 21.0160002,36.9563024 C24.5278228,37.3210605 28.1022664,35.3671324 30.0388888,32.4086821 C32.5708367,28.5407796 31.6678149,24.1878983 28.4422694,21.176847 C25.8626442,18.7686957 22.2869909,16.8282772 21.6240633,13.0209522 C21.3957817,11.7100217 21.5070049,10.3647424 21.4058152,9.0377154 C20.96569,3.26834214 14.2078277,1.7905542 9.73947078,3.93634685 C9.11027307,4.30922512 8.46748379,4.74181853 7.80633519,5.22320445" id="Fill-44" fill="#00ADFF"></path>
                        <path d="M28.2863835,22.0810841 C25.5752466,19.6583588 21.8173033,17.7061969 21.120579,13.87583 C20.8806594,12.557038 20.9975529,11.2035449 20.8911297,9.86848673 C20.6236133,6.51085202 18.1340731,4.59809043 15.1737429,4 C16.6294149,5.07320832 17.726105,6.61806441 17.9332675,8.01999474 C18.6571398,13.7578457 21.2631248,18.3761478 25.6064332,22.1548243 C29.5153734,25.5135434 27.6332606,31.3913561 23.2899522,33.3506752 C21.8422077,33.9104497 19.8153803,34.3303347 18.2228463,33.6305986 C16.3407336,32.7909007 14.4586208,31.5313901 13.7347485,29.572071 C13.3936408,28.7064195 12.9889634,27.8412741 12.5,27.0399645 C12.6383576,28.9776676 12.5765828,30.9560723 13.3190025,32.7648748 C14.6218828,35.9393158 17.01906,37.6117713 20.4814415,37.9560366 C24.1723001,38.3230022 27.928972,36.3573213 29.9644,33.3809665 C32.625429,29.4896555 31.6763703,25.1103583 28.2863835,22.0810841" id="Fill-46" fill="#0066CF" opacity="0.745186942"></path>
                        <path d="M13.8470064,13.9808023 C13.0348417,14.7259834 12.4648202,15.8744223 12.5016903,16.9923056 C12.5301096,17.8554607 12.9795024,18.8513457 13.5316681,19.4591016 C14.1759751,20.1682869 15.0864828,20.275231 15.6192253,21.170134 C16.4429076,22.55385 15.9259083,24.2535544 16.4522444,25.704269 C16.9572491,27.0963319 17.8864986,27.8297379 19.2287479,27.9807267 C20.6594581,28.1416274 22.1157253,27.2795902 22.9047185,25.9744241 C23.9362638,24.2679379 23.5683805,22.3476378 22.2542779,21.0191452 C21.2033093,19.9567833 19.7465651,19.1007082 19.4764796,17.4209767 C19.3834524,16.8426583 19.4287733,16.2491368 19.3875415,15.663664 C19.2082342,13.1183926 16.4550387,12.466443 14.6345684,13.4130666 C14.3782495,13.577619 14.1163422,13.7684045 13.8470064,13.9808023" id="Fill-48" fill="#0066CF" opacity="0.569545201"></path>
                    </g>
                    <g id="Group-50-Copy-2" transform="translate(446.000000, 224.000000) scale(1, -1) translate(-446.000000, -224.000000) translate(388.000000, 155.000000)">
                        <path d="M65.6049201,24.2898739 C67.2318698,20.9912898 72.3575264,20.0195114 76.0894983,19.1056608 C77.6877261,18.7142623 77.0069895,16.6561714 75.3988298,17.0497725 C70.5684454,18.232558 65.1579854,19.549701 63.0996698,23.7233703 C62.4726191,24.9944793 64.9848485,25.5475472 65.6049201,24.2898739" id="Fill-1" fill="#0066CF"></path>
                        <path d="M61.3048583,15.2537677 C59.4144225,11.7630195 62.0295019,7.84451482 63.8473044,4.73643404 C64.6167103,3.42105913 62.2673899,2.26148957 61.4946057,3.58300227 C59.1461299,7.59853121 56.5622997,11.9941308 58.9518781,16.4071995 C59.6759586,17.7440566 62.0249975,16.5840149 61.3048583,15.2537677" id="Fill-3" fill="#0066CF"></path>
                        <g id="Group-7" transform="translate(38.000000, 0.000000)">
                            <mask id="mask-16" fill="white">
                                <use xlink:href="#path-15"></use>
                            </mask>
                            <g id="Clip-6"></g>
                            <path d="M5.64892941,12.1948033 C2.01257647,9.07165574 3.85492941,4.99581967 5.14457647,1.52496721 C5.66092941,0.135983607 2.36763529,-0.456836066 1.85057647,0.934442623 C0.353752941,4.96254098 -1.50554118,9.70463934 2.69904706,13.3161803 C4.00951765,14.441459 6.9774,13.335918 5.64892941,12.1948033" id="Fill-5" fill="#0066CF" mask="url(#mask-16)"></path>
                        </g>
                        <path d="M27.5842287,17.0564593 C24.2650623,14.4814862 24.449212,9.91537613 24.4054733,6.1395778 C24.3878288,4.62209154 21.982452,4.61819118 22.0000966,6.1395778 C22.0507937,10.5221269 22.0440838,15.74618 25.8833921,18.7248409 C27.0847136,19.6570285 28.7982245,17.9981539 27.5842287,17.0564593" id="Fill-8" fill="#0066CF"></path>
                        <path d="M15.9394312,27.4436163 C12.2545176,27.1285141 9.97445594,22.748198 8.09972338,19.5737081 C7.30320725,18.2252288 5.38924193,19.5006676 6.19328528,20.8618037 C8.59446665,24.9278087 11.2983333,29.5989681 15.9394312,29.9958123 C17.3568284,30.1171069 17.3502136,27.5641199 15.9394312,27.4436163" id="Fill-10" fill="#0066CF"></path>
                        <path d="M12.5644639,39.3556683 C8.65776691,40.6394992 4.92549993,38.1041988 1.74033086,36.1785704 C0.451541147,35.3992957 -0.730355544,37.376419 0.553575394,38.152623 C4.30892155,40.4233621 8.62545606,43.0602352 13.1895451,41.5602671 C14.6153522,41.0918518 14.0036326,38.8825287 12.5644639,39.3556683" id="Fill-12" fill="#0066CF"></path>
                        <path d="M16.693277,50.5988913 C14.6819912,54.2891513 9.76328194,54.9392131 5.89839773,55.6716424 C4.32538986,55.9700396 4.99118058,58.2711499 6.5613542,57.9734926 C11.1247518,57.1083876 16.49153,56.1244169 18.8467905,51.8038238 C19.5883329,50.4432809 17.436623,49.2351425 16.693277,50.5988913" id="Fill-14" fill="#0066CF"></path>
                        <path d="M25.6934894,64.5989166 C23.6821768,68.2892869 18.7634017,68.9393682 14.8982081,69.6718194 C13.3254369,69.9699788 13.9912365,72.271158 15.5614311,71.9734918 C20.1248898,71.1086075 25.4917397,70.1243608 27.846774,65.8036385 C28.5883264,64.4433015 26.4368454,63.235127 25.6934894,64.5989166" id="Fill-16" fill="#0066CF"></path>
                        <path d="M39.6933542,72.5990631 C37.6820648,76.2891138 32.7633466,76.9391822 28.8981977,77.6718655 C27.3254447,77.970019 27.9912366,80.2711526 29.5614131,79.9734923 C34.1248189,79.1086251 39.4916068,78.1243979 41.8468715,73.8037612 C42.5881577,72.4432045 40.4367016,71.2350539 39.6933542,72.5990631" id="Fill-18" fill="#0066CF"></path>
                        <path d="M42.3564033,91.1686038 C39.1126823,93.0291322 34.9449395,91.9797845 31.413285,91.2452039 C29.9950245,90.9501446 29.3899878,92.685547 30.8080131,92.9804204 C34.9223565,93.8364085 39.7438306,94.8803644 43.5055496,92.7223597 C44.6801017,92.0487618 43.5450698,90.4868253 42.3564033,91.1686038" id="Fill-20" fill="#0066CF"></path>
                        <path d="M38.4640888,114.91404 C38.9181343,111.148192 43.3180644,108.944471 46.4238377,107.144804 C47.7606088,106.370091 46.5296126,104.399677 45.1844708,105.179094 C41.1564015,107.513345 36.5852532,110.133352 36.008945,114.91404 C35.8336682,116.367743 38.2903339,116.356219 38.4640888,114.91404" id="Fill-22" fill="#0066CF"></path>
                        <path d="M49.6212777,128.475305 C48.823699,124.465713 52.2169482,120.957509 54.6849327,118.128466 C55.7263471,116.934842 53.9403161,115.204125 52.8905116,116.407304 C49.7167145,120.045507 46.1672007,124.059121 47.1742684,129.122281 C47.4797185,130.659131 49.9262035,130.008384 49.6212777,128.475305" id="Fill-24" fill="#0066CF"></path>
                        <g id="Group-28" transform="translate(66.000000, 124.000000)">
                            <mask id="mask-18" fill="white">
                                <use xlink:href="#path-17"></use>
                            </mask>
                            <g id="Clip-27"></g>
                            <path d="M5.64331765,12.37824 C2.04049412,9.18950667 3.93049412,5.04900667 5.25402353,1.52800667 C5.78449412,0.117273333 2.49084706,-0.484493333 1.96002353,0.92764 C0.422258824,5.01750667 -1.47621176,9.82744 2.69343529,13.5183067 C3.99402353,14.6691067 6.96084706,13.54444 5.64331765,12.37824" id="Fill-26" fill="#0066CF" mask="url(#mask-18)"></path>
                        </g>
                        <path d="M93.0624156,129.889538 C88.7417776,128.781 87.135125,124.742754 85.6997555,121.720887 C85.0956542,120.449148 82.4805826,121 83.0919488,122.287034 C84.9106796,126.116109 86.9384148,130.555541 92.3434735,131.942314 C94.0020978,132.367913 94.7126574,130.312938 93.0624156,129.889538" id="Fill-29" fill="#0066CF"></path>
                        <path d="M108.957182,113.3697 C105.33037,113.171733 102.994745,108.791211 101.070816,105.57079 C100.260835,104.214895 98.3829476,105.525168 99.2027632,106.897357 C101.645,110.984867 104.409754,115.749645 108.957182,115.998393 C110.34917,116.074158 110.346041,113.445465 108.957182,113.3697" id="Fill-31" fill="#0066CF"></path>
                        <path d="M68.6049201,40.289859 C70.2318698,36.9912057 75.3575264,36.0191866 79.0894983,35.1055372 C80.6877261,34.7141305 80.0069895,32.6559963 78.3988298,33.0498259 C73.5684454,34.2324161 68.1579854,35.5495867 66.0996698,39.7233435 C65.4726191,40.9944792 67.9848485,41.5475587 68.6049201,40.289859" id="Fill-33" fill="#0066CF"></path>
                        <path d="M74.6049201,54.2900342 C76.2318698,50.9913992 81.3575264,50.0193856 85.0894983,49.1055209 C86.6877261,48.7143367 86.0069895,46.6559937 84.3988298,47.0498211 C79.5684454,48.2326249 74.1579854,49.549568 72.0996698,53.7233016 C71.4726191,54.9944303 73.9848485,55.5475067 74.6049201,54.2900342" id="Fill-35" fill="#0066CF"></path>
                        <path d="M88.4630532,67.9137866 C88.9186688,64.1469207 93.3186424,61.94421 96.4237753,60.1452433 C97.7604505,59.3706948 96.5300096,57.3997369 95.1849675,58.1789911 C91.157194,60.5125186 86.5876006,63.1312081 86.009017,67.9137866 C85.8330586,69.3678298 88.2886161,69.356301 88.4630532,67.9137866" id="Fill-37" fill="#0066CF"></path>
                        <path d="M99.2928996,79.3886002 C101.375559,75.6127754 106.292011,75.0741065 110.109499,74.4205044 C111.669013,74.1533555 111.007702,71.7546718 109.454804,72.0205352 C104.90832,72.7990981 99.6208835,73.6828237 97.1662202,78.132306 C96.3939694,79.5328452 98.5201399,80.7891393 99.2928996,79.3886002" id="Fill-39" fill="#0066CF"></path>
                        <g id="Group-43" transform="translate(102.000000, 88.000000)">
                            <mask id="mask-20" fill="white">
                                <use xlink:href="#path-19"></use>
                            </mask>
                            <g id="Clip-42"></g>
                            <path d="M2.07390492,5.39084211 C4.84865902,1.94178947 9.09341311,3.13989474 12.4414787,3.85073684 C13.8401016,4.14789474 14.4427902,1.20315789 13.0320033,0.903473684 C8.77692131,-0.000315789474 3.98524918,-1.09863158 0.50315082,3.22957895 C-0.559931148,4.55115789 1.0149541,6.70705263 2.07390492,5.39084211" id="Fill-41" fill="#0066CF" mask="url(#mask-20)"></path>
                        </g>
                        <path d="M22.5109447,18.5850505 C15.5706833,24.3474618 10.6993203,33.2288911 11.0144489,41.8742243 C11.2574844,48.5493934 15.0977426,56.2503423 19.8160006,60.9504439 C25.3220801,66.4350808 33.10318,67.2620299 37.6554505,74.1823663 C44.6940658,84.8836721 40.2760718,98.0275795 44.7735912,109.246433 C49.0895152,120.011973 57.0304091,125.683427 68.5001487,126.850914 C80.7264942,128.095383 93.1708533,121.42904 99.9131684,111.335504 C108.728098,98.1391306 105.584245,83.2881236 94.3545675,73.0151249 C85.3736501,64.7990796 72.9250794,58.178828 70.6171093,45.1891309 C69.822351,40.7165445 70.2095727,36.1267682 69.8572827,31.5992643 C68.3249947,11.9155203 44.7976222,6.87365549 29.2411205,14.1945951 C27.0505803,15.4667681 24.8127213,16.942675 22.5109447,18.5850505" id="Fill-44" fill="#00ADFF"></path>
                        <path d="M94.1751865,74.0930149 C85.042936,66.0410161 72.3846006,59.5529484 70.0377399,46.8226114 C69.2295895,42.4395676 69.6233361,37.9411932 69.264858,33.5040882 C68.3637501,22.3448905 59.9779304,15.9877711 50.0062918,14 C54.9096082,17.5668394 58.603722,22.7012141 59.3015327,27.3605708 C61.7398393,46.4304873 70.5178941,61.77955 85.1479855,74.3380925 C98.3149418,85.5008943 91.9751936,105.035978 77.3451022,111.547832 C72.468489,113.408259 65.6412809,114.80376 60.2769561,112.478166 C53.9372078,109.687405 47.5974596,105.501385 45.159153,98.9895301 C44.0101586,96.1125119 42.6470347,93.2371756 41,90.5739995 C41.4660468,97.0140128 41.2579632,103.589299 43.7587453,109.600907 C48.1473948,120.151256 56.2220968,125.70971 67.8848555,126.853886 C80.3172213,128.073507 92.9712742,121.540509 99.8274527,111.648506 C108.790919,98.7156199 105.594089,84.1608967 94.1751865,74.0930149" id="Fill-46" fill="#0066CF" opacity="0.745186942"></path>
                        <path d="M42.77575,47.2693411 C39.8962569,49.753278 37.8752717,53.5814075 38.005993,57.3076855 C38.1067523,60.1848689 39.7000541,63.5044857 41.6577325,65.5303388 C43.9420934,67.8942896 47.1702572,68.2507701 49.0590714,71.2337799 C51.9793998,75.8461667 50.146402,81.5118481 52.012503,86.3475632 C53.8029741,90.987773 57.0975859,93.4324597 61.8564697,93.9357557 C66.928988,94.4720913 72.0921171,91.5986341 74.8894564,87.2480804 C78.5467534,81.5597929 77.2424399,75.1587926 72.5833489,70.7304839 C68.8571876,67.1892778 63.6923671,64.3356941 62.7347912,58.7365888 C62.4049676,56.8088611 62.5656509,54.8304559 62.4194654,52.8788799 C61.7837394,44.3946418 52.0224098,42.2214765 45.5680151,45.3768887 C44.6592483,45.9253968 43.730668,46.5613483 42.77575,47.2693411" id="Fill-48" fill="#0066CF" opacity="0.569545201"></path>
                    </g>
                    <g id="Group-50-Copy-3" transform="translate(318.000000, 183.500000) scale(1, -1) translate(-318.000000, -183.500000) translate(306.000000, 170.000000)">
                        <path d="M13.0581972,4.82246848 C13.4068292,3.99782244 14.5051842,3.75487785 15.3048925,3.52641521 C15.6473699,3.42856559 15.5014977,2.91404285 15.1568921,3.01244312 C14.1218097,3.30813951 12.9624254,3.63742526 12.5213578,4.68084257 C12.3869898,4.99861983 12.9253247,5.13688681 13.0581972,4.82246848" id="Fill-1" fill="#0066CF"></path>
                        <path d="M13.0508097,2.62580736 C12.7357371,1.8777899 13.1715836,1.03811032 13.4745507,0.372093008 C13.6027851,0.0902269554 13.2112317,-0.158252236 13.0824343,0.124929057 C12.6910216,0.985399546 12.2603833,1.92731374 12.6586463,2.87297132 C12.7793264,3.15944071 13.1708329,2.91086035 13.0508097,2.62580736" id="Fill-3" fill="#0066CF"></path>
                        <g id="Group-7" transform="translate(8.500000, 0.000000)">
                            <mask id="mask-22" fill="white">
                                <use xlink:href="#path-21"></use>
                            </mask>
                            <g id="Clip-6"></g>
                            <path d="M0.941488235,2.61317213 C0.335429412,1.94392623 0.642488235,1.07053279 0.857429412,0.326778689 C0.943488235,0.0291393443 0.394605882,-0.0978934426 0.308429412,0.200237705 C0.0589588235,1.06340164 -0.250923529,2.07956557 0.449841176,2.85346721 C0.668252941,3.09459836 1.1629,2.85769672 0.941488235,2.61317213" id="Fill-5" fill="#0066CF" mask="url(#mask-22)"></path>
                        </g>
                        <path d="M6.43070479,3.58352698 C5.87751039,3.03174704 5.90820199,2.05329489 5.90091222,1.24419524 C5.89797146,0.919019616 5.49707534,0.918183823 5.5000161,1.24419524 C5.50846561,2.1833129 5.50734729,3.30275285 6.14723201,3.94103734 C6.34745226,4.14079182 6.63303742,3.7853187 6.43070479,3.58352698" id="Fill-8" fill="#0066CF"></path>
                        <path d="M3.3071693,5.53520297 C2.63718502,5.47791166 2.22262835,4.68149054 1.88176789,4.10431056 C1.73694677,3.85913251 1.38895308,4.09103048 1.53514278,4.33850976 C1.97172121,5.0777834 2.46333332,5.92708512 3.3071693,5.99923861 C3.5648779,6.02129217 3.5636752,5.5571127 3.3071693,5.53520297" id="Fill-10" fill="#0066CF"></path>
                        <path d="M3.19238511,7.55927804 C2.35523577,7.77324987 1.55546427,7.3506998 0.872928041,7.02976174 C0.596758817,6.89988261 0.343495241,7.22940317 0.618623299,7.3587705 C1.42334033,7.73722702 2.34831201,8.17670586 3.32633109,7.92671118 C3.63186119,7.84864197 3.50077842,7.48042145 3.19238511,7.55927804" id="Fill-12" fill="#0066CF"></path>
                        <path d="M4.00570221,10.1497228 C3.57471241,11.0722878 2.52070327,11.2348033 1.6925138,11.4179106 C1.35544068,11.4925099 1.49811012,12.0677875 1.8345759,11.9933732 C2.81244682,11.7770969 3.96247072,11.5311042 4.46716938,10.450956 C4.62607134,10.1108202 4.16499065,9.80878562 4.00570221,10.1497228" id="Fill-14" fill="#0066CF"></path>
                        <path d="M6.00574773,12.1497291 C5.57475216,13.0723217 4.52072893,13.234842 3.69247317,13.4179548 C3.35545076,13.4924947 3.4981221,14.0677895 3.83459238,13.9933729 C4.81247638,13.7771519 5.96251566,13.5310902 6.46716586,12.4509096 C6.62606994,12.1108254 6.1650383,11.8087817 6.00574773,12.1497291" id="Fill-16" fill="#0066CF"></path>
                        <path d="M8.00571875,14.1497658 C7.57472817,15.0722784 6.52071712,15.2347955 5.69247094,15.4179664 C5.35545243,15.4925047 5.49812213,16.0677882 5.83458851,15.9933731 C6.8124612,15.7771563 7.96248718,15.5310995 8.46718676,14.4509403 C8.62603378,14.1108011 8.16500748,13.8087635 8.00571875,14.1497658" id="Fill-18" fill="#0066CF"></path>
                        <path d="M9.14780072,17.8035645 C8.45271764,18.0780687 7.55962989,17.9232469 6.80284678,17.8148662 C6.49893382,17.7713328 6.3692831,18.0273758 6.67314566,18.0708817 C7.55479067,18.197175 8.58796369,18.3512013 9.39404633,18.0328072 C9.64573607,17.9334239 9.40251497,17.7029742 9.14780072,17.8035645" id="Fill-20" fill="#0066CF"></path>
                        <path d="M7.94801614,21.8025527 C8.03056988,21.1178532 8.83055716,20.7171765 9.39524322,20.3899644 C9.63829251,20.2491075 9.41447501,19.8908504 9.16990378,20.0325625 C8.43752755,20.4569719 7.60640967,20.9333366 7.50162637,21.8025527 C7.46975786,22.0668624 7.91642434,22.0647671 7.94801614,21.8025527" id="Fill-22" fill="#0066CF"></path>
                        <path d="M10.1553194,24.6732796 C9.95592475,23.8140814 10.8042371,23.0623234 11.4212332,22.4561 C11.6815868,22.2003233 11.235079,21.8294554 10.9726279,22.0872795 C10.1791786,22.8668943 9.29180017,23.7269546 9.5435671,24.8119173 C9.61992963,25.1412424 10.2315509,25.0017965 10.1553194,24.6732796" id="Fill-24" fill="#0066CF"></path>
                        <g id="Group-28" transform="translate(13.500000, 24.000000)">
                            <mask id="mask-24" fill="white">
                                <use xlink:href="#path-23"></use>
                            </mask>
                            <g id="Clip-27"></g>
                            <path d="M0.940552941,2.65248 C0.340082353,1.96918 0.655082353,1.08193 0.875670588,0.32743 C0.964082353,0.02513 0.415141176,-0.10382 0.326670588,0.19878 C0.0703764706,1.07518 -0.246035294,2.10588 0.448905882,2.89678 C0.665670588,3.14338 1.16014118,2.90238 0.940552941,2.65248" id="Fill-26" fill="#0066CF" mask="url(#mask-24)"></path>
                        </g>
                        <path d="M18.3295301,25.6162797 C17.5439596,25.4147273 17.2518409,24.6805007 16.9908646,24.1310704 C16.881028,23.899845 16.4055605,24 16.516718,24.2340061 C16.8473963,24.9302017 17.2160754,25.7373711 18.1988134,25.9895116 C18.5003814,26.0668933 18.6295741,25.6932615 18.3295301,25.6162797" id="Fill-29" fill="#0066CF"></path>
                        <path d="M22.3103968,21.5217636 C21.6509764,21.4857697 21.2263173,20.6893111 20.876512,20.1037801 C20.7292427,19.8572537 20.3878087,20.0954852 20.536866,20.344974 C20.9809091,21.0881576 21.4835916,21.9544809 22.3103968,21.9997079 C22.5634855,22.0134833 22.5629165,21.5355391 22.3103968,21.5217636" id="Fill-31" fill="#0066CF"></path>
                        <path d="M14.0581972,7.82246475 C14.4068292,6.99780142 15.5051842,6.75479665 16.3048925,6.52638429 C16.6473699,6.42853261 16.5014977,5.91399908 16.1568921,6.01245648 C15.1218097,6.30810401 13.9624254,6.63739667 13.5213578,7.68083587 C13.3869898,7.9986198 13.9253247,8.13688968 14.0581972,7.82246475" id="Fill-33" fill="#0066CF"></path>
                        <path d="M15.0581972,10.8225086 C15.4068292,9.9978498 16.5051842,9.75484639 17.3048925,9.52638024 C17.6473699,9.42858417 17.5014977,8.91399842 17.1568921,9.01245528 C16.1218097,9.30815623 14.9624254,9.63739199 14.5213578,10.6808254 C14.3869898,10.9986076 14.9253247,11.1368767 15.0581972,10.8225086" id="Fill-35" fill="#0066CF"></path>
                        <path d="M17.9478279,13.8025067 C18.030667,13.117622 18.8306623,12.7171291 19.3952319,12.3900442 C19.6382637,12.2492172 19.4145472,11.8908613 19.1699941,12.0325438 C18.4376716,12.4568216 17.6068365,12.9329469 17.5016394,13.8025067 C17.469647,14.0668781 17.916112,14.064782 17.9478279,13.8025067" id="Fill-37" fill="#0066CF"></path>
                        <path d="M19.9913356,15.84715 C20.4376199,14.9031938 21.4911451,14.7685266 22.3091784,14.6051261 C22.64336,14.5383389 22.5016504,13.938668 22.1688865,14.0051338 C21.1946401,14.1997745 20.0616179,14.4207059 19.5356186,15.5330765 C19.3701363,15.8832113 19.8257443,16.1972848 19.9913356,15.84715" id="Fill-39" fill="#0066CF"></path>
                        <g id="Group-43" transform="translate(20.500000, 17.000000)">
                            <mask id="mask-26" fill="white">
                                <use xlink:href="#path-25"></use>
                            </mask>
                            <g id="Clip-42"></g>
                            <path d="M0.444408197,0.898473684 C1.03899836,0.323631579 1.94858852,0.523315789 2.66603115,0.641789474 C2.96573607,0.691315789 3.09488361,0.200526316 2.79257213,0.150578947 C1.88076885,-5.26315789e-05 0.853981967,-0.183105263 0.107818033,0.538263158 C-0.119985246,0.758526316 0.217490164,1.11784211 0.444408197,0.898473684" id="Fill-41" fill="#0066CF" mask="url(#mask-26)"></path>
                        </g>
                        <path d="M4.70422346,3.50393242 C3.37523722,4.6464795 2.44242304,6.40745255 2.50276681,8.12161344 C2.54930553,9.44513835 3.28467412,10.9720506 4.18817033,11.9039673 C5.24252598,12.9914384 6.73252384,13.1554025 7.6042352,14.5275381 C8.95205515,16.6493488 8.10605631,19.2554683 8.96728342,21.4798963 C9.79373695,23.6144429 11.3143337,24.7389554 13.5106668,24.9704398 C15.8518819,25.217188 18.2348442,23.8954131 19.5259259,21.8941085 C21.2138912,19.2775862 20.6118766,16.33299 18.4615129,14.2961024 C16.7417628,12.6670589 14.3579939,11.3544228 13.9160422,8.7788794 C13.7638544,7.89207348 13.8380033,6.98203162 13.7705435,6.08433689 C13.4771266,2.18152557 8.9718851,1.18184549 5.99298052,2.6334111 C5.57351538,2.88565229 5.14498919,3.17828901 4.70422346,3.50393242" id="Fill-44" fill="#C6E9F9"></path>
                        <path d="M18.4703475,14.699525 C16.7580505,13.1318792 14.3846126,11.8687156 13.9445762,9.39024292 C13.793048,8.53690697 13.8668755,7.66111727 13.7996609,6.79725612 C13.6307031,4.62466895 12.0583619,3.38699969 10.1886797,3 C11.1080515,3.69442891 11.8006979,4.69404168 11.9315374,5.60117307 C12.3887199,9.31390018 14.0346051,12.3022133 16.7777473,14.7472392 C19.2465516,16.9205281 18.0578488,20.7238187 15.3147067,21.9916134 C14.4003417,22.3538204 13.1202402,22.6255107 12.1144293,22.1727403 C10.9257265,21.6294063 9.73702367,20.8144289 9.27984118,19.5466342 C9.06440474,18.9865067 8.808819,18.4267067 8.5,17.9082123 C8.58738378,19.1620202 8.5483681,20.4421645 9.01726474,21.612566 C9.84013653,23.6666161 11.3541432,24.7487932 13.5409104,24.9715531 C15.871979,25.2090015 18.2446139,23.9370902 19.5301474,22.0112136 C21.2107972,19.4933065 20.6113917,16.6596436 18.4703475,14.699525" id="Fill-46" fill="#0066CF" opacity="0.745186942"></path>
                        <path d="M9.3571859,8.65386821 C8.8403538,9.15065559 8.47761286,9.9162815 8.50107566,10.6615371 C8.51916067,11.2369738 8.80513792,11.9008971 9.15651609,12.3060678 C9.56652958,12.7788579 10.1459436,12.850154 10.4849615,13.446756 C11.009123,14.3692333 10.6801234,15.5023696 11.0150646,16.4695126 C11.3364313,17.3975546 11.9277718,17.8864919 12.7819305,17.9871511 C13.6923825,18.0944183 14.6190979,17.5197268 15.1211845,16.6496161 C15.7776224,15.5119586 15.5435148,14.2317585 14.7072678,13.3460968 C14.0384696,12.6378556 13.1114505,12.0671388 12.9395779,10.9473178 C12.8803788,10.5617722 12.9092194,10.1660912 12.882981,9.77577598 C12.7688763,8.07892837 11.0168428,7.64429531 9.85836169,8.27537774 C9.6952497,8.38507936 9.52858143,8.51226965 9.3571859,8.65386821" id="Fill-48" fill="#0066CF" opacity="0.569545201"></path>
                    </g>
                </g>
                <g id="Group-64" transform="translate(103.000000, 0.000000)">
                    <path d="M73.5533,185.8891 C73.5533,185.8891 52.8723,196.4761 41.2253,216.3681 C32.0943,231.9541 32.6893,253.9621 27.0973,258.9521 C21.5003,263.9351 17.1643,290.3121 17.1643,290.3121 C17.1643,290.3121 -0.0037,340.4181 26.2943,350.1801 C44.1123,356.7911 69.8693,316.4521 78.4933,299.1141 C87.1143,281.7681 73.5533,185.8891 73.5533,185.8891" id="Fill-1" fill="#0066CF"></path>
                    <path d="M73.5533,185.8891 C73.5533,185.8891 52.8723,196.4761 41.2253,216.3681 C32.0943,231.9541 32.6893,253.9621 27.0973,258.9521 C21.5003,263.9351 17.1643,290.3121 17.1643,290.3121 C17.1643,290.3121 -0.0037,340.4181 26.2943,350.1801 C44.1123,356.7911 69.8693,316.4521 78.4933,299.1141 C87.1143,281.7681 73.5533,185.8891 73.5533,185.8891 Z" id="Stroke-3" stroke="#004C9C" stroke-width="2.398"></path>
                    <path d="M81.2428,180.9438 C81.2428,180.9438 56.4158,193.5818 52.5448,215.1668 C48.6788,236.7488 88.4138,341.4748 105.3228,366.2598 C105.3228,366.2598 98.0098,371.0548 105.3228,380.6558 C105.3228,380.6558 94.6538,407.8308 97.2468,411.0368 C97.2468,411.0368 198.9728,437.4168 242.1488,391.8478 C242.1488,391.8478 265.3358,375.0528 248.5408,363.0608 C243.0208,359.1198 238.9538,353.4738 238.9538,353.4738 C238.9538,353.4738 234.1578,342.2818 235.7568,325.4878 C237.3508,308.7038 232.5548,247.1398 229.3598,238.3498 C226.1578,229.5588 207.6588,168.8828 162.4698,154.3708 C117.2768,139.8548 81.2428,180.9438 81.2428,180.9438" id="Fill-5" fill="#00ADFF"></path>
                    <path d="M175.7428,183.3998 C181.1418,177.5458 184.8878,172.7168 187.3298,168.5568 C180.1298,162.4208 171.8808,157.3878 162.4698,154.3708 C161.3588,154.0138 160.2578,153.6988 159.1558,153.4088 L124.8368,204.7708 L85.6898,176.4728 C82.8048,179.1668 81.2428,180.9438 81.2428,180.9438 C81.2428,180.9438 76.0658,183.5868 70.0808,188.4938 C77.2478,197.0078 94.8348,213.6658 125.7438,218.3638 C125.7438,218.3638 159.1658,201.3858 175.7428,183.3998" id="Fill-7" fill="#0066CF"></path>
                    <path d="M248.5406,363.061 C243.0206,359.12 238.9536,353.474 238.9536,353.474 C238.9536,353.474 234.1576,342.282 235.7566,325.488 C236.0366,322.536 236.1166,318.189 236.0446,312.984 L120.4406,281.734 L102.6606,284.945 C102.6606,284.945 104.4886,297.102 116.6926,304.52 C128.8876,311.929 140.0126,327.549 154.2296,335.929 C168.4596,344.311 179.2506,335.908 193.6416,341.906 C208.0316,347.912 217.6206,358.698 217.6206,370.687 C217.6206,382.686 193.5266,406.67 174.9956,406.67 C161.0636,406.67 122.5106,395.136 100.3536,394.522 C97.9896,401.748 95.9396,409.419 97.2466,411.037 C97.2466,411.037 198.9736,437.416 242.1486,391.848 C242.1486,391.848 265.3356,375.053 248.5406,363.061" id="Fill-9" fill="#0066CF"></path>
                    <path d="M126.7447,216.3686 C126.7447,216.3686 111.4027,236.3756 126.7447,268.7526 C142.0747,301.1316 153.4757,328.7136 150.1767,347.8966 C146.8777,367.0796 137.0507,405.3806 143.1627,418.0126" id="Stroke-11" stroke="#004C9C" stroke-width="2.398"></path>
                    <path d="M148.9293,143.5297 C148.9293,143.5297 174.9953,144.4317 174.9953,161.8107 C174.9953,179.1927 138.0463,211.1667 125.7433,218.3637 C125.7433,218.3637 65.0353,189.1237 81.2423,173.2587 C97.4403,157.3967 148.9293,143.5297 148.9293,143.5297" id="Fill-13" fill="#FFFFFF"></path>
                    <path d="M161.8551,78.2719 C161.8551,78.2719 164.5961,128.3689 138.9581,145.9589 C113.3161,163.5449 130.4381,101.9589 130.4381,101.9589 L161.8551,78.2719 Z" id="Fill-15" fill="#23244C"></path>
                    <path d="M143.1627,126.6156 C143.1627,126.6156 153.4097,155.6276 154.2117,161.8106 C155.0107,167.9996 136.4087,195.2536 122.0177,200.0496 C122.0177,200.0496 101.0997,193.9606 97.4397,183.3996 C93.7847,172.8466 143.1627,126.6156 143.1627,126.6156" id="Fill-17" fill="#EA806A"></path>
                    <path d="M143.1627,127.8383 C143.1627,158.5253 118.2857,183.4003 87.5997,183.4003 C56.9157,183.4003 32.0377,158.5253 32.0377,127.8383 L32.0377,90.2663 C32.0377,59.5783 56.9157,34.7033 87.5997,34.7033 C118.2857,34.7033 143.1627,59.5783 143.1627,90.2663 L143.1627,127.8383 Z" id="Fill-19" fill="#F5AF90"></path>
                    <path d="M123.9508,48.2651 C110.1528,51.5011 62.8558,62.5971 61.1508,63.0561 C60.0878,63.3451 49.0398,63.5121 38.4978,64.2711 C34.6938,71.4401 32.4148,79.5361 32.0948,88.1461 C44.0298,89.2781 83.9948,90.7701 114.9138,64.6191 C114.9138,64.6191 103.3168,78.0131 124.8368,100.8071 L134.7868,113.7011 C134.7868,113.7011 129.3028,63.0611 129.3028,60.0241 C129.3028,58.5251 128.9168,55.4331 128.5238,52.6921 C127.0898,51.1281 125.5568,49.6571 123.9508,48.2651" id="Fill-21" fill="#EA806A"></path>
                    <g id="Group-25" transform="translate(0.000000, 0.416000)">
                        <mask id="mask-28" fill="white">
                            <use xlink:href="#path-27"></use>
                        </mask>
                        <g id="Clip-24"></g>
                        <path d="M119.1744,69.8627 C119.1744,69.8627 114.3834,82.6527 128.7744,97.0407 L136.7674,118.6307 C136.7674,118.6307 137.5654,109.0347 143.1624,98.6447 C148.7614,88.2497 160.7504,93.0487 161.5434,81.8517 C162.3464,70.6627 167.1434,25.8867 143.1624,21.8947 C143.1624,21.8947 119.1744,-22.0733 41.6304,16.2997 C41.6304,16.2997 22.4484,1.1097 16.8474,8.3017 C11.2564,15.4987 6.4574,32.2857 12.0514,48.2767 C12.0514,48.2767 0.8654,33.0837 0.0624,40.2777 C-0.7346,47.4777 6.2004,64.8317 19.2504,74.6567 C19.2504,74.6567 15.2484,82.6527 18.4454,89.8497 C21.6444,97.0407 32.0374,118.6307 32.0374,118.6307 C32.0374,118.6307 32.0374,81.0537 35.2344,75.4607 C35.2344,75.4607 62.4144,81.8517 91.1954,71.4617 C119.9774,61.0687 122.3724,56.2757 122.3724,56.2757 C122.3724,56.2757 119.9224,63.3687 119.1744,69.8627" id="Fill-23" fill="#23244C" mask="url(#mask-28)"></path>
                    </g>
                    <path d="M138.9576,109.0551 C138.9576,109.0551 141.0876,89.6671 148.7616,87.8671 C161.0566,84.9771 172.7406,126.2401 140.7626,127.8381 L138.9576,109.0551 Z" id="Fill-26" fill="#F4A27F"></path>
                    <path d="M129.7818,9.309 C117.2488,10.831 93.6978,14.913 70.6778,25.512 C45.5928,37.059 22.8778,26.287 12.5558,16.769 C10.1078,23.296 8.7438,31.895 10.0958,40.779 C19.0278,51.307 35.5058,66.586 54.6888,64.414 C80.8938,61.449 112.0818,24.535 137.5478,15.39 C135.5618,13.45 132.9908,11.322 129.7818,9.309" id="Fill-28" fill="#363768"></path>
                    <path d="M83.44,103.9946 C83.44,103.9946 94.381,98.9076 105.323,102.0666" id="Stroke-30" stroke="#23244C" stroke-width="3.198" stroke-linecap="round"></path>
                    <path d="M55.2828,103.9946 C55.2828,103.9946 51.5478,100.2166 41.0118,102.0666" id="Stroke-32" stroke="#23244C" stroke-width="3.198" stroke-linecap="round"></path>
                    <path d="M73.5533,147.2143 C73.5533,147.2143 63.2203,150.9933 58.9553,143.5293" id="Stroke-34" stroke="#DB7851" stroke-width="3.198" stroke-linecap="round"></path>
                    <path d="M90.3883,140.2123 C91.6813,145.0503 99.4083,147.1843 107.6563,144.9883 C115.9083,142.7923 121.5433,137.0853 120.2563,132.2503 C118.9663,127.4203 111.2363,125.2793 102.9883,127.4773 C94.7393,129.6763 89.1003,135.3753 90.3883,140.2123" id="Fill-36" fill="#CE756A"></path>
                    <path d="M37.6256,127.477 C35.7116,126.968 33.8236,126.7 32.0376,126.636 L32.0376,127.838 C32.0376,133.986 33.0556,139.894 34.8976,145.421 C42.3796,146.826 49.0396,144.667 50.2276,140.212 C51.5146,135.375 45.8706,129.676 37.6256,127.477" id="Fill-38" fill="#CE756A"></path>
                    <path d="M63.4263,161.3207 C63.4263,161.3207 75.8893,172.1257 92.5193,162.4117" id="Stroke-40" stroke="#DB7851" stroke-width="3.198" stroke-linecap="round"></path>
                    <path d="M87.5992,118.603 C87.5992,121.31 89.8032,123.505 92.5222,123.505 C95.2392,123.505 97.4402,121.31 97.4402,118.603 C97.4402,115.891 95.2392,113.701 92.5222,113.701 C89.8032,113.701 87.5992,115.891 87.5992,118.603" id="Fill-42" fill="#23244C"></path>
                    <path d="M44.7525,118.603 C44.7525,121.31 46.2675,123.505 48.1485,123.505 C50.0275,123.505 51.5475,121.31 51.5475,118.603 C51.5475,115.891 50.0275,113.701 48.1485,113.701 C46.2675,113.701 44.7525,115.891 44.7525,118.603" id="Fill-44" fill="#23244C"></path>
                    <path d="M7.2056,342.3735 C7.6746,339.3935 8.2136,336.9515 8.8096,335.1165 C10.2956,330.5445 13.1996,327.3085 17.4456,325.4995 C31.1916,319.6415 54.3966,330.7445 55.3786,331.2195 C55.6426,331.3495 55.8516,331.5705 55.9626,331.8425 C59.0206,339.2705 57.3706,359.2855 55.0286,374.1695 C52.9236,387.5575 50.0046,398.9445 47.2216,404.6325 C40.5546,418.2625 32.4176,418.0075 24.5526,417.7625 C23.8906,417.7415 23.2256,417.7195 22.5566,417.7075 C13.7176,417.5365 9.6516,408.0145 9.4836,407.6075 C4.3846,396.0645 4.4526,359.8715 7.2056,342.3755 L7.2056,342.3735 Z" id="Fill-46" fill="#0066CF"></path>
                    <path d="M56.2135,374.3559 C58.5785,359.3199 60.2235,339.0439 57.0725,331.3859 C56.8475,330.8399 56.4315,330.3989 55.8995,330.1409 C54.8995,329.6559 31.2185,318.3249 16.9735,324.3959 C12.3975,326.3459 9.2675,329.8299 7.6705,334.7479 C7.0565,336.6409 6.4975,339.1449 6.0195,342.1869 C3.2445,359.8199 3.2075,396.3719 8.3965,408.1169 C8.5585,408.5029 12.9185,418.7189 22.5325,418.9069 C23.1955,418.9189 23.8585,418.9389 24.5145,418.9599 C32.3775,419.2059 41.2915,419.4859 48.2995,405.1599 C51.1315,399.3709 54.0895,387.8549 56.2135,374.3559 M53.8445,373.9839 C51.8875,386.4189 49.0495,398.1689 46.1455,404.1069 C39.2815,418.1329 31.2095,416.6759 22.5795,416.5079 C14.4205,416.3499 10.5915,407.1479 10.5915,407.1479 C5.7785,396.2569 5.5365,360.6909 8.3895,342.5599 C8.8365,339.7219 9.3595,337.3089 9.9515,335.4879 C16.9485,313.9249 54.8545,332.2979 54.8545,332.2979 C57.5365,338.8179 56.5105,357.0369 53.8445,373.9839" id="Fill-48" fill="#004C9C"></path>
                    <path d="M48.7193,395.0121 C48.7193,395.0121 21.9393,379.8061 8.4563,393.2891 L9.7103,414.8941 C9.7103,414.8941 28.2823,423.6671 49.4443,415.6431 L48.7193,395.0121 Z" id="Fill-50" fill="#FFFFFF"></path>
                    <path d="M46.9586,412.3598 C46.9586,412.3598 24.8126,402.1178 13.7786,408.2318 C13.7786,408.2318 1.7686,450.0908 10.4546,468.7298 C10.4546,468.7298 12.5746,472.2788 14.0076,467.2908 C14.0076,467.2908 14.1446,450.0528 14.3806,444.7238 C14.3806,444.7238 19.5346,473.5978 23.9016,477.7228 C23.9016,477.7228 27.7946,479.1058 27.7916,474.7768 C27.8036,469.1308 24.5346,452.8388 24.5346,452.8388 C24.5346,452.8388 32.0686,477.2728 34.3986,480.7458 C34.3986,480.7458 36.3566,483.4998 38.5516,481.9348 C40.7426,480.3688 39.9136,477.1888 39.9136,477.1888 L33.4036,450.1898 C33.4036,450.1898 40.8996,473.7598 43.9636,475.6778 C45.6516,476.7398 46.7886,478.1558 47.8906,475.7668 C48.9896,473.3788 43.2106,448.7278 42.7156,444.5468 C42.4116,441.9508 43.8966,435.5008 43.8966,435.5008 C43.8966,435.5008 48.6846,447.6658 52.7636,450.1078 C52.7636,450.1078 57.2266,452.6698 57.2076605,449.1278 C57.1826,445.5828 52.9296,440.2398 52.0486,434.9578 C51.1556,429.6748 48.2216,414.4708 46.9586,412.3598" id="Fill-52" fill="#F5AF90"></path>
                    <path d="M198.4908,246.0053 C198.4908,246.0053 171.3458,214.0163 171.8828,190.3643 C172.3378,170.2593 208.4938,153.3183 224.0558,183.0133 C243.8828,220.8443 271.2518,278.7113 271.2518,278.7113 C271.2518,278.7113 271.2518,319.4063 266.3758,350.9043 C261.7448,380.8143 263.2558,387.7133 263.2558,387.7133 L226.6448,396.3233 C226.6718,390.2233 229.8208,314.7803 226.1648,310.3133 C222.1328,305.3843 202.6978,258.7573 198.4908,246.0053" id="Fill-54" fill="#00ADFF"></path>
                    <path d="M198.4908,246.0053 C198.4908,246.0053 171.3458,214.0163 171.8828,190.3643 C172.3378,170.2593 208.4938,153.3183 224.0558,183.0133 C243.8828,220.8443 271.2518,278.7113 271.2518,278.7113 C271.2518,278.7113 271.2518,319.4063 266.3758,350.9043 C261.7448,380.8143 263.2558,387.7133 263.2558,387.7133 L226.6448,396.3233 C226.6718,390.2233 229.8208,314.7803 226.1648,310.3133 C222.1328,305.3843 202.6978,258.7573 198.4908,246.0053 Z" id="Stroke-56" stroke="#004C9C" stroke-width="2.398"></path>
                    <path d="M226.1646,380.2797 C226.1646,380.2797 251.9026,363.3757 266.2326,375.9407 L266.3756,397.5917 C266.3756,397.5917 248.4196,407.5517 226.7826,400.9157 L226.1646,380.2797 Z" id="Fill-58" fill="#FFFFFF"></path>
                    <path d="M229.0484,397.4877 C229.0484,397.4877 250.4814,385.8247 261.8974,391.2087 C261.8974,391.2087 276.6014,432.1917 269.1394,451.3557 C269.1394,451.3557 267.2494,455.0417 265.4914,450.1467 C265.4914,450.1467 264.2354,432.9627 263.6574,427.6597 C263.6574,427.6597 260.3904,456.8137 256.3044,461.2087 C256.3044,461.2087 252.5134,462.8357 252.2254,458.5207 C251.8584,452.8827 254.0554,436.4217 254.0554,436.4217 C254.0554,436.4217 248.1264,461.2937 246.0224,464.9037 C246.0224,464.9037 244.2504,467.7797 241.9584,466.3627 C239.6624,464.9467 240.2894,461.7157 240.2894,461.7157 L245.0304,434.3477 C245.0304,434.3477 239.0844,458.3577 236.1514,460.4687 C234.5284,461.6447 233.4944,463.1287 232.2414,460.8147 C230.9854,458.5067 235.1494,433.5297 235.3724,429.3237 C235.5084,426.7197 233.6084,420.3727 233.6084,420.3727 C233.6084,420.3727 229.6194,432.8207 225.7054,435.5237 C225.7054,435.5237 221.4194,438.3647 221.2104,434.8297 C221.0004,431.2957 224.9004,425.6877 225.4404,420.3597 C225.9824,415.0367 227.9324,399.6667 229.0484,397.4877" id="Fill-60" fill="#F5AF90"></path>
                    <path d="M238.9254,292.7983 C238.9254,292.7983 229.6064,303.6153 228.7514,317.1913" id="Stroke-62" stroke="#004C9C" stroke-width="2.398"></path>
                </g>
            </g>
        </g>
    </g>
</svg>