<?xml version="1.0" encoding="UTF-8"?>
<svg width="484px" height="478px" viewBox="0 0 484 478" version="1.1" xmlns="http://www.w3.org/2000/svg" xmlns:xlink="http://www.w3.org/1999/xlink">
    <!-- Generator: Sketch 61.1 (89650) - https://sketch.com -->
    <title>Group 38</title>
    <desc>Created with Sketch.</desc>
    <defs>
        <polygon id="path-1" points="0.000108079124 0.384445532 483.890308 0.384445532 483.890308 371.886479 0.000108079124 371.886479"></polygon>
        <polygon id="path-3" points="0 0.031493521 9.981875 0.031493521 9.981875 21.9552063 0 21.9552063"></polygon>
        <polygon id="path-5" points="0 0.448475444 3.99275 0.448475444 3.99275 9.98052448 0 9.98052448"></polygon>
    </defs>
    <g id="Page-1" stroke="none" stroke-width="1" fill="none" fill-rule="evenodd">
        <g id="Home-Copy" transform="translate(-202.000000, -4356.000000)">
            <g id="Group-38" transform="translate(202.000000, 4356.000000)">
                <g id="Group-15" transform="translate(0.000000, 62.000000)">
                    <g id="Group-23-Copy" opacity="0.271042597">
                        <g id="Group-12">
                            <path d="M28.2995746,56.8092347 C28.9204354,44.8473644 30.62752,32.4608858 37.182182,22.4289504 C46.8750749,7.59363386 65.5116436,0.780138968 83.2367116,0.074340624 C111.272141,-1.04251468 138.272802,10.5771846 162.522563,24.6711306 C186.771759,38.7650766 209.557013,55.6184117 235.327826,66.6988811 C282.562444,87.0083696 335.687889,86.368634 386.959233,90.3724868 C403.881931,91.694306 421.838833,93.9901268 434.921015,104.789971 C445.825096,113.791441 451.78208,127.666307 453.96414,141.624739 C459.712475,178.387799 440.931152,215.980313 412.633355,240.187502 C384.335558,264.39582 347.789021,276.930799 311.236263,284.155351 C270.573836,292.191853 228.125728,294.239798 187.876643,284.342246 C112.408124,265.784267 58.3095448,206.330073 37.2234596,133.105471 C30.1056124,108.389542 26.9668159,82.5042469 28.2995746,56.8092347" id="Fill-1" fill="#90CCFF"></path>
                            <g id="Group-5">
                                <mask id="mask-2" fill="white">
                                    <use xlink:href="#path-1"></use>
                                </mask>
                                <g id="Clip-4"></g>
                                <path d="M266.080018,58.5485252 C304.498649,34.4514025 342.733518,5.576101 387.890831,0.953438273 C402.71842,-0.564535078 418.169102,0.765241132 431.578616,7.25240787 C450.455181,16.3850404 463.343378,34.7646888 471.23156,54.1422328 C488.623896,96.8686186 485.045915,144.972146 478.457635,190.610516 C473.769167,223.086919 467.432499,256.111574 450.879812,284.474686 C428.497074,322.826333 388.791546,349.250564 346.076284,361.758349 C303.362153,374.266134 257.745153,373.889176 213.668924,367.635284 C170.44535,361.501409 127.489784,349.585262 90.058943,327.188675 C52.6281019,304.792089 20.9605925,271.214112 6.17201776,230.27729 C0.7502,215.27054 -2.34491215,198.70074 2.18410654,183.402679 C14.924728,140.370895 84.4884196,138.819114 119.180364,127.424171 C170.70205,110.502206 220.166172,87.3460686 266.080018,58.5485252" id="Fill-3" fill="#4DBCFF" mask="url(#mask-2)"></path>
                            </g>
                            <path d="M269.323514,329 C253.631271,329 236.601004,327.709365 218.70642,325.166471 C175.055301,318.961606 139.842156,307.556391 111.055142,290.301843 C92.4392575,279.143243 75.5378747,264.691747 62.66413,247.162932 C53.0701547,234.100829 31.2547707,203.021197 48.3370439,188.874442 C53.4862026,184.61089 60.1898883,182.754791 66.7545145,181.470365 C76.8058035,179.504785 86.8327852,177.729951 96.8264153,175.641911 C109.194797,173.058384 120.878057,170.616506 131.573203,167.097876 C186.505665,149.022784 239.066766,124.334248 287.795817,93.7162416 C293.629533,90.0503202 299.44403,86.2890261 305.065764,82.6518858 C334.792843,63.420471 362.870992,45.2550854 391.234044,42.3470661 C393.482738,42.1162531 395.672642,42 397.745533,42 C403.511981,42 408.419198,42.898986 411.938082,44.6015853 C428.484468,52.60668 435.03157,78.7337065 437.681049,95.151346 C446.179507,147.802127 439.339023,229.642017 405.68097,273.485218 C373.923396,314.852681 319.265097,329 269.323514,329 Z" id="Stroke-6" stroke="#FFF0DE" stroke-width="1.33"></path>
                            <path d="M270.538678,288 C238.311248,287.941225 204.000499,282.056835 173.95268,272.977495 C158.690871,268.36565 143.674892,262.348232 130.202992,253.734209 C127.059322,251.724063 93.8785954,223.006314 97.2386403,221.043719 C103.516917,217.376094 110.862909,216.115436 117.993092,214.685521 C169.347629,204.39081 217.945932,183.617413 263.7121,158.54125 C283.151308,147.887079 301.881915,135.78318 320.958044,124.498963 C329.097033,119.683896 384.864603,80.331789 392.676764,86.6939498 C394.454778,88.1408474 395.062554,90.5523435 395.523059,92.7979785 C401.199791,120.454895 398.987327,154.069792 395.525891,182.077112 C392.149986,209.392117 382.878709,237.032051 363.417411,256.505165 C343.472384,276.462843 314.791353,285.741442 286.622939,287.520062 C281.341007,287.854049 275.96958,288.00972 270.538678,288 Z" id="Stroke-8" stroke="#FFF0DE" stroke-width="1.33"></path>
                            <path d="M269.954078,244.998873 C247.436581,244.957726 222.310022,241.55892 198,235.332847 C225.602276,225.073299 253.993852,211.963375 283.607115,195.837926 C297.077439,188.49921 310.00189,180.653772 322.500199,173.06705 C329.277634,168.954099 335.678294,165.069427 342.179956,161.246192 C344.45707,159.906961 347.130253,158.161339 352.480024,154.649802 C353.331176,154.091789 354.171546,153.541667 355,153 C354.475691,160.454828 353.689794,168.39665 352.644013,176.808555 C350.739136,192.125731 345.726988,213.110965 332.665217,226.102523 C322.004261,236.705334 304.471675,243.275796 283.297296,244.606573 C279.147649,244.866979 274.784079,245 270.328017,245 L269.954078,244.998873 Z" id="Stroke-10" stroke="#FFF0DE" stroke-width="1.33"></path>
                        </g>
                    </g>
                    <path d="" id="Path-7" stroke="#979797"></path>
                </g>
                <g id="dis-29" transform="translate(59.000000, 0.000000)" fill-rule="nonzero">
                    <g id="doctor" transform="translate(117.040000, 0.000000)">
                        <polygon id="Path" fill="#0E131A" points="108.05984 465.746241 108.95056 444.305121 97.4076802 444.305121 96.5169602 465.746241"></polygon>
                        <path d="M141.94064,476.337601 L89.5340802,476.337601 C89.5340802,476.337601 88.3180802,471.947841 88.9260802,469.154081 C89.1571202,468.068801 89.6617602,467.226721 90.6224002,466.974401 C90.6224002,463.551361 92.2427202,456.528961 97.2830402,455.629121 L97.2830402,455.629121 C97.2465602,455.872321 96.3710402,462.900801 107.1904,455.629121 C109.88384,453.805121 125.15072,469.309121 136.3744,469.129761 C138.99792,469.090241 140.49056,471.738081 141.25968,473.832641 C141.55594,474.647236 141.783717,475.485129 141.94064,476.337601 L141.94064,476.337601 Z" id="Path" fill="#866C57"></path>
                        <path d="M97.2800002,455.635201 C97.1280002,455.844961 91.3428802,463.983041 93.8296002,470.120801 C92.1517929,470.081752 90.493164,469.754756 88.9260802,469.154081 C89.1571202,468.068801 89.6617602,467.226721 90.6224002,466.974401 C90.6224002,463.551361 92.2427202,456.528961 97.2830402,455.629121 L97.2800002,455.635201 Z" id="Path" fill="#9E8979"></path>
                        <rect id="Rectangle" fill="#474849" x="89.5310402" y="476.337601" width="52.4065601" height="1.16736"></rect>
                        <path d="M141.94064,476.337601 L89.5340802,476.337601 C89.5340802,476.337601 87.1932802,467.874241 90.6163202,466.974401 C90.6163202,466.974401 122.63056,479.769761 141.2384,473.832641 C141.541892,474.646595 141.77679,475.4845 141.94064,476.337601 L141.94064,476.337601 Z" id="Path" fill="#655141"></path>
                        <path d="M114.26448,462.131681 C114.26448,462.778075 113.740474,463.302081 113.09408,463.302081 C112.447686,463.302081 111.92368,462.778075 111.92368,462.131681 C111.92368,461.485287 112.447686,460.961281 113.09408,460.961281 C113.740474,460.961281 114.26448,461.485287 114.26448,462.131681 L114.26448,462.131681 Z" id="Path" fill="#43362C"></path>
                        <path d="M118.07664,464.208001 C118.07664,464.854395 117.552634,465.378401 116.90624,465.378401 C116.259846,465.378401 115.73584,464.854395 115.73584,464.208001 C115.73584,463.561607 116.259846,463.037601 116.90624,463.037601 C117.551941,463.039272 118.07497,463.5623 118.07664,464.208001 L118.07664,464.208001 Z" id="Path" fill="#43362C"></path>
                        <path d="M121.904,466.275201 C121.904,466.921595 121.379994,467.445601 120.7336,467.445601 C120.087206,467.445601 119.5632,466.921595 119.5632,466.275201 C119.5632,465.628807 120.087206,465.104801 120.7336,465.104801 C121.379301,465.106472 121.90233,465.6295 121.904,466.275201 L121.904,466.275201 Z" id="Path" fill="#43362C"></path>
                        <path d="M137.58432,470.592001 C137.58432,471.032801 136.69664,471.394561 135.60528,471.394561 C134.51392,471.394561 133.6232,471.032801 133.6232,470.592001 C133.6232,470.151201 134.51088,469.786401 135.60528,469.786401 C136.69968,469.786401 137.58432,470.132961 137.58432,470.592001 Z" id="Path" fill="#B6A79A"></path>
                        <polygon id="Path" fill="#0E131A" points="34.1209601 465.746241 33.2302401 444.305121 44.7731201 444.305121 45.6668801 465.746241"></polygon>
                        <path d="M0.243200001,476.337601 L52.6497601,476.337601 C52.6497601,476.337601 53.8657601,471.947841 53.2577601,469.154081 C53.0267201,468.068801 52.5190401,467.226721 51.5614401,466.974401 C51.5614401,463.551361 49.9411201,456.528961 44.9008001,455.629121 L44.9008001,455.629121 C44.9342401,455.872321 45.8128001,462.900801 34.9904001,455.629121 C32.3000001,453.805121 17.03312,469.309121 5.80640001,469.129761 C3.18288001,469.090241 1.69024,471.738081 0.921120002,473.832641 C0.624908439,474.647016 0.398126379,475.484991 0.243200001,476.337601 L0.243200001,476.337601 Z" id="Path" fill="#866C57"></path>
                        <path d="M44.9099201,455.635201 C45.0619201,455.844961 50.8470401,463.983041 48.3603201,470.120801 C50.0380946,470.081451 51.6966727,469.754466 53.2638401,469.154081 C53.0328001,468.068801 52.5251201,467.226721 51.5675201,466.974401 C51.5675201,463.551361 49.9472001,456.528961 44.9068801,455.629121 L44.9099201,455.635201 Z" id="Path" fill="#9E8979"></path>
                        <rect id="Rectangle" fill="#474849" x="0.243200001" y="476.337601" width="52.4065601" height="1.16736"></rect>
                        <path d="M0.243200001,476.337601 L52.6497601,476.337601 C52.6497601,476.337601 54.9905601,467.874241 51.5675201,466.974401 C51.5675201,466.974401 19.55328,479.769761 0.942400002,473.832641 C0.638955532,474.646366 0.40505111,475.484354 0.243200001,476.337601 L0.243200001,476.337601 Z" id="Path" fill="#655141"></path>
                        <path d="M27.9193601,462.131681 C27.9193601,462.778075 28.443366,463.302081 29.0897601,463.302081 C29.7361541,463.302081 30.2601601,462.778075 30.2601601,462.131681 C30.2601601,461.485287 29.7361541,460.961281 29.0897601,460.961281 C28.443366,460.961281 27.9193601,461.485287 27.9193601,462.131681 Z" id="Path" fill="#43362C"></path>
                        <path d="M24.1072001,464.208001 C24.1072001,464.854395 24.631206,465.378401 25.2776001,465.378401 C25.9239941,465.378401 26.4480001,464.854395 26.4480001,464.208001 C26.4480001,463.561607 25.9239941,463.037601 25.2776001,463.037601 C24.9671907,463.037601 24.6694949,463.160911 24.4500023,463.380403 C24.2305097,463.599896 24.1072001,463.897592 24.1072001,464.208001 L24.1072001,464.208001 Z" id="Path" fill="#43362C"></path>
                        <path d="M20.292,466.275201 C20.292,466.921595 20.816006,467.445601 21.4624001,467.445601 C22.1087941,467.445601 22.6328001,466.921595 22.6328001,466.275201 C22.6328001,465.628807 22.1087941,465.104801 21.4624001,465.104801 C20.8166992,465.106472 20.2936707,465.6295 20.292,466.275201 L20.292,466.275201 Z" id="Path" fill="#43362C"></path>
                        <path d="M4.59952001,470.592001 C4.59952001,471.032801 5.48416001,471.394561 6.57856002,471.394561 C7.67296002,471.394561 8.55760002,471.032801 8.55760002,470.592001 C8.55760002,470.151201 7.67296002,469.786401 6.57856002,469.786401 C5.48416001,469.786401 4.59952001,470.132961 4.59952001,470.592001 Z" id="Path" fill="#B6A79A"></path>
                        <polygon id="Path" fill="#2B96F4" points="85.9043202 455.501441 114.45904 455.501441 114.456 238.761601 95.4924802 238.697761 95.4924802 238.609601 41.7270401 238.609601 41.7270401 238.706881 24.8368001 238.761601 24.8337601 455.501441 53.3884801 455.501441 67.4971202 281.798881 71.7956802 281.798881"></polygon>
                        <path d="M114.456,238.761601 L114.456,387.359841 C103.458135,390.320512 92.1627683,392.037709 80.7819202,392.479201 L71.7956802,281.808001 L67.4880002,281.808001 L58.5291201,392.080961 C47.1567641,391.20411 35.8799979,389.358211 24.8216001,386.563361 L24.8216001,238.761601 L41.7118401,238.706881 L41.7118401,238.612641 L95.4924802,238.612641 L95.4924802,238.697761 L114.456,238.761601 Z" id="Path" fill="#0071D6"></path>
                        <path d="M118.7576,108.70736 L79.5720002,90.6193602 L58.1916801,90.6193602 L19.00608,108.70736 L14.47344,366.541921 C83.1774402,376.573921 123.30544,366.541921 123.30544,366.541921 L118.7576,108.70736 Z" id="Path" fill="#2B96F4"></path>
                        <path d="M123.29328,366.541921 C123.29328,366.541921 83.1865602,376.573921 14.46128,366.541921 L14.49776,364.453441 C85.1747202,299.157281 117.17376,178.28992 117.17376,178.28992 C117.17376,178.28992 118.27728,176.83984 119.90976,174.75136 L123.29328,366.541921 Z" id="Path" fill="#0071D6" opacity="0.49"></path>
                        <rect id="Rectangle" fill="#FFFFFF" x="80.0979202" y="147.592" width="25.3444801" height="13.70128"></rect>
                        <rect id="Rectangle" fill="#D1D3D4" x="81.8550402" y="151.38592" width="7.13184002" height="6.11344001"></rect>
                        <rect id="Rectangle" fill="#D1D3D4" x="90.8990402" y="151.82976" width="12.78928" height="1"></rect>
                        <rect id="Rectangle" fill="#D1D3D4" x="90.8990402" y="153.99424" width="12.78928" height="1"></rect>
                        <rect id="Rectangle" fill="#D1D3D4" x="90.8990402" y="156.16176" width="12.78928" height="1"></rect>
                        <rect id="Rectangle" fill="#F1F2F2" x="91.4340802" y="145.16304" width="2.67520001" height="3.67536001"></rect>
                        <polygon id="Path" fill="#FCAE88" points="58.1916801 90.6193602 79.5720002 90.6193602 68.8833602 115.93648"></polygon>
                        <rect id="Rectangle" fill="#FCAE88" x="58.1916801" y="73.7656002" width="21.3833601" height="16.85376"></rect>
                        <path d="M79.5720002,73.7656002 L79.5720002,84.6366402 C76.2857602,86.8801602 72.6772802,88.1144002 68.8833602,88.1144002 C65.0894402,88.1144002 61.4900801,86.8801602 58.1916801,84.6366402 L58.1916801,73.7656002 L79.5720002,73.7656002 Z" id="Path" fill="#B06D4D" opacity="0.32"></path>
                        <path d="M68.2510402,73.7048002 C62.9455719,73.7048002 58.6446401,69.4038684 58.6446401,64.0984002 L77.8574402,64.0984002 C77.8574402,69.4038684 73.5565084,73.7048002 68.2510402,73.7048002 L68.2510402,73.7048002 Z" id="Path" fill="#720711"></path>
                        <path d="M77.8574402,64.0984002 C77.8574402,64.0984002 76.6992002,66.4848002 75.9513602,66.8800002 C72.6073602,68.6523202 64.1592002,68.5672002 60.7513601,66.8800002 C59.9700801,66.4908802 58.6233601,64.0984002 58.6233601,64.0984002 L77.8574402,64.0984002 Z" id="Path" fill="#F1F2F2"></path>
                        <path d="M39.2676801,50.5096001 C40.3645972,53.376704 43.5775024,54.8123732 46.4451201,53.7168001 L46.4451201,53.7168001 C47.8237969,53.1913162 48.9369102,52.1391389 49.5390992,50.7921974 C50.1412881,49.4452558 50.183115,47.9141292 49.6553601,46.5363201 L46.7856001,39.0366401 C46.2594936,37.6592547 45.2075667,36.5474108 43.8614066,35.9458864 C42.5152465,35.3443621 40.9852163,35.3024726 39.6081601,35.8294401 L39.6081601,35.8294401 C38.2307747,36.3555466 37.1189308,37.4074735 36.5174064,38.7536336 C35.9158821,40.0997937 35.8739926,41.6298239 36.4009601,43.0068801 L39.2676801,50.5096001 Z" id="Path" fill="#FCAE88"></path>
                        <path d="M44.8795201,42.3016001 C44.8795201,42.3016001 33.1420801,37.3585601 43.0281601,50.3302401 C43.0281601,47.8617601 36.8508801,42.9187201 44.8795201,42.3016001 Z" id="Path" fill="#B06D4D"></path>
                        <path d="M97.4411202,50.5096001 C96.3442032,53.376704 93.1312979,54.8123732 90.2636802,53.7168001 L90.2636802,53.7168001 C87.3961793,52.6185766 85.9607107,49.4047597 87.0564802,46.5363201 L89.9232002,39.0366401 C91.0201173,36.1695363 94.2330225,34.733867 97.1006402,35.8294401 L97.1006402,35.8294401 C98.4802371,36.3531626 99.594882,37.4040959 100.198804,38.7505174 C100.802726,40.0969388 100.84633,41.6282758 100.32,43.0068801 L97.4411202,50.5096001 Z" id="Path" fill="#FCAE88"></path>
                        <path d="M91.8292802,42.3016001 C91.8292802,42.3016001 103.56672,37.3585601 93.6806402,50.3302401 C93.6806402,47.8617601 99.8609602,42.9187201 91.8292802,42.3016001 Z" id="Path" fill="#B06D4D"></path>
                        <path d="M52.2636801,10.868 C52.2636801,10.868 41.0977601,12.32416 39.3284801,15.24864 C35.5376001,21.5201601 43.8884801,44.2076801 43.8884801,44.2076801 L52.2636801,10.868 Z" id="Path" fill="#E6E7E8"></path>
                        <path d="M92.8081602,42.4110401 C92.8081602,42.4110401 99.8488002,22.7270401 97.3164802,16.72 C95.2219202,11.74656 79.5020802,4.56000001 79.5020802,4.56000001 L71.1937602,15.52832 L92.8081602,42.4110401 Z" id="Path" fill="#E6E7E8"></path>
                        <path d="M43.9005108,44.2046401 C43.8910754,48.8944936 44.4122036,53.5703702 45.4540801,58.1430401 L45.4540801,58.1430401 C45.6912001,59.1918401 45.9617601,60.2102401 46.2505601,61.2104001 C46.4998401,62.0555201 46.7673601,62.8824001 47.0500801,63.6849601 C51.2422401,75.7355202 59.2100801,83.8736002 68.3483202,83.8736002 C77.3345602,83.8736002 85.1960002,76.0060802 89.4398402,64.2838402 C89.7985602,63.2836801 90.1329602,62.2622401 90.4369602,61.2104001 C90.7409602,60.2163201 91.0024002,59.1979201 91.2425602,58.1704001 L91.2425602,58.1704001 C92.2905563,53.5985991 92.8147836,48.9223697 92.8052514,44.2320001 C92.8052514,42.4424534 92.7311469,40.6822934 92.5832002,38.9515201 C92.5832002,38.8481601 92.5832002,38.7934401 92.5832002,38.7934401 C90.9446402,19.43776 80.7180802,4.56000001 68.3544002,4.56000001 C55.9907201,4.56000001 45.6972801,19.54416 44.1134401,38.9697601 C43.9766401,40.6752001 43.9005108,42.4292801 43.9005108,44.2046401 Z" id="Path" fill="#FCAE88"></path>
                        <path d="M89.0993602,65.2080002 C84.7856002,76.4164802 77.1004802,83.8766402 68.3544002,83.8766402 C59.4228801,83.8766402 51.6344001,76.1124802 47.3601601,64.5270402 C55.5894401,61.8001601 71.2788802,58.6142401 89.0993602,65.2080002 Z" id="Path" fill="#D1D3D4"></path>
                        <path d="M61.1374401,27.5758401 L61.1374401,29.4241601 L62.1740801,29.4241601 L62.1740801,27.3873601 L65.4208002,26.7976001 C65.4208002,26.7976001 66.3510402,31.1235201 65.4208002,32.0507201 C62.8641601,34.6043201 50.9747201,32.0507201 50.9747201,32.0507201 L50.9747201,29.4241601 L61.1374401,27.5758401 Z" id="Path" fill="#9D9E9F"></path>
                        <path d="M75.5744002,26.9404801 L75.5744002,28.7888001 L74.5347202,28.7888001 L74.5347202,26.7520001 L71.2910402,26.1622401 C71.2910402,26.1622401 70.3608002,30.4881601 71.2910402,31.4153601 C73.8446402,33.9689601 85.7340802,31.4153601 85.7340802,31.4153601 L85.7340802,28.7888001 L75.5744002,26.9404801 Z" id="Path" fill="#9D9E9F"></path>
                        <path d="M68.9715202,40.8636801 C68.9715202,40.8636801 70.4398402,51.1784001 71.4856002,58.4956801 C55.0696001,62.3412801 68.6766402,41.3136001 68.9624002,40.8636801 L68.9715202,40.8636801 Z" id="Path" fill="#FCAE88"></path>
                        <path d="M71.4856002,58.4926401 C55.0696001,62.3382401 68.6766402,41.3105601 68.9624002,40.8606401 C68.7587202,41.2862401 59.8393601,59.5536001 71.4856002,58.4926401 Z" id="Path" fill="#B06D4D"></path>
                        <path d="M86.6886402,15.36112 C85.9529602,15.88704 84.0924802,16.27312 81.5784002,16.52544 L81.2470402,16.55888 C77.7176002,16.91152 72.9843202,17.05744 68.2814402,17.09696 L67.9440002,17.09696 C62.6361601,17.13648 57.4012801,17.04832 53.9995201,16.9632 L53.6590401,16.9632 C51.4854401,16.90848 50.1448001,16.86288 50.1448001,16.86288 L46.1745601,12.03232 C46.1745601,12.03232 43.2956801,-0.720480002 58.6385601,1.08832 C59.4005868,1.17952 60.1605868,1.26261334 60.9185601,1.3376 L61.9673601,1.44096 C66.3540802,1.8544 70.5979202,2.12800001 74.5104002,2.45936001 L75.4072002,2.53840001 C79.3014402,2.90016001 82.8521602,3.36224001 85.8678402,4.18000001 L86.2843202,4.29552001 C89.4428802,5.20752001 91.9843202,6.51776002 93.6836802,8.55152002 C96.0366402,11.36352 90.4096002,12.70416 86.6886402,15.36112 Z" id="Path" fill="#D1D3D4"></path>
                        <path d="M86.2843202,4.29552001 C86.024616,4.47089398 85.7749446,4.6606849 85.5364802,4.86400001 C82.0465602,7.86752002 81.5328002,13.26352 81.5844802,16.5224 L81.2531202,16.55584 C81.2075202,13.23616 81.7304002,7.70944002 85.3236802,4.61168001 C85.5030402,4.45968001 85.6854402,4.30768001 85.8739202,4.17696001 L86.2843202,4.29552001 Z" id="Path" fill="#9D9E9F"></path>
                        <path d="M75.4072002,2.53840001 C72.9752002,3.17984001 71.1512002,4.36240001 69.8713602,6.04352001 C67.4393602,9.30544002 67.6734402,13.88672 68.2814402,17.09696 L67.9440002,17.09696 C67.3360002,13.82288 67.1140802,9.17168002 69.6068802,5.84896001 C70.8478346,4.23530126 72.5623593,3.05012151 74.5104002,2.45936001 L75.4072002,2.53840001 Z" id="Path" fill="#9D9E9F"></path>
                        <path d="M61.9704001,1.4288 C59.0580801,1.99728 56.8723201,3.25280001 55.4404801,5.16192001 C52.8048001,8.68832002 53.3124801,13.75296 53.9995201,16.96624 L53.6590401,16.96624 C52.9537601,13.68608 52.4886401,8.56368002 55.1790401,4.97344001 C56.4953601,3.20720001 58.4196801,1.99728 60.9307201,1.32544 L61.9704001,1.4288 Z" id="Path" fill="#9D9E9F"></path>
                        <path d="M91.2456002,58.1643201 C91.0054402,59.2009601 90.7440002,60.2224001 90.4460802,61.2043201 C90.1420802,62.2592001 89.8046402,63.2776001 89.4459202,64.2777602 C85.1899202,76.0000002 77.3376002,83.8705622 68.3544002,83.8705622 C67.0041737,83.8712469 65.6598536,83.692345 64.3568002,83.3385602 C85.2689602,80.9856002 91.0601602,58.8908801 91.2456002,58.1643201 Z" id="Path" fill="#B06D4D" opacity="0.3"></path>
                        <path d="M91.2486402,58.1430401 L91.2486402,58.1643201 C91.2492324,58.1572392 91.2492324,58.1501211 91.2486402,58.1430401 Z" id="Path" fill="#FCAE88"></path>
                        <path d="M91.6651202,58.9547201 C91.5286864,61.4271536 91.1063525,63.875466 90.4065602,66.2507202 C89.7362959,68.5594674 88.791182,70.7793624 87.5915202,72.8627202 C83.3659202,80.2195202 76.2827202,85.0227202 68.2692802,85.0227202 C67.2956009,85.0301752 66.3228428,84.9610555 65.3600002,84.8160002 L65.3600002,84.8160002 C61.4177455,84.1963528 57.7300348,82.4778796 54.7200001,79.8577602 C53.6307772,78.9313544 52.6219474,77.9143889 51.7043201,76.8177602 C50.5715153,75.4534742 49.5709115,73.9846326 48.7160001,72.4310402 C47.9373973,71.0212033 47.2755071,69.5499973 46.7369601,68.0321602 C46.6974401,67.9348802 46.6609601,67.8345602 46.6305601,67.7281602 C46.4603201,67.2478402 46.3022401,66.7523202 46.1593601,66.2568002 C46.0438401,65.8616002 45.9313601,65.4603202 45.8280001,65.0590402 C45.7672001,64.8219202 45.7124801,64.5848002 45.6577601,64.3416002 C45.2533405,62.5706506 45.0001099,60.7685435 44.9008001,58.9547201 C45.2783503,58.3721967 45.6905039,57.8128455 46.1350401,57.2796801 C49.1446401,53.6742401 53.2972801,51.4459201 57.8846401,51.4459201 L78.7056002,51.4459201 C83.9374402,51.4459201 88.6281602,54.3795201 91.6651202,58.9547201 Z" id="Path" fill="#7DCC89"></path>
                        <path d="M91.6651202,58.9547201 C91.5286864,61.4271536 91.1063525,63.875466 90.4065602,66.2507202 C89.7362959,68.5594674 88.791182,70.7793624 87.5915202,72.8627202 C83.3659202,80.2195202 76.2827202,85.0227202 68.2692802,85.0227202 C67.2956009,85.0301752 66.3228428,84.9610555 65.3600002,84.8160002 L65.3600002,84.8160002 C61.4177455,84.1963528 57.7300348,82.4778796 54.7200001,79.8577602 C78.8150402,78.8910402 91.6651202,58.9547201 91.6651202,58.9547201 Z" id="Path" fill="#268B85" opacity="0.18"></path>
                        <path d="M46.1076801,59.5323201 C46.1076801,59.5323201 51.2756801,53.0540801 56.3646401,53.7107201 C53.5830401,54.5558401 46.1076801,59.5323201 46.1076801,59.5323201 Z" id="Path" fill="#7DB9B6"></path>
                        <path d="M63.1590401,58.0153601 C62.9796801,57.9211201 75.9544002,58.0153601 75.9544002,58.0153601 C75.9544002,58.0153601 64.2777602,58.6142401 63.1590401,58.0153601 Z" id="Path" fill="#268B85" opacity="0.18"></path>
                        <path d="M71.3640002,59.5840001 C71.1846402,59.4867201 84.1593602,59.5840001 84.1593602,59.5840001 C84.1593602,59.5840001 72.4827202,60.1707201 71.3640002,59.5840001 Z" id="Path" fill="#268B85" opacity="0.18"></path>
                        <path d="M63.2320001,64.4480002 C63.2320001,64.4480002 54.3126401,64.9009602 45.8097601,65.0560002 C45.7489601,64.8188802 45.6942401,64.5817602 45.6395201,64.3385602 C54.1636801,64.3720002 63.2320001,64.4480002 63.2320001,64.4480002 Z" id="Path" fill="#B5B6B6" opacity="0.18"></path>
                        <path d="M52.7896001,67.7676802 C52.7896001,67.7676802 50.2056001,67.8984002 46.7096001,68.0260802 C46.6700801,67.9288002 46.6336001,67.8284802 46.6032001,67.7220802 L52.7896001,67.7676802 Z" id="Path" fill="#B5B6B6" opacity="0.18"></path>
                        <path d="M95.7843202,33.0022401 C91.1027202,28.6185601 86.3603202,25.7488001 81.7334402,24.0008001 C59.7633601,15.68336 40.1492801,32.5553601 40.1492801,32.5553601 C26.6516801,-1.60208 53.2212801,0.331360001 53.2212801,0.331360001 C53.2212801,0.331360001 64.7732802,0.0273402572 85.0348802,0.0273402572 L85.3814402,0.0273402572 C102.23824,0 98.5233602,28.4179201 95.7843202,33.0022401 Z" id="Path" fill="#2B96F4"></path>
                        <path d="M43.0372801,8.07424002 L69.4427202,8.07424002 C69.4427202,8.07424002 48.5609601,9.15344002 43.0372801,8.07424002 Z" id="Path" fill="#268B85" opacity="0.34"></path>
                        <path d="M46.9072001,11.77696 L73.3126402,11.77696 C73.3126402,11.77696 52.4339201,12.85616 46.9072001,11.77696 Z" id="Path" fill="#268B85" opacity="0.34"></path>
                        <path d="M38.0000001,18.78112 L64.4054402,18.78112 C64.4054402,18.78112 43.5236801,19.86032 38.0000001,18.78112 Z" id="Path" fill="#268B85" opacity="0.34"></path>
                        <path d="M81.9188802,14.3032 L96.4774402,14.3032 C96.4774402,14.3032 84.9649602,14.896 81.9188802,14.3032 Z" id="Path" fill="#268B85" opacity="0.34"></path>
                        <path d="M95.7843202,33.0022401 C91.1027202,28.6185601 86.3603202,25.7488001 81.7334402,24.0008001 C86.7433602,17.07264 86.3116802,7.17744002 85.0318402,0 L85.3784002,0 C102.23824,0 98.5233602,28.4179201 95.7843202,33.0022401 Z" id="Path" fill="#268B85" opacity="0.19"></path>
                        <path d="M72.9600002,41.2345601 C72.9600002,41.2345601 79.9520002,24.2105601 86.1110402,40.3377601 C83.6273602,42.7332801 77.9851202,44.9494401 72.9600002,41.2345601 Z" id="Path" fill="#FFFFFF"></path>
                        <path d="M86.1140802,40.3377601 C81.2105602,28.6489601 74.8934402,37.6017601 74.8934402,37.6017601 C77.4044802,33.6862401 81.9492802,29.4272001 86.1140802,40.3377601 Z" id="Path" fill="#BD8366"></path>
                        <path d="M86.1049602,40.3468801 C83.6121602,42.7393601 77.9820802,44.9464001 72.9660802,41.2315201 C77.1481869,43.5026473 82.2650496,43.1581293 86.1049602,40.3468801 L86.1049602,40.3468801 Z" id="Path" fill="#BD8366"></path>
                        <path d="M81.7243202,39.6172801 C81.513638,40.9257588 80.5342232,41.977794 79.2441282,42.2813701 C77.9540332,42.5849463 76.6082544,42.0800594 75.8361851,41.0028349 C75.0641159,39.9256103 75.0183612,38.4889691 75.7203196,37.3647992 C76.422278,36.2406293 77.7332024,35.6511307 79.0400002,35.8720001 C80.8105301,36.1729247 82.008177,37.8439338 81.7243202,39.6172801 L81.7243202,39.6172801 Z" id="Path" fill="#58595B"></path>
                        <path d="M80.9369602,36.9147201 C81.7654331,38.3680284 81.3626468,40.2123162 80.0037115,41.1879019 C78.6447763,42.1634875 76.768529,41.955328 75.6564802,40.7056001 C76.2751837,41.7909306 77.4585126,42.4285654 78.7052332,42.3484155 C79.9519538,42.2682656 81.0438937,41.4843571 81.5185298,40.3287374 C81.9931659,39.1731177 81.7674381,37.8480168 80.9369602,36.9147201 L80.9369602,36.9147201 Z" id="Path" fill="#2C2D2E"></path>
                        <path d="M79.6966402,39.2950401 C79.5546158,40.1190818 78.7736624,40.6736573 77.9488477,40.5361933 C77.124033,40.3987293 76.5651461,39.6208556 76.6980455,38.7952931 C76.8309448,37.9697306 77.6057152,37.4065494 78.4320002,37.5348801 C78.8346738,37.5974195 79.1953728,37.8190263 79.4331463,38.1499659 C79.6709198,38.4809054 79.765853,38.8934597 79.6966402,39.2950401 L79.6966402,39.2950401 Z" id="Path" fill="#231F20"></path>
                        <path d="M78.3590402,37.9817601 C78.3362324,38.1213223 78.2407015,38.2381153 78.1084331,38.2881443 C77.9761648,38.3381732 77.8272536,38.3138376 77.7177931,38.2243043 C77.6083326,38.134771 77.5549523,37.9936423 77.5777602,37.8540801 C77.5941486,37.7506111 77.651254,37.6580004 77.7363452,37.5968947 C77.8214363,37.535789 77.9274388,37.5112686 78.0307202,37.5288001 C78.2456401,37.5645558 78.391931,37.7663832 78.3590402,37.9817601 L78.3590402,37.9817601 Z" id="Path" fill="#FFFFFF"></path>
                        <path d="M63.5724801,41.2345601 C63.5724801,41.2345601 56.5804801,24.2105601 50.4244801,40.3377601 C52.9112001,42.7332801 58.5534401,44.9494401 63.5724801,41.2345601 Z" id="Path" fill="#FFFFFF"></path>
                        <path d="M50.4244801,40.3377601 C55.3280001,28.6489601 61.6451201,37.6017601 61.6451201,37.6017601 C61.6451201,37.6017601 61.6451201,37.6017601 61.6451201,37.6017601 C59.1371201,33.6862401 54.5923201,29.4272001 50.4244801,40.3377601 Z" id="Path" fill="#BD8366"></path>
                        <path d="M50.4366401,40.3468801 C52.9294401,42.7393601 58.5595201,44.9464001 63.5724801,41.2315201 C59.3914784,43.5028689 54.2753388,43.1583198 50.4366401,40.3468801 Z" id="Path" fill="#BD8366"></path>
                        <path d="M54.8172801,39.6172801 C55.0279437,40.9230348 56.0048998,41.9730611 57.2920966,42.2771973 C58.5792935,42.5813335 59.9228953,42.0796038 60.6956967,41.0062201 C61.4684981,39.9328364 61.5181023,38.4994705 60.8213537,37.3752304 C60.1246051,36.2509902 58.8189027,35.6575765 57.5137601,35.8720001 C55.7363956,36.1640056 54.5303951,37.8390819 54.8172801,39.6172801 Z" id="Path" fill="#58595B"></path>
                        <path d="M55.6046401,36.9147201 C54.7761672,38.3680284 55.1789535,40.2123162 56.5378888,41.1879019 C57.896824,42.1634875 59.7730714,41.955328 60.8851201,40.7056001 C60.2664166,41.7909306 59.0830878,42.4285654 57.8363671,42.3484155 C56.5896465,42.2682656 55.4977066,41.4843571 55.0230705,40.3287374 C54.5484345,39.1731177 54.7741622,37.8480168 55.6046401,36.9147201 L55.6046401,36.9147201 Z" id="Path" fill="#2C2D2E"></path>
                        <path d="M56.8480001,39.2950401 C56.9900245,40.1190818 57.7709779,40.6736573 58.5957926,40.5361933 C59.4206073,40.3987293 59.9794942,39.6208556 59.8465948,38.7952931 C59.7136955,37.9697306 58.9389251,37.4065494 58.1126401,37.5348801 C57.7099665,37.5974195 57.3492676,37.8190263 57.1114941,38.1499659 C56.8737205,38.4809054 56.7787874,38.8934597 56.8480001,39.2950401 Z" id="Path" fill="#231F20"></path>
                        <path d="M58.1825601,37.9817601 C58.217137,38.1971666 58.4197216,38.3438085 58.6351503,38.3093697 C58.8505789,38.2749308 58.9973506,38.0724403 58.9630499,37.8569896 C58.9287492,37.6415389 58.7263528,37.4946375 58.5108801,37.5288001 C58.2959603,37.5645558 58.1496693,37.7663832 58.1825601,37.9817601 L58.1825601,37.9817601 Z" id="Path" fill="#FFFFFF"></path>
                    </g>
                    <path d="M222.567521,135.964 C220.159122,131.872709 220.116347,126.807335 222.45531,122.675954 C224.794273,118.544574 229.159629,115.974843 233.90699,115.934279 C238.654352,115.894666 243.062482,118.390309 245.470881,122.4816 C246.057601,123.47568 280.996321,198.1472 280.996321,198.1472 C283.827991,203.465101 281.966648,210.069845 276.774847,213.126578 C271.583045,216.183312 264.904672,214.606424 261.628481,209.55024 L222.567521,135.964 Z" id="Path" fill="#FAA284"></path>
                    <path d="M278.731521,212.04 C273.961899,215.8954 266.982921,215.219274 263.042081,210.52 C259.090081,205.80496 259.698081,198.53632 264.328001,194.52656 L264.328001,194.52656 C264.328001,194.52656 277.175041,179.34784 327.031041,142.18688 L336.245281,153.19776 C336.245281,153.19776 302.580321,195.19232 279.445921,211.4168 C279.293921,211.5232 278.731521,212.04 278.731521,212.04 Z" id="Path" fill="#FAA284"></path>
                    <path d="M238.056321,175.26208 L217.448161,137.82144 C212.21936,129.15744 214.617921,117.46864 222.816801,111.74128 C231.015681,106.01392 242.002241,108.37296 247.276641,117.04304 C247.650561,117.65104 256.828321,136.39568 266.969761,157.1376 C260.613121,162.184 249.888001,169.936 238.056321,175.26208 Z" id="Path" fill="#2B96F4"></path>
                    <path d="M326.945921,142.88 C326.945921,142.88 326.641921,131.2064 328.769921,127.85936 C332.500001,123.67024 343.644641,118.37152 343.644641,118.37152 L343.763201,118.23168 L351.168641,111.60752 C351.168641,111.60752 353.710081,109.0448 355.680001,111.09376 C357.808001,113.29168 355.941441,115.49872 355.941441,115.49872 L353.631041,118.44752 C353.631041,118.44752 355.518881,117.70272 356.774401,119.66352 C358.598401,122.51504 355.254401,124.88624 355.254401,124.88624 C355.254401,124.88624 357.455361,124.488 358.437281,126.51872 C359.025895,127.662282 358.971664,129.030764 358.294401,130.12416 C358.294401,130.12416 359.777921,130.68048 360.094081,131.80224 C360.601761,133.59888 358.133281,136.88208 358.133281,136.88208 C358.133281,136.88208 350.323521,145.33328 338.300321,151.4224 C338.318561,151.41936 326.091681,156.70896 326.945921,142.88 Z" id="Path" fill="#0071D6"></path>
                    <path d="M343.775361,118.22256 C343.775361,118.22256 342.902881,119.30784 342.255361,119.67568 L339.841601,123.54256 C339.841601,123.54256 340.780961,134.0032 336.704321,138.16192 C336.704321,138.16192 346.161761,136.64192 351.022721,142.11392 C351.022721,142.11392 356.692321,138.1832 358.397761,135.60528 L351.992481,138.90672 C351.992481,138.90672 350.186721,140.03152 348.891681,138.0464 C347.596641,136.06128 349.861441,134.90912 349.861441,134.90912 L358.312641,130.112 L350.667041,133.41952 C350.667041,133.41952 348.235041,134.5808 347.204481,132.20352 C346.292481,130.13024 348.496481,128.98112 348.496481,128.98112 L354.977761,124.99872 L349.119681,127.9232 C349.119681,127.9232 347.383841,128.67712 346.158721,126.62512 C344.933601,124.57312 347.095041,123.11392 347.095041,123.11392 L353.387841,118.55392 L354.831841,116.59312 C354.831841,116.59312 352.582241,117.71488 350.879841,116.12192 C349.177441,114.52896 350.715681,112.01184 350.715681,112.01184 L343.775361,118.22256 Z" id="Path" fill="#006ABA"></path>
                    <path d="M349.755041,117.344 C349.755041,117.344 356.108641,118.56 354.692001,123.9712 C353.275361,129.3824 359.005761,141.87072 373.120481,146.95968 C387.235201,152.04864 391.223681,172.72368 390.202241,175.332 C390.202241,175.332 376.522241,183.844 363.660001,188.82656 C363.660001,188.82656 338.151361,155.08256 339.178881,122.72176 C339.178881,122.72784 343.824001,119.05552 349.755041,117.344 Z" id="Path" fill="#BBDEFB"></path>
                    <rect id="Rectangle" fill="#E5AB35" transform="translate(350.174422, 95.373288) rotate(-26.990000) translate(-350.174422, -95.373288) " x="348.622502" y="93.0446483" width="3.10384001" height="4.65728001"></rect>
                    <path d="M388.840321,173.94272 C388.840321,173.94272 387.736801,157.14976 373.789281,148.45232 C373.789281,148.45232 365.885281,150.63808 361.863361,153.99424 C357.841441,157.3504 349.058881,160.63664 349.058881,160.63664 C349.058881,160.63664 354.454881,174.0704 364.258881,186.43712 C364.268001,186.43712 378.331041,181.2448 388.840321,173.94272 Z" id="Path" fill="#26C7DB"></path>
                    <g id="Group" opacity="0.4" transform="translate(342.304001, 115.824000)" fill="#FFFFFF">
                        <path d="M31.9747201,64.3507202 C32.0227855,64.3301039 32.0686227,64.3046388 32.1115201,64.2747202 C32.5395281,63.9908954 32.6565562,63.4139197 32.3729601,62.9857601 C12.42144,32.9110401 2.07328,1.07008 1.97296,0.750880002 C1.81597859,0.261467347 1.29197266,-0.00802141731 0.802560002,0.14896 C0.313147347,0.305941418 0.0436585828,0.829947348 0.20064,1.31936 C0.304000001,1.6416 10.73424,33.7257601 30.8256001,64.0163202 C31.0757922,64.393164 31.5613906,64.5344757 31.9747201,64.3507202 Z" id="Path"></path>
                    </g>
                    <path d="M347.897601,98.9854402 C347.897601,98.9854402 349.326401,105.04416 358.610561,108.93536 L358.236641,110.08144 C358.236641,110.08144 346.809281,107.10832 343.547361,101.89168 L347.897601,98.9854402 Z" id="Path" fill="#E5AB35"></path>
                    <path d="M345.547681,112.54992 C345.547681,112.54992 346.201281,110.59824 344.964001,107.312 C343.726721,104.02576 349.724641,97.9244802 349.724641,97.9244802 L347.563201,93.6684802 C347.563201,93.6684802 331.268801,95.5168002 322.194401,107.43664 L323.714401,109.12688 C323.714401,109.12688 331.749121,105.72816 335.229921,112.8296 C335.229921,112.8296 336.445921,116.30432 338.771521,115.99728 L345.547681,112.54992 Z" id="Path" fill="#F7BD3C"></path>
                    <polygon id="Path" fill="#E5AB35" points="350.074241 117.4504 346.815361 111.036 336.233121 116.4168 339.294401 122.94064"></polygon>
                    <path d="M385.435521,168.01776 C385.435521,168.01776 382.851521,155.9368 371.536641,149.16976 C360.221761,142.40272 352.913601,138.28352 352.260001,123.65504 C352.260001,123.65504 352.308641,120.6728 350.366081,120.61504 C348.423521,120.55728 348.846081,123.8192 349.715521,127.03552 C350.584961,130.25184 351.974241,143.60352 368.052801,151.29168 C380.820801,157.40512 378.635041,167.30944 381.535201,170.62 C384.623841,174.13424 385.894561,169.632 385.435521,168.01776 Z" id="Path" fill="#FFFFFF" opacity="0.4"></path>
                    <path d="M348.888641,138.03424 C347.593601,136.05216 349.858401,134.89696 349.858401,134.89696 L357.914401,130.29136 L350.667041,133.42864 C350.667041,133.42864 348.235041,134.58992 347.204481,132.21264 C346.292481,130.13936 348.496481,128.99024 348.496481,128.99024 L354.594721,125.24192 L349.122721,127.93232 C349.122721,127.93232 347.386881,128.68624 346.161761,126.63424 C344.936641,124.58224 347.213601,123.10784 347.213601,123.10784 L353.776961,118.408 C354.217761,118.28032 355.728641,118.00368 356.792641,119.67264 C358.616641,122.52416 355.272641,124.89536 355.272641,124.89536 C355.272641,124.89536 357.473601,124.49712 358.455521,126.52784 C359.044135,127.671402 358.989904,129.039884 358.312641,130.13328 C358.312641,130.13328 359.796161,130.6896 360.112321,131.81136 C360.367681,132.72336 359.875201,133.97888 359.321921,135.02768 L351.989441,138.90672 C351.989441,138.90672 350.183681,140.01936 348.888641,138.03424 Z" id="Path" fill="#0071D6"></path>
                    <path d="M350.995361,116.10368 C349.797601,114.98192 350.177601,113.17312 350.508961,112.19728 L351.183841,111.58928 C351.183841,111.58928 353.725281,109.02656 355.695201,111.07552 C357.823201,113.27344 355.956641,115.48048 355.956641,115.48048 L355.269601,116.35904 C354.278561,116.736 352.247841,117.27712 350.995361,116.10368 Z" id="Path" fill="#0071D6"></path>
                    <path d="M353.898561,132.03024 L350.667041,133.42864 C350.667041,133.42864 348.235041,134.58992 347.204481,132.21264 C346.292481,130.13936 348.496481,128.99024 348.496481,128.99024 L351.317601,127.25744 C354.178241,128.4704 354.071841,131.024 353.898561,132.03024 Z" id="Path" fill="#006ABA"></path>
                    <path d="M348.888641,138.03424 C347.593601,136.05216 349.858401,134.89696 349.858401,134.89696 L352.788961,133.22192 C355.220961,134.1096 355.029441,136.42 354.822721,137.39584 L351.989441,138.89456 C351.989441,138.89456 350.183681,140.01936 348.888641,138.03424 Z" id="Path" fill="#006ABA"></path>
                    <path d="M352.162721,126.42448 L349.122721,127.92016 C349.122721,127.92016 347.386881,128.67408 346.161761,126.62208 C344.936641,124.57008 347.213601,123.09568 347.213601,123.09568 L350.077281,121.04368 C353.293601,122.37824 352.433281,125.628 352.162721,126.42448 Z" id="Path" fill="#006ABA"></path>
                    <path d="M342.252321,119.67568 C342.252321,119.67568 340.054401,123.08656 339.838561,123.54256 C339.622721,123.99856 339.200161,128.85952 337.376161,130.8872 C335.552161,132.91488 329.919041,134.51088 328.785121,127.8472 C328.84503,127.751607 328.909975,127.659264 328.979681,127.57056 C331.338721,124.65216 336.506721,117.25888 337.908161,116.17968 C341.373761,113.50448 344.638721,108.35472 345.660161,109.04176 C346.681601,109.7288 348.903841,110.9144 343.775361,118.22256 L343.775361,118.22256 L343.656801,118.3624 C343.656801,118.3624 342.744801,119.52672 342.252321,119.67568 Z" id="Path" fill="#0071D6"></path>
                    <path d="M147.39136,135.66912 C152.988965,132.143334 154.668506,124.747365 151.14272,119.14976 C147.616935,113.552156 140.220965,111.872614 134.62336,115.3984 C133.74176,115.95168 74.8843202,161.3024 74.8843202,161.3024 C70.1500611,164.283368 68.7280726,170.538094 71.7090405,175.27272 C74.6900084,180.00698 80.9447335,181.428968 85.6793602,178.448 L147.39136,135.66912 Z" id="Path" fill="#FAA284"></path>
                    <path d="M72.2820802,175.76368 C75.6700418,180.134404 81.9367504,180.98133 86.3633602,177.66672 C90.7985316,174.255697 91.7582797,167.955674 88.5400002,163.37872 L88.5400002,163.37872 C88.5400002,163.37872 80.4019202,147.40656 44.3384001,104.50304 L33.9811201,112.26112 C33.9811201,112.26112 54.8416001,156.05536 71.7835202,175.07056 C71.8960002,175.1952 72.2820802,175.76368 72.2820802,175.76368 Z" id="Path" fill="#FAA284"></path>
                    <path d="M119.25312,161.44832 L152.0608,138.776 C160.10295,133.707263 162.513377,123.07879 157.44464,115.03664 C152.375903,106.994491 141.74743,104.584064 133.70528,109.6528 C133.13376,110.01152 117.72096,121.8128 100.67872,134.8848 C104.348,141.6032 110.8384,152.304 119.25312,161.44832 Z" id="Path" fill="#2B96F4"></path>
                    <path d="M0,171.10032 C0,171.10032 8.38128002,110.99952 11.78304,98.8304002 C15.1848,86.6612802 25.4265601,79.6784002 34.0115201,81.6392002 C42.5964801,83.6000002 54.3248001,89.8928002 63.5177601,166.7744 C63.5177601,166.7744 62.6574401,168.37952 58.2129601,170.48624 C53.7684801,172.59296 62.8276801,182.2328 51.6830401,183.39104 C40.5384001,184.54928 54.0056001,195.55104 24.1558401,193.58112 C11.71616,193.21328 11.04736,181.88624 11.04736,181.88624 C11.04736,181.88624 0.18848,178.144 0,171.10032 Z" id="Path" fill="#2778C1"></path>
                    <path d="M11.13248,179.89808 L17.42832,103.968 C17.42832,103.968 5.06768001,173.2192 5.30176001,173.9184 C5.53584001,174.6176 6.23504001,178.4176 11.13248,179.89808 Z" id="Path" fill="#1D69BC"></path>
                    <path d="M56.1305601,168.78992 L47.7280001,122.74304 C47.7280001,122.74304 62.1923201,166.22416 56.1305601,168.78992 Z" id="Path" fill="#1D69BC"></path>
                    <path d="M45.6395201,182.78 L33.9811201,110.26688 C33.9811201,110.26688 49.3696001,167.58912 49.1355201,178.56352 C49.1355201,178.56352 48.9044801,182.31184 45.6395201,182.78 Z" id="Path" fill="#1D69BC"></path>
                    <path d="M327.043201,136.96112 L314.275201,151.82976 L323.680961,168.14544 C323.680961,168.14544 336.287841,153.49568 338.327681,151.42544 C340.367521,149.3552 334.497281,139.21984 334.497281,139.21984 L331.961921,136.2224 L327.043201,136.96112 Z" id="Path" fill="#0071D6"></path>
                </g>
                <g id="Group-102-Copy-5" opacity="0.365652902" transform="translate(334.000000, 271.000000)">
                    <path d="M64,25 L72,25 C71.1170355,18.3313168 71.1170355,11.6666667 72,5 L64,5 C64.8829645,11.6666667 64.8829645,18.3313168 64,25" id="Fill-1" fill="#2BA0FF"></path>
                    <path d="M43.0636042,33 L49,29.4159419 C45.3226514,24.3409156 42.3032777,18.8663863 39.9363958,13 L34,16.5840581 C37.6755209,21.6609959 40.6967223,27.1355252 43.0636042,33" id="Fill-3" fill="#2BA0FF"></path>
                    <path d="M29.4140304,50 L33,44.0628808 C27.1336137,41.6975384 21.6590844,38.6759688 16.5821466,35 L13,40.9371192 C18.8644748,43.3042895 24.3390041,46.3240312 29.4140304,50" id="Fill-5" fill="#2BA0FF"></path>
                    <path d="M24.9979833,74 L25,66 C18.3346778,66.8829645 11.6673389,66.8829645 5,66 L5.00201674,74 C11.6673389,73.1191682 18.3346778,73.1170355 24.9979833,74" id="Fill-7" fill="#2BA0FF"></path>
                    <path d="M33,94.9371192 L29.417511,89 C24.3400879,92.6759688 18.866947,95.6957105 13,98.0628808 L16.5863124,104 C21.6599121,100.324031 27.1349646,97.3024616 33,94.9371192" id="Fill-9" fill="#2BA0FF"></path>
                    <path d="M49,109.584401 L43.0628808,106 C40.6975384,111.865035 37.6759688,117.340088 34,122.417511 L39.9371192,126 C42.3024616,120.134965 45.3240312,114.659912 49,109.584401" id="Fill-11" fill="#2BA0FF"></path>
                    <path d="M72,114.002017 L64,114 C64.8850973,120.667339 64.8829645,127.334678 64.0021328,134 L72,133.997983 C71.1170355,127.334678 71.1170355,120.667339 72,114.002017" id="Fill-13" fill="#2BA0FF"></path>
                    <path d="M94.940775,106 L89,109.584401 C92.6777967,114.659912 95.6975384,120.134965 98.0665367,126 L104,122.415599 C100.325859,117.340088 97.3042895,111.865035 94.940775,106" id="Fill-15" fill="#2BA0FF"></path>
                    <path d="M108.58945,89 L105,94.9389471 C110.867737,97.3024616 116.339832,100.325859 121.416284,104 L125,98.0628808 C119.134174,95.6975384 113.660168,92.6777967 108.58945,89" id="Fill-17" fill="#2BA0FF"></path>
                    <path d="M113.004033,66 L113,74 C119.669356,73.1172708 126.336695,73.1172708 133,73.9978678 L133,66.0021322 C126.332661,66.8848614 119.667339,66.8848614 113.004033,66" id="Fill-19" fill="#2BA0FF"></path>
                    <path d="M105,44.0599488 L108.584058,50 C113.659084,46.3226514 119.135525,43.30145 125,40.9345681 L121.415942,35 C116.339004,38.6755209 110.864475,41.6967223 105,44.0599488" id="Fill-21" fill="#2BA0FF"></path>
                    <path d="M89,29.4105505 L94.9389471,33 C97.3024616,27.1341743 100.327687,21.6582569 104,16.5837156 L98.0665367,13 C95.6993663,18.8658257 92.6777967,24.3398318 89,29.4105505" id="Fill-23" fill="#2BA0FF"></path>
                    <path d="M118,70.5009568 C118,98.3903446 95.6156732,121 67.9981053,121 C40.3862215,121 18,98.3903446 18,70.5009568 C18,42.611569 40.3862215,20 67.9981053,20 C95.6156732,20 118,42.611569 118,70.5009568" id="Fill-25" fill="#2BA0FF"></path>
                    <path d="M118,70.4990432 C118,76.5593111 116.942681,82.376556 115.004263,87.759421 C113.77262,91.1732252 112.196116,94.4205491 110.291805,97.4458991 C104.14685,107.275895 94.7314069,114.803869 83.587873,118.497054 C78.6878257,120.121673 73.4448129,121 68.0047371,121 C40.3874941,121 18,98.3892878 18,70.4990432 C18,65.0051913 18.8716248,59.7122639 20.4898153,54.7522972 C24.133586,43.5100889 31.587873,34.0130539 41.3121743,27.7958735 C44.3079109,25.8708247 47.5234486,24.2710824 50.903837,23.0234365 C56.2340123,21.0677706 61.9924207,20 68.0047371,20 C95.6144008,20 118,42.6087986 118,70.4990432" id="Fill-27" fill="#2BA0FF"></path>
                    <path d="M89,100.683608 C89,106.197539 88.1183397,111.511732 86.4875564,116.487906 C81.520294,118.118462 76.2072824,119 70.6925839,119 C42.6965091,119 20,96.3085702 20,68.314471 C20,62.80054 20.8835811,57.4901884 22.5258894,52.5101734 C27.4931518,50.8815376 32.8042425,50 38.318941,50 C66.3073326,50 89,72.6914298 89,100.683608" id="Fill-29" fill="#2B9DFF"></path>
                    <path d="M118,69.7645078 C118,75.7366259 116.947643,81.4692558 115.018321,86.7738242 C113.792456,90.1379728 112.22335,93.3380626 110.327975,96.3194073 C102.644634,101.1846 93.5355186,104 83.7719802,104 C56.2824427,104 34,81.7219441 34,54.2354922 C34,44.471164 36.8176022,35.3649568 41.6720251,27.6824784 C44.6537045,25.7854305 47.8541536,24.2089572 51.2186798,22.979459 C56.5238437,21.0522393 62.2552313,20 68.2393354,20 C95.7194432,20 118,42.2799416 118,69.7645078" id="Fill-31" fill="#6EBDFF"></path>
                    <path d="M80,40 C80,42.2104228 78.2084562,44 76,44 C73.7895772,44 72,42.2104228 72,40 C72,37.7915438 73.7895772,36 76,36 C78.2084562,36 80,37.7915438 80,40" id="Fill-33" fill="#6EBDFF"></path>
                    <path d="M110,77.0009176 C110,79.2087635 108.206928,81 105.999082,81 C103.789401,81 102,79.2087635 102,77.0009176 C102,74.7912365 103.789401,73 105.999082,73 C108.206928,73 110,74.7912365 110,77.0009176" id="Fill-35" fill="#2B9DFF"></path>
                    <path d="M41,65.5 C41,69.6428754 37.6428754,73 33.5,73 C29.3571246,73 26,69.6428754 26,65.5 C26,61.3571246 29.3571246,58 33.5,58 C37.6428754,58 41,61.3571246 41,65.5" id="Fill-37" fill="#2B9DFF"></path>
                    <path d="M84,55.0009831 C84,58.3160741 81.3141078,61 77.9990169,61 C74.6878584,61 72,58.3160741 72,55.0009831 C72,51.6858922 74.6878584,49 77.9990169,49 C81.3141078,49 84,51.6858922 84,55.0009831" id="Fill-39" fill="#2B9DFF"></path>
                    <path d="M94,99.4989052 C94,101.43228 92.43398,103 90.5,103 C88.5682103,103 87,101.43228 87,99.4989052 C87,97.5655302 88.5682103,96 90.5,96 C92.43398,96 94,97.5655302 94,99.4989052" id="Fill-41" fill="#2B9DFF"></path>
                    <path d="M56,42.5009322 C56,46.0916392 53.0901921,49 49.5018641,49 C45.9098079,49 43,46.0916392 43,42.5009322 C43,38.9083608 45.9098079,36 49.5018641,36 C53.0901921,36 56,38.9083608 56,42.5009322" id="Fill-43" fill="#6EBDFF"></path>
                    <path d="M69,31.5 C69,33.4312896 67.4312896,35 65.5,35 C63.5662438,35 62,33.4312896 62,31.5 C62,29.5662438 63.5662438,28 65.5,28 C67.4312896,28 69,29.5662438 69,31.5" id="Fill-45" fill="#2B9DFF"></path>
                    <path d="M104,44.5 C104,46.4323879 102.43418,48 100.501155,48 C98.5658199,48 97,46.4323879 97,44.5 C97,42.5653034 98.5658199,41 100.501155,41 C102.43418,41 104,42.5653034 104,44.5" id="Fill-47" fill="#2B9DFF"></path>
                    <path d="M62,97.4990678 C62,101.089775 59.0901921,104 55.5018641,104 C51.9098079,104 49,101.089775 49,97.4990678 C49,93.9083608 51.9098079,91 55.5018641,91 C59.0901921,91 62,93.9083608 62,97.4990678" id="Fill-49" fill="#6EBDFF"></path>
                    <path d="M113,54.5 C113,56.434322 111.211195,58 109.00121,58 C106.791225,58 105,56.434322 105,54.5 C105,52.565678 106.791225,51 109.00121,51 C111.211195,51 113,52.565678 113,54.5" id="Fill-51" fill="#6EBDFF"></path>
                    <path d="M79,5 C79,7.76173285 74.2988636,10 68.5,10 C62.7011364,10 58,7.76173285 58,5 C58,2.23826715 62.7011364,0 68.5,0 C74.2988636,0 79,2.23826715 79,5" id="Fill-53" fill="#2B9DFF"></path>
                    <path d="M74,3.5 C74,4.32750929 71.0904944,5 67.5019129,5 C63.9114185,5 61,4.32750929 61,3.5 C61,2.67249071 63.9114185,2 67.5019129,2 C71.0904944,2 74,2.67249071 74,3.5" id="Fill-55" fill="#2B9DFF"></path>
                    <path d="M79,132.001003 C79,134.762182 74.2988636,137 68.5,137 C62.7011364,137 58,134.762182 58,132.001003 C58,129.239824 62.7011364,127 68.5,127 C74.2988636,127 79,129.239824 79,132.001003" id="Fill-57" fill="#2B9DFF"></path>
                    <path d="M74,133.5 C74,134.327509 71.0904944,135 67.5019129,135 C63.9114185,135 61,134.327509 61,133.5 C61,132.671375 63.9114185,132 67.5019129,132 C71.0904944,132 74,132.671375 74,133.5" id="Fill-59" fill="#2B9DFF"></path>
                    <path d="M111.685915,19.7156273 C110.319692,21.8574303 104.874431,21.2588793 99.5253542,18.3797047 C94.1743149,15.4969244 90.9472024,11.4260564 92.3134252,9.28425339 C93.679648,7.14245039 99.1268726,7.7410014 104.475949,10.6219788 C109.825025,13.5029563 113.054101,17.5756272 111.685915,19.7156273" id="Fill-61" fill="#2B9DFF"></path>
                    <path d="M106.843267,17.3147263 C106.093677,18.5510113 102.872034,18.0688409 99.6444092,16.2365931 C96.4167849,14.406274 94.4072448,11.9202031 95.1568352,10.6839181 C95.9044319,9.44956171 99.1280691,9.93173217 102.355693,11.7620512 C105.581324,13.5923703 107.592858,16.0784412 106.843267,17.3147263" id="Fill-63" fill="#2B9DFF"></path>
                    <path d="M45.6865572,128.717087 C44.3202899,130.857024 38.8728876,130.258491 33.5255997,127.379401 C28.1743858,124.496705 24.947168,120.425956 26.3134354,118.284216 C27.6797028,116.142476 33.1271051,116.741009 38.476356,119.621902 C43.8256068,122.504598 47.0528246,126.575347 45.6865572,128.717087" id="Fill-65" fill="#2B9DFF"></path>
                    <path d="M42.8439043,126.314726 C42.0943535,127.551011 38.8708866,127.068841 35.6454262,125.236593 C32.4179724,123.406274 30.4085384,120.920203 31.1560957,119.683918 C31.9056465,118.449562 35.1291134,118.931732 38.3545738,120.762051 C41.5820276,122.59237 43.5914616,125.078441 42.8439043,126.314726" id="Fill-67" fill="#2B9DFF"></path>
                    <path d="M129.627139,45.7126405 C127.422845,47.0221729 123.337286,43.7318024 120.505292,38.3691406 C117.673298,33.004533 117.166733,27.5951716 119.372861,26.287585 C121.577155,24.9780525 125.662714,28.2645314 128.494708,33.6291391 C131.326702,38.9937467 131.833267,44.403108 129.627139,45.7126405" id="Fill-69" fill="#2B9DFF"></path>
                    <path d="M127.266751,44.8572338 C125.99132,45.5722291 123.495571,43.5319248 121.69068,40.2966697 C119.887757,37.0633897 119.458677,33.8597367 120.734107,33.1427662 C122.009537,32.4277709 124.505287,34.4680752 126.310178,37.7033303 C128.113101,40.9385854 128.540213,44.1402633 127.266751,44.8572338" id="Fill-71" fill="#2B9DFF"></path>
                    <path d="M18.6285786,110.712526 C16.4223927,112.022051 12.3385627,108.733645 9.50649542,103.371012 C6.67442814,98.006434 6.16601425,92.5951565 8.37220017,91.287577 C10.5783861,89.9780518 14.6622161,93.2645127 17.4942834,98.6310367 C20.3263506,103.993669 20.8329291,109.403001 18.6285786,110.712526" id="Fill-73" fill="#2B9DFF"></path>
                    <path d="M17.265476,105.857234 C15.9922374,106.572229 13.4949579,104.531925 11.6903832,101.29667 C9.88777646,98.0633897 9.45877179,94.8617118 10.7339783,94.1427662 C12.0091849,93.4277709 14.5064643,95.4680752 16.3090711,98.7033303 C18.1136458,101.938585 18.5406826,105.142238 17.265476,105.857234" id="Fill-75" fill="#2B9DFF"></path>
                    <path d="M132.771443,80.9995787 C130.012651,80.9500091 127.880948,76.2078493 128.005164,70.4082044 C128.133387,64.6085595 130.473452,59.9490158 133.23024,60.0004213 C135.987029,60.0518268 138.122738,64.7939866 137.994515,70.5917956 C137.868296,76.3914405 135.530235,81.0509842 132.771443,80.9995787" id="Fill-77" fill="#2B9DFF"></path>
                    <path d="M131.423142,76.9997879 C130.596091,76.9710913 129.959642,74.0382951 130.001997,70.4473895 C130.043238,66.858397 130.748795,63.9715155 131.575845,64.0002121 C132.402895,64.0289087 133.039345,66.9617049 132.998104,70.5526105 C132.955748,74.141603 132.251306,77.0284845 131.423142,76.9997879" id="Fill-79" fill="#2B9DFF"></path>
                    <g id="Group-83" transform="translate(0.000000, 57.000000)">
                        <mask id="mask-4" fill="white">
                            <use xlink:href="#path-3"></use>
                        </mask>
                        <g id="Clip-82"></g>
                        <path d="M4.7624,21.9547667 C2.0084,21.9030167 -0.1196,16.9522667 0.0044,10.8975167 C0.1324,4.84276667 2.4684,-0.0217333333 5.2204,0.0319333333 C7.9724,0.0856 10.1044,5.03635 9.9764,11.0891833 C9.8504,17.1420167 7.5164,22.0084333 4.7624,21.9547667" id="Fill-81" fill="#2B9DFF" mask="url(#mask-4)"></path>
                    </g>
                    <path d="M4.42314151,72.9997879 C3.59609128,72.9691782 2.95964157,70.0382951 3.00199724,66.4473895 C3.04323829,62.858397 3.74879462,59.9715155 4.57584486,60.0002121 C5.40289509,60.0289087 6.0393448,62.9617049 5.99810375,66.5506974 C5.95574807,70.141603 5.25130637,73.0284845 4.42314151,72.9997879" id="Fill-84" fill="#2B9DFF"></path>
                    <path d="M118.328943,110.700347 C116.15451,109.36198 116.705852,103.936219 119.562638,98.5788424 C122.417605,93.2234193 126.495349,89.9644461 128.671602,91.2989057 C130.846035,92.6372731 130.292873,98.0630337 127.437907,103.418457 C124.58112,108.777788 120.501556,112.036761 118.328943,110.700347" id="Fill-86" fill="#2B9DFF"></path>
                    <path d="M120.710286,105.851012 C119.453256,105.118968 119.909295,101.907099 121.725654,98.6753925 C123.543961,95.4436855 126.034634,93.4161812 127.289714,94.1502092 C128.546744,94.8822533 128.090705,98.0941217 126.274346,101.325829 C124.457987,104.557536 121.967315,106.581072 120.710286,105.851012" id="Fill-88" fill="#2B9DFF"></path>
                    <path d="M8.32795779,45.7003473 C6.15547609,44.36198 6.70496476,38.9362193 9.56339756,33.5788424 C12.4181914,28.2234193 16.4956884,24.9644461 18.6718091,26.2989057 C20.8461103,27.6372731 20.2929827,33.0630337 17.4363694,38.4184568 C14.5815756,43.7777875 10.502259,47.0367608 8.32795779,45.7003473" id="Fill-90" fill="#2B9DFF"></path>
                    <path d="M10.7102954,42.851012 C9.45324891,42.1189679 9.90929369,38.9070995 11.7256771,35.6753925 C13.5420606,32.4436855 16.0327666,30.4161812 17.2898131,31.1502092 C18.5468596,31.8822533 18.0908148,35.0941217 16.2724825,38.3258287 C14.4580479,41.5575356 11.9673419,43.5810722 10.7102954,42.851012" id="Fill-92" fill="#2B9DFF"></path>
                    <path d="M92.3157527,128.722796 C90.9445897,126.586025 94.1662333,122.517701 99.5153403,119.63207 C104.864447,116.74824 110.311775,116.139791 111.682938,118.276562 C113.05803,120.413333 109.832457,124.483458 104.48335,127.369088 C99.1362079,130.252918 93.6869156,130.859567 92.3157527,128.722796" id="Fill-94" fill="#2B9DFF"></path>
                    <path d="M95.1579262,126.319116 C94.405726,125.086585 96.4129234,122.60034 99.639204,120.768877 C102.865485,118.935488 106.08977,118.448253 106.84197,119.680784 C107.594171,120.911388 105.588968,123.397633 102.360692,125.232948 C99.1344118,127.064412 95.9081312,127.551646 95.1579262,126.319116" id="Fill-96" fill="#2B9DFF"></path>
                    <path d="M26.3157527,19.7230031 C24.9445897,17.5863815 28.1662333,13.5165404 33.5153403,10.6311112 C38.8644473,7.74748204 44.3117752,7.1408759 45.6829381,9.27569749 C47.0580299,11.4141191 43.8324575,15.4839603 38.4833505,18.3675894 C33.1362079,21.2530186 27.6869156,21.8596247 26.3157527,19.7230031" id="Fill-98" fill="#2B9DFF"></path>
                    <path d="M31.1571839,17.3193313 C30.4070186,16.0870091 32.4141098,13.6011842 35.6402194,11.7681049 C38.8663291,9.93502562 42.0904437,9.44787324 42.8426041,10.682121 C43.5927693,11.9125177 41.5896684,14.3983426 38.3615636,16.2314219 C35.1334589,18.0645012 31.9093443,18.5516535 31.1571839,17.3193313" id="Fill-100" fill="#2B9DFF"></path>
                </g>
                <g id="Group-102-Copy-7" opacity="0.365652902" transform="translate(45.000000, 280.000000)">
                    <path d="M28,11 L32,11 C31.5585177,7.99909256 31.5585177,5 32,2 L28,2 C28.4414823,5 28.4414823,7.99909256 28,11" id="Fill-1" fill="#2BA0FF"></path>
                    <path d="M19.229682,15 L22,13.3871739 C20.283904,11.103412 18.8748629,8.63987384 17.770318,6 L15,7.61282615 C16.7152431,9.89744815 18.1251371,12.3609863 19.229682,15" id="Fill-3" fill="#2BA0FF"></path>
                    <path d="M12.3863137,22 L14,19.2293444 C11.3601262,18.1255179 8.89658798,16.7154521 6.61196598,15 L5,17.7706556 C7.63901367,18.8753351 10.1025518,20.2845479 12.3863137,22" id="Fill-5" fill="#2BA0FF"></path>
                    <path d="M10.9990925,33 L11,29 C8.00060502,29.4414823 5.00030251,29.4414823 2,29 L2.00090753,33 C5.00030251,32.5595841 8.00060502,32.5585177 10.9990925,33" id="Fill-7" fill="#2BA0FF"></path>
                    <path d="M14,41.7706556 L12.3878799,39 C10.1030396,40.7154521 7.64012617,42.1246649 5,43.2293444 L6.61384057,46 C8.89696043,44.2845479 11.3607341,42.8744821 14,41.7706556" id="Fill-9" fill="#2BA0FF"></path>
                    <path d="M22,46.6129803 L19.2293444,45 C18.1255179,47.6392659 16.7154521,50.1030396 15,52.3878799 L17.7706556,54 C18.8744821,51.3607341 20.2845479,48.8969604 22,46.6129803" id="Fill-11" fill="#2BA0FF"></path>
                    <path d="M32,50.0009075 L28,50 C28.4425487,53.0003025 28.4414823,56.000605 28.0010664,59 L32,58.9990925 C31.5585177,56.000605 31.5585177,53.0003025 32,50.0009075" id="Fill-13" fill="#2BA0FF"></path>
                    <path d="M41.7723617,45 L39,46.6129803 C40.7163051,48.8969604 42.1255179,51.3607341 43.2310505,54 L46,52.3870197 C44.2854009,50.1030396 42.8753351,47.6392659 41.7723617,45" id="Fill-15" fill="#2BA0FF"></path>
                    <path d="M47.6152523,39 L46,41.7715087 C48.6404817,42.8744821 51.1029243,44.2854009 53.387328,46 L55,43.2293444 C52.3603784,42.1255179 49.8970757,40.7163051 47.6152523,39" id="Fill-17" fill="#2BA0FF"></path>
                    <path d="M50.0018151,29 L50,33 C53.00121,32.5586354 56.0015126,32.5586354 59,32.9989339 L59,29.0010661 C55.9996975,29.4424307 53.0003025,29.4424307 50.0018151,29" id="Fill-19" fill="#2BA0FF"></path>
                    <path d="M46,19.2279761 L47.6128261,22 C49.896588,20.283904 52.3609863,18.87401 55,17.7694651 L53.3871739,15 C51.1025518,16.7152431 48.6390137,18.1251371 46,19.2279761" id="Fill-21" fill="#2BA0FF"></path>
                    <path d="M39,13.3847477 L41.7715087,15 C42.8744821,12.3603784 44.286254,9.8962156 46,7.61267202 L43.2310505,6 C42.1263709,8.63962156 40.7163051,11.1029243 39,13.3847477" id="Fill-23" fill="#2BA0FF"></path>
                    <path d="M52,30.5004074 C52,42.3741071 41.9270529,52 29.4991474,52 C17.0737997,52 7,42.3741071 7,30.5004074 C7,18.6267076 17.0737997,9 29.4991474,9 C41.9270529,9 52,18.6267076 52,30.5004074" id="Fill-25" fill="#2BA0FF"></path>
                    <path d="M52,30.4995927 C52,33.0797067 51.5242065,35.5563555 50.6519185,37.8480703 C50.0976788,39.3014721 49.388252,40.6839961 48.5313122,41.9720164 C45.7660824,46.1570641 41.5291331,49.3620432 36.5145429,50.9343893 C34.3095216,51.6260586 31.9501658,52 29.5021317,52 C17.0743723,52 7,42.3736572 7,30.4995927 C7,28.160626 7.39223117,25.9072015 8.12041686,23.7955325 C9.76011369,19.0092458 13.1145429,14.9659537 17.4904784,12.3190353 C18.8385599,11.49946 20.2855519,10.8183816 21.8067267,10.2872056 C24.2053055,9.4545954 26.7965893,9 29.5021317,9 C41.9264803,9 52,18.6255281 52,30.4995927" id="Fill-27" fill="#2BA0FF"></path>
                    <path d="M39,44.0363515 C39,46.4337128 38.6038918,48.7442314 37.871221,50.9077852 C35.6395524,51.6167228 33.2525472,52 30.774929,52 C18.1969824,52 8,42.1341609 8,29.9628135 C8,27.5654522 8.39697122,25.2566037 9.13481989,23.0913797 C11.3664885,22.3832772 13.7526307,22 16.2302489,22 C28.8047436,22 39,31.8658391 39,44.0363515" id="Fill-29" fill="#2B9DFF"></path>
                    <path d="M52,30.9200808 C52,33.5506566 51.5364616,36.0757436 50.6866412,38.4122797 C50.1466771,39.8941071 49.4555231,41.3036704 48.6206556,42.6168818 C45.2363269,44.7598833 41.2239784,46 36.9233722,46 C24.8148855,46 15,36.1870468 15,24.0799192 C15,19.7789651 16.2410867,15.7678976 18.3793444,12.3839488 C19.6927032,11.5483444 21.1024248,10.8539454 22.5844185,10.3123807 C24.9212169,9.46348636 27.4457566,9 30.081612,9 C42.1859452,9 52,18.8137838 52,30.9200808" id="Fill-31" fill="#6EBDFF"></path>
                    <path d="M35,18 C35,19.1052114 34.1042281,20 33,20 C31.8947886,20 31,19.1052114 31,18 C31,16.8957719 31.8947886,16 33,16 C34.1042281,16 35,16.8957719 35,18" id="Fill-33" fill="#6EBDFF"></path>
                    <path d="M48,34.0004588 C48,35.1043817 47.1034641,36 45.9995412,36 C44.8947006,36 44,35.1043817 44,34.0004588 C44,32.8956183 44.8947006,32 45.9995412,32 C47.1034641,32 48,32.8956183 48,34.0004588" id="Fill-35" fill="#2B9DFF"></path>
                    <path d="M18,28.5 C18,30.4333418 16.4333418,32 14.5,32 C12.5666582,32 11,30.4333418 11,28.5 C11,26.5666582 12.5666582,25 14.5,25 C16.4333418,25 18,26.5666582 18,28.5" id="Fill-37" fill="#2B9DFF"></path>
                    <path d="M37,25.0004916 C37,26.658037 35.6570539,28 33.9995084,28 C32.3439292,28 31,26.658037 31,25.0004916 C31,23.3429461 32.3439292,22 33.9995084,22 C35.6570539,22 37,23.3429461 37,25.0004916" id="Fill-39" fill="#2B9DFF"></path>
                    <path d="M42,42.9993744 C42,44.1041602 41.1051314,45 40,45 C38.8961202,45 38,44.1041602 38,42.9993744 C38,41.8945887 38.8961202,41 40,41 C41.1051314,41 42,41.8945887 42,42.9993744" id="Fill-41" fill="#2B9DFF"></path>
                    <path d="M24,19.0004302 C24,20.6576796 22.6570118,22 21.0008603,22 C19.3429882,22 18,20.6576796 18,19.0004302 C18,17.3423204 19.3429882,16 21.0008603,16 C22.6570118,16 24,17.3423204 24,19.0004302" id="Fill-43" fill="#6EBDFF"></path>
                    <path d="M31,13 C31,14.1035941 30.1035941,15 29,15 C27.8949965,15 27,14.1035941 27,13 C27,11.8949965 27.8949965,11 29,11 C30.1035941,11 31,11.8949965 31,13" id="Fill-45" fill="#2B9DFF"></path>
                    <path d="M46,19 C46,20.1042216 45.1052458,21 44.0006598,21 C42.8947542,21 42,20.1042216 42,19 C42,17.8944591 42.8947542,17 44.0006598,17 C45.1052458,17 46,17.8944591 46,19" id="Fill-47" fill="#2B9DFF"></path>
                    <path d="M28,42.9995698 C28,44.6568192 26.6570118,46 25.0008603,46 C23.3429882,46 22,44.6568192 22,42.9995698 C22,41.3423204 23.3429882,40 25.0008603,40 C26.6570118,40 28,41.3423204 28,42.9995698" id="Fill-49" fill="#6EBDFF"></path>
                    <path d="M50,23 C50,24.1053269 49.1055976,25 48.0006051,25 C46.8956127,25 46,24.1053269 46,23 C46,21.8946731 46.8956127,21 48.0006051,21 C49.1055976,21 50,21.8946731 50,23" id="Fill-51" fill="#6EBDFF"></path>
                    <path d="M35,2 C35,3.10469314 32.7613636,4 30,4 C27.2386364,4 25,3.10469314 25,2 C25,0.895306859 27.2386364,0 30,0 C32.7613636,0 35,0.895306859 35,2" id="Fill-53" fill="#2B9DFF"></path>
                    <path d="M33,1.5 C33,1.77583643 31.6571513,2 30.0008829,2 C28.3437316,2 27,1.77583643 27,1.5 C27,1.22416357 28.3437316,1 30.0008829,1 C31.6571513,1 33,1.22416357 33,1.5" id="Fill-55" fill="#2B9DFF"></path>
                    <path d="M35,58.000401 C35,59.1048727 32.7613636,60 30,60 C27.2386364,60 25,59.1048727 25,58.000401 C25,56.8959294 27.2386364,56 30,56 C32.7613636,56 35,56.8959294 35,58.000401" id="Fill-57" fill="#2B9DFF"></path>
                    <path d="M33,58.5 C33,58.7758364 31.6571513,59 30.0008829,59 C28.3437316,59 27,58.7758364 27,58.5 C27,58.2237918 28.3437316,58 30.0008829,58 C31.6571513,58 33,58.2237918 33,58.5" id="Fill-59" fill="#2B9DFF"></path>
                    <path d="M48.8586618,8.4072126 C48.2438615,9.39573706 45.7934938,9.11948275 43.3864094,7.79063295 C40.9784417,6.46011896 39.5262411,4.5812568 40.1410413,3.59273234 C40.7558416,2.60420787 43.2070927,2.88046218 45.614177,4.21014408 C48.0212614,5.53982598 49.4743454,7.41952023 48.8586618,8.4072126" id="Fill-61" fill="#2B9DFF"></path>
                    <path d="M46.9216337,7.65736313 C46.5468386,8.27550566 44.9360168,8.03442043 43.3222046,7.11829656 C41.7083924,6.20313702 40.7036224,4.96010157 41.0784176,4.34195904 C41.452216,3.72478085 43.0640345,3.96586608 44.6778467,4.88102562 C46.2906621,5.79618515 47.2964289,7.0392206 46.9216337,7.65736313" id="Fill-63" fill="#2B9DFF"></path>
                    <path d="M19.8589508,56.4078863 C19.2441304,57.3955497 16.7927994,57.1193035 14.3865199,55.7904926 C11.9784736,54.4600176 10.5262256,52.5812105 11.1410459,51.592715 C11.7558663,50.6042195 14.2071973,50.8804657 16.6143602,52.2101086 C19.0215231,53.5405836 20.4737711,55.4193908 19.8589508,56.4078863" id="Fill-65" fill="#2B9DFF"></path>
                    <path d="M18.9219521,55.6573631 C18.5471768,56.2755057 16.9354433,56.0344204 15.3227131,55.1182966 C13.7089862,54.203137 12.7042692,52.9601016 13.0780479,52.341959 C13.4528232,51.7247809 15.0645567,51.9658661 16.6772869,52.8810256 C18.2910138,53.7961852 19.2957308,55.0392206 18.9219521,55.6573631" id="Fill-67" fill="#2B9DFF"></path>
                    <path d="M57.3663716,20.8706882 C56.3490055,21.4599778 54.4633627,19.9793111 53.1562886,17.5661133 C51.8492145,15.1520398 51.6154151,12.7178272 52.6336284,12.1294132 C53.6509945,11.5401236 55.5366373,13.0190391 56.8437114,15.4331126 C58.1507855,17.847186 58.3845849,20.2813986 57.3663716,20.8706882" id="Fill-69" fill="#2B9DFF"></path>
                    <path d="M56.6333753,19.9286169 C55.9956601,20.2861146 54.7477855,19.2659624 53.8453399,17.6483348 C52.9438784,16.0316949 52.7293384,14.4298683 53.3670535,14.0713831 C54.0047687,13.7138854 55.2526433,14.7340376 56.1550889,16.3516652 C57.0565504,17.9692927 57.2701063,19.5701317 56.6333753,19.9286169" id="Fill-71" fill="#2B9DFF"></path>
                    <path d="M8.36703628,47.8706368 C7.34879663,48.4599231 5.46395201,46.9801401 4.15684404,44.5669555 C2.84973607,42.1528953 2.6150835,39.7178204 3.63332315,39.1294097 C4.65156281,38.5401233 6.53640742,40.0190307 7.8435154,42.4339665 C9.15062337,44.8471511 9.38442881,47.2813504 8.36703628,47.8706368" id="Fill-73" fill="#2B9DFF"></path>
                    <path d="M7.63273801,46.9286169 C6.9961187,47.2861146 5.74747896,46.2659624 4.84519162,44.6483348 C3.94388823,43.0316949 3.72938589,41.4308559 4.36698916,41.0713831 C5.00459243,40.7138854 6.25323217,41.7340376 7.15453556,43.3516652 C8.0568229,44.9692927 8.27034128,46.5711192 7.63273801,46.9286169" id="Fill-75" fill="#2B9DFF"></path>
                    <path d="M58.9085772,35.9997994 C57.8050605,35.9761948 56.9523794,33.7180235 57.0020657,30.9562878 C57.0533548,28.1945522 57.9893806,25.9757218 59.092096,26.0002006 C60.1948114,26.0246794 61.0490953,28.2828508 60.9978062,31.0437122 C60.9473185,33.8054478 60.012094,36.0242782 58.9085772,35.9997994" id="Fill-77" fill="#2B9DFF"></path>
                    <path d="M58.4743805,33.9999021 C58.1986971,33.9866575 57.9865472,32.6330593 58.0006657,30.9757182 C58.0144128,29.3192601 58.2495982,27.9868533 58.5252816,28.0000979 C58.800965,28.0133425 59.0131149,29.3669407 58.9993679,31.0242818 C58.9852494,32.6807399 58.7504355,34.0131467 58.4743805,33.9999021" id="Fill-79" fill="#2B9DFF"></path>
                    <g id="Group-83" transform="translate(0.000000, 25.000000)">
                        <mask id="mask-6" fill="white">
                            <use xlink:href="#path-5"></use>
                        </mask>
                        <g id="Clip-82"></g>
                        <path d="M1.90496,9.98033333 C0.80336,9.95783333 -0.04784,7.80533333 0.00176,5.17283333 C0.05296,2.54033333 0.98736,0.425333333 2.08816,0.448666667 C3.18896,0.472 4.04176,2.6245 3.99056,5.25616667 C3.94016,7.88783333 3.00656,10.0036667 1.90496,9.98033333" id="Fill-81" fill="#2B9DFF" mask="url(#mask-6)"></path>
                    </g>
                    <path d="M1.4743805,31.9999021 C1.19869709,31.9857745 0.98654719,30.6330593 1.00066575,28.9757182 C1.01441276,27.3192601 1.24959821,25.9868533 1.52528162,26.0000979 C1.80096503,26.0133425 2.01311493,27.3669407 1.99936792,29.0233988 C1.98524936,30.6807399 1.75043546,32.0131467 1.4743805,31.9999021" id="Fill-84" fill="#2B9DFF"></path>
                    <path d="M51.6133583,47.8651563 C50.6097739,47.262891 50.8642393,44.8212987 52.182756,42.4104791 C53.500433,40.0005387 55.3824688,38.5340007 56.386893,39.1345076 C57.3904775,39.7367729 57.1351723,42.1783652 55.8174953,44.5883056 C54.4989785,47 52.616103,48.4665424 51.6133583,47.8651563" id="Fill-86" fill="#2B9DFF"></path>
                    <path d="M53.3551429,46.925506 C52.7266282,46.5594839 52.9546475,44.9535497 53.8628269,43.3376962 C54.7719807,41.7218427 56.0173168,40.7080906 56.6448571,41.0751046 C57.2733718,41.4411266 57.0453525,43.0470608 56.1371731,44.6629143 C55.2289937,46.2787678 53.9836576,47.2905361 53.3551429,46.925506" id="Fill-88" fill="#2B9DFF"></path>
                    <path d="M3.6129036,20.8651563 C2.61021973,20.262891 2.86382989,17.8212987 4.18310656,15.4104791 C5.5007037,13.0005387 7.38262542,11.5340007 8.38698883,12.1345076 C9.39051246,12.7367729 9.13522276,15.1783652 7.81678586,17.5883056 C6.49918872,20 4.61642723,21.4665424 3.6129036,20.8651563" id="Fill-90" fill="#2B9DFF"></path>
                    <path d="M4.3551477,18.925506 C3.72662446,18.5594839 3.95464684,16.9535497 4.86283857,15.3376962 C5.77103029,13.7218427 7.01638332,12.7080906 7.64490656,13.0751046 C8.2734298,13.4411266 8.04540742,15.0470608 7.13624124,16.6629143 C6.22902397,18.2787678 4.98367094,19.2905361 4.3551477,18.925506" id="Fill-92" fill="#2B9DFF"></path>
                    <path d="M40.1420887,56.4105213 C39.5250654,55.4243194 40.974805,53.5466311 43.3819031,52.2148017 C45.7890013,50.8838031 48.2402988,50.6029807 48.8573222,51.5891825 C49.4761135,52.5753843 48.0246059,54.4539035 45.6175077,55.7857329 C43.2112935,57.1167315 40.759112,57.3967231 40.1420887,56.4105213" id="Fill-94" fill="#2B9DFF"></path>
                    <path d="M41.0789631,55.659558 C40.702863,55.0432927 41.7064617,53.8001702 43.319602,52.8844385 C44.9327423,51.967744 46.544885,51.7241266 46.9209851,52.3403919 C47.2970853,52.9556942 46.2944841,54.1988167 44.6803462,55.1164742 C43.0672059,56.0322058 41.4540656,56.2758232 41.0789631,55.659558" id="Fill-96" fill="#2B9DFF"></path>
                    <path d="M11.1420887,8.41061683 C10.5250654,7.42448378 11.974805,5.54609556 14.3819031,4.21435901 C16.7890013,2.88345325 19.2402988,2.60348119 19.8573222,3.58878346 C20.4761135,4.57574728 19.0246059,6.45413551 16.6175077,7.78504127 C14.2112935,9.11677782 11.759112,9.39674988 11.1420887,8.41061683" id="Fill-98" fill="#2B9DFF"></path>
                    <path d="M13.078592,7.65966566 C12.7035093,7.04350456 13.7070549,5.80059209 15.3201097,4.88405245 C16.9331646,3.96751281 18.5452218,3.72393662 18.921302,4.34106048 C19.2963847,4.95625883 18.2948342,6.1991713 16.6807818,7.11571094 C15.0667294,8.03225058 13.4546721,8.27582676 13.078592,7.65966566" id="Fill-100" fill="#2B9DFF"></path>
                </g>
            </g>
        </g>
    </g>
</svg>