<?xml version="1.0" encoding="UTF-8"?>
<svg width="484px" height="482px" viewBox="0 0 484 482" version="1.1" xmlns="http://www.w3.org/2000/svg" xmlns:xlink="http://www.w3.org/1999/xlink">
    <!-- Generator: Sketch 61.1 (89650) - https://sketch.com -->
    <title>Group 15</title>
    <desc>Created with Sketch.</desc>
    <defs>
        <polygon id="path-1" points="0.000108079124 0.384445532 483.890308 0.384445532 483.890308 371.886479 0.000108079124 371.886479"></polygon>
        <polygon id="path-3" points="0.403156835 0.908891489 25.6844806 0.908891489 25.6844806 64.5957447 0.403156835 64.5957447"></polygon>
        <path d="M35.0812,0.0147058824 C21.5072,0.166176471 14.3865333,0.245588235 7.2644,0.325 L7.2644,0.325 C4.77253333,0.352941176 0.877066667,10.5735294 0.929866667,15.3367647 L0.929866667,15.3367647 C0.984133333,20.1 4.20933333,23.9397059 6.7012,23.9119162 L6.7012,23.9119162 C7.40813333,23.9044118 7.73813333,23.9 8.4128,23.8926471 L8.4128,23.8926471 C9.6096,23.8794118 10.8152,22.8573529 11.7964,21.0867647 L11.7964,21.0867647 C12.7937333,19.2852941 13.3364,18.3823529 14.6461333,16.5764706 L14.6461333,16.5764706 C15.2841333,15.6955882 16.2653333,15.1838235 17.4533333,15.1705882 L17.4533333,15.1705882 C18.6413333,15.1573529 19.7912,15.6455882 20.6081333,16.5102941 L20.6081333,16.5102941 C22.2845333,18.2823529 23.1205333,19.1691176 24.7954667,20.9411765 L24.7954667,20.9411765 C26.4425333,22.6823529 28.754,23.6661765 31.1461333,23.6397059 L31.1461333,23.6397059 C32.4954667,23.625 33.1686667,23.6161765 34.518,23.6014706 L34.518,23.6014706 C39.2685333,23.5485294 43.0921333,19.6308824 43.0378667,14.8661765 L43.0378667,14.8661765 C42.9850667,10.1161765 39.8478667,0.0147058824 35.1178667,0.0132352941 L35.1178667,0.0132352941 C35.1061333,0.0132352941 35.0944,0.0147058824 35.0812,0.0147058824" id="path-5"></path>
        <path d="M35.0812,0.0147058824 C21.5072,0.166176471 14.3865333,0.245588235 7.2644,0.325 L7.2644,0.325 C4.77253333,0.352941176 0.877066667,10.5735294 0.929866667,15.3367647 L0.929866667,15.3367647 C0.984133333,20.1 4.20933333,23.9397059 6.7012,23.9119162 L6.7012,23.9119162 C7.40813333,23.9044118 7.73813333,23.9 8.4128,23.8926471 L8.4128,23.8926471 C9.6096,23.8794118 10.8152,22.8573529 11.7964,21.0867647 L11.7964,21.0867647 C12.7937333,19.2852941 13.3364,18.3823529 14.6461333,16.5764706 L14.6461333,16.5764706 C15.2841333,15.6955882 16.2653333,15.1838235 17.4533333,15.1705882 L17.4533333,15.1705882 C18.6413333,15.1573529 19.7912,15.6455882 20.6081333,16.5102941 L20.6081333,16.5102941 C22.2845333,18.2823529 23.1205333,19.1691176 24.7954667,20.9411765 L24.7954667,20.9411765 C26.4425333,22.6823529 28.754,23.6661765 31.1461333,23.6397059 L31.1461333,23.6397059 C32.4954667,23.625 33.1686667,23.6161765 34.518,23.6014706 L34.518,23.6014706 C39.2685333,23.5485294 43.0921333,19.6308824 43.0378667,14.8661765 L43.0378667,14.8661765 C42.9850667,10.1161765 39.8478667,0.0147058824 35.1178667,0.0132352941 L35.1178667,0.0132352941 C35.1061333,0.0132352941 35.0944,0.0147058824 35.0812,0.0147058824 L35.0812,0.0147058824 Z" id="path-7"></path>
        <path d="M35.0812,0.0147058824 C21.5072,0.166176471 14.3865333,0.245588235 7.2644,0.325 L7.2644,0.325 C4.77253333,0.352941176 0.877066667,10.5735294 0.929866667,15.3367647 L0.929866667,15.3367647 C0.984133333,20.1 4.20933333,23.9397059 6.7012,23.9119162 L6.7012,23.9119162 C7.40813333,23.9044118 7.73813333,23.9 8.4128,23.8926471 L8.4128,23.8926471 C9.6096,23.8794118 10.8152,22.8573529 11.7964,21.0867647 L11.7964,21.0867647 C12.7937333,19.2852941 13.3364,18.3823529 14.6461333,16.5764706 L14.6461333,16.5764706 C15.2841333,15.6955882 16.2653333,15.1838235 17.4533333,15.1705882 L17.4533333,15.1705882 C18.6413333,15.1573529 19.7912,15.6455882 20.6081333,16.5102941 L20.6081333,16.5102941 C22.2845333,18.2823529 23.1205333,19.1691176 24.7954667,20.9411765 L24.7954667,20.9411765 C26.4425333,22.6823529 28.754,23.6661765 31.1461333,23.6397059 L31.1461333,23.6397059 C32.4954667,23.625 33.1686667,23.6161765 34.518,23.6014706 L34.518,23.6014706 C39.2685333,23.5485294 43.0921333,19.6308824 43.0378667,14.8661765 L43.0378667,14.8661765 C42.9850667,10.1161765 39.8478667,0.0147058824 35.1178667,0.0132352941 L35.1178667,0.0132352941 C35.1061333,0.0132352941 35.0944,0.0147058824 35.0812,0.0147058824 L35.0812,0.0147058824 Z" id="path-9"></path>
        <path d="M35.0812,0.0147058824 C21.5072,0.166176471 14.3865333,0.245588235 7.2644,0.325 L7.2644,0.325 C4.77253333,0.352941176 0.877066667,10.5735294 0.929866667,15.3367647 L0.929866667,15.3367647 C0.984133333,20.1 4.20933333,23.9397059 6.7012,23.9119162 L6.7012,23.9119162 C7.40813333,23.9044118 7.73813333,23.9 8.4128,23.8926471 L8.4128,23.8926471 C9.6096,23.8794118 10.8152,22.8573529 11.7964,21.0867647 L11.7964,21.0867647 C12.7937333,19.2852941 13.3364,18.3823529 14.6461333,16.5764706 L14.6461333,16.5764706 C15.2841333,15.6955882 16.2653333,15.1838235 17.4533333,15.1705882 L17.4533333,15.1705882 C18.6413333,15.1573529 19.7912,15.6455882 20.6081333,16.5102941 L20.6081333,16.5102941 C22.2845333,18.2823529 23.1205333,19.1691176 24.7954667,20.9411765 L24.7954667,20.9411765 C26.4425333,22.6823529 28.754,23.6661765 31.1461333,23.6397059 L31.1461333,23.6397059 C32.4954667,23.625 33.1686667,23.6161765 34.518,23.6014706 L34.518,23.6014706 C39.2685333,23.5485294 43.0921333,19.6308824 43.0378667,14.8661765 L43.0378667,14.8661765 C42.9850667,10.1161765 39.8478667,0.0147058824 35.1178667,0.0132352941 L35.1178667,0.0132352941 C35.1061333,0.0132352941 35.0944,0.0147058824 35.0812,0.0147058824 L35.0812,0.0147058824 Z" id="path-11"></path>
        <polygon id="path-13" points="0 0.163412295 11.8045686 0.163412295 11.8045686 17.6759581 0 17.6759581"></polygon>
        <linearGradient x1="8.58477465%" y1="70.4899264%" x2="91.4152254%" y2="50%" id="linearGradient-15">
            <stop stop-color="#7AC3FF" offset="0%"></stop>
            <stop stop-color="#FFFFFF" stop-opacity="0.752021416" offset="100%"></stop>
        </linearGradient>
        <polygon id="path-16" points="0 0.627865621 5.989125 0.627865621 5.989125 13.9727343 0 13.9727343"></polygon>
        <polygon id="path-18" points="0 0.4036279 3.99275 0.4036279 3.99275 8.98247203 0 8.98247203"></polygon>
    </defs>
    <g id="Page-1" stroke="none" stroke-width="1" fill="none" fill-rule="evenodd">
        <g id="Home-Copy" transform="translate(-202.000000, -4356.000000)">
            <g id="Group-15" transform="translate(202.000000, 4356.000000)">
                <g id="Group-23-Copy" transform="translate(0.000000, 62.000000)" opacity="0.271042597">
                    <g id="Group-12">
                        <path d="M28.2995746,56.8092347 C28.9204354,44.8473644 30.62752,32.4608858 37.182182,22.4289504 C46.8750749,7.59363386 65.5116436,0.780138968 83.2367116,0.074340624 C111.272141,-1.04251468 138.272802,10.5771846 162.522563,24.6711306 C186.771759,38.7650766 209.557013,55.6184117 235.327826,66.6988811 C282.562444,87.0083696 335.687889,86.368634 386.959233,90.3724868 C403.881931,91.694306 421.838833,93.9901268 434.921015,104.789971 C445.825096,113.791441 451.78208,127.666307 453.96414,141.624739 C459.712475,178.387799 440.931152,215.980313 412.633355,240.187502 C384.335558,264.39582 347.789021,276.930799 311.236263,284.155351 C270.573836,292.191853 228.125728,294.239798 187.876643,284.342246 C112.408124,265.784267 58.3095448,206.330073 37.2234596,133.105471 C30.1056124,108.389542 26.9668159,82.5042469 28.2995746,56.8092347" id="Fill-1" fill="#90CCFF"></path>
                        <g id="Group-5">
                            <mask id="mask-2" fill="white">
                                <use xlink:href="#path-1"></use>
                            </mask>
                            <g id="Clip-4"></g>
                            <path d="M266.080018,58.5485252 C304.498649,34.4514025 342.733518,5.576101 387.890831,0.953438273 C402.71842,-0.564535078 418.169102,0.765241132 431.578616,7.25240787 C450.455181,16.3850404 463.343378,34.7646888 471.23156,54.1422328 C488.623896,96.8686186 485.045915,144.972146 478.457635,190.610516 C473.769167,223.086919 467.432499,256.111574 450.879812,284.474686 C428.497074,322.826333 388.791546,349.250564 346.076284,361.758349 C303.362153,374.266134 257.745153,373.889176 213.668924,367.635284 C170.44535,361.501409 127.489784,349.585262 90.058943,327.188675 C52.6281019,304.792089 20.9605925,271.214112 6.17201776,230.27729 C0.7502,215.27054 -2.34491215,198.70074 2.18410654,183.402679 C14.924728,140.370895 84.4884196,138.819114 119.180364,127.424171 C170.70205,110.502206 220.166172,87.3460686 266.080018,58.5485252" id="Fill-3" fill="#4DBCFF" mask="url(#mask-2)"></path>
                        </g>
                        <path d="M269.323514,329 C253.631271,329 236.601004,327.709365 218.70642,325.166471 C175.055301,318.961606 139.842156,307.556391 111.055142,290.301843 C92.4392575,279.143243 75.5378747,264.691747 62.66413,247.162932 C53.0701547,234.100829 31.2547707,203.021197 48.3370439,188.874442 C53.4862026,184.61089 60.1898883,182.754791 66.7545145,181.470365 C76.8058035,179.504785 86.8327852,177.729951 96.8264153,175.641911 C109.194797,173.058384 120.878057,170.616506 131.573203,167.097876 C186.505665,149.022784 239.066766,124.334248 287.795817,93.7162416 C293.629533,90.0503202 299.44403,86.2890261 305.065764,82.6518858 C334.792843,63.420471 362.870992,45.2550854 391.234044,42.3470661 C393.482738,42.1162531 395.672642,42 397.745533,42 C403.511981,42 408.419198,42.898986 411.938082,44.6015853 C428.484468,52.60668 435.03157,78.7337065 437.681049,95.151346 C446.179507,147.802127 439.339023,229.642017 405.68097,273.485218 C373.923396,314.852681 319.265097,329 269.323514,329 Z" id="Stroke-6" stroke="#FFF0DE" stroke-width="1.33"></path>
                        <path d="M270.538678,288 C238.311248,287.941225 204.000499,282.056835 173.95268,272.977495 C158.690871,268.36565 143.674892,262.348232 130.202992,253.734209 C127.059322,251.724063 93.8785954,223.006314 97.2386403,221.043719 C103.516917,217.376094 110.862909,216.115436 117.993092,214.685521 C169.347629,204.39081 217.945932,183.617413 263.7121,158.54125 C283.151308,147.887079 301.881915,135.78318 320.958044,124.498963 C329.097033,119.683896 384.864603,80.331789 392.676764,86.6939498 C394.454778,88.1408474 395.062554,90.5523435 395.523059,92.7979785 C401.199791,120.454895 398.987327,154.069792 395.525891,182.077112 C392.149986,209.392117 382.878709,237.032051 363.417411,256.505165 C343.472384,276.462843 314.791353,285.741442 286.622939,287.520062 C281.341007,287.854049 275.96958,288.00972 270.538678,288 Z" id="Stroke-8" stroke="#FFF0DE" stroke-width="1.33"></path>
                        <path d="M269.954078,244.998873 C247.436581,244.957726 222.310022,241.55892 198,235.332847 C225.602276,225.073299 253.993852,211.963375 283.607115,195.837926 C297.077439,188.49921 310.00189,180.653772 322.500199,173.06705 C329.277634,168.954099 335.678294,165.069427 342.179956,161.246192 C344.45707,159.906961 347.130253,158.161339 352.480024,154.649802 C353.331176,154.091789 354.171546,153.541667 355,153 C354.475691,160.454828 353.689794,168.39665 352.644013,176.808555 C350.739136,192.125731 345.726988,213.110965 332.665217,226.102523 C322.004261,236.705334 304.471675,243.275796 283.297296,244.606573 C279.147649,244.866979 274.784079,245 270.328017,245 L269.954078,244.998873 Z" id="Stroke-10" stroke="#FFF0DE" stroke-width="1.33"></path>
                    </g>
                </g>
                <g id="Group-166" transform="translate(275.500000, 241.500000) scale(-1, 1) translate(-275.500000, -241.500000) translate(138.000000, 0.000000)">
                    <g id="Group-94" transform="translate(48.000000, 0.000000)">
                        <path d="M78.7833727,242.07276 C81.9299626,247.190504 80.9114302,278.039377 83.6529554,315.259738 C86.3959482,352.493313 95.6992288,466.607568 95.6992288,467.136079 C95.6992288,467.646972 114.757819,467.136079 114.757819,467.136079 C114.757819,467.136079 125.983689,359.109972 126.575142,343.976951 C126.881876,336.022866 130.556812,300.962057 131.450596,282.518504 C132.260725,265.890972 127.060927,265.912994 127.060927,265.912994 L122.02697,243.74344 L113.730481,207.126462 L105.39143,200.923802 L86.5133583,186.885972 C86.5133583,186.885972 80.1776173,216.081781 78.5852432,232.161717 C78.0833151,237.145866 78.0378187,240.865994 78.7833727,242.07276" id="Fill-1" fill="#FFFFFF"></path>
                        <path d="M104.013917,448.955166 C104.564276,455.074145 105.033917,461.197528 105.405226,467.325315 C110.108967,467.260719 114.756938,467.135932 114.756938,467.135932 C114.756938,467.135932 125.984276,359.109826 126.575729,343.976804 C126.882463,336.022719 130.557399,300.961911 131.449715,282.518357 C131.746176,276.458102 126.095816,274.15174 125.243125,269.480294 C124.965744,270.234889 125.869801,292.668698 123.380708,312.941485 C117.143298,363.746038 104.081427,443.759613 104.013917,448.955166" id="Fill-3" fill="#DADADA"></path>
                        <path d="M123.015709,418.50664 L118.351594,481.999853 L76.8397957,481.999853 C76.8397957,481.999853 75.2987885,475.054343 92.7826158,471.848045 L88.1962849,417.931151 L123.015709,418.50664 Z" id="Fill-5" fill="#007CFF"></path>
                        <g id="Group-9" transform="translate(97.330935, 417.404255)">
                            <mask id="mask-4" fill="white">
                                <use xlink:href="#path-3"></use>
                            </mask>
                            <g id="Clip-8"></g>
                            <path d="M13.9522791,0.908891489 C15.1821496,17.8241681 12.7943223,34.9963596 6.45124317,50.7621255 C4.59616403,55.3719128 2.64422158,60.0580404 0.403156835,64.5958915 L21.0203655,64.5958915 L25.6844806,1.10267872 L13.9522791,0.908891489 Z" id="Fill-7" fill="#06569D" style="mix-blend-mode: multiply;" mask="url(#mask-4)"></path>
                        </g>
                        <path d="M168.420551,238.81684 C168.47322,243.561691 155.876587,247.549011 140.284529,247.722245 C124.69394,247.896947 112.010717,244.190032 111.957882,239.446649 L109.997134,63.2852447 L166.45817,62.6569043 L168.420551,238.81684 Z" id="Fill-10" fill="#282828"></path>
                        <path d="M138.348437,73.7992298 C153.940495,73.6259957 166.545934,70.4329106 166.493099,65.6895277 L168.374761,234.773294 C168.42743,239.519613 155.830797,243.506932 140.240207,243.680166 C124.64815,243.8534 111.966394,240.147953 111.91356,235.403102 L110.030596,66.3164 C110.08343,71.0627191 122.757847,73.9724638 138.348437,73.7992298" id="Fill-12" fill="#FFFFFF"></path>
                        <path d="M138.131963,54.3785191 C122.541373,54.5517532 109.94474,58.5405404 109.997409,63.2839234 C110.050409,68.0302426 122.732164,71.7356894 138.324222,71.5624553 C153.914812,71.3892213 166.511445,67.400434 166.458776,62.6570511 C166.405776,57.9107319 153.72402,54.2052851 138.131963,54.3785191" id="Fill-14" fill="#282828"></path>
                        <path d="M202.871015,247.242474 C202.923683,251.987326 190.32705,255.974645 174.734993,256.147879 C159.144403,256.322581 146.46118,252.615666 146.408345,247.872283 L144.447597,71.7108787 L200.908633,71.0825383 L202.871015,247.242474 Z" id="Fill-16" fill="#282828"></path>
                        <path d="M172.798901,82.2248638 C188.390958,82.0516298 200.996397,78.8585447 200.943563,74.1151617 L202.825225,243.198928 C202.877894,247.943779 190.28126,251.932566 174.690671,252.1058 C159.098613,252.279034 146.416858,248.573587 146.364023,243.827268 L144.481059,74.742034 C144.533894,79.4883532 157.208311,82.3980979 172.798901,82.2248638" id="Fill-18" fill="#FFFFFF"></path>
                        <path d="M173.419413,137.949117 C189.010003,137.775883 201.616909,134.582798 201.564075,129.839415 L202.543147,217.812947 C202.595816,222.559266 189.999183,226.546585 174.408593,226.719819 C158.816535,226.893053 146.133312,223.189074 146.081945,218.442755 L145.101571,130.466287 C145.154406,135.212606 157.828823,138.122351 173.419413,137.949117" id="Fill-20" fill="#007CFF"></path>
                        <path d="M172.985142,98.9429766 C188.575732,98.7697426 201.182639,95.5766574 201.129804,90.8318064 L201.777193,149.086891 C201.829862,153.833211 189.233229,157.819062 173.642639,157.993764 C158.050581,158.166998 145.370294,154.460083 145.315991,149.7167 L144.667301,91.4601468 C144.720135,96.2049979 157.394553,99.1162106 172.985142,98.9429766" id="Fill-22" fill="#282828"></path>
                        <path d="M172.985142,98.9429766 C188.575732,98.7697426 201.182639,95.5766574 201.129804,90.8318064 L201.342776,110.025551 C201.395445,114.770402 188.798812,118.757721 173.206754,118.930955 C157.616164,119.104189 144.934409,115.398743 144.881574,110.65536 L144.667301,91.4601468 C144.720135,96.2049979 157.394553,99.1162106 172.985142,98.9429766" id="Fill-24" fill="#007CFF"></path>
                        <path d="M174.067223,196.150617 C189.659281,195.977383 202.264719,192.784298 202.211885,188.039447 L202.411657,206.049915 C202.465784,210.794766 189.869151,214.782085 174.277094,214.956787 C158.686504,215.130021 146.003281,211.423106 145.950446,206.678255 L145.749381,188.667787 C145.802216,193.412638 158.476633,196.323851 174.067223,196.150617" id="Fill-26" fill="#282828"></path>
                        <path d="M172.582426,62.8043 C156.991836,62.977534 144.395203,66.9663213 144.447872,71.7097043 C144.500872,76.4560234 157.182627,80.1614702 172.774685,79.9882362 C188.365275,79.813534 200.961908,75.8262149 200.909239,71.0828319 C200.856239,66.3365128 188.174483,62.631066 172.582426,62.8043" id="Fill-28" fill="#282828"></path>
                        <path d="M114.138334,34.7415596 C114.138334,34.7415596 113.405988,36.2213894 111.338104,37.4017298 C109.268751,38.5820702 107.930276,38.2840489 106.286535,35.8264745 C106.286535,35.8264745 109.604837,32.8726872 114.138334,34.7415596" id="Fill-30" fill="#FFFFFF"></path>
                        <path d="M110.840432,34.4074234 C111.493525,34.3105298 111.462705,36.2190404 111.283655,36.5889979 C110.994532,37.1865085 110.548374,37.9367 109.085151,37.8442106 C106.929209,37.7062106 107.052489,34.9711681 107.052489,34.9711681 L110.840432,34.4074234 Z" id="Fill-32" fill="#542F38"></path>
                        <path d="M107.867902,35.5300681 C108.773427,35.648983 109.163816,36.7001319 108.516593,37.0700894 C107.870837,37.4385787 107.050435,37.4811532 106.963845,36.6825149 C106.875787,35.8838766 106.962377,35.4111532 107.867902,35.5300681" id="Fill-34" fill="#FFFFFF"></path>
                        <path d="M115.906823,35.2175128 C115.906823,35.2175128 110.036319,33.6863 105.166737,36.2539809 C105.166737,36.2539809 104.889355,35.2630234 106.213154,34.5245766 C106.942564,34.1164489 108.501183,33.6965766 110.036319,33.6863 C115.300694,33.6540021 115.906823,35.2175128 115.906823,35.2175128" id="Fill-36" fill="#782F38"></path>
                        <path d="M104.995758,28.5380191 C104.995758,28.5380191 104.096104,27.0846149 104.628852,25.4198064 C104.628852,25.4198064 111.328564,23.5656149 118.905917,27.914083 C118.905917,27.914083 119.705773,28.6672106 118.238147,28.3706574 C116.770521,28.0755723 108.77196,25.9541894 104.995758,28.5380191" id="Fill-38" fill="#8E373F"></path>
                        <path d="M95.1236259,35.8125277 C95.1236259,35.8125277 94.5864748,38.5211447 96.0086043,39.1568255 C97.893036,39.9995064 98.4522014,37.9104213 98.7061007,36.4672936 C98.7061007,36.4672936 97.1636259,35.0065489 95.1236259,35.8125277" id="Fill-40" fill="#FFFFFF"></path>
                        <path d="M95.0361554,36.1838064 C94.5298245,36.2337213 94.8262849,37.7076787 95.014141,37.9601894 C95.3150043,38.3668489 95.7582273,38.8645298 96.8428029,38.5136574 C98.4425151,37.9939553 97.9596662,35.8975298 97.9596662,35.8975298 L95.0361554,36.1838064 Z" id="Fill-42" fill="#542F38"></path>
                        <path d="M94.9187453,36.9322362 C94.1599827,37.2302574 94.0014791,38.2344277 94.617882,38.4208745 C95.2357525,38.6073213 95.9460835,38.4707894 95.8873784,37.7528957 C95.830141,37.032066 95.6775079,36.635683 94.9187453,36.9322362" id="Fill-44" fill="#FFFFFF"></path>
                        <path d="M94.3410878,36.3429468 C93.6659799,36.2401809 93.9389583,35.6735 95.1306705,35.3886915 C96.4500662,35.070117 97.8589871,35.1082872 98.5531741,35.310883 C99.8138647,35.6793723 99.7419511,36.605734 99.7419511,36.605734 C98.0174906,36.1491596 96.2680806,36.2269681 94.7549583,36.5015 C94.6375482,36.4295638 94.5039942,36.3693723 94.3410878,36.3429468" id="Fill-46" fill="#782F38"></path>
                        <path d="M93.0984489,28.238383 C96.7572403,25.6985957 98.8676863,25.8909149 98.8676863,25.8909149 C99.4650101,26.9611489 99.1480029,28.7316596 99.1480029,28.7316596 C96.2787942,28.6479787 94.1977007,29.1720851 92.8049237,29.6771064 C92.7344777,28.963617 92.8606935,28.4483191 93.0984489,28.238383" id="Fill-48" fill="#8E373F"></path>
                        <path d="M68.7665324,187.408023 C58.9070216,198.147066 49.4217554,192.621194 45.1025324,193.08364 C40.7833094,193.547555 18.2024173,180.784023 14.6933237,177.012513 C11.1842302,173.239534 5.57936691,164.811257 5.57936691,164.811257 L19.3178129,160.765215 C19.3178129,160.765215 44.1001439,172.65964 48.4134964,175.658938 C52.7253813,178.656768 68.7665324,187.408023 68.7665324,187.408023" id="Fill-50" fill="#DADADA"></path>
                        <path d="M32.080141,175.768017 C32.080141,175.768017 32.0684,182.691506 27.1342417,186.725804 C27.1342417,186.725804 13.6951914,178.450209 8.33248633,173.123996 C2.97124892,167.797783 0.297234532,161.672932 0.297234532,161.672932 L14.9191914,159.039187 L32.080141,175.768017 Z" id="Fill-52" fill="#007CFF"></path>
                        <path d="M91.1005698,96.5630638 C82.4547856,100.95117 77.6233612,116.921 70.4613468,129.536255 C63.7161381,141.411596 55.7483971,160.496702 50.5031022,168.047064 C45.2578072,175.597426 33.9174619,178.112255 33.9174619,178.112255 L51.1341813,187.280447 C51.1341813,187.280447 61.8067568,190.392787 71.2024978,186.364362 C83.9488288,180.898681 100.262958,159.717149 105.879563,145.492872 C109.37985,136.630043 91.1005698,96.5630638 91.1005698,96.5630638" id="Fill-54" fill="#FFFFFF"></path>
                        <path d="M80.0173525,145.928894 C80.8715108,141.878447 82.1454101,138.010043 82.710446,133.988957 C84.342446,127.109511 84.668259,120.059766 85.2934676,113.34034 C85.9421583,112.917532 86.5923165,112.493255 87.2424748,112.070447 C90.3406331,109.643702 92.4936403,105.491957 93.2964317,101.548681 C98.0412662,112.565191 108.615511,138.563511 105.879856,145.492872 C100.263252,159.717149 83.9491223,180.898681 71.2027914,186.364362 C61.8070504,190.392787 58.0337842,183.677766 58.0337842,183.677766 C58.0337842,183.677766 73.9942158,174.512511 80.0173525,145.928894" id="Fill-56" fill="#D2D2D2"></path>
                        <path d="M102.543502,187.059647 C103.53415,191.880838 104.477833,196.497966 105.390696,200.922774 C108.750092,217.27137 111.595819,230.989157 113.992452,242.559136 C119.91579,270.970987 119.224538,265.434838 121.519905,275.687945 C124.091186,287.065604 129.415732,312.978774 131.498294,321.402647 C139.485114,353.718136 145.223531,467.208455 145.223531,467.208455 L165.567761,467.208455 C165.567761,467.208455 177.746121,348.239243 177.009373,297.848689 C176.464883,260.795689 177.517171,260.694391 170.418265,185.703136 L102.543502,187.059647 Z" id="Fill-58" fill="#FFFFFF"></path>
                        <path d="M78.5855367,232.161717 C89.6059396,237.266249 101.600846,240.48576 113.992012,242.558696 C116.661623,243.012334 119.331235,243.407249 122.027263,243.74344 C136.363033,245.603504 151.052501,246.187802 165.284069,246.584185 C168.520184,263.768121 168.891494,281.335228 169.261335,298.812781 C170.488271,357.778419 155.789997,408.218887 156.362371,467.208015 L165.568788,467.208015 C165.568788,467.208015 177.745681,348.238802 177.008932,297.848249 C176.464443,260.795249 177.516731,260.695419 170.417824,185.702696 L102.543062,187.059206 C103.533709,191.881866 104.47886,196.497526 105.391724,200.923802 L86.5121842,186.885972 C86.5121842,186.885972 80.1779108,216.081781 78.5855367,232.161717" id="Fill-60" fill="#DADADA"></path>
                        <path d="M174.524535,418.50664 L166.597888,481.999853 L126.800276,481.999853 C126.800276,481.999853 125.260737,475.054343 142.744564,471.848045 L136.442578,417.931151 L174.524535,418.50664 Z" id="Fill-62" fill="#007CFF"></path>
                        <path d="M159.068527,418.273068 C158.421304,432.764536 158.292153,447.364643 154.956239,461.477345 C153.178944,469.001281 150.022081,475.901281 145.717534,481.999706 L166.597447,481.999706 L174.524095,418.506494 L159.068527,418.273068 Z" id="Fill-64" fill="#06569D"></path>
                        <path d="M103.133928,8.74749787 C100.138504,10.5987532 95.0076835,14.4862426 94.8007482,17.2932213 C94.5967482,20.1002 92.6800288,28.5108596 93.9950216,33.1265191 C95.8222158,39.5376468 93.5782158,48.2727532 94.4543885,53.8661574 C95.3290935,59.4595617 103.581554,69.4601574 105.027165,70.4379021 C106.472777,71.4171149 112.039482,71.5345617 115.034906,70.0840936 C118.031799,68.6336255 135.219165,54.2919021 134.536719,42.2888383 C134.536719,42.2888383 140.225237,44.699434 144.691223,33.813583 C145.856518,30.9743064 135.731367,20.3321574 134.476547,17.0553915 C131.429755,9.09249787 114.075079,11.5764979 109.356662,11.0509234 C104.639712,10.526817 103.133928,8.74749787 103.133928,8.74749787" id="Fill-66" fill="#FEC4AD"></path>
                        <path d="M102.669571,36.4160574 C102.669571,36.4160574 100.217168,43.7344617 98.1830388,44.9177383 C95.5882763,46.4269298 96.1489094,48.172483 97.6972547,48.9960787 C99.2485353,49.8211426 103.275701,49.9532702 103.275701,49.9532702 C103.275701,49.9532702 103.977226,46.2507596 103.35055,43.3072489 C102.723873,40.3652064 102.669571,36.4160574 102.669571,36.4160574" id="Fill-68" fill="#F49A8A"></path>
                        <path d="M100.739056,52.8059064 C100.739056,52.8059064 100.998826,55.5747149 102.784927,57.301183 C103.339689,57.8590553 104.025071,58.2892043 104.901243,58.5285021 C107.601675,59.2625447 109.342279,58.0352255 110.450337,56.4908 C111.777071,54.6292681 112.1792,52.2862043 112.1792,52.2862043 C112.1792,52.2862043 109.054624,53.2962468 105.403171,53.2639489 C101.756121,53.2037574 100.739056,52.8059064 100.739056,52.8059064" id="Fill-70" fill="#542F38"></path>
                        <path d="M102.784193,57.3004489 C103.340423,57.8597894 104.025804,58.2899383 104.900509,58.5292362 C107.600941,59.2632787 109.343013,58.0344915 110.451071,56.490066 C109.840538,55.9454064 104.900509,58.5292362 102.784193,57.3004489" id="Fill-72" fill="#C85A58"></path>
                        <path d="M87.9890561,39.267666 C87.9890561,39.267666 92.049977,48.9056447 92.155646,58.5054532 C92.2598475,68.1037936 90.7848835,69.5689426 97.3950705,73.3771553 C104.005258,77.1853681 118.628682,76.7243894 124.839675,71.5787511 C131.052135,66.4331128 133.588193,52.9663681 134.454092,50.2694957 C135.319991,47.5711553 134.537747,42.2889851 134.537747,42.2889851 C134.537747,42.2889851 124.889574,49.1816447 121.622639,49.6602404 C118.355704,50.1388362 106.963991,36.6823681 106.963991,36.6823681 L87.9890561,39.267666 Z" id="Fill-74" fill="#282828"></path>
                        <path d="M129.518173,54.0417404 C122.940273,58.7557617 95.4032086,72.9286553 95.4032086,72.9286553 L99.481741,77.7586553 L104.184014,83.3300383 L105.386,84.7658255 C105.386,84.7658255 113.568014,84.6748043 120.800475,83.5252936 C122.626201,83.2419532 124.394691,82.8837404 125.954777,82.4433149 C133.689165,80.2632085 145.880734,76.2465277 145.880734,76.2465277 C145.880734,76.2465277 145.606288,73.9519106 145.161597,70.8234213 C144.778547,68.0017617 144.241396,64.4636766 143.636734,61.3513362 C142.364302,54.7919319 140.594345,56.3040596 140.594345,56.3040596 C140.594345,56.3040596 141.159381,53.0184851 145.54905,46.3944851 C147.333683,43.6946766 148.529799,40.6513362 148.98623,36.9268043 C149.656935,31.4875489 148.747007,24.5714 145.800014,15.0435277 C140.849712,-1.0378766 121.15564,-0.218685106 110.114691,0.797229787 C99.0898849,1.81461277 94.1014245,9.93752766 94.2569928,14.6207191 L94.7985468,17.2955702 C94.7985468,17.2955702 105.789597,14.5810809 114.759727,15.6806766 C123.731324,16.7817404 129.456532,20.8923787 131.016619,26.8484 C132.391784,32.1041447 135.307957,45.6017191 131.41141,51.9394426 C130.908014,52.7821234 130.287209,53.4912085 129.518173,54.0417404" id="Fill-76" fill="#FFFFFF"></path>
                        <path d="M146.112178,15.928783 C145.378365,16.9814 133.373186,24.7299532 133.373186,24.7299532 L130.352812,21.4781447 L144.723804,11.7623574 L146.112178,15.928783 Z" id="Fill-78" fill="#282828"></path>
                        <polygon id="Fill-80" fill="#282828" points="120.712417 0.235834043 110.264388 13.6409191 104.506892 14.1826426 114.74505 0.450174468"></polygon>
                        <path d="M99.4820345,77.7589489 C98.2007971,78.3887574 96.9210273,79.0758213 95.7146388,79.8216085 C98.5104662,81.2118851 101.32097,82.5419702 104.184308,83.3303319 C106.636711,84.0203319 109.127272,84.3139489 111.714696,83.919034 C113.731214,83.6033957 115.699301,82.8781617 117.734898,82.9442255 C118.788653,82.9765234 119.801315,83.2143532 120.799301,83.5255872 C122.196481,83.9498638 123.56284,84.5048 124.986437,84.8116298 C130.356481,85.9523319 135.727991,83.3729064 141.083358,84.3829489 C145.776826,85.2520553 149.020279,88.6433319 153.128164,90.7940766 C160.797977,94.8225021 169.361574,93.5408638 177.567071,95.5741617 C175.557891,88.5669915 172.763531,82.1265021 169.167847,80.1152255 C164.219013,77.3610979 152.654121,73.3165234 145.161891,70.8222468 C144.77884,68.0020553 144.241689,64.4625021 143.637027,61.3516298 C142.364596,54.7907574 140.594639,56.3043532 140.594639,56.3043532 C140.594639,56.3043532 141.158207,53.0173106 145.549344,46.3947787 C147.332509,43.6949702 148.530092,40.6516298 148.985056,36.9270979 C147.875531,38.448034 146.707301,39.9381404 145.448078,41.3592468 C141.54566,45.7664383 136.756797,49.5834596 131.411704,51.9397362 C130.908308,52.7809489 130.287502,53.4915021 129.518466,54.042034 C122.939099,58.7560553 95.4035022,72.9289489 95.4035022,72.9289489 L99.4820345,77.7589489 Z" id="Fill-82" fill="#DADADA"></path>
                        <path d="M143.632624,61.3461979 C143.632624,61.3461979 136.050869,68.6367085 124.839675,71.5787511 C113.628481,74.5207936 106.156797,73.7089426 106.156797,73.7089426 L105.026725,70.4380489 C105.026725,70.4380489 121.621171,68.4590702 129.634409,64.1898787 C137.646178,59.9192191 141.762869,54.1995596 141.762869,54.1995596 L143.632624,61.3461979 Z" id="Fill-84" fill="#282828"></path>
                        <path d="M132.113816,36.6883872 L130.522909,50.1448553 C130.522909,50.1448553 131.751312,53.2660043 133.76783,46.6743021 C133.874967,46.3219617 135.8636,35.8633234 134.400377,27.5055149 C133.701787,23.5181957 131.404953,19.745217 129.897701,18.1846426 C126.246247,14.4013872 117.409672,12.1566851 106.368722,12.2785362 C97.5292115,12.3768979 94.510305,14.5085574 94.2534705,14.6142596 L94.5044345,19.1902809 C94.5587367,19.1667915 98.3892403,16.3715574 106.412751,16.2820043 C111.401212,16.226217 120.506363,16.0148128 127.338161,21.9106426 C130.941183,25.0200468 131.158391,33.3984085 132.113816,36.6883872" id="Fill-86" fill="#282828"></path>
                        <path d="M94.8011885,17.2936617 L92.0376489,23.6181723 C92.0376489,23.6181723 120.276239,21.5202787 124.621879,23.6181723 C128.968987,25.716066 131.139606,29.5154702 131.139606,29.5154702 C131.139606,29.5154702 131.312786,21.5188106 126.174627,17.7194064 C119.037563,12.4416404 94.8011885,17.2936617 94.8011885,17.2936617" id="Fill-88" fill="#282828"></path>
                        <path d="M95.4991914,49.9513617 C96.9976374,49.9337447 98.537177,48.6667872 99.8873928,46.4514468 C100.986645,44.6530426 101.595709,43.7501702 103.061868,41.9473617 C103.419968,41.5054681 103.951249,41.2500213 104.547105,41.2441489 C105.142961,41.2368085 105.715335,41.4790426 106.124803,41.9121277 C107.800832,43.6811702 108.638846,44.5664255 110.314875,46.3369362 C112.375422,48.5141064 115.250501,49.732617 118.24886,49.697383 C119.597609,49.6827021 120.272717,49.6768298 121.622932,49.6606809 C127.566817,49.594617 132.332199,44.7205745 132.266155,38.7748298 C132.198645,32.8290851 128.081954,21.7641277 122.138069,21.8301915 C108.555191,21.9814043 101.429868,22.0606809 94.3030763,22.1399574 C91.1843712,22.1751915 85.9376086,33.3429149 86.0036518,39.2886596 C86.0711626,45.2358723 90.6677669,50.0056809 93.7864719,49.9706408 C94.4938676,49.9631064 94.8240835,49.9587021 95.4991914,49.9513617" id="Fill-90" fill="#282828"></path>
                        <path d="M97.4254504,51.7061638 C98.9238964,51.6900149 100.459033,50.3291 101.807781,47.949334 C102.904098,46.015866 103.513163,45.049866 104.977853,43.1119936 C105.334486,42.6378021 105.864299,42.3647383 106.458688,42.3573979 C107.056012,42.3515255 107.626918,42.6128447 108.036386,43.0767596 C109.713882,44.980866 110.550429,45.930717 112.227925,47.8348234 C114.28994,50.1749511 117.163551,51.4874191 120.158976,51.4536532 C121.507724,51.4375043 122.181364,51.4316319 123.530112,51.4169511 C129.471062,51.3494191 134.229105,46.1156957 134.157191,39.7265894 C134.085278,33.337483 129.968587,21.9128447 124.029105,21.9786232 C110.455033,22.1301213 103.334112,22.2093979 96.2117237,22.2886745 C93.095954,22.3239085 87.8565295,33.8527809 87.9269755,40.2404191 C87.9988892,46.6309936 92.5969612,51.760483 95.7141986,51.7268828 C96.4215942,51.7179085 96.7503424,51.7149723 97.4254504,51.7061638" id="Fill-92" fill="#282828"></path>
                    </g>
                    <g id="Group-107" transform="translate(135.000000, 24.000000)">
                        <g id="Group-97">
                            <mask id="mask-6" fill="white">
                                <use xlink:href="#path-5"></use>
                            </mask>
                            <g id="Clip-96"></g>
                            <path d="M8.41309333,23.8926471 C9.60842667,23.8794118 10.8154933,22.8573529 11.7966933,21.0867647 C12.79256,19.2838235 13.3366933,18.3823529 14.6464267,16.5764706 C15.2844267,15.6955882 16.2656267,15.1838235 17.4536267,15.1705882 C18.6430933,15.1573529 19.7914933,15.6455882 20.6084267,16.5102941 C22.28336,18.2838235 23.1208267,19.1691176 24.79576,20.9411765 C26.44136,22.6823529 28.7542933,23.6661765 31.1464267,23.6382353 C32.49576,23.6235294 33.16896,23.6176471 34.5182933,23.6014706 C39.2688267,23.5485294 43.0924267,19.6308824 43.03816,14.8661765 C42.98536,10.1029412 39.8320267,-0.0382352941 35.0814933,0.0144994041 C21.5074933,0.166176471 14.38536,0.245588235 7.26469333,0.325 C4.77282667,0.352941176 0.87736,10.5720588 0.93016,15.3367647 C0.984426667,20.1 4.20962667,23.9397059 6.70149333,23.9119162 C7.40842667,23.9044118 7.73696,23.9 8.41309333,23.8926471" id="Fill-95" fill="#9AE5FF" mask="url(#mask-6)"></path>
                        </g>
                        <g id="Group-100">
                            <mask id="mask-8" fill="white">
                                <use xlink:href="#path-7"></use>
                            </mask>
                            <g id="Clip-99"></g>
                            <polygon id="Fill-98" fill="#FFFFFF" mask="url(#mask-8)" points="16.97256 26.7189706 26.0732267 26.6175 14.1550933 -6.19867647 5.05442667 -6.09720588"></polygon>
                        </g>
                        <g id="Group-103">
                            <mask id="mask-10" fill="white">
                                <use xlink:href="#path-9"></use>
                            </mask>
                            <g id="Clip-102"></g>
                            <polygon id="Fill-101" fill="#FFFFFF" mask="url(#mask-10)" points="8.41749333 26.8138235 12.05776 26.7741176 0.139626667 -6.04205882 -3.50064 -6.00088235"></polygon>
                        </g>
                        <g id="Group-106">
                            <mask id="mask-12" fill="white">
                                <use xlink:href="#path-11"></use>
                            </mask>
                            <g id="Clip-105"></g>
                            <polygon id="Fill-104" fill="#FFFFFF" mask="url(#mask-12)" points="35.53792 26.5107353 39.1781867 26.4710294 27.2600533 -6.34514706 23.6197867 -6.30397059"></polygon>
                        </g>
                    </g>
                    <g id="Group-165" transform="translate(0.000000, 46.000000)">
                        <path d="M123.043736,101.831004 C125.715651,127.482492 122.769204,164.045477 125.035928,174.268492 C127.317332,184.506186 144.328034,185.460373 161.610332,185.808285 C178.876481,186.157664 189.597906,186.463004 200.334013,181.483615 C211.070119,176.502758 220.357226,171.611447 220.815268,164.051349 C221.271843,156.49125 221.412779,120.456738 222.361162,109.656807 C223.325694,98.8554079 230.09063,76.64193 229.471098,69.6220483 C229.151055,65.919802 227.870885,57.4128562 225.601226,49.5914571 C223.591417,42.5862552 220.796183,36.1447576 217.200843,34.1350926 C212.25046,31.3796936 200.681949,27.3354079 193.185906,24.8427773 C189.158949,23.4966394 186.309396,22.6055754 186.309396,22.6055754 L157.741928,27.7846099 C157.741928,27.7846099 152.618311,29.2907576 147.491757,31.7775163 C146.210119,32.4072798 144.929949,33.0957626 143.723183,33.8414966 C140.8428,35.6162847 138.421928,37.7066887 137.56897,39.9849941 C134.938162,47.0283635 121.094119,83.1847182 123.043736,101.831004" id="Fill-108" fill="#FFFFFF"></path>
                        <path d="M143.723036,33.8409094 C146.519738,35.2296187 149.331121,36.5610768 152.195355,37.3493823 C154.648526,38.037865 157.141334,38.3329291 159.7281,37.9380424 C161.745249,37.6224266 163.713951,36.8972443 165.750185,36.9633034 C166.805738,36.994131 167.817249,37.2334118 168.817015,37.5431557 C170.213164,37.96887 171.581419,38.5222985 173.003994,38.8291064 C178.375717,39.9711951 183.750377,37.3919537 189.105951,38.4004562 C193.800887,39.2709685 197.045355,42.662003 201.154526,44.8125941 C208.828206,48.840732 217.394483,47.5591852 225.601079,49.59087 C223.59127,42.585668 220.796036,36.1441704 217.200696,34.1345054 C212.250313,31.3791064 200.681802,27.3348207 193.18576,24.8421901 C189.158802,23.4960522 186.309249,22.6064562 186.309249,22.6064562 L157.741781,27.7840227 C157.741781,27.7840227 152.618164,29.2901704 147.491611,31.778397 C146.209972,32.4066926 144.929802,33.0951754 143.723036,33.8409094" id="Fill-110" fill="#DADADA"></path>
                        <path d="M172.895502,165.976311 C172.895502,165.976311 196.301183,174.290952 198.553226,211.518932 C199.883311,233.5357 197.195247,282.491375 221.524353,294.448075 C286.340311,326.294439 281.676204,120.493878 262.039098,94.2419862 C250.094757,78.2747645 243.27697,77.7330798 243.27697,77.7330798" id="Stroke-112" stroke="#282828" stroke-width="5.669"></path>
                        <path d="M147.072179,32.1377586 C147.072179,32.1377586 134.151562,80.1847537 131.854009,96.3105172 C129.556455,112.434813 123.946902,149.648113 123.946902,149.648113 C123.946902,149.648113 123.265711,144.083 122.433306,124.896498 C121.599434,105.711463 120.83603,92.7183695 124.956945,73.4760837 C129.076391,54.236734 134.462796,37.4577192 134.462796,37.4577192 L147.072179,32.1377586 Z" id="Fill-114" fill="#282828"></path>
                        <path d="M217.204806,34.134799 C217.204806,34.134799 207.007487,45.9373606 204.228402,74.4514099 C201.450785,102.965459 202.35953,128.961922 206.823977,140.676405 C211.289891,152.390888 225.020891,162.145617 225.020891,162.145617 L224.47036,168.34343 C224.47036,168.34343 198.300274,153.773725 191.90236,135.269833 C185.502977,116.764474 188.785615,77.719134 192.298743,59.7246315 C195.814806,41.7286611 203.711636,28.0177251 203.711636,28.0177251 L217.204806,34.134799 Z" id="Fill-116" fill="#282828"></path>
                        <path d="M144.948887,31.1142828 C138.887164,41.6866768 150.985653,54.7370217 149.706951,47.185731 C148.428249,39.6359084 151.311568,25.0412483 151.311568,25.0412483" id="Stroke-118" stroke="#21295B"></path>
                        <path d="M143.551123,2.76670246 C146.782379,-0.643415764 153.594294,0.561796059 158.763421,5.45897833 C163.932549,10.3576286 165.5034,17.0927222 162.270677,20.5028404 L151.141123,32.2496187 L132.420102,14.5120128 L143.551123,2.76670246 Z" id="Fill-120" fill="#282828"></path>
                        <path d="M149.69873,15.0252187 C144.529602,10.1280365 137.717687,8.92282463 134.486432,12.3329429 L140.79773,5.67271626 C144.028985,2.26259803 150.839432,3.46780985 156.010028,8.36499212 C161.177687,13.2636424 162.750006,19.998736 159.515815,23.4103222 L153.205985,30.0690808 C156.438709,26.6589626 154.867857,19.923869 149.69873,15.0252187" id="Fill-122" fill="#FFFFFF"></path>
                        <path d="M135.928238,29.5573429 C141.097366,34.4545251 147.907813,35.6597369 151.140536,32.2496187 C154.371791,28.8395005 152.80094,22.1029389 147.633281,17.2057567 C142.462685,12.3071064 135.653706,11.1018946 132.419515,14.5120128 C129.18826,17.923599 130.759111,24.6586926 135.928238,29.5573429" id="Fill-124" fill="#282828"></path>
                        <path d="M137.053672,28.3690128 C141.43297,32.5175251 147.099779,33.6493379 149.710034,30.8954069 C152.320289,28.1400079 150.88597,22.542599 146.505204,18.3940867 C142.127374,14.2441064 136.462034,13.1122936 133.850311,15.8676926 C131.240055,18.6216236 132.675843,24.2190325 137.053672,28.3690128" id="Fill-126" fill="#FFFFFF"></path>
                        <path d="M138.328117,27.0241961 C141.527074,30.0541074 145.665606,30.8820483 147.572649,28.8694473 C149.479691,26.8583143 148.431479,22.7699892 145.232521,19.7371419 C142.033564,16.7072305 137.893564,15.8807576 135.987989,17.8918906 C134.080947,19.9044916 135.127691,23.9942847 138.328117,27.0241961 Z" id="Stroke-128" stroke="#393431" stroke-width="0.709" stroke-linecap="round" stroke-linejoin="round" stroke-dasharray="0,1.126"></path>
                        <path d="M170.399464,8.90095172 C168.965145,7.52545419 165.585613,8.72332611 162.846166,11.5756118 C160.109655,14.4293655 159.052634,17.8570995 160.484017,19.2311291 L165.419719,23.9683015 L175.335166,13.6366562 L170.399464,8.90095172 Z" id="Fill-130" fill="#282828"></path>
                        <path d="M166.866957,15.4324365 C169.604936,12.5801507 172.985936,11.3822788 174.420255,12.7577764 L171.620617,10.0728404 C170.187766,8.69734286 166.806766,9.89521478 164.068787,12.7475005 C161.330809,15.5997862 160.273787,19.0275202 161.70517,20.4030177 L164.504809,23.0894217 C163.070489,21.7124562 164.128979,18.2847222 166.866957,15.4324365" id="Fill-132" fill="#FFFFFF"></path>
                        <path d="M172.973017,21.2914394 C170.235038,24.1437251 166.85257,25.343065 165.419719,23.9675675 C163.986868,22.59207 165.045357,19.164336 167.783336,16.3105823 C170.519847,13.4582966 173.902315,12.2618926 175.335166,13.6359222 C176.768017,15.0128877 175.709528,18.4391537 172.973017,21.2914394" id="Fill-134" fill="#282828"></path>
                        <path d="M172.472694,20.8125842 C170.153119,23.2288798 167.334396,24.2887616 166.177545,23.1775005 C165.020694,22.0662394 165.961736,19.2080818 168.282779,16.7917862 C170.602353,14.3740227 173.421077,13.3156089 174.577928,14.425402 C175.734779,15.5366631 174.792268,18.3962887 172.472694,20.8125842" id="Fill-136" fill="#FFFFFF"></path>
                        <path d="M199.84147,26.3232355 C193.674045,26.6902305 189.818853,37.980467 180.348236,45.650664 C170.877619,53.3208611 167.631683,47.7821714 168.740087,40.2059251 C169.84996,32.6296788 168.46996,24.8508512 168.46996,24.8508512" id="Stroke-138" stroke="#21295B"></path>
                        <path d="M195.764157,128.332159 C195.764157,128.332159 200.931817,133.978011 206.519349,139.234848 C211.607732,144.03074 217.06754,148.491932 219.300498,148.091173 C224.013051,147.242681 232.682094,131.93605 237.221413,124.917636 C255.572477,96.5327695 242.196753,56.2029468 236.396349,47.5330552 C230.5842,38.8793113 224.870413,35.401666 216.900179,34.7689665 C211.905753,34.3726118 208.85654,48.5033901 207.906689,63.0598828 C207.2622,72.874799 207.560221,82.8761488 208.872689,88.7539419 C210.784136,97.3959419 205.827881,109.697617 201.482349,118.273558 C198.484519,124.183646 195.764157,128.332159 195.764157,128.332159" id="Fill-140" fill="#FFFFFF"></path>
                        <path d="M143.406223,139.387812 L139.589202,134.700551 C139.589202,134.700551 132.303096,132.777497 129.19516,133.84325 C126.087223,134.907536 118.946457,138.932738 118.946457,138.932738 C118.946457,138.932738 126.733181,144.155812 131.260755,143.551004 C135.78833,142.946196 143.406223,139.387812 143.406223,139.387812" id="Fill-142" fill="#007CFF"></path>
                        <path d="M9.96815106,96.1870601 C12.3288319,97.3159369 16.0651085,94.4181438 18.3127468,89.7176709 C20.5603851,85.01573 20.4664277,80.2888335 18.1042787,79.1599567 L9.97108723,75.2742128 L1.83349149,92.2998483 L9.96815106,96.1870601 Z" id="Fill-144" fill="#282828"></path>
                        <path d="M175.466119,177.4063 C177.471523,178.364891 180.645523,175.906024 182.554034,171.911649 C184.462545,167.917275 184.383268,163.902349 182.377864,162.94229 L19.6053957,81.862802 L12.6936511,96.3268118 L175.466119,177.4063 Z" id="Fill-146" fill="#282828"></path>
                        <path d="M11.6886,86.5519714 C9.44242979,91.2524443 5.70615319,94.1502374 3.34253617,93.0213606 L7.95525957,95.224799 C10.3174085,96.3536759 14.0536851,93.4558828 16.3013234,88.7554099 C18.5474936,84.053469 18.4535362,79.3265724 16.0913872,78.1991635 L11.4786638,75.9957251 C13.8422809,77.123134 13.9347702,81.8500305 11.6886,86.5519714" id="Fill-148" fill="#FFFFFF"></path>
                        <g id="Group-152" transform="translate(0.000000, 74.866995)">
                            <mask id="mask-14" fill="white">
                                <use xlink:href="#path-13"></use>
                            </mask>
                            <g id="Clip-151"></g>
                            <path d="M1.62561064,6.87675369 C3.87178085,2.17481281 7.60805745,-0.721512315 9.97167447,0.407364532 C12.3323553,1.5347734 12.4248447,6.26166995 10.1786745,10.9636108 C7.93250426,15.6640837 4.19622766,18.5618768 1.83407872,17.431532 C-0.528070213,16.3041232 -0.620559574,11.5772266 1.62561064,6.87675369" id="Fill-150" fill="#282828" mask="url(#mask-14)"></path>
                        </g>
                        <path d="M2.44861915,82.1365803 C4.35272553,78.1539498 7.4415766,75.6642552 9.34861915,76.574403 C11.2571298,77.4860187 11.260066,81.4539695 9.35595957,85.4366 C7.45185319,89.4206985 4.36447021,91.9103931 2.45595957,90.9987773 C0.548917021,90.0871616 0.544512766,86.1206788 2.44861915,82.1365803" id="Fill-153" fill="#FFFFFF"></path>
                        <path d="M3.48655532,82.6326108 C4.81810851,79.8463842 6.97912979,78.1038916 8.31361915,78.7424631 C9.64810851,79.3780985 9.6495766,82.1555172 8.3180234,84.9417438 C6.9879383,87.7279704 4.82544894,89.4689951 3.49095957,88.8333596 C2.1579383,88.1947882 2.15500213,85.4188374 3.48655532,82.6326108" id="Fill-155" fill="#282828"></path>
                        <path d="M171.494802,144.914317 C171.494802,144.914317 174.962419,153.186386 183.87076,153.083628 C192.7791,152.983805 217.780589,151.220761 219.300057,148.091027 C222.792632,140.962514 221.440526,135.5075 219.018185,130.409204 C218.348738,128.998475 217.605887,127.59949 216.851291,126.21812 C213.407164,119.816258 205.808355,115.040918 201.979589,117.902012 C201.807823,118.022386 201.653674,118.154504 201.481909,118.274879 C191.014462,125.915716 182.7741,126.580711 177.050036,131.642307 L172.525398,142.452514 L171.494802,144.914317 Z" id="Fill-157" fill="#FFFFFF"></path>
                        <path d="M171.494802,144.914317 C171.494802,144.914317 174.962419,153.186386 183.87076,153.084577 C192.7791,152.983805 217.780589,151.220761 219.300057,148.091027 C224.012611,147.242534 232.683121,131.935903 237.22244,124.91749 C255.573504,96.5326227 242.196313,56.2028 236.395909,47.5329084 C230.58376,38.8806325 224.869972,35.4015192 216.901206,34.7688197 C211.905313,34.372465 208.8561,48.5032433 207.906249,63.059736 C210.770483,54.6746325 213.874015,47.1248099 217.510462,44.0156276 C227.323143,35.643736 234.748717,66.3949872 237.382462,81.0204749 C239.365845,92.0420709 229.589866,117.156278 219.018185,130.409204 C215.557909,134.73681 212.018355,137.797549 208.759206,138.698889 C208.064802,138.895598 207.323419,139.074692 206.518909,139.234701 C197.644334,141.173903 182.7051,142.0635 172.525398,142.452514 L171.494802,144.914317 Z" id="Fill-159" fill="#DADADA"></path>
                        <path d="M182.915477,140.1563 C185.368647,147.312703 183.874136,153.084802 183.874136,153.084802 C183.874136,153.084802 148.835349,156.149945 144.323923,158.642575 C139.813966,161.136674 137.084796,162.387393 135.559455,160.699216 L134.034115,159.013974 C134.034115,159.013974 131.589753,160.166339 129.967519,158.197777 C128.345285,156.227748 128.42603,154.621777 128.42603,154.621777 C128.42603,154.621777 125.795221,156.154349 123.615115,155.323472 C121.437945,154.492595 119.250498,152.717807 120.840434,150.909255 C120.840434,150.909255 116.499306,151.135324 115.167753,150.013787 C113.834732,148.890782 113.441285,146.817994 115.417328,146.139787 C117.394838,145.46158 127.652349,141.316004 131.889243,139.864171 C136.127604,138.412339 137.136179,134.909738 139.589349,134.699817 C140.280817,134.641098 145.335434,137.534487 150.033306,137.538891 C162.012881,137.550634 177.051945,131.64495 177.051945,131.64495 C177.051945,131.64495 181.623562,136.389462 182.915477,140.1563" id="Fill-161" fill="#007CFF"></path>
                        <path d="M63.2895894,120.762812 C62.9211,116.852112 61.3150149,115.435511 62.7229085,111.163689 C64.1308021,106.891866 66.2565894,104.03958 64.1175894,102.981167 C61.9800574,101.921285 60.9215681,104.057196 59.1539936,106.908014 C59.1539936,106.908014 63.4041,101.915413 61.2592277,98.7225557 C59.1143553,95.5296985 57.3438447,97.6700138 55.9330149,101.229866 C55.9330149,101.229866 58.9396532,96.4192946 57.3306319,94.1130975 C55.7245468,91.8069005 54.1287383,93.2352453 52.8911426,95.5502502 C51.6535468,97.8652552 51.1265043,99.4682897 51.1265043,99.4682897 C51.1265043,99.4682897 51.8209085,94.8441517 51.1074191,93.9560236 C50.3939298,93.0708315 48.6160787,93.4319547 46.8543766,97.8828709 C45.0912064,102.332319 43.3251,106.427984 43.3280325,106.962329 C43.3295043,107.495206 44.9502702,113.534477 45.3114191,114.95695 C45.6711,116.377955 57.2586957,125.050782 59.3947596,125.576319 C61.5293553,126.103324 69.7212702,124.721955 69.7212702,124.721955 L63.2895894,120.762812 Z" id="Fill-163" fill="#007CFF"></path>
                    </g>
                </g>
                <path d="" id="Path-7" stroke="#979797"></path>
                <path d="M407,125 L474,73 L484,162 L408,135 C404.666667,131.666667 403,129 403,127 C403,125 404.333333,124.333333 407,125 Z" id="Path-8" fill="url(#linearGradient-15)"></path>
                <g id="Group-102-Copy-5" opacity="0.365652902" transform="translate(361.000000, 298.000000)">
                    <path d="M39,15 L44,15 C43.4481472,10.9987901 43.4481472,7 44,3 L39,3 C39.5518528,7 39.5518528,10.9987901 39,15" id="Fill-1" fill="#2BA0FF"></path>
                    <path d="M26.4381625,20 L30,17.8495651 C27.7935908,14.8045494 25.9819666,11.5198318 24.5618375,8 L21,10.1504349 C23.2053125,13.1965975 25.0180334,16.4813151 26.4381625,20" id="Fill-3" fill="#2BA0FF"></path>
                    <path d="M17.8484182,30 L20,26.4377285 C16.4801682,25.018523 13.1954506,23.2055813 10.149288,21 L8,24.5622715 C11.5186849,25.9825737 14.8034025,27.7944187 17.8484182,30" id="Fill-5" fill="#2BA0FF"></path>
                    <path d="M14.99879,45 L15,40 C11.0008067,40.5518528 7.00040335,40.5518528 3,40 L3.00121004,45 C7.00040335,44.4494801 11.0008067,44.4481472 14.99879,45" id="Fill-7" fill="#2BA0FF"></path>
                    <path d="M20,57.5622715 L17.8505066,54 C14.8040528,56.2055813 11.5201682,58.0174263 8,59.4377285 L10.1517874,63 C13.1959472,60.7944187 16.4809788,58.981477 20,57.5622715" id="Fill-9" fill="#2BA0FF"></path>
                    <path d="M30,66.1506404 L26.4377285,64 C25.018523,67.5190212 23.2055813,70.8040528 21,73.8505066 L24.5622715,76 C25.981477,72.4809788 27.7944187,69.1959472 30,66.1506404" id="Fill-11" fill="#2BA0FF"></path>
                    <path d="M44,69.00121 L39,69 C39.5531858,73.0004033 39.5518528,77.0008067 39.001333,81 L44,80.99879 C43.4481472,77.0008067 43.4481472,73.0004033 44,69.00121" id="Fill-13" fill="#2BA0FF"></path>
                    <path d="M57.564465,64 L54,66.1506404 C56.206678,69.1959472 58.018523,72.4809788 59.439922,76 L63,73.8493596 C60.7955155,70.8040528 58.9825737,67.5190212 57.564465,64" id="Fill-15" fill="#2BA0FF"></path>
                    <path d="M66.1536697,54 L64,57.5633683 C67.5206422,58.981477 70.8038991,60.7955155 73.8497706,63 L76,59.4377285 C72.4805046,58.018523 69.1961009,56.206678 66.1536697,54" id="Fill-17" fill="#2BA0FF"></path>
                    <path d="M69.0024201,40 L69,45 C73.0016134,44.4482942 77.0020167,44.4482942 81,44.9986674 L81,40.0013326 C76.9995967,40.5530384 73.0004033,40.5530384 69.0024201,40" id="Fill-19" fill="#2BA0FF"></path>
                    <path d="M64,26.4359693 L66.1504349,30 C69.1954506,27.7935908 72.4813151,25.98087 76,24.5607408 L73.8495651,21 C70.8034025,23.2053125 67.5186849,25.0180334 64,26.4359693" id="Fill-21" fill="#2BA0FF"></path>
                    <path d="M54,17.8463303 L57.5633683,20 C58.981477,16.4805046 60.7966122,13.1949541 63,10.1502294 L59.439922,8 C58.0196198,11.5194954 56.206678,14.8038991 54,17.8463303" id="Fill-23" fill="#2BA0FF"></path>
                    <path d="M72,42.5005779 C72,59.3446636 58.3455607,73 41.4988442,73 C24.6555951,73 11,59.3446636 11,42.5005779 C11,25.6564922 24.6555951,12 41.4988442,12 C58.3455607,12 72,25.6564922 72,42.5005779" id="Fill-25" fill="#2BA0FF"></path>
                    <path d="M72,42.4994221 C72,46.1595839 71.3550355,49.6729694 70.1726007,52.9240067 C69.421298,54.9858093 68.4596305,56.9470643 67.2980009,58.7742559 C63.5495784,64.7111839 57.8061582,69.2577822 51.0086026,71.4883197 C48.0195737,72.469525 44.8213359,73 41.5028896,73 C24.6563714,73 11,59.3440253 11,42.4994221 C11,39.1813531 11.5316911,35.9846346 12.5187873,32.9890112 C14.7414874,26.1991626 19.2886026,20.4633296 25.2204263,16.7083989 C27.0478257,15.5457456 29.0093036,14.5795646 31.0713406,13.8260359 C34.3227475,12.6448912 37.8353766,12 41.5028896,12 C58.3447845,12 72,25.654819 72,42.4994221" id="Fill-27" fill="#2BA0FF"></path>
                    <path d="M54,60.8508921 C54,64.2071979 53.4633372,67.4419239 52.4706865,70.4708993 C49.4471355,71.4634119 46.2131284,72 42.8563554,72 C25.8152664,72 12,58.1878253 12,41.1479389 C12,37.791633 12.537832,34.5592451 13.5374979,31.5279316 C16.5610489,30.5365881 19.7938868,30 23.1506598,30 C40.187072,30 54,43.8121747 54,60.8508921" id="Fill-29" fill="#2B9DFF"></path>
                    <path d="M72,42.2141655 C72,45.8400943 71.3610687,49.3206196 70.1896947,52.5412504 C69.4454198,54.5837692 68.4927481,56.5266809 67.3419847,58.336783 C62.6770992,61.2906499 57.1465649,63 51.2187023,63 C34.528626,63 21,49.4740375 21,32.7858345 C21,26.8574924 22.710687,21.3287238 25.6580153,16.6643619 C27.4683206,15.5125828 29.4114504,14.5554383 31.4541985,13.8089572 C34.6751908,12.6388596 38.1549618,12 41.7881679,12 C58.4725191,12 72,25.5271074 72,42.2141655" id="Fill-31" fill="#6EBDFF"></path>
                    <path d="M49,24.5 C49,25.8815143 47.8802852,27 46.5,27 C45.1184857,27 44,25.8815143 44,24.5 C44,23.1197148 45.1184857,22 46.5,22 C47.8802852,22 49,23.1197148 49,24.5" id="Fill-33" fill="#6EBDFF"></path>
                    <path d="M67,46.5005735 C67,47.8804772 65.8793301,49 64.4994265,49 C63.1183758,49 62,47.8804772 62,46.5005735 C62,45.1195228 63.1183758,44 64.4994265,44 C65.8793301,44 67,45.1195228 67,46.5005735" id="Fill-35" fill="#2B9DFF"></path>
                    <path d="M25,39.5 C25,41.9857252 22.9857252,44 20.5,44 C18.0142748,44 16,41.9857252 16,39.5 C16,37.0142748 18.0142748,35 20.5,35 C22.9857252,35 25,37.0142748 25,39.5" id="Fill-37" fill="#2B9DFF"></path>
                    <path d="M51,33.5005735 C51,35.4343765 49.4332296,37 47.4994265,37 C45.5679174,37 44,35.4343765 44,33.5005735 C44,31.5667704 45.5679174,30 47.4994265,30 C49.4332296,30 51,31.5667704 51,33.5005735" id="Fill-39" fill="#2B9DFF"></path>
                    <path d="M57,59.9993744 C57,61.1041602 56.1051314,62 55,62 C53.8961202,62 53,61.1041602 53,59.9993744 C53,58.8945887 53.8961202,58 55,58 C56.1051314,58 57,58.8945887 57,59.9993744" id="Fill-41" fill="#2B9DFF"></path>
                    <path d="M34,26.0005736 C34,28.2102395 32.209349,30 30.0011471,30 C27.790651,30 26,28.2102395 26,26.0005736 C26,23.7897605 27.790651,22 30.0011471,22 C32.209349,22 34,23.7897605 34,26.0005736" id="Fill-43" fill="#6EBDFF"></path>
                    <path d="M42,19 C42,20.1035941 41.1035941,21 40,21 C38.8949965,21 38,20.1035941 38,19 C38,17.8949965 38.8949965,17 40,17 C41.1035941,17 42,17.8949965 42,19" id="Fill-45" fill="#2B9DFF"></path>
                    <path d="M63,27 C63,28.1042216 62.1052458,29 61.0006598,29 C59.8947542,29 59,28.1042216 59,27 C59,25.8944591 59.8947542,25 61.0006598,25 C62.1052458,25 63,25.8944591 63,27" id="Fill-47" fill="#2B9DFF"></path>
                    <path d="M38,58.9994264 C38,61.2090922 36.209349,63 34.0011471,63 C31.790651,63 30,61.2090922 30,58.9994264 C30,56.7897605 31.790651,55 34.0011471,55 C36.209349,55 38,56.7897605 38,58.9994264" id="Fill-49" fill="#6EBDFF"></path>
                    <path d="M69,33 C69,34.1053269 67.881997,35 66.5007564,35 C65.1195159,35 64,34.1053269 64,33 C64,31.8946731 65.1195159,31 66.5007564,31 C67.881997,31 69,31.8946731 69,33" id="Fill-51" fill="#6EBDFF"></path>
                    <path d="M48,3 C48,4.65703971 45.0897727,6 41.5,6 C37.9102273,6 35,4.65703971 35,3 C35,1.34296029 37.9102273,0 41.5,0 C45.0897727,0 48,1.34296029 48,3" id="Fill-53" fill="#2B9DFF"></path>
                    <path d="M45,2 C45,2.55167286 43.209535,3 41.0011772,3 C38.7916421,3 37,2.55167286 37,2 C37,1.44832714 38.7916421,1 41.0011772,1 C43.209535,1 45,1.44832714 45,2" id="Fill-55" fill="#2B9DFF"></path>
                    <path d="M48,80.0006016 C48,81.657309 45.0897727,83 41.5,83 C37.9102273,83 35,81.657309 35,80.0006016 C35,78.3438941 37.9102273,77 41.5,77 C45.0897727,77 48,78.3438941 48,80.0006016" id="Fill-57" fill="#2B9DFF"></path>
                    <path d="M45,81 C45,81.5516729 43.209535,82 41.0011772,82 C38.7916421,82 37,81.5516729 37,81 C37,80.4475836 38.7916421,80 41.0011772,80 C43.209535,80 45,80.4475836 45,81" id="Fill-59" fill="#2B9DFF"></path>
                    <path d="M67.811549,12.2096168 C66.9918153,13.5276494 63.7246584,13.1593103 60.5152125,11.3875106 C57.3045889,9.61349194 55.3683214,7.1083424 56.1880551,5.79030978 C57.0077888,4.47227716 60.2761236,4.84061624 63.4855694,6.61352544 C66.6950152,8.38643464 68.6324605,10.8926936 67.811549,12.2096168" id="Fill-61" fill="#2B9DFF"></path>
                    <path d="M64.9085727,10.5717039 C64.4713117,11.3443821 62.5920196,11.0430255 60.7092387,9.8978707 C58.8264578,8.75392128 57.6542261,7.20012697 58.0914872,6.4274488 C58.5275853,5.65597607 60.4080403,5.95733261 62.2908212,7.10128202 C64.1724391,8.24523144 65.3458337,9.79902575 64.9085727,10.5717039" id="Fill-63" fill="#2B9DFF"></path>
                    <path d="M27.8119343,78.210515 C26.9921739,79.5273996 23.7237326,79.1590713 20.5153598,77.3873235 C17.3046315,75.6133568 15.3683008,73.1082806 16.1880613,71.7902866 C17.0078217,70.4722926 20.276263,70.8406209 23.4858136,72.6134782 C26.6953641,74.3874449 28.6316948,76.892521 27.8119343,78.210515" id="Fill-65" fill="#2B9DFF"></path>
                    <path d="M25.9089442,76.5717039 C25.4717062,77.3443821 23.5913505,77.0430255 21.709832,75.8978707 C19.8271505,74.7539213 18.6549808,73.200127 19.0910558,72.4274488 C19.5282938,71.6559761 21.4086495,71.9573326 23.290168,73.101282 C25.1728495,74.2452314 26.3450192,75.7990258 25.9089442,76.5717039" id="Fill-67" fill="#2B9DFF"></path>
                    <path d="M79.1551622,27.8275843 C77.798674,28.6133037 75.2844835,26.6390814 73.5417181,23.4214843 C71.7989527,20.2027198 71.4872202,16.957103 72.8448378,16.172551 C74.201326,15.3868315 76.7155165,17.3587189 78.4582819,20.5774834 C80.2010473,23.796248 80.5127798,27.0418648 79.1551622,27.8275843" id="Fill-69" fill="#2B9DFF"></path>
                    <path d="M77.5417191,26.9167197 C76.7445752,27.3338003 75.1847319,26.1436228 74.0566748,24.2563907 C72.929848,22.3703107 72.661673,20.5015131 73.4588169,20.0832803 C74.2559608,19.6661997 75.8158041,20.8563772 76.9438612,22.7436093 C78.070688,24.6308415 78.3376328,26.4984869 77.5417191,26.9167197" id="Fill-71" fill="#2B9DFF"></path>
                    <path d="M11.1560484,66.8275157 C9.79839551,67.6132309 7.28526935,65.6401868 5.54245872,62.4226074 C3.79964809,59.2038604 3.486778,55.9570939 4.84443087,55.1725462 C6.20208374,54.3868311 8.7152099,56.3587076 10.4580205,59.578622 C12.2008312,62.7962015 12.5125718,66.0418005 11.1560484,66.8275157" id="Fill-73" fill="#2B9DFF"></path>
                    <path d="M10.5409225,63.9167197 C9.74514837,64.3338003 8.1843487,63.1436228 7.05648952,61.2563907 C5.92986028,59.3703107 5.66173237,57.5026652 6.45873645,57.0832803 C7.25574054,56.6661997 8.81654022,57.8563772 9.94316945,59.7436093 C11.0710286,61.6308415 11.3379266,63.4996391 10.5409225,63.9167197" id="Fill-75" fill="#2B9DFF"></path>
                    <path d="M80.8628659,48.9997392 C79.2075907,48.9690533 77.9285691,46.0334305 78.0030985,42.4431742 C78.0800322,38.8529178 79.4840709,35.9684383 81.138144,36.0002608 C82.7922171,36.0320833 84.0736429,38.967706 83.9967093,42.5568258 C83.9209777,46.1470822 82.518141,49.0315617 80.8628659,48.9997392" id="Fill-77" fill="#2B9DFF"></path>
                    <path d="M79.948761,46.9998695 C79.3973942,46.98221 78.9730944,45.1774124 79.0013315,42.9676243 C79.0288255,40.7590135 79.4991964,38.9824711 80.0505632,39.0001305 C80.6019301,39.01779 81.0262299,40.8225876 80.9987358,43.0323757 C80.9704987,45.2409865 80.5008709,47.0175289 79.948761,46.9998695" id="Fill-79" fill="#2B9DFF"></path>
                    <g id="Group-83" transform="translate(0.000000, 34.000000)">
                        <mask id="mask-17" fill="white">
                            <use xlink:href="#path-16"></use>
                        </mask>
                        <g id="Clip-82"></g>
                        <path d="M2.85744,13.9724667 C1.20504,13.9409667 -0.07176,10.9274667 0.00264,7.24196667 C0.07944,3.55646667 1.48104,0.595466667 3.13224,0.628133333 C4.78344,0.6608 6.06264,3.6743 5.98584,7.35863333 C5.91024,11.0429667 4.50984,14.0051333 2.85744,13.9724667" id="Fill-81" fill="#2B9DFF" mask="url(#mask-17)"></path>
                    </g>
                    <path d="M2.94876101,43.9998695 C2.39739419,43.9810327 1.97309438,42.1774124 2.0013315,39.9676243 C2.02882553,37.7590135 2.49919642,35.9824711 3.05056324,36.0001305 C3.60193006,36.01779 4.02622986,37.8225876 3.99873583,40.0311984 C3.97049872,42.2409865 3.50087091,44.0175289 2.94876101,43.9998695" id="Fill-84" fill="#2B9DFF"></path>
                    <path d="M71.8178111,66.8202084 C70.4796985,66.017188 70.8189857,62.7617316 72.5770081,59.5473054 C74.3339107,56.3340516 76.8432917,54.3786676 78.182524,55.1793434 C79.5206366,55.9823638 79.1802297,59.2378202 77.4233271,62.4510741 C75.6653047,65.6666725 73.154804,67.6220565 71.8178111,66.8202084" id="Fill-86" fill="#2B9DFF"></path>
                    <path d="M73.4439286,63.9130903 C72.6582852,63.4860646 72.9433093,61.6124747 74.0785336,59.7273123 C75.2149759,57.8421499 76.7716461,56.659439 77.5560714,57.087622 C78.3417148,57.5146477 78.0566907,59.3882376 76.9214664,61.2734001 C75.7862422,63.1585625 74.229572,64.3389588 73.4439286,63.9130903" id="Fill-88" fill="#2B9DFF"></path>
                    <path d="M4.8172048,27.8202084 C3.48029298,27.017188 3.81843985,23.7617316 5.57747542,20.5473054 C7.3342716,17.3340516 9.84350057,15.3786676 11.1826518,16.1793434 C12.5206833,16.9823638 12.180297,20.2378202 10.4223811,23.4510741 C8.66558496,26.6666725 6.1552363,28.6220565 4.8172048,27.8202084" id="Fill-90" fill="#2B9DFF"></path>
                    <path d="M6.44393462,25.9130903 C5.65828057,25.4860646 5.94330855,23.6124747 7.07854821,21.7273123 C8.21378786,19.8421499 9.77047915,18.659439 10.5561332,19.087622 C11.3417873,19.5146477 11.0567593,21.3882376 9.92030155,23.2734001 C8.78627996,25.1585625 7.22958868,26.3389588 6.44393462,25.9130903" id="Fill-92" fill="#2B9DFF"></path>
                    <path d="M56.1894516,78.2140283 C55.3667538,76.8990926 57.29974,74.3955081 60.5092042,72.6197356 C63.7186684,70.8450708 66.9870651,70.4706409 67.8097629,71.7855767 C68.6348179,73.1005124 66.6994745,75.6052047 63.4900103,77.3809772 C60.2817247,79.155642 57.0121494,79.5289641 56.1894516,78.2140283" id="Fill-94" fill="#2B9DFF"></path>
                    <path d="M58.0921236,76.5744474 C57.6533402,75.8041159 58.8242053,74.2502127 60.7062024,73.1055482 C62.5881994,71.95968 64.4690325,71.6551583 64.907816,72.4254898 C65.3465995,73.1946177 64.1768982,74.7485209 62.2937373,75.8955928 C60.4117402,77.0402573 58.5297432,77.344779 58.0921236,76.5744474" id="Fill-96" fill="#2B9DFF"></path>
                    <path d="M16.1894516,12.2141558 C15.3667538,10.8993117 17.29974,8.39479408 20.5092042,6.61914535 C23.7186684,4.84460433 26.9870651,4.47130825 27.8097629,5.78504461 C28.6348179,7.10099638 26.6994745,9.60551401 23.4900103,11.380055 C20.2817247,13.1557038 17.0121494,13.5289998 16.1894516,12.2141558" id="Fill-98" fill="#2B9DFF"></path>
                    <path d="M19.0916906,10.5745821 C18.6540942,9.8043807 19.8248974,8.25074011 21.7067947,7.10506556 C23.588692,5.95939101 25.4694255,5.65492078 25.9081857,6.4263256 C26.3457821,7.19532353 25.1773066,8.74896412 23.2942455,9.89463867 C21.4111843,11.0403132 19.5304508,11.3447835 19.0916906,10.5745821" id="Fill-100" fill="#2B9DFF"></path>
                </g>
                <g id="Group-102-Copy-7" opacity="0.365652902" transform="translate(25.000000, 169.000000)">
                    <path d="M26,10 L29,10 C28.6688883,7.33252672 28.6688883,4.66666667 29,2 L26,2 C26.3311117,4.66666667 26.3311117,7.33252672 26,10" id="Fill-1" fill="#2BA0FF"></path>
                    <path d="M17.6254417,13 L20,11.5663768 C18.5290606,9.53636624 17.3213111,7.34655453 16.3745583,5 L14,6.43362324 C15.4702084,8.46439836 16.6786889,10.6542101 17.6254417,13" id="Fill-3" fill="#2BA0FF"></path>
                    <path d="M11.5656122,20 L13,17.6251523 C10.6534455,16.6790154 8.46363376,15.4703875 6.43285864,14 L5,16.3748477 C7.34578993,17.3217158 9.53560164,18.5296125 11.5656122,20" id="Fill-5" fill="#2BA0FF"></path>
                    <path d="M9.9991933,30 L10,27 C7.33387113,27.3311117 4.66693557,27.3311117 2,27 L2.0008067,30 C4.66693557,29.6696881 7.33387113,29.6688883 9.9991933,30" id="Fill-7" fill="#2BA0FF"></path>
                    <path d="M13,38.3748477 L11.5670044,36 C9.53603517,37.4703875 7.34677882,38.6782842 5,39.6251523 L6.43452495,42 C8.46396483,40.5296125 10.6539859,39.3209846 13,38.3748477" id="Fill-9" fill="#2BA0FF"></path>
                    <path d="M20,43.4337603 L17.6251523,42 C16.6790154,44.3460141 15.4703875,46.5360352 14,48.5670044 L16.3748477,50 C17.3209846,47.6539859 18.5296125,45.4639648 20,43.4337603" id="Fill-11" fill="#2BA0FF"></path>
                    <path d="M29,46.0008067 L26,46 C26.3319115,48.6669356 26.3311117,51.3338711 26.0007998,54 L29,53.9991933 C28.6688883,51.3338711 28.6688883,48.6669356 29,46.0008067" id="Fill-13" fill="#2BA0FF"></path>
                    <path d="M38.37631,42 L36,43.4337603 C37.4711187,45.4639648 38.6790154,47.6539859 39.6266147,50 L42,48.5662397 C40.5303437,46.5360352 39.3217158,44.3460141 38.37631,42" id="Fill-15" fill="#2BA0FF"></path>
                    <path d="M44.4357798,36 L43,38.3755788 C45.3470948,39.3209846 47.5359327,40.5303437 49.5665138,42 L51,39.6251523 C48.6536697,38.6790154 46.4640673,37.4711187 44.4357798,36" id="Fill-17" fill="#2BA0FF"></path>
                    <path d="M46.0016134,27 L46,30 C48.6677423,29.6689765 51.3346778,29.6689765 54,29.9992004 L54,27.0007996 C51.3330644,27.331823 48.6669356,27.331823 46.0016134,27" id="Fill-19" fill="#2BA0FF"></path>
                    <path d="M43,17.6239795 L44.4336232,20 C46.4636338,18.5290606 48.6542101,17.32058 51,16.3738272 L49.5663768,14 C47.5356016,15.4702084 45.3457899,16.6786889 43,17.6239795" id="Fill-21" fill="#2BA0FF"></path>
                    <path d="M36,11.5642202 L38.3755788,13 C39.3209846,10.6536697 40.5310748,8.46330275 42,6.43348624 L39.6266147,5 C38.6797465,7.34633028 37.4711187,9.53593272 36,11.5642202" id="Fill-23" fill="#2BA0FF"></path>
                    <path d="M48,28.0003789 C48,39.045681 38.822426,48 27.4992232,48 C16.1783508,48 7,39.045681 7,28.0003789 C7,16.9550768 16.1783508,8 27.4992232,8 C38.822426,8 48,16.9550768 48,28.0003789" id="Fill-25" fill="#2BA0FF"></path>
                    <path d="M48,27.9996211 C48,30.3997272 47.5664993,32.7035865 46.771748,34.8354143 C46.266774,36.1874159 45.6204074,37.4734848 44.83964,38.6716432 C42.3202084,42.5647108 38.4598768,45.5460867 33.8910279,47.0087342 C31.8820085,47.6521476 29.7323733,48 27.5019422,48 C16.1788726,48 7,39.0452625 7,27.9996211 C7,25.8238381 7.35736618,23.7276293 8.02082425,21.763286 C9.51477025,17.3109263 12.5710279,13.5497243 16.5579915,11.0874747 C17.7862435,10.3250791 19.1046139,9.69151778 20.4905732,9.19740058 C22.675945,8.42287945 25.0368925,8 27.5019422,8 C38.8219043,8 48,16.9539797 48,27.9996211" id="Fill-27" fill="#2BA0FF"></path>
                    <path d="M36,40.5672614 C36,42.8047986 35.6422248,44.9612826 34.9804577,46.9805995 C32.964757,47.6422746 30.8087523,48 28.5709036,48 C17.2101776,48 8,38.7918835 8,27.4319593 C8,25.194422 8.35855465,23.0394968 9.02499861,21.0186211 C11.0406993,20.3577254 13.1959245,20 15.4337732,20 C26.7913813,20 36,29.2081165 36,40.5672614" id="Fill-29" fill="#2B9DFF"></path>
                    <path d="M48,28.142777 C48,30.5600629 47.5740458,32.8804131 46.7931298,35.0275003 C46.2969466,36.3891795 45.6618321,37.6844539 44.8946565,38.8911887 C41.7847328,40.8604333 38.0977099,42 34.1458015,42 C23.019084,42 14,32.9826917 14,21.857223 C14,17.9049949 15.140458,14.2191492 17.1053435,11.1095746 C18.3122137,10.3417219 19.6076336,9.70362555 20.9694656,9.20597149 C23.1167939,8.42590639 25.4366412,8 27.8587786,8 C38.9816794,8 48,17.0180716 48,28.142777" id="Fill-31" fill="#6EBDFF"></path>
                    <path d="M32,16.5 C32,17.3289086 31.3281711,18 30.5,18 C29.6710914,18 29,17.3289086 29,16.5 C29,15.6718289 29.6710914,15 30.5,15 C31.3281711,15 32,15.6718289 32,16.5" id="Fill-33" fill="#6EBDFF"></path>
                    <path d="M44,30.5003441 C44,31.3282863 43.3275981,32 42.4996559,32 C41.6710255,32 41,31.3282863 41,30.5003441 C41,29.6717137 41.6710255,29 42.4996559,29 C43.3275981,29 44,29.6717137 44,30.5003441" id="Fill-35" fill="#2B9DFF"></path>
                    <path d="M17,26 C17,27.6571501 15.6571501,29 14,29 C12.3428499,29 11,27.6571501 11,26 C11,24.3428499 12.3428499,23 14,23 C15.6571501,23 17,24.3428499 17,26" id="Fill-37" fill="#2B9DFF"></path>
                    <path d="M34,22.5004096 C34,23.8816975 32.8808783,25 31.4995904,25 C30.119941,25 29,23.8816975 29,22.5004096 C29,21.1191217 30.119941,20 31.4995904,20 C32.8808783,20 34,21.1191217 34,22.5004096" id="Fill-39" fill="#2B9DFF"></path>
                    <path d="M38,39.4995308 C38,40.3281201 37.3288486,41 36.5,41 C35.6720901,41 35,40.3281201 35,39.4995308 C35,38.6709415 35.6720901,38 36.5,38 C37.3288486,38 38,38.6709415 38,39.4995308" id="Fill-41" fill="#2B9DFF"></path>
                    <path d="M22,17.5003585 C22,18.8813997 20.8808431,20 19.5007169,20 C18.1191569,20 17,18.8813997 17,17.5003585 C17,16.1186003 18.1191569,15 19.5007169,15 C20.8808431,15 22,16.1186003 22,17.5003585" id="Fill-43" fill="#6EBDFF"></path>
                    <path d="M28,12.5 C28,13.3276956 27.3276956,14 26.5,14 C25.6712474,14 25,13.3276956 25,12.5 C25,11.6712474 25.6712474,11 26.5,11 C27.3276956,11 28,11.6712474 28,12.5" id="Fill-45" fill="#2B9DFF"></path>
                    <path d="M42,17.5 C42,18.3281662 41.3289343,19 40.5004949,19 C39.6710657,19 39,18.3281662 39,17.5 C39,16.6708443 39.6710657,16 40.5004949,16 C41.3289343,16 42,16.6708443 42,17.5" id="Fill-47" fill="#2B9DFF"></path>
                    <path d="M25,39.4996415 C25,40.8806826 23.8808431,42 22.5007169,42 C21.1191569,42 20,40.8806826 20,39.4996415 C20,38.1186003 21.1191569,37 22.5007169,37 C23.8808431,37 25,38.1186003 25,39.4996415" id="Fill-49" fill="#6EBDFF"></path>
                    <path d="M46,21.5 C46,22.3289952 45.3291982,23 44.5004539,23 C43.6717095,23 43,22.3289952 43,21.5 C43,20.6710048 43.6717095,20 44.5004539,20 C45.3291982,20 46,20.6710048 46,21.5" id="Fill-51" fill="#6EBDFF"></path>
                    <path d="M32,2 C32,3.10469314 29.9852273,4 27.5,4 C25.0147727,4 23,3.10469314 23,2 C23,0.895306859 25.0147727,0 27.5,0 C29.9852273,0 32,0.895306859 32,2" id="Fill-53" fill="#2B9DFF"></path>
                    <path d="M30,1.5 C30,1.77583643 28.8809594,2 27.5007357,2 C26.1197763,2 25,1.77583643 25,1.5 C25,1.22416357 26.1197763,1 27.5007357,1 C28.8809594,1 30,1.22416357 30,1.5" id="Fill-55" fill="#2B9DFF"></path>
                    <path d="M32,53.000401 C32,54.1048727 29.9852273,55 27.5,55 C25.0147727,55 23,54.1048727 23,53.000401 C23,51.8959294 25.0147727,51 27.5,51 C29.9852273,51 32,51.8959294 32,53.000401" id="Fill-57" fill="#2B9DFF"></path>
                    <path d="M30,53.5 C30,53.7758364 28.8809594,54 27.5007357,54 C26.1197763,54 25,53.7758364 25,53.5 C25,53.2237918 26.1197763,53 27.5007357,53 C28.8809594,53 30,53.2237918 30,53.5" id="Fill-59" fill="#2B9DFF"></path>
                    <path d="M44.874366,7.5060105 C44.3278769,8.32978089 42.1497723,8.09956896 40.0101417,6.99219412 C37.869726,5.88343246 36.578881,4.317714 37.1253701,3.49394361 C37.6718592,2.67017323 39.850749,2.90038515 41.9903796,4.0084534 C44.1300101,5.11652165 45.4216403,6.68293352 44.874366,7.5060105" id="Fill-61" fill="#2B9DFF"></path>
                    <path d="M42.9346948,6.74302235 C42.6223655,7.20662925 41.280014,7.02581532 39.9351705,6.33872242 C38.590327,5.65235277 37.7530187,4.72007618 38.065348,4.25646928 C38.3768466,3.79358564 39.7200288,3.97439956 41.0648723,4.66076921 C42.4088851,5.34713887 43.2470241,6.27941545 42.9346948,6.74302235" id="Fill-63" fill="#2B9DFF"></path>
                    <path d="M18.8746229,51.5065719 C18.3281159,52.3296248 16.149155,52.0994196 14.0102399,50.9920772 C11.8697543,49.883348 10.5788672,48.3176754 11.1253742,47.4939291 C11.6718811,46.6701829 13.850842,46.9003881 15.9905424,48.0084239 C18.1302427,49.117153 19.4211298,50.6828256 18.8746229,51.5065719" id="Fill-65" fill="#2B9DFF"></path>
                    <path d="M16.9349601,50.7430223 C16.6226473,51.2066292 15.2795361,51.0258153 13.9355943,50.3387224 C12.5908218,49.6523528 11.7535577,48.7200762 12.0650399,48.2564693 C12.3773527,47.7935856 13.7204639,47.9743996 15.0644057,48.6607692 C16.4091782,49.3471389 17.2464423,50.2794155 16.9349601,50.7430223" id="Fill-67" fill="#2B9DFF"></path>
                    <path d="M52.4719764,18.8850562 C51.6241712,19.4088692 50.0528022,18.092721 48.9635738,15.9476562 C47.8743454,13.8018132 47.6795126,11.6380686 48.5280236,11.115034 C49.3758288,10.591221 50.9471978,11.9058126 52.0364262,14.0516556 C53.1256546,16.1974987 53.3204874,18.3612432 52.4719764,18.8850562" id="Fill-69" fill="#2B9DFF"></path>
                    <path d="M51.7250314,17.9405141 C51.2467451,18.2384288 50.3108391,17.388302 49.6340049,16.040279 C48.9579088,14.6930791 48.7970038,13.3582236 49.2752902,13.0594859 C49.7535765,12.7615712 50.6894825,13.611698 51.3663167,14.959721 C52.0424128,16.3077439 52.2025797,17.6417764 51.7250314,17.9405141" id="Fill-71" fill="#2B9DFF"></path>
                    <path d="M7.47253024,43.8850105 C6.62399719,44.4088206 5.05329335,43.0934579 3.9640367,40.9484049 C2.87478006,38.8025736 2.67923625,36.6380626 3.52776929,36.1150308 C4.37630234,35.5912207 5.94700619,36.9058051 7.03626283,39.0524147 C8.12551947,41.1974677 8.32035735,43.3612004 7.47253024,43.8850105" id="Fill-73" fill="#2B9DFF"></path>
                    <path d="M6.72455351,42.9405141 C6.24708902,43.2384288 5.31060922,42.388302 4.63389371,41.040279 C3.95791617,39.6930791 3.79703942,38.3590466 4.27524187,38.0594859 C4.75344433,37.7615712 5.68992413,38.611698 6.36590167,39.959721 C7.04261718,41.3077439 7.20275596,42.6425994 6.72455351,42.9405141" id="Fill-75" fill="#2B9DFF"></path>
                    <path d="M53.9085772,32.9998195 C52.8050605,32.9785753 51.9523794,30.9462211 52.0020657,28.460659 C52.0533548,25.9750969 52.9893806,23.9781496 54.092096,24.0001805 C55.1948114,24.0222115 56.0490953,26.0545657 55.9978062,28.539341 C55.9473185,31.0249031 55.012094,33.0218504 53.9085772,32.9998195" id="Fill-77" fill="#2B9DFF"></path>
                    <path d="M53.4743805,30.9999184 C53.1986971,30.9888813 52.9865472,29.8608827 53.0006657,28.4797652 C53.0144128,27.0993835 53.2495982,25.9890444 53.5252816,26.0000816 C53.800965,26.0111187 54.0131149,27.1391173 53.9993679,28.5202348 C53.9852494,29.9006165 53.7504355,31.0109556 53.4743805,30.9999184" id="Fill-79" fill="#2B9DFF"></path>
                    <g id="Group-83" transform="translate(0.000000, 23.000000)">
                        <mask id="mask-19" fill="white">
                            <use xlink:href="#path-18"></use>
                        </mask>
                        <g id="Clip-82"></g>
                        <path d="M1.90496,8.9823 C0.80336,8.96205 -0.04784,7.0248 0.00176,4.65555 C0.05296,2.2863 0.98736,0.3828 2.08816,0.4038 C3.18896,0.4248 4.04176,2.36205 3.99056,4.73055 C3.94016,7.09905 3.00656,9.0033 1.90496,8.9823" id="Fill-81" fill="#2B9DFF" mask="url(#mask-19)"></path>
                    </g>
                    <path d="M1.4743805,28.9999184 C1.19869709,28.9881454 0.98654719,27.8608827 1.00066575,26.4797652 C1.01441276,25.0993835 1.24959821,23.9890444 1.52528162,24.0000816 C1.80096503,24.0111187 2.01311493,25.1391173 1.99936792,26.519499 C1.98524936,27.9006165 1.75043546,29.0109556 1.4743805,28.9999184" id="Fill-84" fill="#2B9DFF"></path>
                    <path d="M47.511132,43.8801389 C46.6748116,43.344792 46.886866,41.1744877 47.98563,39.031537 C49.0836942,36.8893677 50.6520573,35.5857784 51.4890775,36.1195623 C52.3253979,36.6549092 52.1126436,38.8252135 51.0145794,40.9673827 C49.9158155,43.111115 48.3467525,44.4147043 47.511132,43.8801389" id="Fill-86" fill="#2B9DFF"></path>
                    <path d="M49.2663572,42.9379217 C48.7949711,42.6329033 48.9659856,41.2946248 49.6471201,39.9480802 C50.3289855,38.6015356 51.2629876,37.7567422 51.7336428,38.0625872 C52.2050289,38.3676055 52.0340144,39.705884 51.3528799,41.0524286 C50.6717453,42.3989732 49.7377432,43.2421134 49.2663572,42.9379217" id="Fill-88" fill="#2B9DFF"></path>
                    <path d="M3.510753,18.8801389 C2.67518311,18.344792 2.88652491,16.1744877 3.98592214,14.031537 C5.08391975,11.8893677 6.65218785,10.5857784 7.48915735,11.1195623 C8.32542705,11.6549092 8.11268564,13.8252135 7.01398821,15.9673827 C5.9159906,18.111115 4.34702269,19.4147043 3.510753,18.8801389" id="Fill-90" fill="#2B9DFF"></path>
                    <path d="M4.26636077,16.9379217 C3.79496834,16.6329033 3.96598513,15.2946248 4.64712893,13.9480802 C5.32827272,12.6015356 6.26228749,11.7567422 6.73367992,12.0625872 C7.20507235,12.3676055 7.03405556,13.705884 6.35218093,15.0524286 C5.67176798,16.3989732 4.73775321,17.2421134 4.26636077,16.9379217" id="Fill-92" fill="#2B9DFF"></path>
                    <path d="M37.1263011,51.5087677 C36.5778359,50.6869329 37.8664933,49.1221926 40.0061361,48.0123347 C42.1457789,46.9031692 44.3247101,46.6691506 44.8731753,47.4909854 C45.423212,48.3128203 44.132983,49.8782529 41.9933402,50.9881108 C39.8544832,52.0972762 37.6747662,52.3306026 37.1263011,51.5087677" id="Fill-94" fill="#2B9DFF"></path>
                    <path d="M38.0658026,50.7446685 C37.7523858,50.2824695 38.5887181,49.3501276 39.9330017,48.6633289 C41.2772853,47.975808 42.6207375,47.793095 42.9341543,48.2552939 C43.247571,48.7167706 42.4120701,49.6491126 41.0669552,50.3373557 C39.7226716,51.0241544 38.378388,51.2068674 38.0658026,50.7446685" id="Fill-96" fill="#2B9DFF"></path>
                    <path d="M11.1263011,7.50884736 C10.5778359,6.68706982 11.8664933,5.1217463 14.0061361,4.01196585 C16.1457789,2.90287771 18.3247101,2.66956766 18.8731753,3.49065288 C19.423212,4.31312274 18.132983,5.87844626 15.9933402,6.9875344 C13.8544832,8.09731485 11.6747662,8.3306249 11.1263011,7.50884736" id="Fill-98" fill="#2B9DFF"></path>
                    <path d="M12.0654933,6.74474925 C11.7529244,6.28262842 12.5892124,5.35044407 13.9334248,4.66303934 C15.2776371,3.97563461 16.6210182,3.79295247 16.9344184,4.25579536 C17.2469872,4.71719412 16.4123619,5.64937847 15.0673182,6.3367832 C13.7222745,7.02418793 12.3788935,7.20687007 12.0654933,6.74474925" id="Fill-100" fill="#2B9DFF"></path>
                </g>
            </g>
        </g>
    </g>
</svg>