<?xml version="1.0" encoding="utf-8"?>
<!-- Generator: Adobe Illustrator 22.1.0, SVG Export Plug-In . SVG Version: 6.00 Build 0)  -->
<svg version="1.1" id="Layer_1" xmlns="http://www.w3.org/2000/svg" xmlns:xlink="http://www.w3.org/1999/xlink" x="0px" y="0px"
	 viewBox="0 0 493 488" style="enable-background:new 0 0 493 488;" xml:space="preserve">
<style type="text/css">
	.st0{opacity:0.2656;}
	.st1{opacity:0.7;fill:#F646FF;enable-background:new    ;}
	.st2{filter:url(#Adobe_OpacityMaskFilter);}
	.st3{fill:#FFFFFF;}
	.st4{mask:url(#mask-2_1_);fill:#F646FF;}
	.st5{fill:none;stroke:#FFF0DE;stroke-width:1.33;}
	.st6{filter:url(#Adobe_OpacityMaskFilter_1_);}
	.st7{mask:url(#mask-4_1_);}
	.st8{fill:#FBA489;}
	.st9{fill:#F1856A;}
	.st10{fill:#391829;}
	.st11{fill:#DB675C;}
	.st12{fill:#382040;}
	.st13{fill:#E4776D;}
	.st14{fill:#F8918B;}
	.st15{filter:url(#Adobe_OpacityMaskFilter_2_);}
	.st16{mask:url(#mask-6_1_);fill:#6BDAED;}
	.st17{filter:url(#Adobe_OpacityMaskFilter_3_);}
	.st18{mask:url(#mask-8_1_);fill:#0066CF;}
	.st19{fill:#00ADFF;}
	.st20{fill:#88D1F5;}
</style>
<title>Group 24</title>
<desc>Created with Sketch.</desc>
<g id="Page-1">
	<g id="Home-Copy" transform="translate(-782.000000, -2300.000000)">
		<g id="Group-24" transform="translate(782.000000, 2274.000000)">
			<g id="Group-13">
				<g id="Group-12-Copy-3" transform="translate(0.000000, 135.000000)" class="st0">
					<path id="Fill-1" class="st1" d="M29.6,57.5c0.6-12.1,2.4-24.6,9-34.8c9.9-15,28.8-21.9,46.9-22.6c28.5-1.1,56,10.6,80.7,24.9
						c24.7,14.3,47.8,31.3,74.1,42.5c48.1,20.6,102.1,19.9,154.3,24c17.2,1.3,35.5,3.7,48.8,14.6c11.1,9.1,17.2,23.2,19.4,37.3
						c5.8,37.2-13.3,75.3-42,99.8c-28.8,24.5-66,37.2-103.2,44.5c-41.4,8.1-84.5,10.2-125.5,0.2c-76.8-18.8-131.8-79-153.3-153.1
						C31.4,109.7,28.3,83.5,29.6,57.5"/>
					<g id="Group-5">
						<g id="Clip-4">
						</g>
						<defs>
							<filter id="Adobe_OpacityMaskFilter" filterUnits="userSpaceOnUse" x="0" y="0.4" width="492.9" height="378.5">
								<feColorMatrix  type="matrix" values="1 0 0 0 0  0 1 0 0 0  0 0 1 0 0  0 0 0 1 0"/>
							</filter>
						</defs>
						<mask maskUnits="userSpaceOnUse" x="0" y="0.4" width="492.9" height="378.5" id="mask-2_1_">
							<g class="st2">
								<polygon id="path-1_1_" class="st3" points="0,0.4 492.9,0.4 492.9,378.9 0,378.9 								"/>
							</g>
						</mask>
						<path id="Fill-3" class="st4" d="M271,59.7c39.1-24.6,78.1-54,124.1-58.7c15.1-1.5,30.8-0.2,44.5,6.4
							c19.2,9.3,32.4,28,40.4,47.8c17.7,43.5,14.1,92.5,7.4,139c-4.8,33.1-11.2,66.7-28.1,95.6c-22.8,39.1-63.2,66-106.8,78.7
							c-43.5,12.7-90,12.4-134.9,6c-44-6.2-87.8-18.4-125.9-41.2s-70.4-57-85.4-98.7c-5.5-15.3-8.7-32.2-4.1-47.8
							c13-43.8,83.8-45.4,119.2-57C173.9,112.6,224.3,89,271,59.7"/>
					</g>
					<path id="Stroke-6" class="st5" d="M273.1,334.2c-16,0-33.4-1.3-51.6-3.9c-44.5-6.3-80.4-18-109.8-35.6
						c-19-11.4-36.2-26.1-49.3-44c-9.8-13.3-32-45-14.6-59.5c5.2-4.4,12.1-6.2,18.8-7.6c10.2-2,20.5-3.8,30.7-5.9
						c12.6-2.6,24.5-5.1,35.4-8.7c56-18.4,109.6-43.6,159.3-74.9c5.9-3.7,11.9-7.6,17.6-11.3c30.3-19.6,58.9-38.2,87.9-41.1
						c2.3-0.2,4.5-0.4,6.6-0.4c5.9,0,10.9,0.9,14.5,2.7c16.9,8.2,23.5,34.8,26.2,51.6c8.7,53.7,1.7,137.2-32.6,182
						C379.8,319.8,324.1,334.2,273.1,334.2z"/>
					<path id="Stroke-8" class="st5" d="M275.6,292.9c-32.9-0.1-68-6.1-98.7-15.4c-15.6-4.7-30.9-10.9-44.7-19.7
						c-3.2-2.1-37.1-31.4-33.7-33.5c6.4-3.8,13.9-5,21.2-6.5c52.5-10.5,102.1-31.8,148.9-57.5c19.9-10.9,39-23.3,58.5-34.8
						c8.3-4.9,65.3-45.2,73.3-38.7c1.8,1.5,2.4,3.9,2.9,6.2c5.8,28.3,3.5,62.7,0,91.4c-3.4,28-12.9,56.2-32.8,76.2
						c-20.4,20.4-49.7,29.9-78.5,31.7C286.6,292.7,281.1,292.9,275.6,292.9z"/>
					<path id="Stroke-10" class="st5" d="M275.2,248.1c-23,0-48.6-3.5-73.5-9.8c28.2-10.4,57.2-23.6,87.4-39.9
						c13.8-7.4,27-15.4,39.7-23c6.9-4.2,13.5-8.1,20.1-12c2.3-1.4,5.1-3.1,10.5-6.7c0.9-0.6,1.7-1.1,2.6-1.7
						c-0.5,7.5-1.3,15.6-2.4,24.1c-1.9,15.5-7.1,36.7-20.4,49.8c-10.9,10.7-28.8,17.4-50.4,18.7c-4.2,0.3-8.7,0.4-13.2,0.4
						L275.2,248.1z"/>
				</g>
				<g id="Group-81" transform="translate(41.000000, 0.000000)">
					<g id="Mask">
					</g>
					<defs>
						<filter id="Adobe_OpacityMaskFilter_1_" filterUnits="userSpaceOnUse" x="65.8" y="26.2" width="266.8" height="492.9">
							<feColorMatrix  type="matrix" values="1 0 0 0 0  0 1 0 0 0  0 0 1 0 0  0 0 0 1 0"/>
						</filter>
					</defs>
					<mask maskUnits="userSpaceOnUse" x="65.8" y="26.2" width="266.8" height="492.9" id="mask-4_1_">
						<g class="st6">
							<path id="path-3_1_" class="st3" d="M301.4,505.4c-70,13.8-132.6,10.9-187.7-8.6c-82.7-29.3-93-100-93-103.5
								c0-3.4-5.2-56.9-5.2-60.4C15.5,329.4,0,212.2,0,212.2s10.3-48.3,15.5-51.7S87.8,65.5,87.8,58.6s48.2-44.8,50-44.8
								c1.1,0,21.8-4.6,62-13.8l68.9,36.2c11.5,16.1,17.2,25.3,17.2,27.6c0,2.3,29.9,31.6,89.6,88c18.4,36.8,28.7,55.2,31,55.2
								s5.7,13.2,10.3,39.7l5.2,113.8c-17.2,28.7-25.8,47.1-25.8,55.2s0,20.7,0,37.9c-40.2,36.8-61.4,55.2-63.7,55.2
								S319.8,507.7,301.4,505.4z"/>
						</g>
					</mask>
					<g class="st7">
						<g transform="translate(32.726531, 25.872483)">
							<g id="Group-47" transform="translate(32.726531, 0.000000)">
								<path id="Fill-1_1_" class="st8" d="M205.2,236.7c-8.3-1.5-15.8-2.4-22.6-2.8c-7.6-0.5-13.6-6.7-13.6-14.3v-33h-49.5v33
									c0,7.5-5.8,13.8-13.3,14.3c-5.9,0.4-12.5,1-19.6,2.2l-0.8,67.3H206L205.2,236.7z"/>
								<path id="Fill-3_1_" class="st9" d="M119.5,210.9c7.6,3.9,15.9,6.2,24.8,6.2c8.8,0,17.1-2.3,24.8-6.1v-39.3h-49.5V210.9z"/>
								<path id="Fill-5" class="st8" d="M102.3,131.7c0,11.8-8.9,21.5-20,21.5c-11,0-19.8-19.2-19.8-31c0-11.9,8.7-13.7,19.8-11.9
									C93.2,112,102.3,119.9,102.3,131.7"/>
								<path id="Fill-7" class="st8" d="M186.3,131.7c0,11.8,8.9,21.5,20,21.5s19.8-19.2,19.8-31c0-11.9-8.7-13.7-19.8-11.9
									C195.4,112,186.3,119.9,186.3,131.7"/>
								<path id="Fill-9" class="st8" d="M206.9,72.1c-7.6-22.2-62.6-22.9-62.6-22.9s-55,0.8-62.6,22.9c-7.6,22.2-6.9,68,4.6,90.2
									c11.4,22.2,32.8,40.5,58,40.5c25.2,0,46.6-18.3,58-40.5C213.8,140.1,214.5,94.2,206.9,72.1"/>
								<path id="Fill-11" class="st10" d="M116.6,121.4c0,5-3.2,9.1-7.2,9.1c-4,0-7.2-4.1-7.2-9.1c0-5,3.2-9.1,7.2-9.1
									C113.4,112.3,116.6,116.4,116.6,121.4"/>
								<path id="Fill-13" class="st10" d="M186.3,121.4c0,5-3.2,9.1-7.2,9.1c-4,0-7.2-4.1-7.2-9.1c0-5,3.2-9.1,7.2-9.1
									C183.1,112.3,186.3,116.4,186.3,121.4"/>
								<path id="Fill-15" class="st11" d="M144.3,159.5c14.4,0,19.5,10,19.7,10.4c0.6,1.2,0.1,2.5-1,3.1c-1.2,0.6-2.6,0.1-3.1-1
									c-0.2-0.3-4.2-7.9-15.6-7.9c-11.5,0-15.5,7.8-15.6,7.9c-0.6,1.1-2,1.6-3.1,1c-1.1-0.6-1.6-2-1-3.1
									C124.8,169.5,129.9,159.5,144.3,159.5"/>
								<path id="Fill-17" class="st12" d="M98.7,57c3.7-0.4,7.6-0.5,11.1,0.7c3.5,1.2,6.7,4,7.5,7.6c1,4.8-2.1,9.3-5.1,13.2
									c-4.3,5.6-8.6,11.1-12.9,16.7c-3.1,3.9-6.1,7.9-8,12.5c-1.6,3.9-2.3,8.1-2.7,12.3c-0.6,5.7-0.9,11.3-0.7,17
									c0,0.6,0,1.2-0.3,1.8c-0.3,0.6-1,0.9-1.6,1.2c-1.9,0.9-3.7,1.9-5.6,2.8C78,132.3,75.2,99.2,74,95.4C72,88.8,70.7,82,70,75.1
									c-0.2-1.5-0.3-3.1,0.1-4.5c0.8-3.4,3.8-5.8,6.9-7.5C83.5,59.4,91.1,57.7,98.7,57"/>
								<path id="Fill-19" class="st12" d="M177.5,32.2c-0.4,0.1-0.7,0.3-0.9,0.5c-1.1,1.5,0.5,6.5,0.8,8.1
									c0.4,2.1,4.5,15.9,1.5,16.9c-3.5,1.2-6.7,4-7.5,7.6c-1,4.8,2.1,9.3,5.1,13.2c4.3,5.6,8.6,11.1,12.9,16.7
									c3.1,3.9,6.1,7.9,8,12.5c1.6,3.9,2.3,8.1,2.7,12.3c0.6,5.7,0.9,11.3,0.7,17c0,0.6,0,1.2,0.3,1.8c0.3,0.6,1,0.9,1.6,1.2
									c1.9,0.9,3.7,1.9,5.6,2.8c0,0,0.1-0.5,0.1-0.5c2.7-12.5,3.4-25.6,5-38.3c0.8-6.4,0.5-12.6,2.5-18.7
									c3.1-9.6,5.7-19.6,4.3-29.7c-0.5-3.8-1.6-7.5-3.8-10.6c-2.8-4-7.2-6.7-11.8-8.3c-4.6-1.6-9.5-2.2-14.3-2.8
									C188.1,33.7,180.3,31.5,177.5,32.2"/>
								<path id="Fill-21" class="st12" d="M184.1,24c-7.5-8.4-15.4-17.2-26-21.1c-12.3-4.6-25.9-1.9-38.6,1.3
									c-7.1,1.8-14.3,3.8-20.1,8.2C93.1,17,89.1,24.1,83.8,29.8c-5.3,5.7-13.2,10.4-20.7,8.2c-0.7,6-1,12.2,0.3,18.1
									c3,13.2,14.4,23.4,27.1,27.9c12.8,4.5,26.8,4,40.1,1.8c13.2-2.2,26.4-6.1,36.8-14.5c9-7.2,15.3-17.3,19.7-28
									c1.6-3.8,2.9-7.9,1.8-11.9C188.1,28.6,186.1,26.2,184.1,24"/>
								<path id="Fill-23" class="st13" d="M144.3,145.2c-3.9,0-7.1-1.7-8.2-4c-0.3,0.5-0.5,1.1-0.5,1.6c0,3.1,3.9,5.7,8.7,5.7
									c4.8,0,8.7-2.5,8.7-5.7c0-0.6-0.3-1.1-0.5-1.6C151.4,143.5,148.2,145.2,144.3,145.2"/>
								<path id="Fill-25" class="st14" d="M113.2,144.8c0,5.5-4.5,9.9-10,9.9c-5.5,0-10-4.4-10-9.9s4.5-9.9,10-9.9
									C108.7,134.9,113.2,139.3,113.2,144.8"/>
								<path id="Fill-27" class="st14" d="M195.4,144.8c0,5.5-4.5,9.9-10,9.9c-5.5,0-10-4.4-10-9.9s4.5-9.9,10-9.9
									C190.9,134.9,195.4,139.3,195.4,144.8"/>
								<g id="Group-31" transform="translate(35.351876, 233.096573)">
									<g id="Clip-30">
									</g>
									<defs>
										<filter id="Adobe_OpacityMaskFilter_2_" filterUnits="userSpaceOnUse" x="0.7" y="0.3" width="214.3" height="259.9">
											<feColorMatrix  type="matrix" values="1 0 0 0 0  0 1 0 0 0  0 0 1 0 0  0 0 0 1 0"/>
										</filter>
									</defs>
									<mask maskUnits="userSpaceOnUse" x="0.7" y="0.3" width="214.3" height="259.9" id="mask-6_1_">
										<g class="st15">
											<polygon id="path-5_1_" class="st3" points="0.7,0.3 214.9,0.3 214.9,260.2 0.7,260.2 											"/>
										</g>
									</mask>
									<path id="Fill-29" class="st16" d="M214.9,18.3c-31.6-13.5-48-16.8-67.3-18c-3.4,7.9-19.4,13.8-38.6,13.8
										c-19.3,0-35.3-6-38.6-13.8C51,1.5,32.2,6.6,0.7,20.1c0,0,33.8,117.7,35.9,156.5c1.1,20.2,0.4,70.2-0.4,83.6h145.6
										c-0.9-13.4-1.5-63.4-0.4-83.6C183.4,137.8,214.9,18.3,214.9,18.3"/>
								</g>
								<g id="Group-34" transform="translate(35.351876, 233.096573)">
									<g id="Clip-33">
									</g>
									<defs>
										<filter id="Adobe_OpacityMaskFilter_3_" filterUnits="userSpaceOnUse" x="0.7" y="0.3" width="214.3" height="259.9">
											<feColorMatrix  type="matrix" values="1 0 0 0 0  0 1 0 0 0  0 0 1 0 0  0 0 0 1 0"/>
										</filter>
									</defs>
									<mask maskUnits="userSpaceOnUse" x="0.7" y="0.3" width="214.3" height="259.9" id="mask-8_1_">
										<g class="st17">
											<polygon id="path-7_1_" class="st3" points="0.7,0.3 214.9,0.3 214.9,260.2 0.7,260.2 											"/>
										</g>
									</mask>
									<path id="Fill-32" class="st18" d="M214.9,18.3c-31.6-13.5-48-16.8-67.3-18c-3.4,7.9-19.4,13.8-38.6,13.8
										c-19.3,0-35.3-6-38.6-13.8C51,1.5,32.2,6.6,0.7,20.1c0,0,33.8,117.7,35.9,156.5c1.1,20.2,0.4,70.2-0.4,83.6h145.6
										c-0.9-13.4-1.5-63.4-0.4-83.6C183.4,137.8,214.9,18.3,214.9,18.3"/>
								</g>
								<path id="Fill-35" class="st12" d="M98.1,108.4c-0.5,0-1-0.2-1.3-0.6c-0.7-0.7-0.7-1.9,0.1-2.6c0.1-0.1,10.9-10.2,24.9-2.1
									c0.9,0.5,1.2,1.7,0.7,2.6c-0.5,0.9-1.7,1.2-2.6,0.7c-11.6-6.7-20.4,1.5-20.4,1.6C99.1,108.3,98.6,108.4,98.1,108.4"/>
								<path id="Fill-37" class="st12" d="M190.5,108.4c-0.5,0-0.9-0.2-1.3-0.5c-0.4-0.3-9-8.3-20.4-1.6c-0.9,0.5-2,0.2-2.6-0.7
									c-0.5-0.9-0.2-2,0.7-2.6c13.9-8.1,24.8,2,24.9,2.1c0.7,0.7,0.8,1.9,0.1,2.6C191.5,108.2,191,108.4,190.5,108.4"/>
								<path id="Fill-39" class="st8" d="M135.9,295.7c-0.1-0.5-0.2-1-0.3-1.6c-0.9-8.4,0.5-14.5,0.4-22.8
									c-0.1-3.8-1.7-7.7-2.7-12.9c-0.8-4.2-6.8-8.2-8.4-3.9c-1.2,3.4,1,8,1.2,11.3c0.3,5.6-0.2,8.1-5,6c-4.5-2-6.3-5.6-7.1-10.7
									c-0.7-4.7-0.9-9.5,0.7-14.1c0.8-2.5,1.7-5,2-7.6c0.4-3.2-4.8-5.6-6.9-2.3c-3,4.7-4,10.7-4.3,13.5c-0.2,1.4-0.6,7.2-0.9,7.4
									c-0.3,0.1,0.7-9.1,0.8-10.4c0.3-6.5,1.6-10,1.8-13.9c0.2-5.6-6.6-3.2-8.3,0.9c-1.2,2.7-1.5,5.7-1.7,8.5
									c-0.2,2.9-0.2,5.8-0.1,8.7c0,1.5,0.1,3,0.3,4.5c0.1,1,0.6,4.3,0.1,4.6c0,0-1.4-9.6-1.3-8.9c0,0.2,0.3-7.3,0.2-9.3
									c-0.1-1.9-0.5-4.2-2.8-4.9c-2.4-0.8-4,2.9-4.4,4.9c-2.1,9.6,2.5,21.8,2,22.7c-0.7,1.2-2.5-13.9-5.5-13.9
									c-0.2,0-0.5,0-0.7,0.1c-4,0.9-1,11.5,1.4,17.6c2.3,5.8,3.8,9.1,6.6,13.3c3.9,5.9,8.2,10.5,15.2,12.9c3.5,1.2,6.3,2,9.1,4.6
									c1,0.9,1.4,3.3,2.5,3.7c0.6,1.1,1.3,2.4,2,3.7C126.8,303.8,131.4,299.9,135.9,295.7"/>
								<path id="Fill-41" class="st19" d="M252.3,251.8c-8.5-5-36.6,35.1-44.6,64.3c-4.4,15.9-6.5,29.4-8.1,40
									c-22.1-23.3-51.6-56.4-59.5-70c-9.3,1.4-30.7,16.1-30.7,16.1c10.2,17.5,59.4,101.1,71.4,114c8.4,9,17.2,13.3,25.2,14.1
									c0,0.1,0,0.1,0.1,0.2c27.1,10.8,46.9-48,58.5-117.4C267.6,295.1,271.7,263.3,252.3,251.8"/>
								<path id="Fill-43" class="st8" d="M143.2,437.7c0.5,0,1-0.1,1.6-0.1c8.3-1.2,13.9-4.1,22-6c3.7-0.9,7.9-0.3,13.2-0.6
									c4.2-0.3,9.6,4.6,5.8,7.2c-3,2-8,1-11.2,1.6c-5.5,1-7.8,2.2-4.6,6.3c3,3.9,7,4.8,12.1,4.2c4.7-0.5,9.4-1.5,13.5-4.1
									c2.2-1.4,4.4-2.9,6.9-3.9c3-1.2,6.6,3.3,3.9,6.1c-3.8,4-9.4,6.5-12,7.5c-1.3,0.5-6.8,2.4-6.9,2.7c-0.1,0.3,8.7-2.9,9.9-3.3
									c6.2-1.9,9.3-4,13-5.2c5.4-1.6,4.7,5.6,1.2,8.3c-2.3,1.8-5.1,2.8-7.8,3.7c-2.7,0.9-5.5,1.6-8.4,2.3
									c-1.5,0.3-2.9,0.6-4.4,0.8c-0.9,0.1-4.3,0.5-4.5,1c0,0,9.7-1,9-0.9c-0.2,0,7-2.1,9-2.4c1.8-0.3,4.2-0.5,5.4,1.5
									c1.4,2.1-1.8,4.6-3.6,5.5c-8.8,4.4-21.7,2.9-22.4,3.6c-1,1,14.1-1,14.8,1.9c0.1,0.2,0.1,0.5,0.1,0.7
									c0.1,4.1-10.9,3.8-17.4,3c-6.2-0.8-9.7-1.5-14.6-3.1c-6.7-2.3-12.2-5.3-16.3-11.6c-2-3.1-3.5-5.6-6.7-7.7
									c-1.1-0.7-3.5-0.5-4.2-1.5c-1.3-0.3-2.6-0.7-4.1-1C137.5,448.5,140.3,443.1,143.2,437.7"/>
								<path id="Fill-45" class="st19" d="M151.4,431.2c-13.2-3.7-64.1-24-88.9-35.9c-7.5-3.6-9.4-8.4-8.1-13.9
									c4.3-18.2,7.6-35,8-38.7c4.2-35.1-4.6-92.5-13.3-93.3c-11.1-1-31.7,13.9-35.6,43.3c-4.2,31.5-13,88.4-13,115.2
									c0,33,123.5,51.5,143,57C143.3,464.9,152.3,440.5,151.4,431.2"/>
							</g>
							<g id="Group-50" transform="translate(0.000000, 213.879195)">
								<g id="Clip-49">
								</g>
							</g>
							<g id="Group-53" transform="translate(105.069388, 181.107383)">
								<g id="Clip-52">
								</g>
							</g>
							<g id="Group-56" transform="translate(21.669388, 262.174497)">
								<g id="Clip-55">
								</g>
							</g>
							<g id="Group-59" transform="translate(46.506122, 163.859060)">
								<g id="Clip-58">
								</g>
							</g>
							<g id="Group-62" transform="translate(279.036735, 164.859060)">
								<g id="Clip-61">
								</g>
							</g>
							<g id="Group-65" transform="translate(300.706122, 248.298443)">
								<g id="Clip-64">
								</g>
							</g>
							<g id="Group-68" transform="translate(227.363265, 194.906040)">
								<g id="Clip-67">
								</g>
							</g>
							<g id="Group-71" transform="translate(294.538776, 191.456376)">
								<g id="Clip-70">
								</g>
							</g>
							<g id="Group-74" transform="translate(274.869388, 382.912752)">
								<g id="Clip-73">
								</g>
							</g>
							<g id="Group-77" transform="translate(263.534694, 439.832215)">
								<g id="Clip-76">
								</g>
							</g>
							<g id="Group-80" transform="translate(268.702041, 428.758389)">
								<g id="Clip-79">
								</g>
							</g>
						</g>
					</g>
				</g>
			</g>
			<g id="Group-7" transform="translate(173.000000, 108.000000)">
				<path id="Fill-1_2_" class="st20" d="M9,265.3C8.2,260.6,4.5,253,4.5,253s-3.7,7.6-4.4,12.3C0,265.7,0,266,0,266.3
					c0,2.5,2,4.5,4.5,4.5c2.5,0,4.5-2,4.5-4.5C9.1,266,9,265.7,9,265.3"/>
				<path id="Fill-3_2_" class="st20" d="M121.9,98.3c-0.7-4.7-4.4-12.3-4.4-12.3s-3.7,7.6-4.4,12.3c-0.1,0.3-0.1,0.6-0.1,1
					c0,2.5,2,4.5,4.5,4.5c2.5,0,4.5-2,4.5-4.5C122.1,99,122,98.7,121.9,98.3"/>
				<path id="Fill-3-Copy" class="st20" d="M37.9,92.2c-0.4-2.4-2.4-6.2-2.4-6.2s-2,3.9-2.4,6.2c0,0.2-0.1,0.3-0.1,0.5
					c0,1.3,1.1,2.3,2.5,2.3c1.4,0,2.5-1,2.5-2.3C38,92.5,38,92.4,37.9,92.2"/>
				<path id="Fill-5_1_" class="st20" d="M97.1,12.4C96.3,7.6,92.7,0,92.7,0s-3.7,7.6-4.4,12.4c-0.1,0.3-0.1,0.6-0.1,1
					c0,2.5,2,4.5,4.5,4.5c2.5,0,4.5-2,4.5-4.5C97.2,13,97.1,12.7,97.1,12.4"/>
			</g>
		</g>
	</g>
</g>
</svg>
