<?xml version="1.0" encoding="UTF-8"?>
<svg width="493px" height="488px" viewBox="0 0 493 488" version="1.1" xmlns="http://www.w3.org/2000/svg" xmlns:xlink="http://www.w3.org/1999/xlink">
    <!-- Generator: Sketch 61.1 (89650) - https://sketch.com -->
    <title>Group 24</title>
    <desc>Created with Sketch.</desc>
    <defs>
        <polygon id="path-1" points="0.000110088859 0.391679722 492.888269 0.391679722 492.888269 378.884342 0.000110088859 378.884342"></polygon>
        <path d="M301.428571,505.375839 C231.382313,519.174497 168.8,516.299776 113.681633,496.751678 C31.0040816,467.42953 20.6693878,396.711409 20.6693878,393.261745 C20.6693878,389.812081 15.5020408,336.342282 15.5020408,332.892617 C15.5020408,329.442953 0,212.154362 0,212.154362 C0,212.154362 10.3346939,163.85906 15.5020408,160.409396 C20.6693878,156.959732 87.844898,65.5436242 87.844898,58.6442953 C87.844898,51.7449664 136.073469,13.7986577 137.795918,13.7986577 C138.944218,13.7986577 159.613605,9.19910515 199.804082,1.9609072e-13 L268.702041,36.2214765 C280.185034,52.3199105 285.926531,61.5190157 285.926531,63.8187919 C285.926531,66.1185682 315.782313,95.4407159 375.493878,151.785235 C393.866667,188.581655 404.201361,206.979866 406.497959,206.979866 C408.794558,206.979866 412.239456,220.203579 416.832653,246.651007 L422,360.489933 C404.77551,389.237136 396.163265,407.635347 396.163265,415.684564 C396.163265,423.733781 396.163265,436.38255 396.163265,453.630872 C355.972789,490.427293 334.729252,508.825503 332.432653,508.825503 C330.136054,508.825503 319.801361,507.675615 301.428571,505.375839 Z" id="path-3"></path>
        <polygon id="path-5" points="0.653598545 0.307746701 214.925752 0.307746701 214.925752 260.20544 0.653598545 260.20544"></polygon>
        <polygon id="path-7" points="0.653598545 0.307746701 214.925752 0.307746701 214.925752 260.20544 0.653598545 260.20544"></polygon>
        <path d="M1.41124435,4.01614861 C0.903633977,6.59970086 0.426655268,9.19212368 0,11.8045053 L0,11.8045053 L17.6416483,10.278768 L18.659057,19.6216913 L47.9276084,18.4308178 L51.6471671,29.660954 L80.0186484,25.5139645 L54.2092867,24.3829674 L52.8833734,14.1574228 L22.2998486,14.3969281 L25.157345,0.135276127 L1.41124435,4.01614861 Z" id="path-9"></path>
        <path d="M15.7729351,11.0174783 L9.29934545,10.9805069 L9.17877403,28.6767604 L0.955802597,30.3078518 L2.81041039,48.8957686 L4.67378701,32.2390639 L12.0746805,32.0237598 L12.8068779,13.4641153 L22.5687792,16.0825605 L20.3984935,2.18131281 C18.673226,1.71590808 16.9369974,1.26790166 15.1876156,0.843817917 L15.1876156,0.843817917 L15.7729351,11.0174783 Z" id="path-11"></path>
        <path d="M36.7087143,14.3376678 L29.5067245,10.8578188 L16.0134898,28.2355034 L7.88353061,20.8575336 L0.0377755102,35.7514597 C1.52338776,37.0472399 3.02622449,38.3279279 4.55920408,39.5827433 L4.55920408,39.5827433 L11.2681429,29.1927852 L17.8091429,32.3362919 L30.0471429,15.4501846 L38.9263673,17.9425671 L49.1770918,0.0625251678 L36.7087143,14.3376678 Z" id="path-13"></path>
        <polygon id="path-15" points="0.200234694 5.26505034 18.5464694 19.7687332 12.5092857 26.2002013 32.4078776 43.6576594 26.7668571 53.2973154 48.741 68.8466779 32.2765408 51.4862416 38.7249592 44.0284983 18.602449 25.1717701 30.5540918 18.0805537 4.70013265 0.851635906"></polygon>
        <path d="M5.63566168,0.28284396 L9.81030385,14.1289346 L2.7852,16.5480117 L8.67980317,39.7534732 L0.658932426,44.6563087 L8.67980317,66.6328272 L5.16198821,45.7990101 L12.8144463,42.9810654 L7.43141043,18.5617534 L18.9048345,18.3978943 L11.8776254,0.0715520134 C9.80188299,0.110360738 7.72403537,0.172885906 5.63566168,0.28284396" id="path-17"></path>
        <path d="M0.360734694,4.76462786 L14.0692755,3.33517316 L15.526898,9.20391477 L30.5681837,6.54120504 L30.156949,14.7902151 L40.9480918,10.6204332 C41.023449,9.16295001 41.0858878,7.70115471 41.1203367,6.22642316 L41.1203367,6.22642316 L33.0485102,8.4773292 L31.952602,3.30283256 L17.7144082,6.30619665 L14.9778673,0.0299634314 L0.360734694,4.76462786 Z" id="path-19"></path>
        <path d="M0.979076262,4.63548658 L10.6871613,8.25332215 L9.27946724,14.1220638 L25.2971549,21.0882299 L24.8402526,28.7421728 L41.3170183,33.9166695 L27.3967295,26.3036913 L28.9610758,19.8355705 L12.3189551,11.942307 L16.9119106,4.02963926 L3.31145349,0.282441275 C2.51296241,1.72052013 1.73405285,3.16937919 0.979076262,4.63548658" id="path-21"></path>
        <polygon id="path-23" points="35.6628568 18.3284811 29.3299361 14.4670647 18.6034974 34.1847946 9.71655936 31.2374013 0.920836202 52.3372048 12.1793618 35.4940113 19.4244316 39.5099726 31.2563081 19.3528934 39.1833178 28.0162427 48.660981 3.38177503 44.2500887 0.438797315"></polygon>
        <path d="M47.4572414,11.2057558 L41.6687437,6.05732327 L24.2153464,23.2150917 L15.7171989,18.4303113 L0.452618438,36.8906156 L17.0445537,23.0960783 L23.5099144,28.6125708 L42.3016546,11.3005257 L48.4088053,21.6348579 L60.9549455,5.93169799 C59.8473514,4.06495041 58.7089909,2.2092226 57.5310733,0.371126398 L57.5310733,0.371126398 L47.4572414,11.2057558 Z" id="path-25"></path>
        <path d="M8.03350204,11.6192364 L3.77254603,15.9015157 L13.349171,27.8976279 L6.15986032,31.7303009 L14.9449243,39.1928833 C16.2143692,38.5206779 17.4859193,37.8264329 18.7490485,37.1101484 L18.7490485,37.1101484 L12.9133914,31.0845429 L16.7638304,27.4810809 L7.29246621,16.3665496 L11.2734286,10.7442673 L0.15157551,0.176316182 L8.03350204,11.6192364 Z" id="path-27"></path>
        <polygon id="path-29" points="0.186508929 3.1654698 20.4810487 4.67469799 20.6642204 12.865495 44.1256441 13.2535822 40.6233133 24.2903523 66.7727263 20.4784732 67.0971388 15.2479195 47.2417696 16.5523238 47.3874242 9.22178691 24.8661347 9.56675336 22.9284872 0.481199664"></polygon>
    </defs>
    <g id="Page-1" stroke="none" stroke-width="1" fill="none" fill-rule="evenodd">
        <g id="Home-Copy" transform="translate(-782.000000, -2300.000000)">
            <g id="Group-24" transform="translate(782.000000, 2274.000000)">
                <g id="Group-13">
                    <g id="Group-12-Copy-3" opacity="0.265601749" transform="translate(0.000000, 135.000000)">
                        <path d="M29.6089562,57.5093673 C30.2405645,45.4000756 31.9771996,32.8609426 38.6453265,22.7053709 C48.5060088,7.68721988 67.4651869,0.789753614 85.4970857,0.0752568182 C114.017824,-1.05536291 141.485881,10.7075407 166.15542,24.9751844 C190.824383,39.242828 214.004062,56.3038683 240.220983,67.5208964 C288.273258,88.0806846 342.318334,87.4330647 394.477213,91.4862621 C411.692853,92.8243717 429.960599,95.1484869 443.269241,106.081431 C454.362077,115.193837 460.42218,129.239701 462.642013,143.370161 C468.489854,180.586299 449.383416,218.642113 420.595769,243.147638 C391.808122,267.654307 354.628943,280.34377 317.443436,287.657359 C276.07712,295.792905 232.894211,297.866089 191.948392,287.846558 C115.173471,269.059865 60.1384157,208.872941 38.6873186,134.745899 C31.4462575,109.725365 28.2531267,83.5210518 29.6089562,57.5093673" id="Fill-1" fill="#90CCFF"></path>
                        <g id="Group-5">
                            <mask id="mask-2" fill="white">
                                <use xlink:href="#path-1"></use>
                            </mask>
                            <g id="Clip-4"></g>
                            <path d="M271.027787,59.6502447 C310.160814,35.0996816 349.106662,5.68102763 395.103677,0.971379316 C410.206985,-0.57515805 425.944974,0.77964083 439.603838,7.38887791 C458.831414,16.6933611 471.959267,35.4188631 479.99413,55.1610383 C497.709878,98.6914152 494.065364,147.700117 487.354574,194.197273 C482.578925,227.284792 476.124426,260.930877 459.263941,289.827704 C436.464995,328.901022 396.021141,355.822484 352.511587,368.56563 C309.003185,381.308776 262.537935,380.924725 217.642107,374.553152 C173.614788,368.303855 129.860462,356.16348 91.7335928,333.345452 C53.6067236,310.527424 21.3503556,276.317604 6.28678668,234.610465 C0.76415,219.32133 -2.38851589,202.439732 2.22472009,186.853804 C15.202254,143.012283 86.0594853,141.431301 121.396527,129.821938 C173.876262,112.581548 224.260171,88.9896774 271.027787,59.6502447" id="Fill-3" fill="#4DBCFF" mask="url(#mask-2)"></path>
                        </g>
                        <path d="M273.144437,334.209091 C257.144988,334.209091 239.78132,332.892088 221.536415,330.29724 C177.030743,323.965604 141.128233,312.327372 111.777658,294.7203 C92.7973319,283.333721 75.5650722,268.58697 62.4392993,250.700027 C52.6575035,237.371055 30.4150417,205.656442 47.8317331,191.220658 C53.0816964,186.869997 59.9166196,184.975977 66.6097609,183.665309 C76.8578231,181.659571 87.0811022,179.848475 97.2703767,177.717775 C109.880894,175.081465 121.792875,172.589697 132.697399,168.999179 C188.705269,150.554798 242.295355,125.361856 291.97837,94.1182998 C297.926292,90.3774807 303.854619,86.5393404 309.58641,82.8278904 C339.895453,63.2035627 368.523285,44.6670439 397.441598,41.6996115 C399.734315,41.4640827 401.967091,41.3454545 404.080563,41.3454545 C409.959899,41.3454545 414.963185,42.2628075 418.550958,44.0001922 C435.42127,52.1688374 442.096545,78.8296597 444.797893,95.5827245 C453.462724,149.309202 446.488324,232.821146 412.17135,277.560098 C379.792062,319.772731 324.063721,334.209091 273.144437,334.209091 Z" id="Stroke-6" stroke="#FFF0DE" stroke-width="1.33"></path>
                        <path d="M275.561174,292.863636 C242.634137,292.803486 207.578556,286.781387 176.878446,277.48957 C161.285327,272.769797 145.943375,266.611557 132.179021,257.795946 C128.967107,255.738758 95.0660794,226.348946 98.4990656,224.340422 C104.913634,220.586965 112.419095,219.296805 119.704063,217.833427 C172.173426,207.297796 221.826722,186.038252 268.586401,160.375248 C288.447604,149.471745 307.584824,137.084586 327.075065,125.536292 C335.390739,120.608541 392.368934,80.3355033 400.350685,86.8465535 C402.167297,88.3273119 402.788267,90.7952427 403.258769,93.0934308 C409.058733,121.397584 406.79824,155.799148 403.261663,184.461905 C399.812472,212.416145 390.33993,240.702918 370.456158,260.631749 C350.078155,281.056483 320.774505,290.552223 291.994599,292.372467 C286.598004,292.714269 281.109972,292.873584 275.561174,292.863636 Z" id="Stroke-8" stroke="#FFF0DE" stroke-width="1.33"></path>
                        <path d="M275.153434,248.071587 C252.161035,248.029982 226.504547,244.593224 201.681818,238.297631 C229.866236,227.923525 258.856602,214.667215 289.094419,198.361709 C302.848837,190.941049 316.04587,183.008009 328.807773,175.336573 C335.728147,171.177697 342.263799,167.249649 348.902584,163.383724 C351.227723,162.029539 353.957284,160.264425 359.419884,156.713678 C360.288986,156.149435 361.14708,155.59317 361.993007,155.045455 C361.45764,162.583524 360.655168,170.614024 359.587331,179.119856 C357.642279,194.608063 352.524424,215.827619 339.187175,228.964241 C328.301376,239.685443 310.399021,246.329271 288.778066,247.674907 C284.540901,247.938221 280.085302,248.072727 275.53526,248.072727 L275.153434,248.071587 Z" id="Stroke-10" stroke="#FFF0DE" stroke-width="1.33"></path>
                    </g>
                    <g id="Group-81" transform="translate(41.000000, 0.000000)">
                        <mask id="mask-4" fill="white">
                            <use xlink:href="#path-3"></use>
                        </mask>
                        <g id="Mask"></g>
                        <g mask="url(#mask-4)">
                            <g transform="translate(32.726531, 25.872483)">
                                <g id="Group-47" transform="translate(32.726531, 0.000000)">
                                    <path d="M205.246498,236.734545 C196.941849,235.230629 189.4114,234.37499 182.694404,233.962449 C175.063636,233.493158 169.055414,227.296324 169.055414,219.645777 L169.055414,186.638197 L119.532839,186.638197 L119.532839,219.654508 C119.532839,227.187186 113.729617,233.493158 106.216614,233.944987 C100.302168,234.298593 93.7509171,234.992709 86.5933915,236.173578 L85.8235541,303.463465 L206.049048,303.463465 L205.246498,236.734545 Z" id="Fill-1" fill="#FBA489"></path>
                                    <path d="M119.533493,210.906037 C127.151177,214.773874 135.481996,217.057033 144.296962,217.057033 C153.109747,217.057033 161.440566,214.773874 169.056068,210.90822 L169.056068,171.57939 L119.533493,171.57939 L119.533493,210.906037 Z" id="Fill-3" fill="#F1856A"></path>
                                    <path d="M102.272124,131.725825 C102.272124,143.573805 93.3306688,153.177915 82.3065091,153.177915 C71.2779878,153.177915 62.4761068,134.019898 62.4761068,122.171919 C62.4761068,110.321757 71.1471372,108.50789 82.3065091,110.271553 C93.1976374,111.993745 102.272124,119.877846 102.272124,131.725825" id="Fill-5" fill="#FBA489"></path>
                                    <path d="M186.323981,131.725825 C186.323981,143.573805 195.263255,153.177915 206.289595,153.177915 C217.315936,153.177915 226.117817,134.019898 226.117817,122.171919 C226.117817,110.321757 217.446786,108.50789 206.289595,110.271553 C195.396286,111.993745 186.323981,119.877846 186.323981,131.725825" id="Fill-7" fill="#FBA489"></path>
                                    <path d="M206.888673,72.0709876 C199.255723,49.9182348 144.298488,49.1520888 144.298488,49.1520888 C144.298488,49.1520888 89.3390724,49.9182348 81.7061231,72.0709876 C74.0731738,94.2259232 74.8342879,140.065904 86.2858927,162.223022 C97.7353167,184.375775 119.107575,202.713077 144.298488,202.713077 C169.487221,202.713077 190.859479,184.375775 202.308903,162.223022 C213.758327,140.065904 214.521622,94.2259232 206.888673,72.0709876" id="Fill-9" fill="#FBA489"></path>
                                    <path d="M116.643441,121.445062 C116.643441,126.480672 113.424517,130.562419 109.457564,130.562419 C105.48843,130.562419 102.271687,126.480672 102.271687,121.445062 C102.271687,116.40727 105.48843,112.325523 109.457564,112.325523 C113.424517,112.325523 116.643441,116.40727 116.643441,121.445062" id="Fill-11" fill="#391829"></path>
                                    <path d="M186.323981,121.445062 C186.323981,126.480672 183.105057,130.562419 179.135923,130.562419 C175.16897,130.562419 171.950047,126.480672 171.950047,121.445062 C171.950047,116.40727 175.16897,112.325523 179.135923,112.325523 C183.105057,112.325523 186.323981,116.40727 186.323981,121.445062" id="Fill-13" fill="#391829"></path>
                                    <path d="M144.295871,159.464241 C158.698156,159.464241 163.827498,169.474343 164.034678,169.902163 C164.60824,171.059021 164.137178,172.449435 162.990055,173.023498 C161.805857,173.5801 160.425384,173.123905 159.87145,171.975777 C159.705706,171.668009 155.70604,164.122235 144.295871,164.122235 C132.748309,164.122235 128.76391,171.895016 128.718112,171.975777 C128.157636,173.123905 126.764077,173.5801 125.601688,173.023498 C124.454565,172.458166 123.983503,171.059021 124.554884,169.902163 C124.764244,169.474343 129.884863,159.464241 144.295871,159.464241" id="Fill-15" fill="#DB675C"></path>
                                    <path d="M98.6748237,57.0091238 C102.39316,56.655518 106.233624,56.5311011 109.770951,57.7294321 C113.310459,58.9277631 116.520659,61.6933102 117.310124,65.3472375 C118.343844,70.1252822 115.168537,74.6937827 112.17424,78.550706 C107.864895,84.1058105 103.551188,89.6609151 99.2396619,95.2160196 C96.1886631,99.1471564 93.1005899,103.141593 91.2228843,107.751566 C89.6352309,111.64123 88.9700739,115.843029 88.5164586,120.020816 C87.9036418,125.676328 87.6572066,131.368945 87.7858763,137.057198 C87.8011422,137.655272 87.8098656,138.286087 87.5219943,138.814313 C87.1926871,139.405839 86.5493385,139.744166 85.9452451,140.049751 C84.0915288,140.977421 82.2378126,141.907273 80.3840963,142.83276 C78.004797,132.294432 75.2111375,99.1842632 74.0487484,95.388457 C72.0292881,88.7921797 70.6575381,81.9994546 69.9553067,75.1368815 C69.8003151,73.6264169 69.6783397,72.083211 70.0163703,70.6054877 C70.797112,67.1785667 73.8372066,64.7644427 76.9078331,63.0618959 C83.5441373,59.3861411 91.1247464,57.7272493 98.6748237,57.0091238" id="Fill-17" fill="#382040"></path>
                                    <path d="M177.476956,32.2357587 C177.071319,32.3361653 176.772544,32.4955062 176.602438,32.7268779 C175.488028,34.250439 177.117117,39.2118349 177.428978,40.8248888 C177.828072,42.920331 181.971673,56.7087771 178.953387,57.7324879 C175.418241,58.9286362 172.20804,61.6963661 171.420756,65.3481106 C170.387037,70.1239726 173.557982,74.6924731 176.55446,78.5515791 C180.865986,84.1066836 185.177512,89.6617882 189.489038,95.2168927 C192.540036,99.1458468 195.62811,103.140283 197.505815,107.752439 C199.091288,111.642104 199.760806,115.843902 200.212241,120.02169 C200.827239,125.677201 201.071493,131.369819 200.942823,137.055888 C200.929738,137.656145 200.918834,138.286961 201.208886,138.813004 C201.533832,139.406712 202.17718,139.745039 202.783454,140.050624 C204.637171,140.976111 206.490887,141.905964 208.344603,142.833634 C208.338061,142.831451 208.451464,142.34688 208.444922,142.375256 C211.120816,129.826613 211.871026,116.806495 213.395435,104.083232 C214.154368,97.7292406 213.934103,91.4494623 215.925212,85.3399387 C219.041636,75.786032 221.601946,65.7431888 220.195302,55.626132 C219.6719,51.8696153 218.577117,48.1218297 216.41154,45.0135904 C213.626604,41.0104228 209.251834,38.3365513 204.645894,36.7453248 C200.042135,35.1562812 195.16359,34.5538416 190.328662,33.9601329 C188.093298,33.6851062 180.296786,31.5307297 177.476956,32.2357587" id="Fill-19" fill="#382040"></path>
                                    <path d="M184.055686,23.958762 C176.557949,15.5115107 168.628405,6.75430863 158.049137,2.81225803 C145.78844,-1.76279073 132.125461,0.908898046 119.435137,4.10663012 C112.369207,5.88775598 105.141895,7.90898458 99.3321297,12.3115959 C93.0949197,17.0394373 89.0690841,24.0613514 83.7521897,29.8019899 C78.4331145,35.5448111 70.5755384,40.233363 63.0647162,38.0353314 C62.3951976,44.0793725 62.0506244,50.2587442 63.4071085,56.1849166 C66.4297565,69.3774713 77.7745,79.5643762 90.5346104,84.0412011 C103.294721,88.5202087 117.291369,88.0312722 130.633764,85.8332407 C143.792969,83.6635849 157.056854,79.6997068 167.45075,71.3332173 C176.418375,64.1126728 182.714468,54.0152608 187.126313,43.3765262 C188.689977,39.6112786 190.053003,35.44877 188.95604,31.5241814 C188.138224,28.6036589 186.066423,26.2266416 184.055686,23.958762" id="Fill-21" fill="#382040"></path>
                                    <path d="M144.295871,145.176163 C140.376897,145.176163 137.188505,143.462703 136.08718,141.146803 C135.836383,141.677211 135.576862,142.211986 135.576862,142.794781 C135.576862,145.929213 139.480571,148.469936 144.295871,148.469936 C149.111172,148.469936 153.012699,145.929213 153.012699,142.794781 C153.012699,142.211986 152.75536,141.677211 152.502382,141.146803 C151.403238,143.462703 148.212665,145.176163 144.295871,145.176163" id="Fill-23" fill="#E4776D"></path>
                                    <path d="M113.193348,144.809461 C113.193348,150.294717 108.711716,154.740984 103.181099,154.740984 C97.6526627,154.740984 93.1688502,150.294717 93.1688502,144.809461 C93.1688502,139.324204 97.6526627,134.875755 103.181099,134.875755 C108.711716,134.875755 113.193348,139.324204 113.193348,144.809461" id="Fill-25" fill="#F8918B"></path>
                                    <path d="M195.420057,144.809461 C195.420057,150.294717 190.938426,154.740984 185.407809,154.740984 C179.879372,154.740984 175.39556,150.294717 175.39556,144.809461 C175.39556,139.324204 179.879372,134.875755 185.407809,134.875755 C190.938426,134.875755 195.420057,139.324204 195.420057,144.809461" id="Fill-27" fill="#F8918B"></path>
                                    <g id="Group-31" transform="translate(35.351876, 233.096573)">
                                        <mask id="mask-6" fill="white">
                                            <use xlink:href="#path-5"></use>
                                        </mask>
                                        <g id="Clip-30"></g>
                                        <path d="M214.925752,18.3372805 C183.368958,4.85660244 166.910139,1.53008797 147.579149,0.307746701 C144.198843,8.17656864 128.217628,14.1463961 108.943341,14.1463961 C89.6668725,14.1463961 73.6878384,8.17656864 70.3075323,0.307746701 C50.9765429,1.53008797 32.2125727,6.57442847 0.653598545,20.0529238 C0.653598545,20.0529238 34.4850107,137.75784 36.5589921,176.558444 C37.6406901,196.768548 37.003884,246.766671 36.1184619,260.205877 L181.76822,260.205877 C180.882798,246.766671 180.245992,196.768548 181.32769,176.558444 C183.403852,137.75784 214.925752,18.3372805 214.925752,18.3372805" id="Fill-29" fill="#6BDAED" mask="url(#mask-6)"></path>
                                    </g>
                                    <g id="Group-34" transform="translate(35.351876, 233.096573)">
                                        <mask id="mask-8" fill="white">
                                            <use xlink:href="#path-7"></use>
                                        </mask>
                                        <g id="Clip-33"></g>
                                        <path d="M214.925752,18.3372805 C183.368958,4.85660244 166.910139,1.53008797 147.579149,0.307746701 C144.198843,8.17656864 128.217628,14.1463961 108.943341,14.1463961 C89.6668725,14.1463961 73.6878384,8.17656864 70.3075323,0.307746701 C50.9765429,1.53008797 32.2125727,6.57442847 0.653598545,20.0529238 C0.653598545,20.0529238 34.4850107,137.75784 36.5589921,176.558444 C37.6406901,196.768548 37.003884,246.766671 36.1184619,260.205877 L181.76822,260.205877 C180.882798,246.766671 180.245992,196.768548 181.32769,176.558444 C183.403852,137.75784 214.925752,18.3372805 214.925752,18.3372805" id="Fill-32" fill="#0066CF" mask="url(#mask-8)"></path>
                                    </g>
                                    <path d="M98.1232886,108.444371 C97.6304182,108.444371 97.1397286,108.250107 96.773347,107.865942 C96.0580306,107.119441 96.0820199,105.936389 96.8300489,105.218264 C96.9369102,105.12004 107.769156,94.9811555 121.73091,103.098811 C122.622875,103.618306 122.928193,104.762068 122.409152,105.656997 C121.892293,106.556291 120.74735,106.859693 119.853205,106.335833 C108.286015,99.6129558 99.4972195,107.839749 99.4187091,107.924876 C99.0545084,108.271934 98.5878081,108.444371 98.1232886,108.444371" id="Fill-35" fill="#382040"></path>
                                    <path d="M190.470417,108.442407 C190.008078,108.442407 189.54792,108.272152 189.18372,107.931643 C188.826061,107.588951 180.209552,99.6611946 168.740501,106.336051 C167.855078,106.859912 166.707955,106.556509 166.184553,105.657215 C165.665512,104.762287 165.97083,103.618524 166.862795,103.099029 C180.80056,94.9901047 191.661157,105.120258 191.763656,105.218482 C192.511685,105.934425 192.535675,107.115294 191.826901,107.859612 C191.458338,108.245959 190.967649,108.442407 190.470417,108.442407" id="Fill-37" fill="#382040"></path>
                                    <path d="M135.859936,295.698542 C135.757436,295.187778 135.661479,294.6661 135.602596,294.100767 C134.704089,285.749557 136.139084,279.56582 135.958074,271.280092 C135.875202,267.493017 134.283186,263.544418 133.297446,258.334188 C132.510161,254.173862 126.456142,250.161964 124.925191,254.455437 C123.719185,257.845252 125.913112,262.485783 126.115931,265.742449 C126.462685,271.312833 125.921836,273.864471 121.095631,271.740653 C116.583467,269.756531 114.758102,266.130979 114.003531,261.001512 C113.307842,256.275853 113.124651,251.484712 114.666507,246.903115 C115.495227,244.436605 116.367564,241.876236 116.707775,239.265664 C117.119955,236.08976 111.925188,233.684367 109.857749,236.936668 C106.902707,241.592478 105.871168,247.68454 105.550584,250.450087 C105.389202,251.81649 104.91814,257.681545 104.623726,257.816876 C104.329313,257.947841 105.319415,248.703885 105.373936,247.424792 C105.655265,240.928922 107.003026,237.434335 107.170951,233.546853 C107.408662,227.932815 100.602252,230.329477 98.8226848,234.42432 C97.6646574,237.082912 97.3680628,240.108207 97.1587019,242.941419 C96.9449793,245.813921 96.949341,248.708251 97.0169471,251.635322 C97.0518406,253.154517 97.1499785,254.592951 97.2917333,256.090319 C97.3833287,257.041999 97.850029,260.346686 97.4051371,260.671916 C97.4051371,260.671916 96.0115786,251.032882 96.0726422,251.755373 C96.090089,251.954003 96.3866836,244.491173 96.2340246,242.459031 C96.0944507,240.608057 95.701899,238.29434 93.4665353,237.54129 C91.0828742,236.738037 89.464689,240.413792 89.0219779,242.415376 C86.9109222,252.004207 91.5670213,264.21234 91.0370765,265.085441 C90.3217601,266.259762 88.4920332,251.170395 85.5566189,251.150751 C85.3101837,251.148568 85.0899186,251.174761 84.8849194,251.220599 C80.9223283,252.167913 83.8730084,262.747713 86.2588503,268.809216 C88.5552776,274.64153 90.0731441,277.889466 92.8777077,282.156747 C96.7574268,288.054543 101.044964,292.692892 108.086904,295.089554 C111.632955,296.29225 114.396082,297.097686 117.213731,299.684247 C118.186387,300.57481 118.574577,302.934365 119.7217,303.377464 C120.356325,304.519044 121.032386,305.765395 121.734618,307.081595 C126.831247,303.84239 131.384847,299.865416 135.859936,295.698542" id="Fill-39" fill="#FBA489"></path>
                                    <path d="M252.322168,251.832642 C243.845232,246.783936 215.769064,286.959675 207.745744,316.112514 C203.36225,332.031326 201.233748,345.527284 199.639552,356.131094 C177.514903,332.782193 148.025548,299.722227 140.167972,286.130229 C130.868859,287.56648 109.46825,302.27823 109.46825,302.27823 C119.620073,319.814462 168.828607,403.361488 180.823241,416.303026 C189.173688,425.311245 198.008281,429.609084 205.998889,430.431981 C206.016336,430.493099 206.033782,430.556398 206.049048,430.615333 C233.137295,441.376301 252.906634,382.6559 264.54361,313.259657 C267.590247,295.09261 271.66188,263.348843 252.322168,251.832642" id="Fill-41" fill="#00ADFF"></path>
                                    <path d="M143.188439,437.696836 C143.70748,437.670643 144.235244,437.635719 144.800082,437.55714 C153.106912,436.369722 158.742209,433.453565 166.811327,431.587312 C170.496951,430.736039 174.714701,431.303554 180.001063,430.976142 C184.225356,430.716394 189.601133,435.599211 185.819552,438.142117 C182.833978,440.148067 177.800593,439.163645 174.594755,439.768268 C169.118659,440.805075 166.778614,441.959751 170.025889,446.115711 C173.05726,450.005376 177.019852,450.882842 182.175364,450.352434 C186.918696,449.861314 191.603146,448.857248 195.661695,446.23358 C197.844718,444.823522 200.110614,443.347981 202.555338,442.372291 C205.525646,441.189239 209.137121,445.637689 206.496121,448.442525 C202.716721,452.458789 197.0727,454.958041 194.473135,455.951193 C193.1908,456.442312 187.625289,458.345672 187.568588,458.662171 C187.511886,458.983036 196.21999,455.746014 197.445624,455.377129 C203.663206,453.502145 206.718567,451.334672 210.441265,450.21492 C215.819223,448.599683 215.175875,455.794035 211.651633,458.531206 C209.361748,460.305784 206.502663,461.340408 203.811504,462.241885 C201.083269,463.156458 198.280887,463.86367 195.423983,464.520679 C193.947552,464.859005 192.532185,465.118753 191.04267,465.350124 C190.102727,465.496369 186.785665,465.856523 186.580666,466.371652 C186.580666,466.371652 196.259246,465.347942 195.543929,465.467993 C195.347653,465.498552 202.500817,463.370368 204.502831,463.021128 C206.334739,462.69808 208.66824,462.510364 209.948395,464.492303 C211.313602,466.60739 208.153561,469.082631 206.323834,470.003752 C197.559028,474.415095 184.589556,472.906813 183.876421,473.635852 C182.91685,474.618091 197.97993,472.675441 198.719236,475.517384 C198.7803,475.757487 198.813012,475.977945 198.817374,476.187489 C198.876257,480.267053 187.904437,480.009489 181.449143,479.186591 C175.233741,478.396435 171.716042,477.724147 166.892018,476.054342 C160.225182,473.74499 154.677119,470.728426 150.622932,464.487937 C148.583844,461.344774 147.12486,458.860802 143.923383,456.76536 C142.819877,456.045051 140.440578,456.245865 139.729623,455.243981 C138.469096,454.91002 137.092984,454.562963 135.647085,454.202809 C137.526972,448.46217 140.257387,443.064224 143.188439,437.696836" id="Fill-43" fill="#FBA489"></path>
                                    <path d="M151.394296,431.161457 C138.226368,427.435499 87.2971495,407.181741 62.4769792,395.272644 C54.9770612,391.675469 53.0601005,386.866865 54.3533402,381.36633 C58.625611,363.199283 61.9034175,346.381176 62.3526711,342.618111 C66.5551549,307.471434 57.7467314,250.161091 49.0102757,249.333828 C37.931595,248.286106 17.3357169,263.227046 13.38403,292.657095 C9.14883359,324.200048 0.353495148,381.036734 0.353495148,407.891135 C0.353495148,440.889984 123.839349,459.393175 143.318636,464.919904 C143.318636,464.919904 152.294984,440.536378 151.394296,431.161457" id="Fill-45" fill="#00ADFF"></path>
                                </g>
                                <g id="Group-50" transform="translate(0.000000, 213.879195)">
                                    <mask id="mask-10" fill="white">
                                        <use xlink:href="#path-9"></use>
                                    </mask>
                                    <g id="Clip-49"></g>
                                </g>
                                <g id="Group-53" transform="translate(105.069388, 181.107383)">
                                    <mask id="mask-12" fill="white">
                                        <use xlink:href="#path-11"></use>
                                    </mask>
                                    <g id="Clip-52"></g>
                                </g>
                                <g id="Group-56" transform="translate(21.669388, 262.174497)">
                                    <mask id="mask-14" fill="white">
                                        <use xlink:href="#path-13"></use>
                                    </mask>
                                    <g id="Clip-55"></g>
                                </g>
                                <g id="Group-59" transform="translate(46.506122, 163.859060)">
                                    <mask id="mask-16" fill="white">
                                        <use xlink:href="#path-15"></use>
                                    </mask>
                                    <g id="Clip-58"></g>
                                </g>
                                <g id="Group-62" transform="translate(279.036735, 164.859060)">
                                    <mask id="mask-18" fill="white">
                                        <use xlink:href="#path-17"></use>
                                    </mask>
                                    <g id="Clip-61"></g>
                                </g>
                                <g id="Group-65" transform="translate(300.706122, 248.298443)">
                                    <mask id="mask-20" fill="white">
                                        <use xlink:href="#path-19"></use>
                                    </mask>
                                    <g id="Clip-64"></g>
                                </g>
                                <g id="Group-68" transform="translate(227.363265, 194.906040)">
                                    <mask id="mask-22" fill="white">
                                        <use xlink:href="#path-21"></use>
                                    </mask>
                                    <g id="Clip-67"></g>
                                </g>
                                <g id="Group-71" transform="translate(294.538776, 191.456376)">
                                    <mask id="mask-24" fill="white">
                                        <use xlink:href="#path-23"></use>
                                    </mask>
                                    <g id="Clip-70"></g>
                                </g>
                                <g id="Group-74" transform="translate(274.869388, 382.912752)">
                                    <mask id="mask-26" fill="white">
                                        <use xlink:href="#path-25"></use>
                                    </mask>
                                    <g id="Clip-73"></g>
                                </g>
                                <g id="Group-77" transform="translate(263.534694, 439.832215)">
                                    <mask id="mask-28" fill="white">
                                        <use xlink:href="#path-27"></use>
                                    </mask>
                                    <g id="Clip-76"></g>
                                </g>
                                <g id="Group-80" transform="translate(268.702041, 428.758389)">
                                    <mask id="mask-30" fill="white">
                                        <use xlink:href="#path-29"></use>
                                    </mask>
                                    <g id="Clip-79"></g>
                                </g>
                            </g>
                        </g>
                    </g>
                </g>
                <g id="Group-7" transform="translate(173.000000, 108.000000)" fill="#88D1F5">
                    <path d="M8.957,265.349 C8.233,260.644 4.529,253 4.529,253 C4.529,253 0.824,260.644 0.109,265.349 C0.037,265.662 -1.52766688e-13,265.991 -1.52766688e-13,266.328 C-1.52766688e-13,268.823 2.028,270.853 4.529,270.853 C7.033,270.853 9.061,268.823 9.061,266.328 C9.061,265.991 9.024,265.662 8.957,265.349" id="Fill-1"></path>
                    <path d="M121.95,98.348 C121.229,93.645 117.531,86 117.531,86 C117.531,86 113.822,93.645 113.103,98.348 C113.041,98.663 113,98.988 113,99.325 C113,101.825 115.028,103.85 117.531,103.85 C120.03,103.85 122.059,101.825 122.059,99.325 C122.059,98.988 122.019,98.663 121.95,98.348" id="Fill-3"></path>
                    <path d="M37.9398388,92.2258824 C37.541892,89.8546218 35.5008279,86 35.5008279,86 C35.5008279,86 33.4536925,89.8546218 33.0568495,92.2258824 C33.0226294,92.3847059 33,92.5485714 33,92.7184874 C33,93.9789916 34.1193288,95 35.5008279,95 C36.8801192,95 38,93.9789916 38,92.7184874 C38,92.5485714 37.9779225,92.3847059 37.9398388,92.2258824" id="Fill-3-Copy"></path>
                    <path d="M97.0725,12.3509 C96.3485,7.6419 92.6545,-0.0001 92.6545,-0.0001 C92.6545,-0.0001 88.9425,7.6419 88.2265,12.3509 C88.1575,12.6649 88.1185,12.9919 88.1185,13.3249 C88.1185,15.8279 90.1425,17.8569 92.6545,17.8569 C95.1465,17.8569 97.1785,15.8279 97.1785,13.3249 C97.1785,12.9919 97.1425,12.6649 97.0725,12.3509" id="Fill-5"></path>
                </g>
            </g>
        </g>
    </g>
</svg>