<?xml version="1.0" encoding="utf-8"?>
<!-- Generator: Adobe Illustrator 22.1.0, SVG Export Plug-In . SVG Version: 6.00 Build 0)  -->
<svg version="1.1" id="Layer_1" xmlns="http://www.w3.org/2000/svg" xmlns:xlink="http://www.w3.org/1999/xlink" x="0px" y="0px"
	 viewBox="0 0 367 591" style="enable-background:new 0 0 367 591;" xml:space="preserve">
<style type="text/css">
	.st0{fill:#4D72D1;}
	.st1{fill:#3F4DC2;}
	.st2{fill:#FFC0BE;}
	.st3{fill:#FF8A91;}
	.st4{fill:#AB6C6C;}
	.st5{fill:#FFFFFF;}
	.st6{fill:#EFEFEF;}
	.st7{fill:#0F1E3F;}
	.st8{fill:#4476DC;}
	.st9{fill:#2657BD;}
	.st10{fill:#8CB2FF;}
	.st11{filter:url(#Adobe_OpacityMaskFilter);}
	.st12{mask:url(#mask-2_1_);fill:#633131;}
	.st13{fill:#633131;}
	.st14{fill:#3E3E3E;}
	.st15{fill:#2A2A2A;}
	.st16{fill:#1E0315;}
	.st17{fill:#6A1A51;}
	.st18{fill:#D9D9D9;}
	.st19{filter:url(#Adobe_OpacityMaskFilter_1_);}
	.st20{mask:url(#mask-4_1_);fill:#7992E5;}
	.st21{filter:url(#Adobe_OpacityMaskFilter_2_);}
	.st22{mask:url(#mask-4_2_);fill:#D9D9D9;}
	.st23{filter:url(#Adobe_OpacityMaskFilter_3_);}
	.st24{mask:url(#mask-4_3_);fill:#D9D9D9;}
	.st25{filter:url(#Adobe_OpacityMaskFilter_4_);}
	.st26{mask:url(#mask-4_4_);fill:#FFFFFF;}
	.st27{filter:url(#Adobe_OpacityMaskFilter_5_);}
	.st28{mask:url(#mask-4_5_);fill:#D9D9D9;}
	.st29{filter:url(#Adobe_OpacityMaskFilter_6_);}
	.st30{mask:url(#mask-4_6_);fill:#FFFFFF;}
	.st31{filter:url(#Adobe_OpacityMaskFilter_7_);}
	.st32{mask:url(#mask-4_7_);fill:#FFFFFF;}
	.st33{filter:url(#Adobe_OpacityMaskFilter_8_);}
	.st34{mask:url(#mask-4_8_);fill:#FFFFFF;}
	.st35{filter:url(#Adobe_OpacityMaskFilter_9_);}
	.st36{mask:url(#mask-4_9_);fill:#D9D9D9;}
	.st37{filter:url(#Adobe_OpacityMaskFilter_10_);}
	.st38{mask:url(#mask-4_10_);fill:#D9D9D9;}
	.st39{filter:url(#Adobe_OpacityMaskFilter_11_);}
	.st40{mask:url(#mask-4_11_);fill:#D9D9D9;}
	.st41{filter:url(#Adobe_OpacityMaskFilter_12_);}
	.st42{mask:url(#mask-4_12_);fill:#6A1A51;}
	.st43{filter:url(#Adobe_OpacityMaskFilter_13_);}
	.st44{mask:url(#mask-4_13_);fill:#6A1A51;}
	.st45{filter:url(#Adobe_OpacityMaskFilter_14_);}
	.st46{mask:url(#mask-4_14_);fill:#7992E5;}
	.st47{filter:url(#Adobe_OpacityMaskFilter_15_);}
	.st48{mask:url(#mask-4_15_);fill:#7992E5;}
	.st49{filter:url(#Adobe_OpacityMaskFilter_16_);}
	.st50{mask:url(#mask-4_16_);fill:#FFFFFF;}
	.st51{filter:url(#Adobe_OpacityMaskFilter_17_);}
	.st52{mask:url(#mask-4_17_);fill:#D9D9D9;}
	.st53{filter:url(#Adobe_OpacityMaskFilter_18_);}
	.st54{mask:url(#mask-4_18_);fill:#D9D9D9;}
	.st55{filter:url(#Adobe_OpacityMaskFilter_19_);}
	.st56{mask:url(#mask-4_19_);fill:#D9D9D9;}
	.st57{filter:url(#Adobe_OpacityMaskFilter_20_);}
	.st58{mask:url(#mask-4_20_);fill:#58B8D2;}
	.st59{filter:url(#Adobe_OpacityMaskFilter_21_);}
	.st60{mask:url(#mask-4_21_);fill:#84E3DF;}
	.st61{filter:url(#Adobe_OpacityMaskFilter_22_);}
	.st62{mask:url(#mask-4_22_);fill:#0098B7;}
	.st63{filter:url(#Adobe_OpacityMaskFilter_23_);}
	.st64{mask:url(#mask-4_23_);fill:#FFFFFF;}
	.st65{filter:url(#Adobe_OpacityMaskFilter_24_);}
	.st66{mask:url(#mask-4_24_);fill:#D9D9D9;}
	.st67{filter:url(#Adobe_OpacityMaskFilter_25_);}
	.st68{mask:url(#mask-4_25_);fill:#D9D9D9;}
	.st69{filter:url(#Adobe_OpacityMaskFilter_26_);}
	.st70{mask:url(#mask-4_26_);fill:#D9D9D9;}
	.st71{filter:url(#Adobe_OpacityMaskFilter_27_);}
	.st72{mask:url(#mask-4_27_);fill:#1E0315;}
	.st73{filter:url(#Adobe_OpacityMaskFilter_28_);}
	.st74{mask:url(#mask-4_28_);fill:#1E0315;}
	.st75{filter:url(#Adobe_OpacityMaskFilter_29_);}
	.st76{mask:url(#mask-4_29_);fill:#1E0315;}
	.st77{filter:url(#Adobe_OpacityMaskFilter_30_);}
	.st78{mask:url(#mask-4_30_);fill:#FFFFFF;}
	.st79{filter:url(#Adobe_OpacityMaskFilter_31_);}
	.st80{mask:url(#mask-4_31_);fill:#1E0315;}
	.st81{filter:url(#Adobe_OpacityMaskFilter_32_);}
	.st82{mask:url(#mask-4_32_);fill:#1E0315;}
	.st83{filter:url(#Adobe_OpacityMaskFilter_33_);}
	.st84{mask:url(#mask-4_33_);fill:#1E0315;}
	.st85{filter:url(#Adobe_OpacityMaskFilter_34_);}
	.st86{mask:url(#mask-4_34_);fill:#1E0315;}
	.st87{filter:url(#Adobe_OpacityMaskFilter_35_);}
	.st88{mask:url(#mask-4_35_);fill:#58B8D2;}
	.st89{filter:url(#Adobe_OpacityMaskFilter_36_);}
	.st90{mask:url(#mask-4_36_);fill:#84E3DF;}
	.st91{filter:url(#Adobe_OpacityMaskFilter_37_);}
	.st92{mask:url(#mask-4_37_);fill:#0098B7;}
	.st93{filter:url(#Adobe_OpacityMaskFilter_38_);}
	.st94{mask:url(#mask-4_38_);fill:#0098B7;}
	.st95{filter:url(#Adobe_OpacityMaskFilter_39_);}
	.st96{mask:url(#mask-4_39_);fill:#CBCCFE;}
	.st97{filter:url(#Adobe_OpacityMaskFilter_40_);}
	.st98{mask:url(#mask-4_40_);fill:#F646FF;}
	.st99{filter:url(#Adobe_OpacityMaskFilter_41_);}
	.st100{mask:url(#mask-4_41_);fill:#FFFFFF;}
	.st101{filter:url(#Adobe_OpacityMaskFilter_42_);}
	.st102{opacity:0.5;mask:url(#mask-4_42_);fill:#BE3ECC;}
	.st103{fill:#BE3ECC;}
	.st104{fill:#F646FF;}
	.st105{filter:url(#Adobe_OpacityMaskFilter_43_);}
	.st106{mask:url(#mask-6_1_);fill:#BE3ECC;}
	.st107{fill:#2B9DFF;}
	.st108{filter:url(#Adobe_OpacityMaskFilter_44_);}
	.st109{mask:url(#mask-10_1_);fill:#BE3ECC;}
	.st110{filter:url(#Adobe_OpacityMaskFilter_45_);}
	.st111{mask:url(#mask-12_1_);fill:#BE3ECC;}
	.st112{filter:url(#Adobe_OpacityMaskFilter_46_);}
	.st113{mask:url(#mask-12_2_);fill:#BE3ECC;}
</style>
<title>Group 20</title>
<desc>Created with Sketch.</desc>
<path id="Fill-1" class="st0" d="M174,264c0,0,6.5-71.4,6.5-92.1c0-20.8,17.8-85.3,17.8-85.3l11.7-3.7l33.1,1.5l14.2-2.3l12.1,7.8
	L281,261.3c0,0-6.9,5-14.5,5.7C258.8,267.7,183.7,270,174,264"/>
<path id="Fill-3" class="st1" d="M247,66c0,0,10.6-7.1,13.3-17.8c2.7-10.7,1.4-20.2,1.4-20.2l-12.4,24.9L247,66z"/>
<path id="Fill-5" class="st2" d="M243.3,101.1c-4.7,6-14.4,11.2-19.1,7.8c-4.7-3.3-7.8-9.1-8.8-14.3c-1-5.2,0.4-14.5,0.4-14.5
	s0.3-1.4,0.7-3.5c0.1-0.5,0.2-1.1,0.3-1.8c0.1-0.4,0.1-0.8,0.2-1.2c0.4-2.6,0.8-5.5,0.8-7.8c0-5.6,26.6-1.5,26.6-1.5l0.9,5.4
	l0.7,4.3l0.3,1.9l0.6,3.3C246.9,79.4,248.1,95.1,243.3,101.1"/>
<path id="Fill-7" class="st3" d="M245,70.9c-3.2,3.9-9.2,10.7-13.3,12.6c-4.6,2.1-10.9-3.5-14.7-8.7c0.4-2.6,0.8-5.5,0.8-7.9
	c0-5.6,26.3-1.5,26.3-1.5L245,70.9z"/>
<path id="Fill-9" class="st2" d="M206.4,29.1c0,0,0,24.4,2.5,30.3c2.5,5.9,13.4,17.7,17.2,18.5c3.8,0.8,17.6-6.3,23.9-16.4
	c6.3-10.1,5-31.6,4.6-37.5c-0.4-5.9-21.4-20.2-28.9-17.7c-7.6,2.5-18.5,2.5-19.3,8C205.5,19.8,206.4,29.1,206.4,29.1"/>
<path id="Fill-11" class="st0" d="M219.8,39.7c-0.1-0.2-0.3-0.4-0.5-0.5c-0.2-0.1-0.5-0.2-0.7-0.2c-0.3,0-0.5,0.1-0.7,0.2
	c0,0,0,0,0,0c0,0,0,0,0,0c-0.3,0.2-0.3,0.2-0.5,0.5c0,0,0,0.1-0.1,0.1c-0.1,0.2-0.2,0.5-0.2,0.7c0,0.1,0,0.3,0.1,0.4
	c0.1,0.2,0.2,0.5,0.4,0.6c0.1,0.1,0.3,0.2,0.5,0.3c0.2,0.1,0.4,0.1,0.6,0.1c0.2,0,0.4,0,0.6-0.1c0.2-0.1,0.3-0.2,0.5-0.3
	c0.2-0.2,0.3-0.4,0.4-0.6c0,0,0-0.1,0-0.1c0.1-0.2,0.1-0.3,0.1-0.5C220,40.1,219.9,39.9,219.8,39.7"/>
<path id="Fill-13" class="st0" d="M236.9,39.1c0,0-0.2-0.4-0.2-0.4c-0.1-0.1-0.2-0.2-0.3-0.3c-0.2-0.1-0.4-0.2-0.6-0.3
	c-0.2-0.1-0.3-0.1-0.5-0.1c-0.3,0-0.5,0-0.8,0c-0.2,0.1-0.3,0.1-0.5,0.2c-0.1,0.1-0.3,0.2-0.4,0.2c-0.2,0.1-0.3,0.3-0.3,0.4
	c0,0,0-0.1,0-0.1l-0.1,0.1c0,0,0,0,0,0c-0.2,0.2-0.3,0.4-0.3,0.7c0,0.1,0,0.3,0.1,0.4c0.1,0.2,0.2,0.4,0.5,0.6
	c0.1,0.1,0.2,0.2,0.4,0.2c0.2,0.1,0.4,0.1,0.6,0.1c0.1,0,0.2,0.1,0.3,0.1c0,0,0,0,0,0h0l0,0c0,0,0,0,0.1,0c0,0,0.1,0,0.1,0
	c0,0,0,0-0.1,0c0.1,0,0.2,0,0.3,0c0.3,0,0.5-0.1,0.7-0.2c0.1-0.1,0.3-0.2,0.4-0.2c0.1-0.1,0.2-0.2,0.3-0.3c0.1-0.2,0.2-0.4,0.2-0.6
	C237,39.5,237,39.3,236.9,39.1"/>
<path id="Fill-15" class="st4" d="M220.9,33.6c-0.3-0.6-1.4-0.6-2-0.6c-0.7,0-1.3,0-2,0.1c-1.3,0.2-2.6,0.5-3.7,1.2
	c-0.4,0.2-0.1,0.8,0.3,0.7c1.1-0.4,2.3-0.6,3.5-0.7c0.6,0,1.2-0.1,1.7,0.1c0.3,0.1,0.6,0.1,0.9,0.2c0.5,0.1,0.8,0.1,1.2-0.2
	C221,34.1,221,33.8,220.9,33.6"/>
<path id="Fill-17" class="st4" d="M239.8,34c-1-0.6-2.2-0.9-3.4-1c-0.6-0.1-1.2,0-1.7,0c-0.3,0-0.6,0.1-1,0.1
	c-0.1,0-0.3,0.1-0.4,0.1c-0.1,0-0.1,0-0.2,0.1c0,0-0.2,0.1-0.1,0c-0.6,0.1-1.1,0.5-0.9,1.1c0.3,0.5,1,0.6,1.5,0.3
	c0.3-0.2,0.9-0.3,1.3-0.4c0.5-0.1,0.9-0.2,1.4-0.2c1,0,2.1,0.1,3,0.5C239.8,34.9,240.3,34.3,239.8,34"/>
<path id="Fill-19" class="st5" d="M237,59c-2.1,3.5-5.9,5.8-9.8,6c-3.7,0.1-8.1-1.8-10.2-5.2c3.1-0.4,6.2-0.5,9.3-0.6
	c1.8,0,3.7-0.1,5.5-0.1C232.5,59.1,236.7,59.4,237,59"/>
<path id="Fill-21" class="st4" d="M226.8,53.4c-1-0.3-2.6-0.8-3-1.8c-0.4-1,0.8-2,1.6-2.5c0.5-0.3,1.1-0.7,1.2-1.3
	c0.2-0.7-0.2-1.4-0.3-2.2c-0.1-0.8-0.2-1.5-0.1-2.3c0-0.8,0.3-1.7,0.3-2.5c0-0.9-1.5-1.1-1.8-0.2c-0.3,0.8-0.2,1.9-0.2,2.7
	c0,0.9,0.1,1.8,0.2,2.8c0,0.3,0.1,0.7-0.1,1c-0.1,0.2-0.4,0.4-0.6,0.5c-0.7,0.4-1.2,0.9-1.5,1.5c-0.6,1.2-0.4,2.6,0.6,3.6
	c1,1,2.4,1.2,3.8,1.3C227.1,54,227.1,53.5,226.8,53.4"/>
<path id="Fill-23" class="st5" d="M249.1,54l-1.1-0.3c0.1-0.3,2.1-7.9,6.2-12.7l0.8,0.7C251.1,46.4,249.1,53.9,249.1,54"/>
<path id="Fill-25" class="st5" d="M251.8,56l-0.8-0.5c0,0,2.3-3.8,3-10.5l1,0.1C254.3,52,251.9,55.8,251.8,56"/>
<path id="Fill-27" class="st5" d="M206.4,52.4c0-0.1-1-6.9-1.4-12.3l1.2-0.1c0.4,5.3,1.8,12.9,1.8,13L206.4,52.4z"/>
<path id="Fill-29" class="st5" d="M207,53.3c0,0,6.6-3.6,17.1-5.9c10.5-2.3,23.3,4.3,28.8,8.7c0,0,0.6,3.4-3,9
	c-3.6,5.6-12.2,17.2-21.9,15.8C221.3,79.9,207,69.9,207,53.3"/>
<path id="Fill-31" class="st6" d="M247,53.9c-1.7-0.5-4.6-2.4-8.1-3.5c-3.6-1.1-11.4-1.4-11.4-1.4s3.4,2.3,5.8,3.9
	c-3.6-0.6-7.9-1.3-8.2-1.2l8.3,3.1l2.8,0.5c0.8,0.9,1.4,2.1,2.3,4c1.6,3.5-1,9.7-3,13.4c-2,3.7-9.2,6.1-9.2,6.1s4.8,0.6,7.5-0.5
	c2.6-1.1,8-5.4,10.5-8.4c2.5-3,6.9-14.1,6.9-14.1S248.7,54.4,247,53.9"/>
<path id="Fill-33" class="st7" d="M221.4,45.7c-1.7,2.2-4.2,3.7-7,3.3c-2.6-0.4-4.9-2.4-5.6-5c-0.7-2.6,0.2-5.4,2.4-6.9
	c2.2-1.5,5-1.8,7.4-0.6C221.6,38.2,223.7,42.6,221.4,45.7L221.4,45.7z M222.7,37.5c-1-1.6-2.7-2.7-4.6-3.2c-3.6-1-8.1,0.3-10.1,3.7
	c-1.6,2.9-1.4,6.6,0.5,9.3c1,1.4,2.5,2.5,4.1,3.1c3.3,1.3,7.3-0.2,9.4-2.9c1.8-2.2,2.3-5.3,1.5-8.1
	C223.5,38.9,223.1,38.2,222.7,37.5L222.7,37.5z"/>
<path id="Fill-35" class="st7" d="M229.2,37.7c-0.3-0.1-0.6-0.3-1-0.4c-0.7-0.2-1.3-0.4-2.1-0.4c-1.3,0-2.8,0.2-3.9,1
	c-0.4,0.3-0.2,1,0.4,0.8c0.6-0.1,1.2-0.3,1.8-0.4c0.5-0.1,1.1-0.1,1.7,0c0.5,0,1.1,0,1.6,0.2c0.3,0.1,0.6,0.1,0.9,0.2
	c0.3,0.1,0.6,0.3,1,0.2c0.3-0.1,0.5-0.4,0.4-0.6C229.8,38,229.5,37.9,229.2,37.7"/>
<path id="Fill-37" class="st7" d="M243.4,45.9c-1.9,3.3-6.2,4.3-9.4,2.4c-3.1-1.8-4.5-6.2-2.4-9.2c1.9-2.7,5.7-3.5,8.7-2.4
	C244,38,245.3,42.6,243.4,45.9 M255.6,34c-2.1,0.2-4.1,0.9-6.1,1.6c-1.7,0.6-3.3,1.3-4.9,2.1c-1-1.5-2.4-2.7-4.3-2.9
	c-1.9-0.2-4.2-0.3-6.1,0.3c-5.2,1.8-6.8,8.2-3.6,12.4c1,1.4,2.4,2.4,4,3c3.2,1.2,7.2-0.2,9.4-2.8c2-2.5,2.4-6,1.1-9
	c1.7-0.4,3.3-0.9,4.9-1.4c2-0.7,4-1.4,5.7-2.5C256.1,34.6,256.1,34,255.6,34"/>
<path id="Fill-39" class="st7" d="M208.7,37.9c-0.3-0.2-0.6-0.4-0.9-0.5c-0.3-0.1-0.6-0.3-0.9-0.4c-0.3-0.2-0.6-0.3-0.9-0.4
	c-0.1-0.1-0.3-0.1-0.4-0.2c-0.1,0-0.2-0.1-0.2-0.1c-0.2-0.1-0.4-0.1-0.6-0.2c-0.3,0-0.7,0.3-0.8,0.5c-0.1,0.3-0.1,0.7,0.2,1
	c0.2,0.3,0.7,0.4,1,0.6c0.4,0.2,0.7,0.3,1.1,0.5c0.3,0.1,0.6,0.2,1,0.3c0.4,0.1,0.7,0.1,1.1,0.2c0.2,0,0.5-0.2,0.6-0.4
	C209,38.3,208.9,38.1,208.7,37.9"/>
<path id="Fill-41" class="st8" d="M261.5,40.3c-1.4,11.2-9.1,15.7-9.1,15.7s3.7-16.2,0.1-22c-0.7-1.2-1.7-2.3-2.8-3.4
	c-4.4-4.3-11.5-7.5-19-8.1c-9.4-0.7-18.9,0.4-22.8,6.9c-3.9,6.5-1.8,23-1.8,23c-6.4-4.3-7-23.8-5.2-30.8c1.8-6.9,7.3-15.7,19.7-19.9
	c12.3-4.1,26.4-0.4,33.6,4.5c2,1.3,3.5,3.6,4.7,6.5C262,20.4,262.6,32,261.5,40.3"/>
<path id="Fill-43" class="st9" d="M261.5,40.4c-1.4,11.1-8.9,15.6-8.9,15.6s3.6-16.1,0.1-21.9c-0.7-1.2-1.6-2.3-2.7-3.4
	c2,0.5,4.1,1.1,4.8,1.7c1.3,1.1,2.3,0.1,3.6-3.7c1.3-3.9,1.4-6.6,1.3-10c0-1.4-0.4-3.6-0.9-5.7C262,20.6,262.6,32.1,261.5,40.4"/>
<path id="Fill-45" class="st10" d="M239.6,22.3c-2.1-1.7-14-2.5-18.4-2.3c-4.4,0.3-12.1,4.3-14.9,9.1c-1.8,3.1-1.3,9.1-0.7,12.8
	c0-4.7,0.5-9.8,2.3-12.8c3.9-6.5,13.3-7.6,22.6-6.9c4.5,0.3,8.8,1.7,12.6,3.6C241.9,24.6,240.6,23.1,239.6,22.3"/>
<path id="Fill-47" class="st10" d="M220.4,1.8c-12.3,4.2-17.8,12.9-19.6,19.9c-1.1,4.2-1.3,13.1,0.2,20.3c0.2-7,0.7-17.8,1.3-20.3
	c1-3.7,7.3-11.3,8.7-12.6c1.4-1.2,6.1-2.8,6.1-2.8s-5,3.6-3.5,5.1c1.5,1.5,10.7-0.7,12.2-3.5c1.5-2.8,0.4-5.5,0.4-5.5
	s6.7-1.3,12.1-0.6c2.1,0.3,5,0.4,7.6,0.5C238.6-0.1,229.1-1.1,220.4,1.8"/>
<g id="Group-51" transform="translate(127.000000, 559.000000)">
	<g id="Clip-50">
	</g>
	<defs>
		<filter id="Adobe_OpacityMaskFilter" filterUnits="userSpaceOnUse" x="121.1" y="0.5" width="40.7" height="31.5">
			<feColorMatrix  type="matrix" values="1 0 0 0 0  0 1 0 0 0  0 0 1 0 0  0 0 0 1 0"/>
		</filter>
	</defs>
	<mask maskUnits="userSpaceOnUse" x="121.1" y="0.5" width="40.7" height="31.5" id="mask-2_1_">
		<g class="st11">
			<polygon id="path-1_1_" class="st5" points="121.1,0.5 161.8,0.5 161.8,32 121.1,32 			"/>
		</g>
	</mask>
	<path id="Fill-49" class="st12" d="M125.9,3.4c0,0-3.7,6.6-4.4,8.9c-0.6,2.3-0.4,18.4-0.4,18.4s25.5,3.1,40.7-0.2
		c0,0-1-18.2-1.7-21.1c-0.6-2.9-4.2-8.9-4.2-8.9L125.9,3.4z"/>
</g>
<path id="Fill-52" class="st13" d="M218.8,562.5c0,0,1.6,26.9,1,27.1c-0.6,0.2-25.4,0.2-25.4,0.2l-1.2-3.3l-2,3.5
	c0,0-46.2,0-47.9-0.2c-1.6-0.2,2.5-14.4,7-16.2c4.5-1.8,25-4.7,25-4.7l8.2-9.9L218.8,562.5z"/>
<path id="Fill-54" class="st14" d="M227,266c0,0,0,1-0.1,3c-0.4,8.9-1.6,36.4-2.8,66.1v0c0,0.6-0.1,1.1-0.1,1.6v0
	c-1.3,30.5-2.7,62.9-3.5,79.5c-1.7,36.7,0,145.8,0,145.8s-23.1,4.9-41.2-1.1c0,0-4.2-148.8-5.1-199.5c-0.1-8.2-0.2-13.8-0.2-15.9
	c0.3-14.8,0-75.3,0-75.3L227,266z"/>
<path id="Fill-56" class="st14" d="M289,563.4c0,0-1.3,0.3-3.6,0.6c-5.9,0.8-18.4,1.9-33-0.3c-1.5-0.2-3-0.5-4.6-0.8
	c0,0-9.9-109.8-10.4-121.9c-0.2-5-4-35.5-8.2-69.4c-1.5-12.1-3.1-24.7-4.7-36.7v0c-0.1-0.6-0.2-1.2-0.3-1.8
	c-3.3-25.5-6.2-48.2-7.5-58.4c-0.2-1.4-0.3-2.5-0.4-3.4c-0.2-1.4-0.3-2.2-0.3-2.2l1,0l10.3-0.4l0.2,0l2.4-0.1l5.1-0.2l38.1-1.5
	c0,0,0,0.7,0.1,2.1c0,1.7,0.1,4.5,0.3,8.1c0.4,10.8,1,28.9,1.7,49.4c0,0.6,0,1.3,0.1,1.9c0,0.4,0,0.8,0,1.2
	c0.5,15.6,1.1,32.3,1.7,48c0.3,9.1,0.6,17.8,1,25.8c0.8,20.7,1.5,36.1,1.8,39.1C280.8,453.1,289,563.4,289,563.4"/>
<path id="Fill-58" class="st15" d="M278,404l-28.2-14.2l-0.5-6.6l-0.7-9.1l-7.2-0.8l-11.9-1.3c-1.5-12.1-3.1-24.7-4.6-36.7v0
	c-0.1-0.6-0.2-1.2-0.3-1.8l-7.7-36l-5.5,72c0,0-4.8-1.1-10.4-2.4c-7.6-1.7-16.9-3.7-18.5-3.7l-7.3-1.7c-0.1-8.2-0.2-13.9-0.1-15.9
	c0.3-14.9,0-75.5,0-75.5l52.7-4.3c0,0,0,1-0.1,3l0.2,0l2.4-0.1l5.1-0.2l37.9-1.5c0,0,0,0.7,0.1,2.2c0,1.7,0.1,4.5,0.3,8.2
	c0.4,10.8,1,29,1.7,49.5c0,0.6,0,1.3,0.1,1.9c0,0.4,0,0.8,0,1.2c0.5,15.6,1.1,32.4,1.7,48.1C277.4,387.3,277.7,396,278,404"/>
<path id="Fill-60" class="st16" d="M171,263.4c0,0,62.7,4.5,110-2.4v8.3c0,0-75.4,5.3-110,1.1V263.4z"/>
<path id="Fill-62" class="st17" d="M229.1,275.8l-13.9,0.2c-0.5,0-0.9-0.4-0.9-0.9l-0.2-13.9c0-0.5,0.4-0.9,0.9-0.9l13.9-0.2
	c0.5,0,0.9,0.4,0.9,0.9l0.2,13.9C230,275.3,229.6,275.7,229.1,275.8"/>
<polygon id="Fill-64" class="st5" points="228,272.8 217.2,273 217,262.2 227.8,262 "/>
<path id="Fill-66" class="st5" d="M209.6,217.4c-0.2,2.3-0.3,5.8-0.3,10.1c0,17.3,1.4,47.3,1.1,60.7c-0.3,16.7-11,85.6-11,85.6
	c-22.7,1.9-45.5-5.5-45.5-5.5s15.3-105,15.9-124.5c0.1-5.1,0.5-12.5,1-21.3c0.3-5.3,0.6-11.1,1-17.3c1.4-22.5,3.4-49.3,5.4-70.6
	c3.3-36.7,21.1-48.5,21.1-48.5s3.8,14.8,5.2,30.7c1.4,15.9,10.4,36.2,10.4,36.2s-1.7,27.7-3.1,47.4
	C210.4,207.8,209.9,214.2,209.6,217.4"/>
<path id="Fill-68" class="st18" d="M211,201c-0.5,7.5-1,13.8-1.3,17c-0.2,2.3-0.3,5.8-0.3,10c-8.1-1.1-28.1-3.6-38.4-5
	c0.3-5.3,0.6-11.1,1-17.2L211,201z"/>
<path id="Fill-70" class="st5" d="M299,369.8c-6.9,3.8-14.6,6.6-22.1,8.7c-10.9,3-21.3,4.4-27.7,5.1c-4.2,0.4-6.7,0.5-6.7,0.5
	s-0.5-4.2-1.2-10.4c-1.8-15.4-5.1-42.7-5.3-45.8c-0.1-2.4-0.2-29.1-0.7-56c0-0.9,0-1.7-0.1-2.5c0-0.6,0-1.2,0-1.8c0-1,0-1.9-0.1-2.8
	c-0.2-11-0.5-21.8-0.9-30.5c0-1.1-0.1-2.3-0.2-3.3c-0.2-4.6-0.5-8.6-0.8-11.5c-0.3-2.8-0.6-5.9-0.8-9.1c0-0.3,0-0.7-0.1-1
	c-0.2-3.1-0.4-6.3-0.5-9.5c-0.2-4.5-0.4-9.2-0.5-13.7c-0.1-2.3-0.1-4.5-0.1-6.6c-0.3-13.6-0.2-24.4-0.2-24.4s0,0,0,0h0
	c0,0,0,0,0-0.1c7.2-8.9,15.2-25.9,20.6-38.8c0.7-1.7,1.4-3.2,1.9-4.7c2.9-7.1,4.7-12,4.7-12l3.5-2.9l6.1-5.1l1.7-1.4l9.5,3.6
	c0,0-0.1,1.5-0.2,4.1V98c-0.5,8.9-1.5,29.1-2.1,42.7c-0.2,5.2-0.4,9.5-0.5,11.7c-0.1,2.7,0.5,10.1,1.5,20c0.1,1.5,0.3,3,0.4,4.6
	c0,0.3,0.1,0.6,0.1,0.9c0.1,1.4,0.3,2.8,0.4,4.3c0.1,0.8,0.2,1.6,0.3,2.5c0.1,0.6,0.1,1.3,0.2,1.9c0.8,7.8,1.7,16.2,2.5,24.7
	c0.3,2.4,0.5,4.9,0.7,7.3c0.1,1,0.2,1.9,0.3,2.9c0.1,1.2,0.2,2.3,0.3,3.5c0.6,5.7,1.1,11.3,1.6,16.5c0.9,9.9,1.5,18.4,1.7,24.1
	c0.1,2.8,0.3,6.5,0.7,10.6c0.3,3.3,0.7,6.9,1.1,10.8c0.2,1.6,0.3,3.2,0.5,4.9c0.1,1.4,0.3,2.7,0.5,4.1c0,0.3,0.1,0.6,0.1,1
	c0.2,1.7,0.4,3.4,0.6,5.2c0.1,1.1,0.3,2.2,0.4,3.3c0.2,1.6,0.4,3.2,0.6,4.8c0.2,1.6,0.4,3.2,0.6,4.9c0.4,2.8,0.7,5.6,1.1,8.4
	c0.1,0.4,0.1,0.8,0.2,1.3c0.2,1.3,0.4,2.7,0.5,4C296.2,350.9,299,369.8,299,369.8"/>
<g id="Clip-73">
</g>
<defs>
	<filter id="Adobe_OpacityMaskFilter_1_" filterUnits="userSpaceOnUse" x="247" y="157" width="13" height="4">
		<feColorMatrix  type="matrix" values="1 0 0 0 0  0 1 0 0 0  0 0 1 0 0  0 0 0 1 0"/>
	</filter>
</defs>
<mask maskUnits="userSpaceOnUse" x="247" y="157" width="13" height="4" id="mask-4_1_">
	<g class="st19">
		<polygon id="path-3_1_" class="st5" points="121,591 307,591 307,0 121,0 		"/>
	</g>
</mask>
<polygon id="Fill-72" class="st20" points="247,161 260,161 260,157 247,157 "/>
<defs>
	<filter id="Adobe_OpacityMaskFilter_2_" filterUnits="userSpaceOnUse" x="231" y="137" width="54" height="110">
		<feColorMatrix  type="matrix" values="1 0 0 0 0  0 1 0 0 0  0 0 1 0 0  0 0 0 1 0"/>
	</filter>
</defs>
<mask maskUnits="userSpaceOnUse" x="231" y="137" width="54" height="110" id="mask-4_2_">
	<g class="st21">
		<polygon id="path-3_2_" class="st5" points="121,591 307,591 307,0 121,0 		"/>
	</g>
</mask>
<path id="Fill-74" class="st22" d="M279.8,239.7l-21.1-7.5l16,14.8l-40.8-12.8c0-1.1-0.1-2.2-0.2-3.3c-0.2-4.6-0.5-8.5-0.8-11.5
	c-0.3-2.8-0.6-5.9-0.8-9.1c0-0.3,0-0.7-0.1-1c-0.2-3.1-0.4-6.3-0.5-9.5c-0.2-4.5-0.4-9.2-0.5-13.7l9.8-4.5l24.3-11.2l5.2-33.4
	l0.1,0.1l2.5,1.5l4.1,2.3c-0.2,5.2-0.4,9.5-0.5,11.7c-0.1,2.7,0.5,10.1,1.5,20c0.1,1.5,0.3,3,0.4,4.6c0,0.3,0.1,0.6,0.1,0.9
	c0.1,1.4,0.3,2.8,0.4,4.3c0.1,0.8,0.2,1.6,0.3,2.5c0.1,0.6,0.1,1.3,0.2,1.9c0.8,7.8,1.7,16.2,2.5,24.7c0.3,2.4,0.5,4.9,0.8,7.3
	c0.1,1,0.2,1.9,0.3,2.9c0.1,1.2,0.2,2.3,0.3,3.5c0.6,5.7,1.1,11.3,1.6,16.5L279.8,239.7z"/>
<defs>
	<filter id="Adobe_OpacityMaskFilter_3_" filterUnits="userSpaceOnUse" x="230" y="88" width="39" height="67">
		<feColorMatrix  type="matrix" values="1 0 0 0 0  0 1 0 0 0  0 0 1 0 0  0 0 0 1 0"/>
	</filter>
</defs>
<mask maskUnits="userSpaceOnUse" x="230" y="88" width="39" height="67" id="mask-4_3_">
	<g class="st23">
		<polygon id="path-3_3_" class="st5" points="121,591 307,591 307,0 121,0 		"/>
	</g>
</mask>
<path id="Fill-75" class="st24" d="M266,88l3,1.9c0,0-1.9,26.4-6.6,36.2l-5,1.4l1.7,4.7c0,0-15.8,16.5-29,22.8
	c0,0,14.9-14.6,21.3-34.6C257.7,100.4,266,88,266,88"/>
<defs>
	<filter id="Adobe_OpacityMaskFilter_4_" filterUnits="userSpaceOnUse" x="230" y="82" width="38" height="73">
		<feColorMatrix  type="matrix" values="1 0 0 0 0  0 1 0 0 0  0 0 1 0 0  0 0 0 1 0"/>
	</filter>
</defs>
<mask maskUnits="userSpaceOnUse" x="230" y="82" width="38" height="73" id="mask-4_4_">
	<g class="st25">
		<polygon id="path-3_4_" class="st5" points="121,591 307,591 307,0 121,0 		"/>
	</g>
</mask>
<path id="Fill-76" class="st26" d="M256.9,82l11.1,5.1c0,0-3.3,26.4-8,37.9l-6.7,0.5l2.5,5.8c0,0-11.1,13.5-25.8,23.6
	C230,155,258,106.1,256.9,82"/>
<defs>
	<filter id="Adobe_OpacityMaskFilter_5_" filterUnits="userSpaceOnUse" x="193" y="89" width="21" height="64">
		<feColorMatrix  type="matrix" values="1 0 0 0 0  0 1 0 0 0  0 0 1 0 0  0 0 0 1 0"/>
	</filter>
</defs>
<mask maskUnits="userSpaceOnUse" x="193" y="89" width="21" height="64" id="mask-4_5_">
	<g class="st27">
		<polygon id="path-3_5_" class="st5" points="121,591 307,591 307,0 121,0 		"/>
	</g>
</mask>
<path id="Fill-77" class="st28" d="M198.2,89c0,0-5.2,14.2-5.2,24.3c0,10.1,7.6,32.8,21,39.7l-8.2-22.9l-2.3-26.7L198.2,89z"/>
<defs>
	<filter id="Adobe_OpacityMaskFilter_6_" filterUnits="userSpaceOnUse" x="195" y="82" width="19" height="71">
		<feColorMatrix  type="matrix" values="1 0 0 0 0  0 1 0 0 0  0 0 1 0 0  0 0 0 1 0"/>
	</filter>
</defs>
<mask maskUnits="userSpaceOnUse" x="195" y="82" width="19" height="71" id="mask-4_6_">
	<g class="st29">
		<polygon id="path-3_6_" class="st5" points="121,591 307,591 307,0 121,0 		"/>
	</g>
</mask>
<path id="Fill-78" class="st30" d="M214,153c0,0-12.9-41.4-3.9-71l-11.4,3.7c0,0-5.4,19.9-3.2,31.4l5.9,3.3l-4.8,3
	C196.6,123.5,202.5,143.3,214,153"/>
<defs>
	<filter id="Adobe_OpacityMaskFilter_7_" filterUnits="userSpaceOnUse" x="258" y="276" width="35" height="53">
		<feColorMatrix  type="matrix" values="1 0 0 0 0  0 1 0 0 0  0 0 1 0 0  0 0 0 1 0"/>
	</filter>
</defs>
<mask maskUnits="userSpaceOnUse" x="258" y="276" width="35" height="53" id="mask-4_7_">
	<g class="st31">
		<polygon id="path-3_7_" class="st5" points="121,591 307,591 307,0 121,0 		"/>
	</g>
</mask>
<path id="Fill-79" class="st32" d="M293,324.2c-4.2,1.6-12.3,4.5-15.2,4.7c-0.7,0-1.6,0-2.6-0.2c-4.1-0.7-9.8-2.9-10.2-3.1l0,0
	c0,0-2.5-11.2-4.6-24.8c-1-6.7-2-14.1-2.4-20.9c0,0,7.6-1,15.5-2c5.1-0.7,10.4-1.4,13.8-1.9c0.3,3.3,0.7,6.9,1.1,10.7
	c0.2,1.6,0.3,3.2,0.5,4.8c0.1,1.4,0.3,2.7,0.5,4.1c0,0.3,0.1,0.6,0.1,1c0.2,1.7,0.4,3.4,0.6,5.2c0.1,1.1,0.3,2.2,0.4,3.3
	c0.2,1.6,0.4,3.2,0.6,4.8c0.2,1.6,0.4,3.2,0.6,4.8c0.4,2.8,0.7,5.6,1.1,8.4C292.9,323.4,292.9,323.8,293,324.2"/>
<defs>
	<filter id="Adobe_OpacityMaskFilter_8_" filterUnits="userSpaceOnUse" x="162" y="277" width="25" height="47">
		<feColorMatrix  type="matrix" values="1 0 0 0 0  0 1 0 0 0  0 0 1 0 0  0 0 0 1 0"/>
	</filter>
</defs>
<mask maskUnits="userSpaceOnUse" x="162" y="277" width="25" height="47" id="mask-4_8_">
	<g class="st33">
		<polygon id="path-3_8_" class="st5" points="121,591 307,591 307,0 121,0 		"/>
	</g>
</mask>
<path id="Fill-80" class="st34" d="M165.1,277H187c0,0-4.1,37.6-7.5,42.9c-3.4,5.2-17.5,4-17.5,4L165.1,277z"/>
<defs>
	<filter id="Adobe_OpacityMaskFilter_9_" filterUnits="userSpaceOnUse" x="260" y="287" width="33" height="44">
		<feColorMatrix  type="matrix" values="1 0 0 0 0  0 1 0 0 0  0 0 1 0 0  0 0 0 1 0"/>
	</filter>
</defs>
<mask maskUnits="userSpaceOnUse" x="260" y="287" width="33" height="44" id="mask-4_9_">
	<g class="st35">
		<polygon id="path-3_9_" class="st5" points="121,591 307,591 307,0 121,0 		"/>
	</g>
</mask>
<path id="Fill-81" class="st36" d="M293,329.1c-6.5,0.9-16.3,2.2-17.7,1.9c-0.1,0-0.2-0.1-0.3-0.1c-2.4-0.6-8.2-1.9-10.2-4.3l0,0
	c-2-2.5-4.8-25.9-4.8-25.9s0.1,0.3,0.2,0.8c1,4,5.3,22,6.1,23.5c0.6,1.1,5.5,2.3,8.6,2.9c1.4,0.3,2.3,0.4,2.3,0.4l10.6-6.3
	l-2.7-14.4l-6.6-2.8l9-9.1l0.4-8.6c0.2,1.6,0.3,3.2,0.5,4.9c0.1,1.4,0.3,2.7,0.5,4.1c0,0.3,0.1,0.6,0.1,1c0.2,1.7,0.4,3.5,0.6,5.2
	c0.1,1.1,0.3,2.2,0.4,3.3c0.2,1.6,0.4,3.2,0.6,4.9c0.2,1.6,0.4,3.3,0.6,4.9c0.4,2.8,0.7,5.7,1.1,8.5c0.1,0.4,0.1,0.8,0.2,1.3
	C292.6,326.4,292.8,327.7,293,329.1"/>
<defs>
	<filter id="Adobe_OpacityMaskFilter_10_" filterUnits="userSpaceOnUse" x="162" y="297" width="22" height="27">
		<feColorMatrix  type="matrix" values="1 0 0 0 0  0 1 0 0 0  0 0 1 0 0  0 0 0 1 0"/>
	</filter>
</defs>
<mask maskUnits="userSpaceOnUse" x="162" y="297" width="22" height="27" id="mask-4_10_">
	<g class="st37">
		<polygon id="path-3_10_" class="st5" points="121,591 307,591 307,0 121,0 		"/>
	</g>
</mask>
<path id="Fill-82" class="st38" d="M184,297c0,0-1.6,21.8-4.6,24.5c-3,2.7-17.4,2.5-17.4,2.5l0.4-2.8c0,0,12.9,1.9,15.4-1.9
	C180.2,315.5,184,297,184,297"/>
<defs>
	<filter id="Adobe_OpacityMaskFilter_11_" filterUnits="userSpaceOnUse" x="177" y="275" width="10" height="10">
		<feColorMatrix  type="matrix" values="1 0 0 0 0  0 1 0 0 0  0 0 1 0 0  0 0 0 1 0"/>
	</filter>
</defs>
<mask maskUnits="userSpaceOnUse" x="177" y="275" width="10" height="10" id="mask-4_11_">
	<g class="st39">
		<polygon id="path-3_11_" class="st5" points="121,591 307,591 307,0 121,0 		"/>
	</g>
</mask>
<polygon id="Fill-83" class="st40" points="177,276.1 185.4,276.8 185.9,285 187,275 "/>
<defs>
	<filter id="Adobe_OpacityMaskFilter_12_" filterUnits="userSpaceOnUse" x="211" y="126" width="20" height="116">
		<feColorMatrix  type="matrix" values="1 0 0 0 0  0 1 0 0 0  0 0 1 0 0  0 0 0 1 0"/>
	</filter>
</defs>
<mask maskUnits="userSpaceOnUse" x="211" y="126" width="20" height="116" id="mask-4_12_">
	<g class="st41">
		<polygon id="path-3_12_" class="st5" points="121,591 307,591 307,0 121,0 		"/>
	</g>
</mask>
<path id="Fill-84" class="st42" d="M222.9,127c0,0-10.3,49.8-11.9,71.4c0,0,0.9,30.7,7.5,43.5c0,0,12.1-33.3,12.5-44.8l-2.2-70.2
	C228.8,127,225.2,124.7,222.9,127"/>
<defs>
	<filter id="Adobe_OpacityMaskFilter_13_" filterUnits="userSpaceOnUse" x="220" y="105" width="16" height="23">
		<feColorMatrix  type="matrix" values="1 0 0 0 0  0 1 0 0 0  0 0 1 0 0  0 0 0 1 0"/>
	</filter>
</defs>
<mask maskUnits="userSpaceOnUse" x="220" y="105" width="16" height="23" id="mask-4_13_">
	<g class="st43">
		<polygon id="path-3_13_" class="st5" points="121,591 307,591 307,0 121,0 		"/>
	</g>
</mask>
<path id="Fill-85" class="st44" d="M220,110.9c0,0,1.2,11.6,3.2,17.1c0,0,2.8-0.8,5.7,0c0,0,6.5-11,7.1-16.3
	c0.6-5.3-6.7-6.7-6.7-6.7l-8.5,2L220,110.9z"/>
<defs>
	<filter id="Adobe_OpacityMaskFilter_14_" filterUnits="userSpaceOnUse" x="229" y="78" width="28" height="37">
		<feColorMatrix  type="matrix" values="1 0 0 0 0  0 1 0 0 0  0 0 1 0 0  0 0 0 1 0"/>
	</filter>
</defs>
<mask maskUnits="userSpaceOnUse" x="229" y="78" width="28" height="37" id="mask-4_14_">
	<g class="st45">
		<polygon id="path-3_14_" class="st5" points="121,591 307,591 307,0 121,0 		"/>
	</g>
</mask>
<path id="Fill-86" class="st46" d="M229,104.4c0,0,4.5,4.9,7.3,10.6c0,0,19.5-12.6,20.7-32.9L246.1,78
	C246.1,78,243.6,95.1,229,104.4"/>
<defs>
	<filter id="Adobe_OpacityMaskFilter_15_" filterUnits="userSpaceOnUse" x="210" y="78" width="19" height="37">
		<feColorMatrix  type="matrix" values="1 0 0 0 0  0 1 0 0 0  0 0 1 0 0  0 0 0 1 0"/>
	</filter>
</defs>
<mask maskUnits="userSpaceOnUse" x="210" y="78" width="19" height="37" id="mask-4_15_">
	<g class="st47">
		<polygon id="path-3_15_" class="st5" points="121,591 307,591 307,0 121,0 		"/>
	</g>
</mask>
<path id="Fill-87" class="st48" d="M229,104.4c0,0-7.4,1.6-10.5,10.6c0,0-9.1-12.5-8.5-32.1l6.2-4.9C216.3,78,215,97.5,229,104.4"/>
<defs>
	<filter id="Adobe_OpacityMaskFilter_16_" filterUnits="userSpaceOnUse" x="141" y="86" width="92" height="131">
		<feColorMatrix  type="matrix" values="1 0 0 0 0  0 1 0 0 0  0 0 1 0 0  0 0 0 1 0"/>
	</filter>
</defs>
<mask maskUnits="userSpaceOnUse" x="141" y="86" width="92" height="131" id="mask-4_16_">
	<g class="st49">
		<polygon id="path-3_16_" class="st5" points="121,591 307,591 307,0 121,0 		"/>
	</g>
</mask>
<path id="Fill-88" class="st50" d="M233,208.7c0,0-7.3,1.2-17,2.6c-10.5,1.6-23.7,3.6-33.1,4.7c-18.1,2.2-32.3-0.3-32.3-0.3
	s-9-16.2-9.6-21.5c-0.6-5.2,23.3-87.7,28.5-96.3c0,0,15.3-8.8,28.5-12.1c0,0-9.8,13-15.3,29.3c-1,3-1.9,6.1-2.5,9.2
	c-4.1,20.4-6.3,65.7-6.3,65.7s47.2-5.1,54-6.5l2.3,11.2L233,208.7z"/>
<defs>
	<filter id="Adobe_OpacityMaskFilter_17_" filterUnits="userSpaceOnUse" x="158" y="202" width="59" height="7">
		<feColorMatrix  type="matrix" values="1 0 0 0 0  0 1 0 0 0  0 0 1 0 0  0 0 0 1 0"/>
	</filter>
</defs>
<mask maskUnits="userSpaceOnUse" x="158" y="202" width="59" height="7" id="mask-4_17_">
	<g class="st51">
		<polygon id="path-3_17_" class="st5" points="121,591 307,591 307,0 121,0 		"/>
	</g>
</mask>
<path id="Fill-89" class="st52" d="M158,206.9c0,0,31.4-0.5,52.1-4.9l6.9,4.9C217,206.9,176,211.6,158,206.9"/>
<defs>
	<filter id="Adobe_OpacityMaskFilter_18_" filterUnits="userSpaceOnUse" x="210" y="193" width="24" height="18">
		<feColorMatrix  type="matrix" values="1 0 0 0 0  0 1 0 0 0  0 0 1 0 0  0 0 0 1 0"/>
	</filter>
</defs>
<mask maskUnits="userSpaceOnUse" x="210" y="193" width="24" height="18" id="mask-4_18_">
	<g class="st53">
		<polygon id="path-3_18_" class="st5" points="121,591 307,591 307,0 121,0 		"/>
	</g>
</mask>
<path id="Fill-90" class="st54" d="M234,208.3c0,0-7.5,1.2-17.3,2.7l-6.7-9.4l16.5-8.6l4.6,1.4L234,208.3z"/>
<defs>
	<filter id="Adobe_OpacityMaskFilter_19_" filterUnits="userSpaceOnUse" x="157" y="109" width="26" height="81">
		<feColorMatrix  type="matrix" values="1 0 0 0 0  0 1 0 0 0  0 0 1 0 0  0 0 0 1 0"/>
	</filter>
</defs>
<mask maskUnits="userSpaceOnUse" x="157" y="109" width="26" height="81" id="mask-4_19_">
	<g class="st55">
		<polygon id="path-3_19_" class="st5" points="121,591 307,591 307,0 121,0 		"/>
	</g>
</mask>
<path id="Fill-91" class="st56" d="M183,115.5c-1,2.9-1.9,6-2.6,9.2c-4.2,20.2-6.4,65.3-6.4,65.3s-10.9-1.1-17,0l8.5-5.8l-4.3-15.3
	l7.2-0.5c0,0,1.7-41,14.4-59.4L183,115.5z"/>
<defs>
	<filter id="Adobe_OpacityMaskFilter_20_" filterUnits="userSpaceOnUse" x="180" y="177" width="42" height="21">
		<feColorMatrix  type="matrix" values="1 0 0 0 0  0 1 0 0 0  0 0 1 0 0  0 0 0 1 0"/>
	</filter>
</defs>
<mask maskUnits="userSpaceOnUse" x="180" y="177" width="42" height="21" id="mask-4_20_">
	<g class="st57">
		<polygon id="path-3_20_" class="st5" points="121,591 307,591 307,0 121,0 		"/>
	</g>
</mask>
<path id="Fill-92" class="st58" d="M222,180.7l-9,15.4l-1.1,1.9c0,0-13.2-4.4-17.9-5.9c-4.1-1.3-11.7-2-13.6-2.2c-0.3,0-0.4,0-0.4,0
	s1.4-1.4,3.5-3.3c3.6-3.2,9.3-7.9,13.8-9.1c6-1.8,19.1,1.6,23.3,2.8C221.5,180.6,222,180.7,222,180.7"/>
<defs>
	<filter id="Adobe_OpacityMaskFilter_21_" filterUnits="userSpaceOnUse" x="183" y="177" width="37" height="9">
		<feColorMatrix  type="matrix" values="1 0 0 0 0  0 1 0 0 0  0 0 1 0 0  0 0 0 1 0"/>
	</filter>
</defs>
<mask maskUnits="userSpaceOnUse" x="183" y="177" width="37" height="9" id="mask-4_21_">
	<g class="st59">
		<polygon id="path-3_21_" class="st5" points="121,591 307,591 307,0 121,0 		"/>
	</g>
</mask>
<path id="Fill-93" class="st60" d="M220,180.1l-0.7,1.1c0,0-12.1-3.7-17.9-3.5c-5.8,0.2-18.5,8.3-18.5,8.3c3.6-3,9.2-7.3,13.8-8.5
	C202.7,175.8,215.8,179,220,180.1"/>
<defs>
	<filter id="Adobe_OpacityMaskFilter_22_" filterUnits="userSpaceOnUse" x="180" y="184" width="34" height="13">
		<feColorMatrix  type="matrix" values="1 0 0 0 0  0 1 0 0 0  0 0 1 0 0  0 0 0 1 0"/>
	</filter>
</defs>
<mask maskUnits="userSpaceOnUse" x="180" y="184" width="34" height="13" id="mask-4_22_">
	<g class="st61">
		<polygon id="path-3_22_" class="st5" points="121,591 307,591 307,0 121,0 		"/>
	</g>
</mask>
<path id="Fill-94" class="st62" d="M214,184l-1.7,11.2l-1.1,1.8c0,0-13-4.3-17.7-5.7c-4.1-1.2-11.6-1.9-13.4-2.1
	c3-0.9,7.7-2.4,10.4-2.8c4.1-0.6,15.1,0.6,15.1,0.6L214,184z"/>
<defs>
	<filter id="Adobe_OpacityMaskFilter_23_" filterUnits="userSpaceOnUse" x="210" y="93" width="97" height="129">
		<feColorMatrix  type="matrix" values="1 0 0 0 0  0 1 0 0 0  0 0 1 0 0  0 0 0 1 0"/>
	</filter>
</defs>
<mask maskUnits="userSpaceOnUse" x="210" y="93" width="97" height="129" id="mask-4_23_">
	<g class="st63">
		<polygon id="path-3_23_" class="st5" points="121,591 307,591 307,0 121,0 		"/>
	</g>
</mask>
<path id="Fill-95" class="st64" d="M294.7,103.5c-4.1-5.5-15.9-10.5-15.9-10.5c-3,3.3-8.7,21.2-9,35.5c-0.2,9.4,1.9,31.3,3.3,45.1
	c0.7,7.1,1.3,12.1,1.3,12.1c-5.5,0.1-12.8-0.7-20.1-1.9c-15.7-2.5-31.6-6.6-31.6-6.6s-8.7,3.6-10.9,6.9c-2.2,3.3-1.9,18.1-1.9,18.1
	s12.6,4.4,28.4,10.2c15.8,5.8,52.7,11.3,56,9.4c3.3-1.9,12.6-14,12.6-15.4C307,204.8,298.8,109,294.7,103.5"/>
<defs>
	<filter id="Adobe_OpacityMaskFilter_24_" filterUnits="userSpaceOnUse" x="282" y="172" width="11" height="16">
		<feColorMatrix  type="matrix" values="1 0 0 0 0  0 1 0 0 0  0 0 1 0 0  0 0 0 1 0"/>
	</filter>
</defs>
<mask maskUnits="userSpaceOnUse" x="282" y="172" width="11" height="16" id="mask-4_24_">
	<g class="st65">
		<polygon id="path-3_24_" class="st5" points="121,591 307,591 307,0 121,0 		"/>
	</g>
</mask>
<path id="Fill-96" class="st66" d="M285.8,172c0,0,6.6,2.2,7.2,3.6c0.6,1.4-8.4,12.4-8.4,12.4l-2.6-9.5L285.8,172z"/>
<defs>
	<filter id="Adobe_OpacityMaskFilter_25_" filterUnits="userSpaceOnUse" x="242" y="206" width="62" height="13">
		<feColorMatrix  type="matrix" values="1 0 0 0 0  0 1 0 0 0  0 0 1 0 0  0 0 0 1 0"/>
	</filter>
</defs>
<mask maskUnits="userSpaceOnUse" x="242" y="206" width="62" height="13" id="mask-4_25_">
	<g class="st67">
		<polygon id="path-3_25_" class="st5" points="121,591 307,591 307,0 121,0 		"/>
	</g>
</mask>
<path id="Fill-97" class="st68" d="M242,210.2c0,0,42.4,1.3,47.7,0c5.3-1.3,14.3-4.2,14.3-4.2s-5.5,9.3-6.3,9.3
	c-0.8,0-13.7,1.3-13.7,1.3l9.9,1l-2.7,1.4C291.1,219,253.7,215.2,242,210.2"/>
<defs>
	<filter id="Adobe_OpacityMaskFilter_26_" filterUnits="userSpaceOnUse" x="271" y="96" width="9" height="22">
		<feColorMatrix  type="matrix" values="1 0 0 0 0  0 1 0 0 0  0 0 1 0 0  0 0 0 1 0"/>
	</filter>
</defs>
<mask maskUnits="userSpaceOnUse" x="271" y="96" width="9" height="22" id="mask-4_26_">
	<g class="st69">
		<polygon id="path-3_26_" class="st5" points="121,591 307,591 307,0 121,0 		"/>
	</g>
</mask>
<path id="Fill-98" class="st70" d="M271.1,118c0,0,1.9-15.8,8.9-22C280,96,270.2,101.2,271.1,118"/>
<defs>
	<filter id="Adobe_OpacityMaskFilter_27_" filterUnits="userSpaceOnUse" x="194" y="75" width="22" height="64">
		<feColorMatrix  type="matrix" values="1 0 0 0 0  0 1 0 0 0  0 0 1 0 0  0 0 0 1 0"/>
	</filter>
</defs>
<mask maskUnits="userSpaceOnUse" x="194" y="75" width="22" height="64" id="mask-4_27_">
	<g class="st71">
		<polygon id="path-3_27_" class="st5" points="121,591 307,591 307,0 121,0 		"/>
	</g>
</mask>
<path id="Fill-99" class="st72" d="M216,75c-0.1,0.6-0.2,1.2-0.3,1.8c-23.7,10-20,61.6-19.9,62.1l-1.5,0.1
	C194.1,136.7,190.4,84.5,216,75"/>
<defs>
	<filter id="Adobe_OpacityMaskFilter_28_" filterUnits="userSpaceOnUse" x="246" y="75" width="9" height="60">
		<feColorMatrix  type="matrix" values="1 0 0 0 0  0 1 0 0 0  0 0 1 0 0  0 0 0 1 0"/>
	</filter>
</defs>
<mask maskUnits="userSpaceOnUse" x="246" y="75" width="9" height="60" id="mask-4_28_">
	<g class="st73">
		<polygon id="path-3_28_" class="st5" points="121,591 307,591 307,0 121,0 		"/>
	</g>
</mask>
<path id="Fill-100" class="st74" d="M251.1,135l-1.5-0.2c0-0.4,5.2-41.1,3.5-47.8c-1.1-4.7-3.4-8.1-6.9-10.2L246,75
	c0.3,0.2,0.6,0.3,0.9,0.5c3.9,2.3,6.4,6,7.7,11.2C256.3,93.6,251.3,133.3,251.1,135"/>
<defs>
	<filter id="Adobe_OpacityMaskFilter_29_" filterUnits="userSpaceOnUse" x="244" y="133" width="11" height="11">
		<feColorMatrix  type="matrix" values="1 0 0 0 0  0 1 0 0 0  0 0 1 0 0  0 0 0 1 0"/>
	</filter>
</defs>
<mask maskUnits="userSpaceOnUse" x="244" y="133" width="11" height="11" id="mask-4_29_">
	<g class="st75">
		<polygon id="path-3_29_" class="st5" points="121,591 307,591 307,0 121,0 		"/>
	</g>
</mask>
<path id="Fill-101" class="st76" d="M255,138.5c0,3-2.5,5.5-5.5,5.5c-3,0-5.5-2.5-5.5-5.5c0-3,2.5-5.5,5.5-5.5
	C252.5,133,255,135.5,255,138.5"/>
<defs>
	<filter id="Adobe_OpacityMaskFilter_30_" filterUnits="userSpaceOnUse" x="246" y="136" width="6" height="6">
		<feColorMatrix  type="matrix" values="1 0 0 0 0  0 1 0 0 0  0 0 1 0 0  0 0 0 1 0"/>
	</filter>
</defs>
<mask maskUnits="userSpaceOnUse" x="246" y="136" width="6" height="6" id="mask-4_30_">
	<g class="st77">
		<polygon id="path-3_30_" class="st5" points="121,591 307,591 307,0 121,0 		"/>
	</g>
</mask>
<path id="Fill-102" class="st78" d="M252,139c0,1.7-1.3,3-3,3c-1.7,0-3-1.3-3-3s1.3-3,3-3C250.7,136,252,137.3,252,139"/>
<defs>
	<filter id="Adobe_OpacityMaskFilter_31_" filterUnits="userSpaceOnUse" x="188" y="138" width="19" height="26">
		<feColorMatrix  type="matrix" values="1 0 0 0 0  0 1 0 0 0  0 0 1 0 0  0 0 0 1 0"/>
	</filter>
</defs>
<mask maskUnits="userSpaceOnUse" x="188" y="138" width="19" height="26" id="mask-4_31_">
	<g class="st79">
		<polygon id="path-3_31_" class="st5" points="121,591 307,591 307,0 121,0 		"/>
	</g>
</mask>
<path id="Fill-103" class="st80" d="M188.5,164c-0.1-0.7-2.2-17.4,2.8-23.7c1.1-1.4,2.5-2.2,4.2-2.3c3.1-0.1,5.7,1,7.6,3.1
	c5.9,6.6,3.4,21.6,3.3,22.2l-1.5-0.2c0-0.1,2.4-14.9-3-21c-1.6-1.8-3.7-2.7-6.3-2.6c-1.2,0.1-2.2,0.7-3.1,1.8
	c-4.6,5.7-2.5,22.4-2.5,22.5L188.5,164z"/>
<defs>
	<filter id="Adobe_OpacityMaskFilter_32_" filterUnits="userSpaceOnUse" x="187" y="162" width="5" height="5">
		<feColorMatrix  type="matrix" values="1 0 0 0 0  0 1 0 0 0  0 0 1 0 0  0 0 0 1 0"/>
	</filter>
</defs>
<mask maskUnits="userSpaceOnUse" x="187" y="162" width="5" height="5" id="mask-4_32_">
	<g class="st81">
		<polygon id="path-3_32_" class="st5" points="121,591 307,591 307,0 121,0 		"/>
	</g>
</mask>
<path id="Fill-104" class="st82" d="M192,164.5c0,1.4-1.1,2.5-2.5,2.5c-1.4,0-2.5-1.1-2.5-2.5c0-1.4,1.1-2.5,2.5-2.5
	C190.9,162,192,163.1,192,164.5"/>
<defs>
	<filter id="Adobe_OpacityMaskFilter_33_" filterUnits="userSpaceOnUse" x="202" y="162" width="5" height="5">
		<feColorMatrix  type="matrix" values="1 0 0 0 0  0 1 0 0 0  0 0 1 0 0  0 0 0 1 0"/>
	</filter>
</defs>
<mask maskUnits="userSpaceOnUse" x="202" y="162" width="5" height="5" id="mask-4_33_">
	<g class="st83">
		<polygon id="path-3_33_" class="st5" points="121,591 307,591 307,0 121,0 		"/>
	</g>
</mask>
<path id="Fill-105" class="st84" d="M207,164.5c0,1.4-1.1,2.5-2.5,2.5c-1.4,0-2.5-1.1-2.5-2.5s1.1-2.5,2.5-2.5
	C205.9,162,207,163.1,207,164.5"/>
<defs>
	<filter id="Adobe_OpacityMaskFilter_34_" filterUnits="userSpaceOnUse" x="194" y="114" width="4" height="18">
		<feColorMatrix  type="matrix" values="1 0 0 0 0  0 1 0 0 0  0 0 1 0 0  0 0 0 1 0"/>
	</filter>
</defs>
<mask maskUnits="userSpaceOnUse" x="194" y="114" width="4" height="18" id="mask-4_34_">
	<g class="st85">
		<polygon id="path-3_34_" class="st5" points="121,591 307,591 307,0 121,0 		"/>
	</g>
</mask>
<path id="Fill-106" class="st86" d="M195.7,132c-0.8,0-1.5-0.6-1.6-1.4c-0.4-4.5,0.6-14.7,0.7-15.1c0.1-0.9,0.9-1.5,1.8-1.4
	c0.9,0.1,1.5,0.9,1.4,1.7c0,0.1-1.1,10.4-0.7,14.5c0.1,0.9-0.6,1.6-1.5,1.7C195.8,132,195.7,132,195.7,132"/>
<defs>
	<filter id="Adobe_OpacityMaskFilter_35_" filterUnits="userSpaceOnUse" x="253" y="171" width="33" height="17">
		<feColorMatrix  type="matrix" values="1 0 0 0 0  0 1 0 0 0  0 0 1 0 0  0 0 0 1 0"/>
	</filter>
</defs>
<mask maskUnits="userSpaceOnUse" x="253" y="171" width="33" height="17" id="mask-4_35_">
	<g class="st87">
		<polygon id="path-3_35_" class="st5" points="121,591 307,591 307,0 121,0 		"/>
	</g>
</mask>
<path id="Fill-107" class="st88" d="M285.9,182.2c-0.1,0.8-0.5,1.8-0.8,2.7c-0.6,1.6-1.3,3.1-1.3,3.1s-4.4-2.1-10.1-2.6
	c-2.8,0-6-0.2-9.5-0.5h0c-3.1-0.3-6.4-0.8-9.7-1.3c-0.5-0.1-1-0.2-1.5-0.2c2.1-1.6,11.3-8.7,19.3-10.6c0,0,0.1,0,0.1,0
	c9.1-2.2,11-1.8,11.8-1.5c0.7,0.2,1.1,0.8,1.2,1.6c0,0.2,0,0.3,0,0.5c0,0.4-0.1,1-0.2,1.4c-0.2,0.7-0.4,1.2-0.4,1.2v0
	C285,176.3,286.3,179.9,285.9,182.2"/>
<defs>
	<filter id="Adobe_OpacityMaskFilter_36_" filterUnits="userSpaceOnUse" x="253" y="172" width="33" height="12">
		<feColorMatrix  type="matrix" values="1 0 0 0 0  0 1 0 0 0  0 0 1 0 0  0 0 0 1 0"/>
	</filter>
</defs>
<mask maskUnits="userSpaceOnUse" x="253" y="172" width="33" height="12" id="mask-4_36_">
	<g class="st89">
		<polygon id="path-3_36_" class="st5" points="121,591 307,591 307,0 121,0 		"/>
	</g>
</mask>
<path id="Fill-108" class="st90" d="M286,173.7c-2.6,0.1-13.3,0.4-16.2,1.3c-2.7,0.8-11.7,6.7-15.3,9c-0.5-0.1-1-0.1-1.5-0.2
	c2.1-1.6,11.5-8.3,19.7-10.1c0,0,0.1,0,0.1,0c9.2-2.1,11.2-1.7,12-1.4C285.5,172.4,285.9,172.9,286,173.7"/>
<defs>
	<filter id="Adobe_OpacityMaskFilter_37_" filterUnits="userSpaceOnUse" x="275" y="175" width="11" height="4">
		<feColorMatrix  type="matrix" values="1 0 0 0 0  0 1 0 0 0  0 0 1 0 0  0 0 0 1 0"/>
	</filter>
</defs>
<mask maskUnits="userSpaceOnUse" x="275" y="175" width="11" height="4" id="mask-4_37_">
	<g class="st91">
		<polygon id="path-3_37_" class="st5" points="121,591 307,591 307,0 121,0 		"/>
	</g>
</mask>
<path id="Fill-109" class="st92" d="M286,175c-0.2,0.6-0.4,1.2-0.4,1.2v0c-1.2,0.1-4.1,0.3-5.8,0.9c-1.9,0.6-4.5,1.8-4.8,1.9
	c0.4-0.3,3.5-2.9,6.3-3.4C282.9,175.3,284.6,175.1,286,175"/>
<defs>
	<filter id="Adobe_OpacityMaskFilter_38_" filterUnits="userSpaceOnUse" x="265" y="181" width="21" height="7">
		<feColorMatrix  type="matrix" values="1 0 0 0 0  0 1 0 0 0  0 0 1 0 0  0 0 0 1 0"/>
	</filter>
</defs>
<mask maskUnits="userSpaceOnUse" x="265" y="181" width="21" height="7" id="mask-4_38_">
	<g class="st93">
		<polygon id="path-3_38_" class="st5" points="121,591 307,591 307,0 121,0 		"/>
	</g>
</mask>
<path id="Fill-110" class="st94" d="M286,184.9c-0.6,1.7-1.3,3.1-1.3,3.1s-4.5-2.1-10.1-2.7c-2.8,0-6.1-0.2-9.5-0.5
	c2.4-0.4,8.8-1.5,10.9-2.3c2.6-1,7.4-1.6,7.4-1.6l0.8,0.4l-4.8,2.8c0,0,2.2,0,3.8,0.1C283.8,184.4,284.9,184.6,286,184.9"/>
<defs>
	<filter id="Adobe_OpacityMaskFilter_39_" filterUnits="userSpaceOnUse" x="240" y="151" width="59" height="134">
		<feColorMatrix  type="matrix" values="1 0 0 0 0  0 1 0 0 0  0 0 1 0 0  0 0 0 1 0"/>
	</filter>
</defs>
<mask maskUnits="userSpaceOnUse" x="240" y="151" width="59" height="134" id="mask-4_39_">
	<g class="st95">
		<polygon id="path-3_39_" class="st5" points="121,591 307,591 307,0 121,0 		"/>
	</g>
</mask>
<path id="Fill-111" class="st96" d="M299,173.3c0,0.3,0,0.7,0,1c-0.2,28.6-9.1,57.9-24.9,82.3c-7,10.9-15.2,20.4-24.3,28.4H240
	c1.7-1.2,3.4-2.5,5-3.9c10.4-8.5,19.7-19,27.6-31.2c15.9-24.5,24.7-53.7,24.9-82.3c0-0.3,0-0.7,0-1c0-5.2-0.3-10.5-0.9-15.6
	c0.4,0.4,0.7,0.9,0.8,1.5C298.5,159.3,299,166.3,299,173.3"/>
<defs>
	<filter id="Adobe_OpacityMaskFilter_40_" filterUnits="userSpaceOnUse" x="121" y="103" width="176" height="197">
		<feColorMatrix  type="matrix" values="1 0 0 0 0  0 1 0 0 0  0 0 1 0 0  0 0 0 1 0"/>
	</filter>
</defs>
<mask maskUnits="userSpaceOnUse" x="121" y="103" width="176" height="197" id="mask-4_40_">
	<g class="st97">
		<polygon id="path-3_40_" class="st5" points="121,591 307,591 307,0 121,0 		"/>
	</g>
</mask>
<path id="Fill-112" class="st98" d="M297,166.6c0,0.3,0,0.7,0,1c-0.2,28.5-9,57.7-24.7,82c-7.8,12.1-17,22.6-27.4,31.1
	c-10.2,8.3-21.1,14.5-32.6,18.4c-0.7,0.3-1.5,0.5-2.2,0.7c-0.1,0-0.2,0.1-0.3,0.1c-0.2,0-0.4,0-0.6,0c-0.3,0-0.6,0-0.9-0.1
	c-12.3-3.8-24-10.2-34.9-19.1c-10.4-8.5-19.6-18.9-27.5-31.1c-15.8-24.4-24.7-53.5-24.9-82c0-0.3,0-0.7,0-1c0-6.9,0.5-13.9,1.5-20.7
	c0.2-1.4,1.5-2.4,3-2.4c0.8,0,1.6,0,2.5,0c27.4,0,58.4-15.6,78.8-39.6c0.4-0.5,0.9-0.8,1.5-0.9c0.3-0.1,0.5-0.1,0.8-0.1
	c0.9,0,1.7,0.4,2.3,1.1c0.7,0.9,1.4,1.8,2.2,2.6c3.1,3.6,6.6,7,10.3,10.2c18.9,16.4,44.6,26.7,68.3,26.7c0.2,0,0.4,0,0.6,0
	c1.5,0,2.7,1,2.9,2.4c0.1,0.4,0.1,0.9,0.2,1.3c0.2,1.2,0.3,2.5,0.5,3.8C296.7,156.2,297,161.4,297,166.6"/>
<defs>
	<filter id="Adobe_OpacityMaskFilter_41_" filterUnits="userSpaceOnUse" x="127" y="109" width="165" height="184">
		<feColorMatrix  type="matrix" values="1 0 0 0 0  0 1 0 0 0  0 0 1 0 0  0 0 0 1 0"/>
	</filter>
</defs>
<mask maskUnits="userSpaceOnUse" x="127" y="109" width="165" height="184" id="mask-4_41_">
	<g class="st99">
		<polygon id="path-3_41_" class="st5" points="121,591 307,591 307,0 121,0 		"/>
	</g>
</mask>
<path id="Fill-113" class="st100" d="M286.6,169.3c-0.4,53.7-33.4,104.4-76.9,118.4c-43.7-14-76.8-64.7-77.2-118.4
	c0-0.3,0-0.6,0-0.9c0-5.5,0.4-10.9,1.1-16.3c13.7,0,28.4-3.8,42.5-11c6.7-3.4,13.2-7.6,19.2-12.3c5.2-4,9.9-8.5,14.2-13.1
	c9.1,10.5,20.9,19.4,34.4,25.9c7,3.4,14.3,6,21.6,7.8c6.8,1.7,13.5,2.6,20.1,2.7c0.7,5.4,1.1,10.9,1.1,16.4
	C286.6,168.7,286.6,169,286.6,169.3 M290.6,149.1c-0.2-1.3-1.3-2.2-2.7-2.2c-0.2,0-0.4,0-0.5,0c-27.6,0-58-14.8-75.7-36.9
	c-0.5-0.6-1.3-1-2.1-1c-0.8,0-1.6,0.3-2.1,1c-19.2,22.5-48.2,37-73.9,37c-0.8,0-1.5,0-2.3,0c-1.4,0-2.6,0.9-2.8,2.2
	c-1,6.3-1.4,12.8-1.4,19.3c0,0.3,0,0.6,0,1c0.2,26.6,8.5,53.8,23.3,76.6c7.4,11.3,16,21.1,25.8,29c10.2,8.3,21.2,14.3,32.7,17.9
	c0.3,0.1,0.6,0.1,0.8,0.1c0.3,0,0.6,0,0.8-0.1c11.5-3.6,22.5-9.6,32.7-17.9c9.7-7.9,18.3-17.7,25.7-29c14.8-22.8,23-50,23.2-76.6
	c0-0.3,0-0.6,0-1C292,161.9,291.5,155.4,290.6,149.1"/>
<defs>
	<filter id="Adobe_OpacityMaskFilter_42_" filterUnits="userSpaceOnUse" x="208" y="103" width="89" height="197">
		<feColorMatrix  type="matrix" values="1 0 0 0 0  0 1 0 0 0  0 0 1 0 0  0 0 0 1 0"/>
	</filter>
</defs>
<mask maskUnits="userSpaceOnUse" x="208" y="103" width="89" height="197" id="mask-4_42_">
	<g class="st101">
		<polygon id="path-3_42_" class="st5" points="121,591 307,591 307,0 121,0 		"/>
	</g>
</mask>
<path id="Fill-114" class="st102" d="M297,166.6c0,0.3,0,0.7,0,1c-0.2,28.5-9,57.7-24.8,82c-7.8,12.1-17.1,22.6-27.5,31.1
	c-2.5,2-5,3.9-7.6,5.7c-8.7,6-17.8,10.5-27.3,13.4c-0.3,0.1-0.6,0.1-0.9,0.1c-0.1,0-0.3,0-0.4,0c-0.2,0-0.3-0.1-0.5-0.1
	c0,0,0-196.8,0-196.8c0.3-0.1,0.5-0.1,0.8-0.1c0.9,0,1.7,0.4,2.3,1.1c18.9,23.6,51.4,39.5,80.9,39.5c0.2,0,0.4,0,0.6,0
	c1.5,0,2.7,1,2.9,2.4C296.5,152.7,297,159.7,297,166.6"/>
<path id="Fill-1_1_" class="st103" d="M57.5,312h6c-0.7-5.3-0.7-10.7,0-16h-6C58.2,301.3,58.2,306.7,57.5,312"/>
<path id="Fill-3_1_" class="st103" d="M38,318l5.5-3c-3.4-4.3-6.3-9-8.5-14l-5.5,3C32.9,308.4,35.8,313,38,318"/>
<path id="Fill-5_1_" class="st103" d="M25.5,334l3-5.5c-5-2.2-9.6-5-14-8.5l-3,5.5C16.5,327.8,21.1,330.6,25.5,334"/>
<path id="Fill-7_1_" class="st103" d="M21.5,353l0-6c-5.7,0.7-11.3,0.7-17,0l0,6C10.2,352.3,15.8,352.3,21.5,353"/>
<path id="Fill-9_1_" class="st103" d="M28.5,372.5l-3-5.5c-4.3,3.4-9,6.2-14,8.5l3,5.5C18.9,377.6,23.5,374.7,28.5,372.5"/>
<path id="Fill-11_1_" class="st103" d="M43.5,385l-5.5-3c-2.2,5-5,9.6-8.5,14l5.5,3C37.2,394,40.1,389.4,43.5,385"/>
<path id="Fill-13_1_" class="st103" d="M63.5,389l-6,0c0.7,5.3,0.7,10.7,0,16l6,0C62.8,399.7,62.8,394.3,63.5,389"/>
<path id="Fill-15_1_" class="st103" d="M83,382l-5.5,3c3.4,4.3,6.3,9,8.5,14l5.5-3C88.1,391.6,85.3,387,83,382"/>
<path id="Fill-17_1_" class="st103" d="M95.6,367l-3.1,5.5c5,2.2,9.6,5,14,8.5l3-5.5C104.5,373.3,99.9,370.4,95.6,367"/>
<path id="Fill-19_1_" class="st103" d="M99.5,347l0,6c5.7-0.7,11.3-0.7,17,0v-6C110.8,347.7,105.2,347.7,99.5,347"/>
<path id="Fill-21_1_" class="st103" d="M92.5,328.5l3,5.5c4.3-3.4,9-6.3,14-8.5l-3-5.5C102.1,323.4,97.5,326.3,92.5,328.5"/>
<path id="Fill-23_1_" class="st103" d="M77.5,314.9L83,318c2.2-5,5-9.6,8.5-14l-5.5-3C83.8,306,80.9,310.6,77.5,314.9"/>
<path id="Fill-25_1_" class="st103" d="M104.5,350.5c0,24-19.7,43.5-44,43.5c-24.3,0-44-19.5-44-43.5s19.7-43.5,44-43.5
	C84.8,307,104.5,326.5,104.5,350.5"/>
<path id="Fill-27_1_" class="st103" d="M104.5,350.5c0,5.2-0.9,10.2-2.6,14.9c-1.1,2.9-2.5,5.7-4.1,8.3c-5.4,8.5-13.7,15-23.5,18.1
	c-4.3,1.4-8.9,2.2-13.7,2.2c-24.3,0-44-19.5-44-43.5c0-4.7,0.8-9.3,2.2-13.6c3.2-9.7,9.8-17.9,18.3-23.2c2.6-1.7,5.5-3,8.4-4.1
	c4.7-1.7,9.8-2.6,15-2.6C84.8,307,104.5,326.5,104.5,350.5"/>
<path id="Fill-29_1_" class="st103" d="M76.5,378.1c0,4.8-0.8,9.4-2.2,13.7c-4.3,1.4-8.9,2.2-13.7,2.2c-24.3,0-44.1-19.7-44.1-44.1
	c0-4.8,0.8-9.4,2.2-13.7c4.3-1.4,8.9-2.2,13.7-2.2C56.8,334,76.5,353.7,76.5,378.1"/>
<path id="Fill-31_1_" class="st104" d="M104.5,349.8c0,5.3-0.9,10.3-2.6,15c-1.1,3-2.5,5.8-4.1,8.4c-6.8,4.3-14.8,6.8-23.4,6.8
	c-24.2,0-43.8-19.6-43.8-43.8c0-8.6,2.5-16.6,6.8-23.4c2.6-1.7,5.4-3.1,8.4-4.1c4.7-1.7,9.7-2.6,15-2.6
	C84.9,306,104.5,325.6,104.5,349.8"/>
<path id="Fill-33_1_" class="st103" d="M70.5,325.5c0,1.9-1.6,3.5-3.5,3.5c-1.9,0-3.5-1.6-3.5-3.5c0-1.9,1.6-3.5,3.5-3.5
	C68.9,322,70.5,323.6,70.5,325.5"/>
<path id="Fill-35_1_" class="st103" d="M95.5,357.5c0,1.9-1.6,3.5-3.5,3.5c-1.9,0-3.5-1.6-3.5-3.5c0-1.9,1.6-3.5,3.5-3.5
	C93.9,354,95.5,355.6,95.5,357.5"/>
<path id="Fill-37_1_" class="st103" d="M37.5,347.5c0,3.6-2.9,6.5-6.5,6.5s-6.5-2.9-6.5-6.5s2.9-6.5,6.5-6.5S37.5,343.9,37.5,347.5"
	/>
<path id="Fill-39_1_" class="st103" d="M74.5,339c0,2.8-2.2,5-5,5c-2.8,0-5-2.2-5-5s2.2-5,5-5C72.3,334,74.5,336.2,74.5,339"/>
<path id="Fill-41_1_" class="st103" d="M81.5,376.5c0,1.4-1.1,2.5-2.5,2.5c-1.4,0-2.5-1.1-2.5-2.5s1.1-2.5,2.5-2.5
	C80.4,374,81.5,375.1,81.5,376.5"/>
<path id="Fill-43_1_" class="st103" d="M49.5,327c0,3.3-2.7,6-6,6c-3.3,0-6-2.7-6-6c0-3.3,2.7-6,6-6C46.8,321,49.5,323.7,49.5,327"
	/>
<path id="Fill-45_1_" class="st103" d="M60.5,317.5c0,1.4-1.1,2.5-2.5,2.5c-1.4,0-2.5-1.1-2.5-2.5c0-1.4,1.1-2.5,2.5-2.5
	C59.4,315,60.5,316.1,60.5,317.5"/>
<path id="Fill-47_1_" class="st103" d="M91.5,329.5c0,1.4-1.1,2.5-2.5,2.5c-1.4,0-2.5-1.1-2.5-2.5c0-1.4,1.1-2.5,2.5-2.5
	C90.4,327,91.5,328.1,91.5,329.5"/>
<path id="Fill-49_1_" class="st103" d="M55.5,374c0,3.3-2.7,6-6,6c-3.3,0-6-2.7-6-6c0-3.3,2.7-6,6-6C52.8,368,55.5,370.7,55.5,374"
	/>
<path id="Fill-51" class="st103" d="M98.5,338.5c0,1.4-1.3,2.5-3,2.5s-3-1.1-3-2.5s1.3-2.5,3-2.5S98.5,337.1,98.5,338.5"/>
<path id="Fill-53" class="st103" d="M69.5,294c0,2.2-4.3,4-9.5,4s-9.5-1.8-9.5-4s4.3-4,9.5-4S69.5,291.8,69.5,294"/>
<path id="Fill-55" class="st103" d="M65.5,294c0,1.1-2.5,2-5.5,2c-3,0-5.5-0.9-5.5-2s2.5-2,5.5-2C63,292,65.5,292.9,65.5,294"/>
<path id="Fill-57" class="st103" d="M69.5,405c0,2.2-4.3,4-9.5,4s-9.5-1.8-9.5-4c0-2.2,4.3-4,9.5-4S69.5,402.8,69.5,405"/>
<path id="Fill-59" class="st103" d="M65.5,405c0,1.1-2.5,2-5.5,2c-3,0-5.5-0.9-5.5-2c0-1.1,2.5-2,5.5-2C63,403,65.5,403.9,65.5,405"
	/>
<path id="Fill-61" class="st103" d="M97.2,306.8c-1.2,2-5.8,1.4-10.3-1.2c-4.5-2.7-7.3-6.4-6.1-8.4c1.2-2,5.8-1.4,10.3,1.2
	S98.4,304.8,97.2,306.8"/>
<path id="Fill-63" class="st103" d="M93.4,304.4c-0.6,1.1-3.3,0.7-6-0.9c-2.7-1.6-4.4-3.8-3.7-4.9c0.6-1.1,3.3-0.7,6,0.9
	C92.3,301.1,94,303.3,93.4,304.4"/>
<path id="Fill-65" class="st103" d="M40.2,402.8c-1.2,2-5.8,1.4-10.3-1.2c-4.5-2.7-7.3-6.4-6.1-8.4s5.8-1.4,10.3,1.2
	C38.7,397.1,41.4,400.8,40.2,402.8"/>
<path id="Fill-67" class="st103" d="M36.4,400.4c-0.6,1.1-3.3,0.7-6-0.9c-2.7-1.6-4.4-3.8-3.7-4.9c0.6-1.1,3.3-0.7,6,0.9
	C35.3,397.1,37,399.3,36.4,400.4"/>
<path id="Fill-69" class="st103" d="M114.2,330.8c-2,1.1-5.8-1.7-8.4-6.2c-2.6-4.6-3.1-9.2-1-10.3c2-1.1,5.8,1.7,8.4,6.2
	S116.3,329.6,114.2,330.8"/>
<path id="Fill-71" class="st103" d="M111.9,327.9c-1.1,0.6-3.3-1.1-4.9-3.8c-1.6-2.7-2-5.4-0.8-6c1.1-0.6,3.3,1.1,4.9,3.8
	C112.6,324.6,113,327.3,111.9,327.9"/>
<path id="Fill-73" class="st103" d="M16.2,384.8c-2,1.1-5.8-1.7-8.4-6.2c-2.6-4.6-3.1-9.2-1-10.3c2-1.1,5.8,1.7,8.4,6.2
	C17.8,379,18.3,383.6,16.2,384.8"/>
<path id="Fill-75_1_" class="st103" d="M13.9,381.9c-1.1,0.6-3.3-1.1-4.9-3.8c-1.6-2.7-2-5.4-0.8-6c1.1-0.6,3.3,1.1,4.9,3.8
	C14.6,378.6,15,381.3,13.9,381.9"/>
<path id="Fill-77_1_" class="st103" d="M116.3,360c-2.2,0-3.9-4.3-3.8-9.6c0.1-5.2,2-9.5,4.2-9.4c2.2,0,3.9,4.3,3.8,9.6
	C120.4,355.8,118.5,360,116.3,360"/>
<path id="Fill-79_1_" class="st103" d="M116.4,356c-1.1,0-2-2.5-1.9-5.5c0.1-3,1-5.5,2.1-5.5c1.1,0,2,2.5,1.9,5.5
	C118.4,353.6,117.5,356,116.4,356"/>
<g id="Group-83" transform="translate(0.500000, 48.000000)">
	<g id="Clip-82">
	</g>
	<defs>
		<filter id="Adobe_OpacityMaskFilter_43_" filterUnits="userSpaceOnUse" x="0" y="290.9" width="8" height="19.1">
			<feColorMatrix  type="matrix" values="1 0 0 0 0  0 1 0 0 0  0 0 1 0 0  0 0 0 1 0"/>
		</filter>
	</defs>
	<mask maskUnits="userSpaceOnUse" x="0" y="290.9" width="8" height="19.1" id="mask-6_1_">
		<g class="st105">
			<polygon id="path-5_1_" class="st5" points="0,290.9 8,290.9 8,310 0,310 			"/>
		</g>
	</mask>
	<path id="Fill-81_1_" class="st106" d="M3.8,310c-2.2,0-3.9-4.4-3.8-9.6c0.1-5.3,2-9.5,4.2-9.4s3.9,4.4,3.8,9.6
		C7.9,305.8,6,310,3.8,310"/>
</g>
<path id="Fill-84_1_" class="st103" d="M4.4,354c-1.1,0-2-2.5-1.9-5.5c0.1-3,1-5.5,2.1-5.5s2,2.5,1.9,5.5C6.4,351.6,5.5,354,4.4,354
	"/>
<path id="Fill-86_1_" class="st103" d="M103.7,385.7c-2-1.1-1.5-5.7,1.1-10.3c2.6-4.6,6.4-7.3,8.4-6.2c2,1.1,1.5,5.7-1.1,10.3
	C109.5,384.1,105.7,386.9,103.7,385.7"/>
<path id="Fill-88_1_" class="st103" d="M106.1,381.9c-1.1-0.6-0.7-3.3,0.9-6c1.6-2.7,3.8-4.4,4.9-3.8c1.1,0.6,0.7,3.3-0.9,6
	C109.4,380.8,107.2,382.5,106.1,381.9"/>
<path id="Fill-90_1_" class="st103" d="M6.7,330.7c-2-1.1-1.5-5.7,1.1-10.3c2.6-4.6,6.4-7.3,8.4-6.2c2,1.1,1.5,5.7-1.1,10.3
	C12.5,329.1,8.7,331.9,6.7,330.7"/>
<path id="Fill-92_1_" class="st103" d="M9.1,326.9c-1.1-0.6-0.7-3.3,0.9-6s3.8-4.4,4.9-3.8c1.1,0.6,0.7,3.3-0.9,6
	C12.4,325.8,10.2,327.5,9.1,326.9"/>
<path id="Fill-94_1_" class="st103" d="M80.8,402.8c-1.2-2,1.6-5.7,6.1-8.4c4.5-2.7,9.2-3.2,10.3-1.3c1.2,2-1.6,5.7-6.1,8.4
	C86.6,404.2,81.9,404.8,80.8,402.8"/>
<path id="Fill-96_1_" class="st103" d="M83.6,400.4c-0.6-1.1,1-3.3,3.7-4.9c2.7-1.6,5.4-2,6-1c0.6,1.1-1,3.3-3.7,4.9
	C86.9,401.1,84.3,401.5,83.6,400.4"/>
<path id="Fill-98_1_" class="st103" d="M23.8,306.8c-1.2-2,1.6-5.7,6.1-8.4c4.5-2.7,9.2-3.2,10.3-1.3c1.2,2-1.6,5.7-6.1,8.4
	C29.6,308.2,24.9,308.8,23.8,306.8"/>
<path id="Fill-100_1_" class="st103" d="M26.6,304.4c-0.6-1.1,1-3.3,3.7-4.9s5.4-2,6-1c0.6,1.1-1,3.3-3.7,4.9S27.3,305.5,26.6,304.4
	"/>
<path id="Fill-1_3_" class="st103" d="M117,49h3c-0.3-2.7-0.3-5.3,0-8h-3C117.3,43.7,117.3,46.3,117,49"/>
<path id="Fill-3_3_" class="st103" d="M108.2,52l2.8-1.4c-1.7-2-3.1-4.2-4.2-6.6l-2.8,1.4C105.7,47.5,107.1,49.7,108.2,52"/>
<path id="Fill-5_3_" class="st103" d="M101.6,60l1.4-2.8c-2.3-1.1-4.5-2.5-6.6-4.2L95,55.8C97.3,56.9,99.5,58.3,101.6,60"/>
<path id="Fill-7_3_" class="st103" d="M99,69l0-3c-2.7,0.3-5.3,0.3-8,0l0,3C93.7,68.7,96.3,68.7,99,69"/>
<path id="Fill-9_3_" class="st103" d="M103,78.8l-1.4-2.8c-2,1.7-4.2,3.1-6.6,4.2l1.4,2.8C98.5,81.3,100.7,79.9,103,78.8"/>
<path id="Fill-11_3_" class="st103" d="M111,85.4l-2.8-1.4c-1.1,2.3-2.5,4.5-4.2,6.6l2.8,1.4C107.9,89.7,109.3,87.5,111,85.4"/>
<path id="Fill-13_3_" class="st103" d="M120,87l-3,0c0.3,2.7,0.3,5.3,0,8l3,0C119.7,92.3,119.7,89.7,120,87"/>
<path id="Fill-15_3_" class="st103" d="M129.8,84l-2.8,1.4c1.7,2,3.1,4.2,4.2,6.6l2.8-1.4C132.3,88.5,130.9,86.3,129.8,84"/>
<path id="Fill-17_3_" class="st103" d="M136.4,76l-1.4,2.8c2.3,1.1,4.5,2.5,6.6,4.2l1.4-2.8C140.7,79.1,138.5,77.7,136.4,76"/>
<path id="Fill-19_3_" class="st103" d="M139,66l0,3c2.7-0.3,5.3-0.3,8,0v-3C144.3,66.3,141.7,66.3,139,66"/>
<path id="Fill-21_3_" class="st103" d="M135,57.2l1.4,2.8c2-1.7,4.2-3.1,6.6-4.2l-1.4-2.8C139.5,54.7,137.3,56.1,135,57.2"/>
<path id="Fill-23_3_" class="st103" d="M127,50.6l2.8,1.4c1.1-2.3,2.5-4.5,4.2-6.6l-2.8-1.4C130.1,46.3,128.7,48.5,127,50.6"/>
<path id="Fill-25_3_" class="st103" d="M141,67.5c0,11.9-9.8,21.5-22,21.5c-12.1,0-22-9.6-22-21.5S106.8,46,119,46
	C131.2,46,141,55.6,141,67.5"/>
<path id="Fill-27_3_" class="st103" d="M141,67.5c0,2.6-0.5,5.1-1.3,7.3c-0.5,1.5-1.2,2.8-2.1,4.1c-2.7,4.2-6.8,7.4-11.7,9
	c-2.2,0.7-4.5,1.1-6.9,1.1c-12.2,0-22-9.6-22-21.5c0-2.3,0.4-4.6,1.1-6.7c1.6-4.8,4.9-8.8,9.2-11.5c1.3-0.8,2.7-1.5,4.2-2
	c2.3-0.8,4.9-1.3,7.5-1.3C131.2,46,141,55.6,141,67.5"/>
<path id="Fill-29_3_" class="st103" d="M127,82c0,2.4-0.4,4.7-1.1,6.9c-2.2,0.7-4.5,1.1-6.9,1.1c-12.2,0-22-9.9-22-22
	c0-2.4,0.4-4.7,1.1-6.9c2.2-0.7,4.5-1.1,6.9-1.1C117.1,60,127,69.9,127,82"/>
<path id="Fill-31_3_" class="st104" d="M141,67.9c0,2.6-0.5,5.2-1.3,7.5c-0.5,1.5-1.2,2.9-2.1,4.2c-3.4,2.1-7.4,3.4-11.7,3.4
	c-12.1,0-21.9-9.8-21.9-21.9c0-4.3,1.2-8.3,3.4-11.7c1.3-0.8,2.7-1.5,4.2-2.1c2.3-0.8,4.9-1.3,7.5-1.3C131.2,46,141,55.8,141,67.9"
	/>
<path id="Fill-33_3_" class="st103" d="M124,55.5c0,0.8-0.7,1.5-1.5,1.5c-0.8,0-1.5-0.7-1.5-1.5c0-0.8,0.7-1.5,1.5-1.5
	C123.3,54,124,54.7,124,55.5"/>
<path id="Fill-35_3_" class="st103" d="M136,71.5c0,0.8-0.7,1.5-1.5,1.5c-0.8,0-1.5-0.7-1.5-1.5c0-0.8,0.7-1.5,1.5-1.5
	C135.3,70,136,70.7,136,71.5"/>
<path id="Fill-37_3_" class="st103" d="M107,67c0,1.7-1.3,3-3,3s-3-1.3-3-3s1.3-3,3-3S107,65.3,107,67"/>
<path id="Fill-39_3_" class="st103" d="M126,62.5c0,1.4-1.1,2.5-2.5,2.5c-1.4,0-2.5-1.1-2.5-2.5c0-1.4,1.1-2.5,2.5-2.5
	C124.9,60,126,61.1,126,62.5"/>
<path id="Fill-41_3_" class="st103" d="M129,81c0,0.6-0.4,1-1,1c-0.6,0-1-0.4-1-1s0.4-1,1-1C128.6,80,129,80.4,129,81"/>
<path id="Fill-43_3_" class="st103" d="M114,56c0,1.7-1.3,3-3,3c-1.7,0-3-1.3-3-3c0-1.7,1.3-3,3-3C112.7,53,114,54.3,114,56"/>
<path id="Fill-45_3_" class="st103" d="M119,52c0,0.6-0.4,1-1,1c-0.6,0-1-0.4-1-1c0-0.6,0.4-1,1-1C118.6,51,119,51.4,119,52"/>
<path id="Fill-47_3_" class="st103" d="M134,58c0,0.6-0.4,1-1,1c-0.6,0-1-0.4-1-1c0-0.6,0.4-1,1-1C133.6,57,134,57.4,134,58"/>
<path id="Fill-49_3_" class="st103" d="M117,80c0,1.7-1.3,3-3,3c-1.7,0-3-1.3-3-3c0-1.7,1.3-3,3-3C115.7,77,117,78.3,117,80"/>
<path id="Fill-51_2_" class="st103" d="M138,62c0,0.6-0.7,1-1.5,1c-0.8,0-1.5-0.4-1.5-1s0.7-1,1.5-1C137.3,61,138,61.4,138,62"/>
<path id="Fill-53_2_" class="st103" d="M123,40c0,1.1-2,2-4.5,2s-4.5-0.9-4.5-2s2-2,4.5-2S123,38.9,123,40"/>
<path id="Fill-55_2_" class="st103" d="M121,40c0,0.6-1.1,1-2.5,1c-1.4,0-2.5-0.4-2.5-1s1.1-1,2.5-1C119.9,39,121,39.4,121,40"/>
<path id="Fill-57_2_" class="st103" d="M123,95c0,1.1-2,2-4.5,2s-4.5-0.9-4.5-2c0-1.1,2-2,4.5-2S123,93.9,123,95"/>
<path id="Fill-59_2_" class="st103" d="M121,95c0,0.6-1.1,1-2.5,1c-1.4,0-2.5-0.4-2.5-1c0-0.6,1.1-1,2.5-1C119.9,94,121,94.4,121,95
	"/>
<path id="Fill-61_2_" class="st103" d="M136.9,46.4c-0.5,1-2.7,0.7-4.9-0.6c-2.1-1.3-3.4-3.2-2.9-4.2c0.5-1,2.7-0.7,4.9,0.6
	C136.1,43.5,137.4,45.4,136.9,46.4"/>
<path id="Fill-63_2_" class="st103" d="M134.9,44.7c-0.3,0.5-1.7,0.3-3-0.4c-1.3-0.7-2.2-1.6-1.9-2.1c0.3-0.5,1.7-0.3,3,0.4
	C134.4,43.3,135.2,44.3,134.9,44.7"/>
<path id="Fill-65_2_" class="st103" d="M108.9,94.4c-0.5,1-2.7,0.7-4.9-0.6c-2.1-1.3-3.4-3.2-2.9-4.2s2.7-0.7,4.9,0.6
	C108.1,91.5,109.4,93.4,108.9,94.4"/>
<path id="Fill-67_2_" class="st103" d="M106.9,92.7c-0.3,0.5-1.7,0.3-3-0.4c-1.3-0.7-2.2-1.6-1.9-2.1c0.3-0.5,1.7-0.3,3,0.4
	C106.4,91.3,107.2,92.3,106.9,92.7"/>
<path id="Fill-69_2_" class="st103" d="M145.4,57.9c-1,0.5-2.9-0.8-4.2-2.9c-1.3-2.1-1.5-4.3-0.5-4.8c1-0.5,2.9,0.8,4.2,2.9
	C146.2,55.2,146.4,57.4,145.4,57.9"/>
<path id="Fill-71_2_" class="st103" d="M144.7,56.9c-0.5,0.3-1.4-0.6-2.1-1.9c-0.7-1.3-0.8-2.7-0.4-3c0.5-0.3,1.4,0.6,2.1,1.9
	C145,55.3,145.2,56.6,144.7,56.9"/>
<path id="Fill-73_2_" class="st103" d="M97.4,84.9c-1,0.5-2.9-0.8-4.2-2.9c-1.3-2.1-1.5-4.3-0.5-4.8c1-0.5,2.9,0.8,4.2,2.9
	C98.2,82.2,98.4,84.4,97.4,84.9"/>
<path id="Fill-75_3_" class="st103" d="M95.7,83.9c-0.5,0.3-1.4-0.6-2.1-1.9c-0.7-1.3-0.8-2.7-0.4-3c0.5-0.3,1.4,0.6,2.1,1.9
	C96,82.3,96.2,83.6,95.7,83.9"/>
<path id="Fill-77_3_" class="st103" d="M146.9,72c-1.1,0-2-2.1-1.9-4.5c0.1-2.5,1-4.5,2.1-4.5c1.1,0,2,2.1,1.9,4.5
	C148.9,70,148,72,146.9,72"/>
<path id="Fill-79_3_" class="st107" d="M146.9,70c-0.6,0-1-1.1-0.9-2.5c0-1.4,0.5-2.5,1-2.5c0.6,0,1,1.1,0.9,2.5
	C148,68.9,147.5,70,146.9,70"/>
<g id="Group-83_2_" transform="translate(0.000000, 24.000000)">
	<g id="Clip-82_2_">
	</g>
	<defs>
		<filter id="Adobe_OpacityMaskFilter_44_" filterUnits="userSpaceOnUse" x="89" y="38.4" width="4" height="9.5">
			<feColorMatrix  type="matrix" values="1 0 0 0 0  0 1 0 0 0  0 0 1 0 0  0 0 0 1 0"/>
		</filter>
	</defs>
	<mask maskUnits="userSpaceOnUse" x="89" y="38.4" width="4" height="9.5" id="mask-10_1_">
		<g class="st108">
			<polygon id="path-9_1_" class="st5" points="89,38.4 93,38.4 93,48 89,48 			"/>
		</g>
	</mask>
	<path id="Fill-81_3_" class="st109" d="M90.9,48c-1.1,0-2-2.2-1.9-4.8c0.1-2.6,1-4.7,2.1-4.7c1.1,0,2,2.2,1.9,4.8
		C92.9,45.9,92,48,90.9,48"/>
</g>
<path id="Fill-84_3_" class="st103" d="M90.9,70c-0.6,0-1-1.1-0.9-2.5c0-1.4,0.5-2.5,1-2.5c0.6,0,1,1.1,0.9,2.5
	C92,68.9,91.5,70,90.9,70"/>
<path id="Fill-86_3_" class="st103" d="M140.6,84.9c-1-0.5-0.7-2.7,0.6-4.8c1.3-2.1,3.2-3.4,4.2-2.9c1,0.5,0.7,2.7-0.6,4.8
	C143.5,84.1,141.6,85.4,140.6,84.9"/>
<path id="Fill-88_3_" class="st103" d="M142.3,83.9c-0.5-0.3-0.3-1.6,0.4-3c0.7-1.3,1.6-2.2,2.1-1.9c0.5,0.3,0.3,1.6-0.4,3
	C143.7,83.4,142.7,84.2,142.3,83.9"/>
<path id="Fill-90_3_" class="st103" d="M92.6,57.9c-1-0.5-0.7-2.7,0.6-4.8c1.3-2.1,3.2-3.4,4.2-2.9c1,0.5,0.7,2.7-0.6,4.8
	C95.5,57.1,93.6,58.4,92.6,57.9"/>
<path id="Fill-92_3_" class="st103" d="M93.3,55.9c-0.5-0.3-0.3-1.6,0.4-3c0.7-1.3,1.6-2.2,2.1-1.9c0.5,0.3,0.3,1.6-0.4,3
	C94.7,55.4,93.7,56.2,93.3,55.9"/>
<path id="Fill-94_3_" class="st103" d="M129.1,94.4c-0.5-1,0.7-2.9,2.9-4.2c2.1-1.3,4.3-1.6,4.9-0.6c0.6,1-0.7,2.9-2.9,4.2
	C131.9,95.1,129.7,95.4,129.1,94.4"/>
<path id="Fill-96_3_" class="st103" d="M130.1,92.7c-0.3-0.5,0.5-1.4,1.9-2.1c1.3-0.7,2.7-0.9,3-0.4c0.3,0.5-0.5,1.4-1.9,2.1
	C131.7,93,130.4,93.2,130.1,92.7"/>
<path id="Fill-98_3_" class="st103" d="M101.1,46.4c-0.5-1,0.7-2.9,2.9-4.2c2.1-1.3,4.3-1.6,4.9-0.6c0.6,1-0.7,2.9-2.9,4.2
	C103.9,47.1,101.7,47.4,101.1,46.4"/>
<path id="Fill-100_3_" class="st103" d="M102.1,44.7c-0.3-0.5,0.5-1.4,1.9-2.1c1.3-0.7,2.7-0.9,3-0.4c0.3,0.5-0.5,1.4-1.9,2.1
	C103.7,45,102.4,45.2,102.1,44.7"/>
<g>
	<path id="Fill-1_4_" class="st103" d="M335,307h3c-0.3-2.7-0.3-5.3,0-8h-3C335.3,301.7,335.3,304.3,335,307"/>
	<path id="Fill-3_4_" class="st103" d="M326.2,310l2.8-1.4c-1.7-2-3.1-4.2-4.2-6.6l-2.8,1.4C323.7,305.5,325.1,307.7,326.2,310"/>
	<path id="Fill-5_4_" class="st103" d="M319.6,318l1.4-2.8c-2.3-1.1-4.5-2.5-6.6-4.2l-1.4,2.8C315.3,314.9,317.5,316.3,319.6,318"/>
	<path id="Fill-7_4_" class="st103" d="M317,327l0-3c-2.7,0.3-5.3,0.3-8,0l0,3C311.7,326.7,314.3,326.7,317,327"/>
	<path id="Fill-9_4_" class="st103" d="M321,336.8l-1.4-2.8c-2,1.7-4.2,3.1-6.6,4.2l1.4,2.8C316.5,339.3,318.7,337.9,321,336.8"/>
	<path id="Fill-11_4_" class="st103" d="M329,343.4l-2.8-1.4c-1.1,2.3-2.5,4.5-4.2,6.6l2.8,1.4C325.9,347.7,327.3,345.5,329,343.4"
		/>
	<path id="Fill-13_4_" class="st103" d="M338,345l-3,0c0.3,2.7,0.3,5.3,0,8l3,0C337.7,350.3,337.7,347.7,338,345"/>
	<path id="Fill-15_4_" class="st103" d="M347.8,342l-2.8,1.4c1.7,2,3.1,4.2,4.2,6.6l2.8-1.4C350.3,346.5,348.9,344.3,347.8,342"/>
	<path id="Fill-17_4_" class="st103" d="M354.4,334l-1.4,2.8c2.3,1.1,4.5,2.5,6.6,4.2l1.4-2.8C358.7,337.1,356.5,335.7,354.4,334"/>
	<path id="Fill-19_4_" class="st103" d="M357,324l0,3c2.7-0.3,5.3-0.3,8,0v-3C362.3,324.3,359.7,324.3,357,324"/>
	<path id="Fill-21_4_" class="st103" d="M353,315.2l1.4,2.8c2-1.7,4.2-3.1,6.6-4.2l-1.4-2.8C357.5,312.7,355.3,314.1,353,315.2"/>
	<path id="Fill-23_4_" class="st103" d="M345,308.6l2.8,1.4c1.1-2.3,2.5-4.5,4.2-6.6l-2.8-1.4C348.1,304.3,346.7,306.5,345,308.6"/>
	<path id="Fill-25_4_" class="st103" d="M359,325.5c0,11.9-9.8,21.5-22,21.5c-12.1,0-22-9.6-22-21.5c0-11.9,9.8-21.5,22-21.5
		C349.2,304,359,313.6,359,325.5"/>
	<path id="Fill-27_4_" class="st103" d="M359,325.5c0,2.6-0.5,5.1-1.3,7.3c-0.5,1.5-1.2,2.8-2.1,4.1c-2.7,4.2-6.8,7.4-11.7,9
		c-2.2,0.7-4.5,1.1-6.9,1.1c-12.2,0-22-9.6-22-21.5c0-2.3,0.4-4.6,1.1-6.7c1.6-4.8,4.9-8.8,9.2-11.5c1.3-0.8,2.7-1.5,4.2-2
		c2.3-0.8,4.9-1.3,7.5-1.3C349.2,304,359,313.6,359,325.5"/>
	<path id="Fill-29_4_" class="st103" d="M345,340c0,2.4-0.4,4.7-1.1,6.9c-2.2,0.7-4.5,1.1-6.9,1.1c-12.2,0-22-9.9-22-22
		c0-2.4,0.4-4.7,1.1-6.9c2.2-0.7,4.5-1.1,6.9-1.1C335.1,318,345,327.9,345,340"/>
	<path id="Fill-31_4_" class="st104" d="M359,325.9c0,2.6-0.5,5.2-1.3,7.5c-0.5,1.5-1.2,2.9-2.1,4.2c-3.4,2.1-7.4,3.4-11.7,3.4
		c-12.1,0-21.9-9.8-21.9-21.9c0-4.3,1.2-8.3,3.4-11.7c1.3-0.8,2.7-1.5,4.2-2.1c2.3-0.8,4.9-1.3,7.5-1.3
		C349.2,304,359,313.8,359,325.9"/>
	<path id="Fill-33_4_" class="st103" d="M342,313.5c0,0.8-0.7,1.5-1.5,1.5c-0.8,0-1.5-0.7-1.5-1.5c0-0.8,0.7-1.5,1.5-1.5
		C341.3,312,342,312.7,342,313.5"/>
	<path id="Fill-35_4_" class="st103" d="M354,329.5c0,0.8-0.7,1.5-1.5,1.5c-0.8,0-1.5-0.7-1.5-1.5c0-0.8,0.7-1.5,1.5-1.5
		C353.3,328,354,328.7,354,329.5"/>
	<path id="Fill-37_4_" class="st103" d="M325,325c0,1.7-1.3,3-3,3s-3-1.3-3-3s1.3-3,3-3S325,323.3,325,325"/>
	<path id="Fill-39_4_" class="st103" d="M344,320.5c0,1.4-1.1,2.5-2.5,2.5c-1.4,0-2.5-1.1-2.5-2.5s1.1-2.5,2.5-2.5
		C342.9,318,344,319.1,344,320.5"/>
	<path id="Fill-41_4_" class="st103" d="M347,339c0,0.6-0.4,1-1,1c-0.6,0-1-0.4-1-1c0-0.6,0.4-1,1-1C346.6,338,347,338.4,347,339"/>
	<path id="Fill-43_4_" class="st103" d="M332,314c0,1.7-1.3,3-3,3c-1.7,0-3-1.3-3-3c0-1.7,1.3-3,3-3C330.7,311,332,312.3,332,314"/>
	<path id="Fill-45_4_" class="st103" d="M337,310c0,0.6-0.4,1-1,1c-0.6,0-1-0.4-1-1c0-0.6,0.4-1,1-1C336.6,309,337,309.4,337,310"/>
	<path id="Fill-47_4_" class="st103" d="M352,316c0,0.6-0.4,1-1,1c-0.6,0-1-0.4-1-1c0-0.6,0.4-1,1-1C351.6,315,352,315.4,352,316"/>
	<path id="Fill-49_4_" class="st103" d="M335,338c0,1.7-1.3,3-3,3c-1.7,0-3-1.3-3-3s1.3-3,3-3C333.7,335,335,336.3,335,338"/>
	<path id="Fill-51_3_" class="st103" d="M356,320c0,0.6-0.7,1-1.5,1s-1.5-0.4-1.5-1s0.7-1,1.5-1S356,319.4,356,320"/>
	<path id="Fill-53_3_" class="st103" d="M341,298c0,1.1-2,2-4.5,2s-4.5-0.9-4.5-2s2-2,4.5-2S341,296.9,341,298"/>
	<path id="Fill-55_3_" class="st103" d="M339,298c0,0.6-1.1,1-2.5,1c-1.4,0-2.5-0.4-2.5-1s1.1-1,2.5-1C337.9,297,339,297.4,339,298"
		/>
	<path id="Fill-57_3_" class="st103" d="M341,353c0,1.1-2,2-4.5,2s-4.5-0.9-4.5-2s2-2,4.5-2S341,351.9,341,353"/>
	<path id="Fill-59_3_" class="st103" d="M339,353c0,0.6-1.1,1-2.5,1c-1.4,0-2.5-0.4-2.5-1c0-0.6,1.1-1,2.5-1
		C337.9,352,339,352.4,339,353"/>
	<path id="Fill-61_3_" class="st103" d="M354.9,304.4c-0.5,1-2.7,0.7-4.9-0.6c-2.1-1.3-3.4-3.2-2.9-4.2c0.5-1,2.7-0.7,4.9,0.6
		C354.1,301.5,355.4,303.4,354.9,304.4"/>
	<path id="Fill-63_3_" class="st103" d="M352.9,302.7c-0.3,0.5-1.7,0.3-3-0.4c-1.3-0.7-2.2-1.6-1.9-2.1c0.3-0.5,1.7-0.3,3,0.4
		C352.4,301.3,353.2,302.3,352.9,302.7"/>
	<path id="Fill-65_3_" class="st103" d="M326.9,352.4c-0.5,1-2.7,0.7-4.9-0.6c-2.1-1.3-3.4-3.2-2.9-4.2s2.7-0.7,4.9,0.6
		C326.1,349.5,327.4,351.4,326.9,352.4"/>
	<path id="Fill-67_3_" class="st103" d="M324.9,350.7c-0.3,0.5-1.7,0.3-3-0.4c-1.3-0.7-2.2-1.6-1.9-2.1c0.3-0.5,1.7-0.3,3,0.4
		C324.4,349.3,325.2,350.3,324.9,350.7"/>
	<path id="Fill-69_3_" class="st103" d="M363.4,315.9c-1,0.5-2.9-0.8-4.2-2.9c-1.3-2.1-1.5-4.3-0.5-4.8c1-0.5,2.9,0.8,4.2,2.9
		C364.2,313.2,364.4,315.4,363.4,315.9"/>
	<path id="Fill-71_3_" class="st103" d="M362.7,314.9c-0.5,0.3-1.4-0.6-2.1-1.9c-0.7-1.3-0.8-2.7-0.4-3c0.5-0.3,1.4,0.6,2.1,1.9
		C363,313.3,363.2,314.6,362.7,314.9"/>
	<path id="Fill-73_3_" class="st103" d="M315.4,342.9c-1,0.5-2.9-0.8-4.2-2.9c-1.3-2.1-1.5-4.3-0.5-4.8c1-0.5,2.9,0.8,4.2,2.9
		C316.2,340.2,316.4,342.4,315.4,342.9"/>
	<path id="Fill-75_4_" class="st103" d="M313.7,341.9c-0.5,0.3-1.4-0.6-2.1-1.9c-0.7-1.3-0.8-2.7-0.4-3c0.5-0.3,1.4,0.6,2.1,1.9
		C314,340.3,314.2,341.6,313.7,341.9"/>
	<path id="Fill-77_4_" class="st103" d="M364.9,330c-1.1,0-2-2.1-1.9-4.5c0.1-2.5,1-4.5,2.1-4.5s2,2.1,1.9,4.5
		C366.9,328,366,330,364.9,330"/>
	<path id="Fill-79_4_" class="st103" d="M364.9,328c-0.6,0-1-1.1-0.9-2.5c0-1.4,0.5-2.5,1-2.5c0.6,0,1,1.1,0.9,2.5
		C366,326.9,365.5,328,364.9,328"/>
	<g id="Group-83_3_" transform="translate(0.000000, 24.000000)">
		<g id="Clip-82_3_">
		</g>
		<defs>
			<filter id="Adobe_OpacityMaskFilter_45_" filterUnits="userSpaceOnUse" x="307" y="296.4" width="4" height="9.5">
				<feColorMatrix  type="matrix" values="1 0 0 0 0  0 1 0 0 0  0 0 1 0 0  0 0 0 1 0"/>
			</filter>
		</defs>
		<mask maskUnits="userSpaceOnUse" x="307" y="296.4" width="4" height="9.5" id="mask-12_1_">
			<g class="st110">
				<polygon id="path-11_1_" class="st5" points="307,296.4 311,296.4 311,306 307,306 				"/>
			</g>
		</mask>
		<path id="Fill-81_4_" class="st111" d="M308.9,306c-1.1,0-2-2.2-1.9-4.8c0.1-2.6,1-4.7,2.1-4.7c1.1,0,2,2.2,1.9,4.8
			C310.9,303.9,310,306,308.9,306"/>
	</g>
	<path id="Fill-84_4_" class="st103" d="M308.9,328c-0.6,0-1-1.1-0.9-2.5c0-1.4,0.5-2.5,1-2.5c0.6,0,1,1.1,0.9,2.5
		C310,326.9,309.5,328,308.9,328"/>
	<path id="Fill-86_4_" class="st103" d="M358.6,342.9c-1-0.5-0.7-2.7,0.6-4.8c1.3-2.1,3.2-3.4,4.2-2.9c1,0.5,0.7,2.7-0.6,4.8
		C361.5,342.1,359.6,343.4,358.6,342.9"/>
	<path id="Fill-88_4_" class="st103" d="M360.3,341.9c-0.5-0.3-0.3-1.6,0.4-3c0.7-1.3,1.6-2.2,2.1-1.9c0.5,0.3,0.3,1.6-0.4,3
		C361.7,341.4,360.7,342.2,360.3,341.9"/>
	<path id="Fill-90_4_" class="st103" d="M310.6,315.9c-1-0.5-0.7-2.7,0.6-4.8c1.3-2.1,3.2-3.4,4.2-2.9c1,0.5,0.7,2.7-0.6,4.8
		C313.5,315.1,311.6,316.4,310.6,315.9"/>
	<path id="Fill-92_4_" class="st103" d="M311.3,313.9c-0.5-0.3-0.3-1.6,0.4-3c0.7-1.3,1.6-2.2,2.1-1.9c0.5,0.3,0.3,1.6-0.4,3
		C312.7,313.4,311.7,314.2,311.3,313.9"/>
	<path id="Fill-94_4_" class="st103" d="M347.1,352.4c-0.5-1,0.7-2.9,2.9-4.2c2.1-1.3,4.3-1.6,4.9-0.6c0.6,1-0.7,2.9-2.9,4.2
		C349.9,353.1,347.7,353.4,347.1,352.4"/>
	<path id="Fill-96_4_" class="st103" d="M348.1,350.7c-0.3-0.5,0.5-1.4,1.9-2.1c1.3-0.7,2.7-0.9,3-0.4c0.3,0.5-0.5,1.4-1.9,2.1
		C349.7,351,348.4,351.2,348.1,350.7"/>
	<path id="Fill-98_4_" class="st103" d="M319.1,304.4c-0.5-1,0.7-2.9,2.9-4.2c2.1-1.3,4.3-1.6,4.9-0.6c0.6,1-0.7,2.9-2.9,4.2
		C321.9,305.1,319.7,305.4,319.1,304.4"/>
	<path id="Fill-100_4_" class="st103" d="M320.1,302.7c-0.3-0.5,0.5-1.4,1.9-2.1c1.3-0.7,2.7-0.9,3-0.4c0.3,0.5-0.5,1.4-1.9,2.1
		S320.4,303.2,320.1,302.7"/>
</g>
<g>
	<path id="Fill-1_2_" class="st103" d="M206.6,181.3h3.6c-0.4-3.2-0.4-6.4,0-9.6h-3.6C207,174.9,207,178.1,206.6,181.3"/>
	<path id="Fill-3_2_" class="st103" d="M196.1,184.9l3.3-1.7c-2.1-2.4-3.8-5.1-5.1-7.9L191,177C193.1,179.5,194.8,182.1,196.1,184.9
		"/>
	<path id="Fill-5_2_" class="st103" d="M188.1,194.5l1.7-3.3c-2.8-1.3-5.4-3-7.9-5.1l-1.7,3.3C183,190.8,185.6,192.4,188.1,194.5"/>
	<path id="Fill-7_2_" class="st103" d="M185,205.3l0-3.6c-3.2,0.4-6.4,0.4-9.6,0l0,3.6C178.6,204.9,181.8,204.9,185,205.3"/>
	<path id="Fill-9_2_" class="st103" d="M189.8,217l-1.7-3.3c-2.4,2.1-5.1,3.7-7.9,5.1l1.7,3.3C184.4,220,187,218.3,189.8,217"/>
	<path id="Fill-11_2_" class="st103" d="M199.4,225l-3.3-1.7c-1.3,2.8-3,5.4-5.1,7.9l3.3,1.7C195.6,230.1,197.3,227.5,199.4,225"/>
	<path id="Fill-13_2_" class="st103" d="M210.2,226.9l-3.6,0c0.4,3.2,0.4,6.4,0,9.6l3.6,0C209.8,233.3,209.8,230.1,210.2,226.9"/>
	<path id="Fill-15_2_" class="st103" d="M221.9,223.3l-3.3,1.7c2.1,2.4,3.8,5.1,5.1,7.9l3.3-1.7
		C224.9,228.7,223.3,226.1,221.9,223.3"/>
	<path id="Fill-17_2_" class="st103" d="M229.9,213.7l-1.7,3.3c2.8,1.3,5.4,3,7.9,5.1l1.7-3.3C235,217.5,232.4,215.8,229.9,213.7"/>
	<path id="Fill-19_2_" class="st103" d="M233,201.7l0,3.6c3.2-0.4,6.4-0.4,9.6,0v-3.6C239.4,202.1,236.2,202.1,233,201.7"/>
	<path id="Fill-21_2_" class="st103" d="M228.2,191.2l1.7,3.3c2.4-2.1,5.1-3.8,7.9-5.1l-1.7-3.3C233.6,188.2,231,189.9,228.2,191.2"
		/>
	<path id="Fill-23_2_" class="st103" d="M218.6,183.2l3.3,1.7c1.3-2.8,3-5.4,5.1-7.9l-3.3-1.7C222.4,178.1,220.7,180.7,218.6,183.2"
		/>
	<path id="Fill-25_2_" class="st103" d="M235.4,203.5c0,14.2-11.8,25.8-26.4,25.8c-14.6,0-26.4-11.6-26.4-25.8s11.8-25.8,26.4-25.8
		C223.6,177.7,235.4,189.3,235.4,203.5"/>
	<path id="Fill-27_2_" class="st103" d="M235.4,203.5c0,3.1-0.6,6.1-1.6,8.8c-0.7,1.7-1.5,3.4-2.5,4.9c-3.2,5-8.2,8.9-14.1,10.8
		c-2.6,0.8-5.4,1.3-8.2,1.3c-14.6,0-26.4-11.6-26.4-25.8c0-2.8,0.5-5.5,1.3-8c1.9-5.7,5.9-10.6,11-13.8c1.6-1,3.3-1.8,5.1-2.4
		c2.8-1,5.9-1.5,9-1.5C223.6,177.7,235.4,189.3,235.4,203.5"/>
	<path id="Fill-29_2_" class="st103" d="M218.6,220.9c0,2.9-0.5,5.6-1.3,8.2c-2.6,0.9-5.4,1.3-8.2,1.3c-14.6,0-26.4-11.8-26.4-26.4
		c0-2.9,0.5-5.6,1.3-8.2c2.6-0.8,5.4-1.3,8.2-1.3C206.8,194.5,218.6,206.3,218.6,220.9"/>
	<path id="Fill-31_2_" class="st104" d="M235.4,204c0,3.2-0.6,6.2-1.6,9c-0.6,1.8-1.5,3.5-2.5,5c-4.1,2.6-8.9,4.1-14,4.1
		c-14.5,0-26.3-11.8-26.3-26.3c0-5.2,1.5-10,4.1-14c1.6-1,3.3-1.8,5-2.5c2.8-1,5.8-1.6,9-1.6C223.6,177.7,235.4,189.5,235.4,204"/>
	<path id="Fill-33_2_" class="st103" d="M215,189.1c0,1-0.8,1.8-1.8,1.8c-1,0-1.8-0.8-1.8-1.8c0-1,0.8-1.8,1.8-1.8
		C214.2,187.3,215,188.1,215,189.1"/>
	<path id="Fill-35_2_" class="st103" d="M229.4,208.3c0,1-0.8,1.8-1.8,1.8c-1,0-1.8-0.8-1.8-1.8c0-1,0.8-1.8,1.8-1.8
		C228.6,206.5,229.4,207.3,229.4,208.3"/>
	<path id="Fill-37_2_" class="st103" d="M194.6,202.9c0,2-1.6,3.6-3.6,3.6s-3.6-1.6-3.6-3.6s1.6-3.6,3.6-3.6
		S194.6,200.9,194.6,202.9"/>
	<path id="Fill-39_2_" class="st103" d="M217.4,197.5c0,1.7-1.3,3-3,3c-1.7,0-3-1.3-3-3s1.3-3,3-3
		C216.1,194.5,217.4,195.8,217.4,197.5"/>
	<path id="Fill-41_2_" class="st103" d="M221,219.7c0,0.7-0.5,1.2-1.2,1.2c-0.7,0-1.2-0.5-1.2-1.2c0-0.7,0.5-1.2,1.2-1.2
		C220.5,218.5,221,219,221,219.7"/>
	<path id="Fill-43_2_" class="st103" d="M203,189.7c0,2-1.6,3.6-3.6,3.6c-2,0-3.6-1.6-3.6-3.6c0-2,1.6-3.6,3.6-3.6
		C201.4,186.1,203,187.7,203,189.7"/>
	<path id="Fill-45_2_" class="st103" d="M209,184.9c0,0.7-0.5,1.2-1.2,1.2c-0.7,0-1.2-0.5-1.2-1.2c0-0.7,0.5-1.2,1.2-1.2
		C208.5,183.7,209,184.2,209,184.9"/>
	<path id="Fill-47_2_" class="st103" d="M227,192.1c0,0.7-0.5,1.2-1.2,1.2c-0.7,0-1.2-0.5-1.2-1.2c0-0.7,0.5-1.2,1.2-1.2
		C226.5,190.9,227,191.4,227,192.1"/>
	<path id="Fill-49_2_" class="st103" d="M206.6,218.5c0,2-1.6,3.6-3.6,3.6c-2,0-3.6-1.6-3.6-3.6s1.6-3.6,3.6-3.6
		C205,214.9,206.6,216.5,206.6,218.5"/>
	<path id="Fill-51_1_" class="st103" d="M231.8,196.9c0,0.7-0.8,1.2-1.8,1.2c-1,0-1.8-0.5-1.8-1.2s0.8-1.2,1.8-1.2
		C231,195.7,231.8,196.2,231.8,196.9"/>
	<path id="Fill-53_1_" class="st103" d="M213.8,170.5c0,1.3-2.4,2.4-5.4,2.4c-3,0-5.4-1.1-5.4-2.4s2.4-2.4,5.4-2.4
		C211.4,168.1,213.8,169.2,213.8,170.5"/>
	<path id="Fill-55_1_" class="st103" d="M211.4,170.5c0,0.7-1.3,1.2-3,1.2c-1.7,0-3-0.5-3-1.2s1.3-1.2,3-1.2
		C210.1,169.3,211.4,169.8,211.4,170.5"/>
	<path id="Fill-57_1_" class="st103" d="M213.8,236.5c0,1.3-2.4,2.4-5.4,2.4c-3,0-5.4-1.1-5.4-2.4c0-1.3,2.4-2.4,5.4-2.4
		C211.4,234.1,213.8,235.2,213.8,236.5"/>
	<path id="Fill-59_1_" class="st103" d="M211.4,236.5c0,0.7-1.3,1.2-3,1.2c-1.7,0-3-0.5-3-1.2c0-0.7,1.3-1.2,3-1.2
		C210.1,235.3,211.4,235.8,211.4,236.5"/>
	<path id="Fill-61_1_" class="st103" d="M230.4,178.2c-0.7,1.2-3.3,0.9-5.8-0.7c-2.6-1.6-4.1-3.9-3.5-5c0.7-1.2,3.3-0.9,5.8,0.7
		C229.6,174.7,231.1,177,230.4,178.2"/>
	<path id="Fill-63_1_" class="st103" d="M228.1,176.2c-0.4,0.6-2,0.3-3.6-0.5c-1.6-0.8-2.6-1.9-2.2-2.5c0.4-0.6,2-0.3,3.6,0.5
		C227.5,174.5,228.5,175.6,228.1,176.2"/>
	<path id="Fill-65_1_" class="st103" d="M196.8,235.8c-0.7,1.2-3.3,0.9-5.8-0.7c-2.6-1.6-4.1-3.9-3.5-5s3.3-0.9,5.8,0.7
		C196,232.3,197.5,234.6,196.8,235.8"/>
	<path id="Fill-67_1_" class="st103" d="M194.5,233.8c-0.4,0.6-2,0.3-3.6-0.5c-1.6-0.8-2.6-1.9-2.2-2.5c0.4-0.6,2-0.3,3.6,0.5
		C193.9,232.1,194.9,233.2,194.5,233.8"/>
	<path id="Fill-69_1_" class="st103" d="M240.6,192c-1.2,0.6-3.5-1-5.1-3.5c-1.6-2.6-1.8-5.2-0.6-5.8c1.2-0.6,3.5,0.9,5.1,3.5
		S241.9,191.3,240.6,192"/>
	<path id="Fill-71_1_" class="st103" d="M239.9,190.8c-0.6,0.4-1.7-0.7-2.5-2.3c-0.8-1.6-1-3.2-0.4-3.6c0.6-0.4,1.7,0.7,2.5,2.3
		C240.3,188.9,240.4,190.5,239.9,190.8"/>
	<path id="Fill-73_1_" class="st103" d="M183,224.4c-1.2,0.6-3.5-0.9-5.1-3.5c-1.6-2.6-1.9-5.2-0.6-5.8c1.2-0.6,3.5,0.9,5.1,3.5
		C184,221.1,184.3,223.7,183,224.4"/>
	<path id="Fill-75_2_" class="st103" d="M181.1,223.2c-0.6,0.4-1.7-0.7-2.5-2.3c-0.8-1.6-1-3.2-0.4-3.6c0.6-0.4,1.7,0.7,2.5,2.3
		C181.5,221.3,181.6,222.9,181.1,223.2"/>
	<path id="Fill-77_2_" class="st103" d="M242.5,208.9c-1.3,0-2.3-2.5-2.3-5.4c0.1-3,1.2-5.4,2.5-5.4c1.3,0,2.3,2.5,2.3,5.4
		C244.9,206.5,243.8,208.9,242.5,208.9"/>
	<path id="Fill-79_2_" class="st103" d="M242.5,206.5c-0.7,0-1.2-1.4-1.1-3c0-1.7,0.6-3,1.3-3s1.2,1.4,1.1,3
		C243.8,205.2,243.2,206.5,242.5,206.5"/>
	<g id="Group-83_1_" transform="translate(0.000000, 24.000000)">
		<g id="Clip-82_1_">
		</g>
		<defs>
			<filter id="Adobe_OpacityMaskFilter_46_" filterUnits="userSpaceOnUse" x="173" y="173.4" width="4.8" height="11.4">
				<feColorMatrix  type="matrix" values="1 0 0 0 0  0 1 0 0 0  0 0 1 0 0  0 0 0 1 0"/>
			</filter>
		</defs>
		<mask maskUnits="userSpaceOnUse" x="173" y="173.4" width="4.8" height="11.4" id="mask-12_2_">
			<g class="st112">
				<polygon id="path-11_2_" class="st5" points="173,173.4 177.8,173.4 177.8,184.9 173,184.9 				"/>
			</g>
		</mask>
		<path id="Fill-81_2_" class="st113" d="M175.3,184.9c-1.3,0-2.3-2.6-2.3-5.8c0.1-3.2,1.2-5.7,2.5-5.7s2.3,2.6,2.3,5.8
			C177.7,182.4,176.6,184.9,175.3,184.9"/>
	</g>
	<path id="Fill-84_2_" class="st103" d="M175.3,206.5c-0.7,0-1.2-1.4-1.1-3c0-1.7,0.6-3,1.3-3s1.2,1.4,1.1,3
		C176.6,205.2,176,206.5,175.3,206.5"/>
	<path id="Fill-86_2_" class="st103" d="M234.9,224.4c-1.2-0.6-0.9-3.2,0.7-5.8c1.6-2.6,3.8-4.1,5-3.5c1.2,0.6,0.9,3.2-0.7,5.8
		C238.4,223.4,236.1,225,234.9,224.4"/>
	<path id="Fill-88_2_" class="st103" d="M236.9,223.2c-0.6-0.4-0.4-2,0.5-3.6c0.8-1.6,1.9-2.6,2.5-2.3c0.6,0.4,0.4,2-0.5,3.6
		C238.6,222.6,237.5,223.6,236.9,223.2"/>
	<path id="Fill-90_2_" class="st103" d="M177.3,192c-1.2-0.6-0.9-3.2,0.7-5.8c1.6-2.6,3.8-4.1,5-3.5c1.2,0.6,0.9,3.2-0.7,5.8
		C180.8,191,178.5,192.6,177.3,192"/>
	<path id="Fill-92_2_" class="st103" d="M178.1,189.6c-0.6-0.4-0.4-2,0.5-3.6s1.9-2.6,2.5-2.3c0.6,0.4,0.4,2-0.5,3.6
		C179.8,189,178.7,190,178.1,189.6"/>
	<path id="Fill-94_2_" class="st103" d="M221.2,235.8c-0.7-1.2,0.9-3.4,3.5-5c2.6-1.6,5.2-1.9,5.8-0.8c0.7,1.2-0.9,3.4-3.5,5
		C224.4,236.6,221.8,237,221.2,235.8"/>
	<path id="Fill-96_2_" class="st103" d="M222.3,233.8c-0.4-0.6,0.6-1.7,2.2-2.5c1.6-0.8,3.2-1,3.6-0.5c0.4,0.6-0.6,1.7-2.2,2.5
		C224.3,234.1,222.7,234.3,222.3,233.8"/>
	<path id="Fill-98_2_" class="st103" d="M187.6,178.2c-0.7-1.2,0.9-3.4,3.5-5c2.6-1.6,5.2-1.9,5.8-0.8c0.7,1.2-0.9,3.4-3.5,5
		C190.8,179,188.2,179.4,187.6,178.2"/>
	<path id="Fill-100_2_" class="st103" d="M188.7,176.2c-0.4-0.6,0.6-1.7,2.2-2.5c1.6-0.8,3.2-1,3.6-0.5c0.4,0.6-0.6,1.7-2.2,2.5
		C190.7,176.5,189.1,176.7,188.7,176.2"/>
</g>
</svg>
