<?xml version="1.0" encoding="utf-8"?>
<!-- Generator: Adobe Illustrator 22.1.0, SVG Export Plug-In . SVG Version: 6.00 Build 0)  -->
<svg version="1.1" id="Layer_1" xmlns="http://www.w3.org/2000/svg" xmlns:xlink="http://www.w3.org/1999/xlink" x="0px" y="0px"
	 viewBox="0 0 504 482" style="enable-background:new 0 0 504 482;" xml:space="preserve">
<style type="text/css">
	.st0{opacity:0.2656;}
	.st1{opacity:0.7;fill:#F646FF;enable-background:new    ;}
	.st2{filter:url(#Adobe_OpacityMaskFilter);}
	.st3{fill:#FFFFFF;}
	.st4{mask:url(#mask-2_2_);fill:#F646FF;}
	.st5{fill:none;stroke:#FFF0DE;stroke-width:1.33;}
	.st6{fill:#037CEA;}
	.st7{fill:#00ADFF;}
	.st8{enable-background:new    ;}
</style>
<title>Group 27</title>
<desc>Created with Sketch.</desc>
<g>
	<g id="Group-12-Copy-3" transform="translate(0.000000, 135.000000)" class="st0">
		<path id="Fill-1" class="st1" d="M32.6-26.5c0.6-12.1,2.4-24.6,9-34.8c9.9-15,28.8-21.9,46.9-22.6c28.5-1.1,56,10.6,80.7,24.9
			c24.7,14.3,47.8,31.3,74.1,42.5c48.1,20.6,102.1,19.9,154.3,24c17.2,1.3,35.5,3.7,48.8,14.6c11.1,9.1,17.2,23.2,19.4,37.3
			c5.8,37.2-13.3,75.3-42,99.8c-28.8,24.5-66,37.2-103.2,44.5c-41.4,8.1-84.5,10.2-125.5,0.2c-76.8-18.8-131.8-79-153.3-153.1
			C34.4,25.7,31.3-0.5,32.6-26.5"/>
		<g id="Group-5">
			<g id="Clip-4">
			</g>
			<defs>
				<filter id="Adobe_OpacityMaskFilter" filterUnits="userSpaceOnUse" x="3" y="-83.6" width="492.9" height="378.5">
					<feColorMatrix  type="matrix" values="1 0 0 0 0  0 1 0 0 0  0 0 1 0 0  0 0 0 1 0"/>
				</filter>
			</defs>
			<mask maskUnits="userSpaceOnUse" x="3" y="-83.6" width="492.9" height="378.5" id="mask-2_2_">
				<g class="st2">
					<polygon id="path-1_2_" class="st3" points="3,-83.6 495.9,-83.6 495.9,294.9 3,294.9 					"/>
				</g>
			</mask>
			<path id="Fill-3" class="st4" d="M274-24.3c39.1-24.6,78.1-54,124.1-58.7c15.1-1.5,30.8-0.2,44.5,6.4c19.2,9.3,32.4,28,40.4,47.8
				c17.7,43.5,14.1,92.5,7.4,139c-4.8,33.1-11.2,66.7-28.1,95.6c-22.8,39.1-63.2,66-106.8,78.7c-43.5,12.7-90,12.4-134.9,6
				c-44-6.2-87.8-18.4-125.9-41.2s-70.4-57-85.4-98.7c-5.5-15.3-8.7-32.2-4.1-47.8c13-43.8,83.8-45.4,119.2-57
				C176.9,28.6,227.3,5,274-24.3"/>
		</g>
		<path id="Stroke-6" class="st5" d="M276.1,250.2c-16,0-33.4-1.3-51.6-3.9c-44.5-6.3-80.4-18-109.8-35.6
			c-19-11.4-36.2-26.1-49.3-44c-9.8-13.3-32-45-14.6-59.5c5.2-4.4,12.1-6.2,18.8-7.6c10.2-2,20.5-3.8,30.7-5.9
			c12.6-2.6,24.5-5.1,35.4-8.7c56-18.4,109.6-43.6,159.3-74.9c5.9-3.7,11.9-7.6,17.6-11.3c30.3-19.6,58.9-38.2,87.9-41.1
			c2.3-0.2,4.5-0.4,6.6-0.4c5.9,0,10.9,0.9,14.5,2.7c16.9,8.2,23.5,34.8,26.2,51.6c8.7,53.7,1.7,137.2-32.6,182
			C382.8,235.8,327.1,250.2,276.1,250.2z"/>
		<path id="Stroke-8" class="st5" d="M278.6,208.9c-32.9-0.1-68-6.1-98.7-15.4c-15.6-4.7-30.9-10.9-44.7-19.7
			c-3.2-2.1-37.1-31.4-33.7-33.5c6.4-3.8,13.9-5,21.2-6.5c52.5-10.5,102.1-31.8,148.9-57.5c19.9-10.9,39-23.3,58.5-34.8
			c8.3-4.9,65.3-45.2,73.3-38.7c1.8,1.5,2.4,3.9,2.9,6.2c5.8,28.3,3.5,62.7,0,91.4c-3.4,28-12.9,56.2-32.8,76.2
			c-20.4,20.4-49.7,29.9-78.5,31.7C289.6,208.7,284.1,208.9,278.6,208.9z"/>
		<path id="Stroke-10" class="st5" d="M278.2,164.1c-23,0-48.6-3.5-73.5-9.8c28.2-10.4,57.2-23.6,87.4-39.9
			c13.8-7.4,27-15.4,39.7-23c6.9-4.2,13.5-8.1,20.1-12c2.3-1.4,5.1-3.1,10.5-6.7c0.9-0.6,1.7-1.1,2.6-1.7
			c-0.5,7.5-1.3,15.6-2.4,24.1c-1.9,15.5-7.1,36.7-20.4,49.8c-10.9,10.7-28.8,17.4-50.4,18.7c-4.2,0.3-8.7,0.4-13.2,0.4L278.2,164.1
			z"/>
	</g>
	
		<g id="Group-50-Copy_1_" transform="translate(348.500000, 40.500000) scale(1, -1) rotate(43.000000) translate(-348.500000, -40.500000) translate(323.000000, 10.000000)">
		<path id="Fill-1_8_" class="st6" d="M-9.3-119.3c0.9-2,3.5-2.6,5.5-3.2c0.8-0.2,0.5-1.5-0.4-1.3c-2.5,0.7-5.4,1.5-6.4,4.1
			C-11-118.8-9.7-118.5-9.3-119.3"/>
		<path id="Fill-3_8_" class="st6" d="M-11.8-124.6c-0.8-1.8,0.3-3.9,1-5.5c0.3-0.7-0.6-1.3-1-0.6c-1,2.1-2,4.4-1,6.7
			C-12.5-123.3-11.5-123.9-11.8-124.6"/>
		<g id="Group-7_6_" transform="translate(17.000000, 0.000000)">
			<g id="Clip-6_6_">
			</g>
			<path id="Fill-5_6_" class="st6" d="M-38.8-125.9c-1.5-1.6-0.7-3.8-0.2-5.6c0.2-0.7-1.1-1-1.3-0.3c-0.6,2.1-1.4,4.6,0.3,6.5
				C-39.5-124.7-38.3-125.3-38.8-125.9"/>
		</g>
		<path id="Fill-8_7_" class="st6" d="M-30.4-123.5c-1.3-1.3-1.3-3.7-1.3-5.7c0-0.8-1-0.8-1,0c0,2.3,0,5,1.6,6.6
			C-30.6-122.2-29.9-123-30.4-123.5"/>
		<path id="Fill-10_7_" class="st6" d="M-36.9-117.8c-2-0.2-3.3-2.6-4.3-4.4c-0.4-0.7-1.5,0-1.1,0.7c1.3,2.3,2.8,4.8,5.4,5.1
			C-36.1-116.3-36.1-117.8-36.9-117.8"/>
		<path id="Fill-12_7_" class="st6" d="M-38.3-111.4c-2,0.5-4-0.5-5.7-1.3c-0.7-0.3-1.3,0.5-0.6,0.8c2,0.9,4.2,2,6.6,1.4
			C-37.2-110.7-37.5-111.6-38.3-111.4"/>
		<path id="Fill-14_7_" class="st6" d="M-36.3-105.1c-1.1,2.3-3.6,2.6-5.6,3.1c-0.8,0.2-0.5,1.6,0.3,1.4c2.4-0.5,5.2-1.1,6.4-3.8
			C-34.8-105.2-35.9-105.9-36.3-105.1"/>
		<path id="Fill-16_7_" class="st6" d="M-31.4-97.7c-1.1,2.3-3.6,2.6-5.6,3.1c-0.8,0.2-0.5,1.6,0.3,1.4c2.4-0.5,5.2-1.1,6.4-3.8
			C-29.9-97.8-31-98.6-31.4-97.7"/>
		<path id="Fill-18_7_" class="st6" d="M-24.1-92.9c-1.1,2.3-3.6,2.6-5.6,3.1c-0.8,0.2-0.5,1.6,0.3,1.4c2.4-0.5,5.2-1.1,6.4-3.8
			C-22.6-93-23.7-93.7-24.1-92.9"/>
		<path id="Fill-20_7_" class="st6" d="M-22.5-83.4c-1.7,0.8-3.9,0.3-5.7,0c-0.7-0.1-1.1,0.6-0.3,0.7c2.2,0.3,4.7,0.8,6.6-0.1
			C-21.3-83-21.9-83.7-22.5-83.4"/>
		<path id="Fill-22_7_" class="st6" d="M-24-70.7c0.3-2.1,2.7-3.3,4.4-4.3c0.7-0.4,0.1-1.5-0.7-1.1c-2.2,1.3-4.8,2.7-5.1,5.4
			C-25.4-69.8-24.1-69.9-24-70.7"/>
		<path id="Fill-24_7_" class="st6" d="M-18.9-63.5c-0.5-2.1,1.6-3.9,3.1-5.4c0.6-0.6-0.5-1.5-1.1-0.9c-1.9,1.9-4.1,4-3.5,6.6
			C-20.2-62.4-18.7-62.7-18.9-63.5"/>
		<g id="Group-28_6_" transform="translate(29.000000, 55.000000)">
			<g id="Clip-27_6_">
			</g>
			<path id="Fill-26_6_" class="st6" d="M-36.2-113.7c-1.5-1.7-0.7-3.8-0.2-5.7c0.2-0.7-1.1-1.1-1.3-0.3c-0.6,2.1-1.4,4.7,0.3,6.6
				C-36.9-112.5-35.7-113.1-36.2-113.7"/>
		</g>
		<path id="Fill-29_7_" class="st6" d="M4.6-61.5c-2.4-0.6-3.3-2.9-4.1-4.5c-0.3-0.7-1.8-0.4-1.4,0.3c1,2.1,2.1,4.6,5.1,5.4
			C5.2-60.1,5.5-61.2,4.6-61.5"/>
		<path id="Fill-31_7_" class="st6" d="M14.3-71.5c-2-0.1-3.3-2.5-4.4-4.3c-0.4-0.8-1.5,0-1,0.7c1.4,2.3,2.9,4.9,5.4,5
			C15.1-70,15.1-71.5,14.3-71.5"/>
		<path id="Fill-33_7_" class="st6" d="M-8.1-110.7c0.9-2,3.5-2.6,5.5-3.2c0.8-0.2,0.5-1.5-0.4-1.3c-2.5,0.7-5.4,1.5-6.4,4.1
			C-9.8-110.3-8.4-110-8.1-110.7"/>
		<path id="Fill-35_7_" class="st6" d="M-4.5-102.2c0.9-2,3.5-2.6,5.5-3.2c0.8-0.2,0.5-1.5-0.4-1.3c-2.5,0.7-5.4,1.5-6.4,4.1
			C-6.1-101.8-4.8-101.4-4.5-102.2"/>
		<path id="Fill-37_7_" class="st6" d="M2.9-95c0.3-2.1,2.7-3.3,4.4-4.3c0.7-0.4,0.1-1.5-0.7-1.1c-2.2,1.3-4.8,2.7-5.1,5.4
			C1.4-94.2,2.8-94.2,2.9-95"/>
		<path id="Fill-39_7_" class="st6" d="M8.8-88.7c1.1-2.3,3.7-2.6,5.7-3c0.8-0.2,0.5-1.6-0.3-1.5c-2.4,0.5-5.1,1-6.4,3.7
			C7.3-88.6,8.4-87.9,8.8-88.7"/>
		<g id="Group-43_7_" transform="translate(45.000000, 39.000000)">
			<g id="Clip-42_7_">
			</g>
			<path id="Fill-41_7_" class="st6" d="M-33.9-121.5c1.5-1.4,3.7-0.9,5.4-0.6c0.7,0.1,1-1.1,0.3-1.2c-2.2-0.4-4.7-0.8-6.5,0.9
				C-35.3-121.8-34.4-121-33.9-121.5"/>
		</g>
		<path id="Fill-44_7_" class="st7" d="M-32.6-122.1c-3.7,3.1-6.3,7.9-6.1,12.5c0.1,3.6,2.2,7.7,4.7,10.2c2.9,2.9,7.1,3.4,9.5,7.1
			c3.7,5.7,1.4,12.8,3.8,18.8c2.3,5.8,6.5,8.8,12.6,9.4C-1.6-63.4,5-67,8.6-72.4c4.7-7.1,3-15-3-20.6C0.8-97.4-5.8-101-7-107.9
			c-0.4-2.4-0.2-4.9-0.4-7.3c-0.8-10.6-13.3-13.3-21.6-9.3C-30.2-123.8-31.4-123-32.6-122.1"/>
		<path id="Fill-46_7_" class="st6" d="M5.5-92.5c-4.9-4.3-11.6-7.8-12.9-14.7c-0.4-2.4-0.2-4.8-0.4-7.2c-0.5-6-5-9.5-10.3-10.5
			c2.6,1.9,4.6,4.7,5,7.2c1.3,10.3,6,18.6,13.8,25.4c7,6,3.6,16.6-4.2,20.1c-2.6,1-6.2,1.8-9.1,0.5c-3.4-1.5-6.8-3.8-8.1-7.3
			c-0.6-1.6-1.3-3.1-2.2-4.5c0.2,3.5,0.1,7,1.5,10.3c2.3,5.7,6.7,8.7,12.9,9.3c6.6,0.7,13.4-2.9,17-8.2
			C13.3-79.2,11.6-87.1,5.5-92.5"/>
		<path id="Fill-48_7_" class="st6" d="M-21.6-107.3c-1.5,1.3-2.6,3.4-2.5,5.4c0.1,1.5,0.9,3.3,1.9,4.4c1.2,1.3,2.9,1.5,3.9,3.1
			c1.6,2.5,0.6,5.5,1.6,8.1c1,2.5,2.7,3.8,5.2,4.1c2.7,0.3,5.4-1.3,6.9-3.6c1.9-3.1,1.3-6.5-1.2-8.9c-2-1.9-4.7-3.4-5.2-6.4
			c-0.2-1-0.1-2.1-0.2-3.1c-0.3-4.6-5.5-5.7-9-4C-20.6-108.1-21.1-107.7-21.6-107.3"/>
	</g>
	
		<g id="Group-50-Copy-4_1_" transform="translate(50.500000, 202.500000) scale(1, -1) rotate(-52.000000) translate(-50.500000, -202.500000) translate(33.000000, 182.000000)">
		<path id="Fill-1_7_" class="st6" d="M74.3-28.1c0.5-1.2,1.9-1.6,3-1.9c0.5-0.1,0.3-0.9-0.2-0.8c-1.4,0.4-2.9,0.9-3.5,2.5
			C73.4-27.9,74.1-27.6,74.3-28.1"/>
		<path id="Fill-3_7_" class="st6" d="M73.1-31.3c-0.3-1,0.1-2.1,0.4-3c0.1-0.4-0.3-0.7-0.4-0.3c-0.4,1.1-0.8,2.4-0.4,3.7
			C72.9-30.6,73.3-31,73.1-31.3"/>
		<path id="Fill-8_6_" class="st6" d="M62.5-31.4c-0.6-0.7-0.5-2-0.5-3.1c0-0.4-0.4-0.4-0.4,0c0,1.3,0,2.7,0.6,3.6
			C62.4-30.7,62.7-31.1,62.5-31.4"/>
		<path id="Fill-10_6_" class="st6" d="M59.3-27.5c-1-0.1-1.6-1.3-2.1-2.1c-0.2-0.4-0.7,0-0.5,0.4c0.7,1.1,1.4,2.4,2.7,2.5
			C59.7-26.8,59.7-27.5,59.3-27.5"/>
		<path id="Fill-12_6_" class="st6" d="M58.2-24.3c-1.1,0.2-2.2-0.2-3.1-0.5c-0.4-0.1-0.7,0.2-0.3,0.3c1.1,0.4,2.3,0.8,3.6,0.6
			C58.8-24,58.6-24.4,58.2-24.3"/>
		<path id="Fill-14_6_" class="st6" d="M59.9-20.6c-0.6,1.4-2,1.6-3.1,1.9c-0.4,0.1-0.3,1,0.2,0.9c1.3-0.3,2.8-0.7,3.5-2.3
			C60.7-20.7,60.1-21.1,59.9-20.6"/>
		<path id="Fill-16_6_" class="st6" d="M61.9-16.6c-0.6,1.4-2,1.6-3.1,1.9c-0.4,0.1-0.3,1,0.2,0.9c1.3-0.3,2.8-0.7,3.5-2.3
			C62.7-16.7,62.1-17.1,61.9-16.6"/>
		<path id="Fill-18_6_" class="st6" d="M65.9-14.6c-0.6,1.4-2,1.6-3.1,1.9c-0.4,0.1-0.3,1,0.2,0.9c1.3-0.3,2.8-0.7,3.5-2.3
			C66.7-14.7,66.1-15.1,65.9-14.6"/>
		<path id="Fill-20_6_" class="st6" d="M67.1-8.8c-0.9,0.6-2.1,0.3-3.1,0c-0.4-0.1-0.6,0.5-0.2,0.6c1.2,0.3,2.6,0.6,3.6-0.1
			C67.8-8.5,67.5-9,67.1-8.8"/>
		<path id="Fill-22_6_" class="st6" d="M66.3-2.1c0.1-1,1.3-1.6,2.2-2.1c0.4-0.2,0-0.7-0.3-0.5c-1.1,0.6-2.3,1.4-2.5,2.7
			C65.5-1.7,66.2-1.8,66.3-2.1"/>
		<path id="Fill-24_6_" class="st6" d="M69.6,1.7c-0.3-1.1,1-2.1,1.9-3c0.4-0.3-0.3-0.8-0.7-0.5c-1.2,1-2.5,2.2-2.1,3.6
			C68.8,2.3,69.7,2.2,69.6,1.7"/>
		<path id="Fill-29_6_" class="st6" d="M82.3,2.6c-1.2-0.3-1.6-1.4-2-2.2c-0.2-0.3-0.9-0.2-0.7,0.2c0.5,1,1,2.3,2.5,2.6
			C82.6,3.3,82.8,2.7,82.3,2.6"/>
		<path id="Fill-31_6_" class="st6" d="M87.3-2.6c-1-0.1-1.6-1.2-2.2-2.1c-0.2-0.4-0.7,0-0.5,0.4c0.7,1.1,1.4,2.4,2.7,2.5
			C87.7-1.8,87.7-2.5,87.3-2.6"/>
		<path id="Fill-33_6_" class="st6" d="M75.3-24.1c0.5-1.2,1.9-1.6,3-1.9c0.5-0.1,0.3-0.9-0.2-0.8c-1.4,0.4-2.9,0.9-3.5,2.5
			C74.4-23.9,75.1-23.6,75.3-24.1"/>
		<path id="Fill-35_6_" class="st6" d="M77.3-19.1c0.5-1.2,1.9-1.6,3-1.9c0.5-0.1,0.3-0.9-0.2-0.8c-1.4,0.4-2.9,0.9-3.5,2.5
			C76.4-18.9,77.1-18.6,77.3-19.1"/>
		<path id="Fill-37_6_" class="st6" d="M81.3-15.1c0.1-1,1.3-1.6,2.2-2.1c0.4-0.2,0-0.7-0.3-0.5c-1.1,0.6-2.3,1.4-2.5,2.7
			C80.5-14.7,81.2-14.8,81.3-15.1"/>
		<path id="Fill-39_6_" class="st6" d="M84.2-12.1c0.6-1.4,2-1.6,3.1-1.9c0.4-0.1,0.3-1-0.2-0.9c-1.3,0.3-2.8,0.6-3.5,2.3
			C83.4-12,84-11.6,84.2-12.1"/>
		<g id="Group-43_6_" transform="translate(30.500000, 26.000000)">
			<g id="Clip-42_6_">
			</g>
			<path id="Fill-41_6_" class="st6" d="M54.7-34.9c0.8-0.6,2-0.4,3-0.3c0.4,0,0.6-0.4,0.2-0.5c-1.2-0.2-2.6-0.3-3.6,0.4
				C53.9-35.1,54.4-34.7,54.7-34.9"/>
		</g>
		<path id="Fill-44_6_" class="st7" d="M61.9-30.6c-2,1.7-3.4,4.3-3.3,6.8c0.1,2,1.2,4.2,2.5,5.6c1.6,1.6,3.8,1.8,5.1,3.9
			c2,3.1,0.8,7,2,10.3c1.2,3.2,3.5,4.8,6.8,5.2c3.5,0.4,7.1-1.6,9-4.5c2.7-4,1.7-8.4-1.5-11.4c-2.6-2.4-6.2-4.3-6.8-8.2
			c-0.2-1.3-0.1-2.7-0.2-4c-0.4-5.8-7.2-7.2-11.7-5.1C63.2-31.5,62.5-31.1,61.9-30.6"/>
		<path id="Fill-46_6_" class="st6" d="M82.4-13.8c-2.7-2.4-6.5-4.4-7.2-8.2c-0.2-1.3-0.1-2.7-0.2-4c-0.3-3.4-2.8-5.3-5.7-5.9
			c1.5,1.1,2.6,2.6,2.8,4c0.7,5.7,3.3,10.4,7.7,14.1c3.9,3.4,2,9.2-2.3,11.2c-1.4,0.6-3.5,1-5.1,0.3c-2-0.8-3.9-2-4.6-4
			c-0.3-0.9-0.7-1.7-1.2-2.5c0.1,1.9,0.1,3.9,0.8,5.7c1.3,3.2,3.7,4.8,7.2,5.2c3.7,0.4,7.4-1.6,9.5-4.6
			C86.7-6.4,85.8-10.7,82.4-13.8"/>
		<path id="Fill-48_6_" class="st6" d="M67.9-21.9c-0.8,0.7-1.4,1.9-1.3,3c0,0.9,0.5,1.9,1,2.5c0.6,0.7,1.6,0.8,2.1,1.7
			c0.8,1.4,0.3,3.1,0.8,4.6C71-8.7,71.9-8,73.3-7.8c1.4,0.2,2.9-0.7,3.7-2c1-1.7,0.7-3.6-0.7-5c-1.1-1.1-2.5-1.9-2.8-3.6
			c0-0.6,0-1.2,0-1.8c-0.2-2.5-2.9-3.2-4.8-2.3C68.5-22.3,68.2-22.1,67.9-21.9"/>
	</g>
	
		<g id="Group-50-Copy-2_3_" transform="translate(446.000000, 224.000000) scale(1, -1) translate(-446.000000, -224.000000) translate(388.000000, 155.000000)">
		<path id="Fill-1_6_" class="st6" d="M65.8-114.7c1.5-3,6.1-3.8,9.4-4.7c1.4-0.4,0.8-2.2-0.6-1.8c-4.3,1.1-9.2,2.2-11.1,6
			C62.9-114.1,65.2-113.6,65.8-114.7"/>
		<path id="Fill-3_6_" class="st6" d="M61.9-122.9c-1.7-3.1,0.7-6.7,2.3-9.5c0.7-1.2-1.4-2.2-2.1-1c-2.1,3.6-4.4,7.6-2.3,11.5
			C60.4-120.6,62.5-121.7,61.9-122.9"/>
		<g id="Group-7_5_" transform="translate(38.000000, 0.000000)">
			<g id="Clip-6_5_">
			</g>
			<path id="Fill-5_5_" class="st6" d="M8-125.6c-3.3-2.8-1.6-6.5-0.5-9.6c0.5-1.2-2.5-1.8-3-0.5c-1.3,3.6-3,7.9,0.8,11.1
				C6.5-123.6,9.2-124.6,8-125.6"/>
		</g>
		<path id="Fill-8_5_" class="st6" d="M31.6-121.2c-3-2.3-2.8-6.4-2.9-9.8c0-1.4-2.2-1.4-2.2,0c0,3.9,0,8.6,3.5,11.3
			C31.1-118.9,32.7-120.4,31.6-121.2"/>
		<path id="Fill-10_5_" class="st6" d="M21.1-111.9c-3.3-0.3-5.4-4.2-7.1-7.1c-0.7-1.2-2.4-0.1-1.7,1.2c2.2,3.7,4.6,7.9,8.8,8.2
			C22.4-109.5,22.4-111.8,21.1-111.9"/>
		<path id="Fill-12_5_" class="st6" d="M18.1-101.2c-3.5,1.2-6.9-1.1-9.7-2.9c-1.2-0.7-2.2,1.1-1.1,1.8c3.4,2,7.3,4.4,11.4,3.1
			C19.9-99.6,19.4-101.6,18.1-101.2"/>
		<path id="Fill-14_5_" class="st6" d="M21.8-91.1c-1.8,3.3-6.2,3.9-9.7,4.6c-1.4,0.3-0.8,2.3,0.6,2.1c4.1-0.8,8.9-1.7,11-5.5
			C24.4-91.2,22.4-92.3,21.8-91.1"/>
		<path id="Fill-16_5_" class="st6" d="M29.9-78.5c-1.8,3.3-6.2,3.9-9.7,4.6c-1.4,0.3-0.8,2.3,0.6,2.1c4.1-0.8,8.9-1.7,11-5.5
			C32.5-78.6,30.5-79.7,29.9-78.5"/>
		<path id="Fill-18_5_" class="st6" d="M42.5-71.3c-1.8,3.3-6.2,3.9-9.7,4.6c-1.4,0.3-0.8,2.3,0.6,2.1c4.1-0.8,8.9-1.7,11-5.5
			C45.1-71.4,43.1-72.5,42.5-71.3"/>
		<path id="Fill-20_5_" class="st6" d="M44.9-54.6c-2.9,1.7-6.7,0.7-9.8,0.1c-1.3-0.3-1.8,1.3-0.5,1.6c3.7,0.8,8,1.7,11.4-0.2
			C46.9-53.8,45.9-55.2,44.9-54.6"/>
		<path id="Fill-22_5_" class="st6" d="M41.4-33.2c0.4-3.4,4.4-5.4,7.2-7c1.2-0.7,0.1-2.5-1.1-1.8c-3.6,2.1-7.7,4.5-8.3,8.8
			C39-31.9,41.2-31.9,41.4-33.2"/>
		<path id="Fill-24_5_" class="st6" d="M51.4-21c-0.7-3.6,2.3-6.8,4.6-9.3c0.9-1.1-0.7-2.6-1.6-1.5c-2.9,3.3-6,6.9-5.1,11.4
			C49.5-19.1,51.7-19.7,51.4-21"/>
		<g id="Group-28_5_" transform="translate(66.000000, 124.000000)">
			<g id="Clip-27_5_">
			</g>
			<path id="Fill-26_5_" class="st6" d="M5.2-137.9c-3.2-2.9-1.5-6.6-0.4-9.8c0.5-1.3-2.5-1.8-3-0.5c-1.4,3.7-3.1,8,0.7,11.3
				C3.7-135.9,6.4-136.9,5.2-137.9"/>
		</g>
		<path id="Fill-29_5_" class="st6" d="M90.5-19.8c-3.9-1-5.3-4.6-6.6-7.3c-0.5-1.1-2.9-0.6-2.3,0.5c1.6,3.4,3.5,7.4,8.3,8.7
			C91.3-17.5,91.9-19.4,90.5-19.8"/>
		<path id="Fill-31_5_" class="st6" d="M104.8-34.6c-3.3-0.2-5.4-4.1-7.1-7c-0.7-1.2-2.4,0-1.7,1.2c2.2,3.7,4.7,8,8.8,8.2
			C106-32.2,106-34.5,104.8-34.6"/>
		<path id="Fill-33_5_" class="st6" d="M68.5-100.3c1.5-3,6.1-3.8,9.4-4.7c1.4-0.4,0.8-2.2-0.6-1.8c-4.3,1.1-9.2,2.2-11.1,6
			C65.6-99.7,67.9-99.2,68.5-100.3"/>
		<path id="Fill-35_5_" class="st6" d="M73.9-87.8c1.5-3,6.1-3.8,9.4-4.7c1.4-0.4,0.8-2.2-0.6-1.8c-4.3,1.1-9.2,2.2-11.1,6
			C71-87.1,73.3-86.6,73.9-87.8"/>
		<path id="Fill-37_5_" class="st6" d="M86.3-75.5c0.4-3.4,4.4-5.4,7.2-7c1.2-0.7,0.1-2.5-1.1-1.8c-3.6,2.1-7.7,4.5-8.3,8.8
			C84-74.2,86.2-74.2,86.3-75.5"/>
		<path id="Fill-39_5_" class="st6" d="M96.1-65.2c1.9-3.4,6.3-3.9,9.7-4.5c1.4-0.2,0.8-2.4-0.6-2.2c-4.1,0.7-8.8,1.5-11.1,5.5
			C93.5-65,95.4-63.9,96.1-65.2"/>
		<g id="Group-43_5_" transform="translate(102.000000, 88.000000)">
			<g id="Clip-42_5_">
			</g>
			<path id="Fill-41_5_" class="st6" d="M-1.6-140.6c2.5-3.1,6.3-2,9.3-1.4c1.3,0.3,1.8-2.4,0.5-2.7c-3.8-0.8-8.1-1.8-11.3,2.1
				C-4-141.3-2.6-139.4-1.6-140.6"/>
		</g>
		<path id="Fill-44_5_" class="st7" d="M27-119.9c-6.2,5.2-10.6,13.2-10.3,21c0.2,6,3.7,12.9,7.9,17.2c5,4.9,11.9,5.7,16,11.9
			C47-60.2,43-48.4,47-38.3c3.9,9.7,11,14.8,21.3,15.8c11,1.1,22.2-4.9,28.3-14c7.9-11.9,5.1-25.2-5-34.5
			c-8.1-7.4-19.3-13.3-21.3-25c-0.7-4-0.4-8.2-0.7-12.2c-1.4-17.7-22.5-22.2-36.5-15.7C31.1-122.7,29.1-121.3,27-119.9"/>
		<path id="Fill-46_5_" class="st6" d="M91.5-69.9C83.3-77.1,71.9-83,69.8-94.4c-0.7-3.9-0.4-8-0.7-12c-0.8-10-8.4-15.8-17.3-17.5
			c4.4,3.2,7.7,7.8,8.4,12c2.2,17.2,10.1,31,23.2,42.2c11.8,10,6.1,27.6-7,33.5c-4.5,1.6-10.6,2.9-15.4,0.8
			c-5.7-2.5-11.4-6.3-13.6-12.2c-1-2.6-2.3-5.2-3.7-7.6c0.4,5.8,0.2,11.7,2.5,17.1c3.9,9.6,11.1,14.6,21.6,15.6
			c11.2,1.1,22.6-4.8,28.7-13.7C104.6-47.8,101.7-60.9,91.5-69.9"/>
		<path id="Fill-48_5_" class="st6" d="M45.2-94.1c-2.6,2.2-4.4,5.7-4.3,9c0.1,2.6,1.5,5.6,3.3,7.4c2.1,2.1,5,2.4,6.7,5.1
			c2.6,4.1,1,9.2,2.7,13.6c1.6,4.2,4.6,6.4,8.9,6.8c4.6,0.5,9.2-2.1,11.7-6c3.3-5.1,2.1-10.9-2.1-14.9c-3.4-3.2-8-5.8-8.9-10.8
			c-0.3-1.7-0.2-3.5-0.3-5.3c-0.6-7.6-9.4-9.6-15.2-6.7C46.9-95.3,46.1-94.7,45.2-94.1"/>
	</g>
	
		<g id="Group-50-Copy-2_2_" transform="translate(446.000000, 224.000000) scale(1, -1) translate(-446.000000, -224.000000) translate(388.000000, 155.000000)" class="st8">
		<path id="Fill-1_5_" class="st6" d="M-237.4,94.6c-8.6,1.4-17.6-7.2-24.5-13.1c-3-2.6-6,1.6-3,4.2c9,7.7,19,16.4,29.9,14.6
			C-231.7,99.7-234.1,94.1-237.4,94.6"/>
		<path id="Fill-3_5_" class="st6" d="M-249,115.4c-4.1,8.5-15.3,8.8-23.9,9.6c-3.6,0.3-2.6,6.5,1,6.1c11-1,23.1-2.1,28.3-12.8
			C-241.9,115.1-247.4,112.2-249,115.4"/>
		<g id="Group-7_4_" transform="translate(38.000000, 0.000000)">
			<g id="Clip-6_4_">
			</g>
			<path id="Fill-5_4_" class="st6" d="M-268.5,153.8c-1,11.4-11.5,13.4-20,15.7c-3.4,0.9,0,8.1,3.4,7.2c9.9-2.7,21.6-5.6,22.8-18.8
				C-261.8,153.9-268.1,149.7-268.5,153.8"/>
		</g>
		<path id="Fill-8_4_" class="st6" d="M-198.8,178.2c-0.4,10-9.5,15.9-16.7,21.2c-2.9,2.1,0.4,6.8,3.3,4.7
			c8.4-6.2,18.5-13.4,19-24.9C-193.1,175.6-198.7,174.6-198.8,178.2"/>
		<path id="Fill-10_4_" class="st6" d="M-162.6,186.4c4.5,7.6-0.8,18-4.4,26.1c-1.5,3.4,3.6,5.3,5.1,1.9c4.6-10.3,9.9-22,4.2-31.5
			C-159.4,180-164.4,183.5-162.6,186.4"/>
		<path id="Fill-12_4_" class="st6" d="M-134.9,176.5c7.9,5.8,8.1,16.5,8.8,25.3c0.3,3.6,5.7,3.1,5.5-0.4
			c-0.8-10.4-1.7-22.4-10.9-29.2C-134.4,170.1-137.8,174.3-134.9,176.5"/>
		<path id="Fill-14_4_" class="st6" d="M-118.9,152.9c9.9-1.2,18,7.4,24.7,13.9c2.8,2.6,6.3-1.8,3.5-4.5c-8-7.6-17.3-16.7-28.9-15.3
			C-123.2,147.5-122.5,153.4-118.9,152.9"/>
		<path id="Fill-16_4_" class="st6" d="M-104.2,116.1c9.9-1.2,18,7.4,24.7,13.9c2.8,2.6,6.3-1.8,3.5-4.5c-8-7.6-17.3-16.7-28.9-15.3
			C-108.5,110.8-107.9,116.6-104.2,116.1"/>
		<path id="Fill-18_4_" class="st6" d="M-108.1,78c9.9-1.2,18,7.4,24.7,13.9c2.8,2.6,6.3-1.8,3.5-4.5c-8-7.6-17.3-16.7-28.9-15.3
			C-112.4,72.6-111.7,78.4-108.1,78"/>
		<path id="Fill-20_4_" class="st6" d="M-75.8,47.2c8.1,3.7,11.8,13.2,15.3,21.1c1.4,3.2,5.6,1.9,4.2-1.2c-4-9.1-8.7-19.9-18.1-24.2
			C-77.3,41.4-78.8,45.8-75.8,47.2"/>
		<path id="Fill-22_4_" class="st6" d="M-24.5,21.9c-7.9,4.3-18.3-1.1-26-4.7c-3.3-1.5-5.5,3.6-2.1,5.1c10.1,4.6,21.5,9.8,31.5,4.3
			C-18,24.9-21.4,20.2-24.5,21.9"/>
		<path id="Fill-24_4_" class="st6" d="M-13.6-18.5c-6.7,7.1-18.1,5.4-27,4.5c-3.8-0.4-4.6,5.5-0.9,5.9C-30.1-7-17.4-5.7-9-14.6
			C-6.4-17.4-11.1-21.2-13.6-18.5"/>
		<g id="Group-28_4_" transform="translate(66.000000, 124.000000)">
			<g id="Clip-27_4_">
			</g>
			<path id="Fill-26_4_" class="st6" d="M-94.8-196c-1.2,11.4-11.8,13.4-20.5,15.8c-3.5,0.9-0.1,8.1,3.4,7.2
				c10-2.7,22-5.7,23.4-18.8C-88.1-196-94.3-200.2-94.8-196"/>
		</g>
		<path id="Fill-29_4_" class="st6" d="M-70.9-104.5c3.8,9.9-1.8,18.6-5.6,25.5c-1.6,2.9,3.1,7.2,4.7,4.3
			c4.9-8.8,10.7-18.9,5.9-31.3C-67.5-109.8-72.4-108.3-70.9-104.5"/>
		<path id="Fill-31_4_" class="st6" d="M-124.9-112.5c4.6,7.3-0.6,17.9-4.2,26c-1.5,3.4,3.6,5.3,5.2,1.8c4.5-10.4,9.9-22.3,4.1-31.5
			C-121.6-118.9-126.7-115.3-124.9-112.5"/>
		<path id="Fill-33_4_" class="st6" d="M-210.6,66.7c-8.6,1.4-17.6-7.2-24.5-13.1c-3-2.6-6,1.6-3,4.2c9,7.7,19,16.4,29.9,14.6
			C-204.9,71.8-207.3,66.1-210.6,66.7"/>
		<path id="Fill-35_4_" class="st6" d="M-191.8,35.7c-8.6,1.4-17.6-7.2-24.5-13.1c-3-2.6-6,1.6-3,4.2c9,7.7,19,16.4,29.9,14.6
			C-186.1,40.8-188.5,35.2-191.8,35.7"/>
		<path id="Fill-37_4_" class="st6" d="M-184.6-9.9c-7.9,4.3-18.3-1.1-26-4.7c-3.3-1.5-5.5,3.6-2.1,5.1c10.1,4.6,21.5,9.8,31.5,4.3
			C-178.1-6.9-181.5-11.6-184.6-9.9"/>
		<path id="Fill-39_4_" class="st6" d="M-177.3-46.8c-10.2,1.2-18-7.6-24.6-14.1c-2.7-2.6-6.4,1.9-3.7,4.6
			c7.8,7.7,16.8,16.7,28.8,15.3C-173-41.4-173.5-47.2-177.3-46.8"/>
		<g id="Group-43_4_" transform="translate(102.000000, 88.000000)">
			<g id="Clip-42_4_">
			</g>
			<path id="Fill-41_4_" class="st6" d="M-258.8-163.4c-10.5-0.6-14.1-10.5-17.3-17.9c-1.4-3.1-7.9-0.2-6.5,2.9
				c4.1,9.5,8.6,20.3,21.8,21C-256.8-157.1-254.8-163.2-258.8-163.4"/>
		</g>
		<path id="Fill-44_4_" class="st7" d="M-188.9,185.9c20.7,5.5,44.7,2.6,61-9.9c12.6-9.7,22.2-27.8,24.8-43.4
			c3-18.2-6.2-34.4,1-52.8c11-28.4,42.5-38,58-62.3C-29.2-5.7-29.2-29-42.8-52.8c-14.5-25.4-44.6-40.3-73.5-39.4
			c-37.7,1.2-62.1,27.8-66.5,63.7c-3.5,28.7,0.9,62-21,84.4c-7.6,7.7-17,13.3-25.3,20.3c-36,30.2-13.2,82.7,22.5,102.7
			C-201.2,181.4-195.2,183.7-188.9,185.9"/>
		<path id="Fill-46_4_" class="st6" d="M-180.5-29.5c-3,28.8,2,62.3-19.4,84.4c-7.4,7.6-16.6,13.1-24.7,19.9
			C-245,92-245.7,117-235.7,139c0.1-14.4,5-28.7,13-36.5c33.5-31.1,51.1-69.3,55.2-115c3.4-40.9,50-55.7,82.8-36.3
			c10.3,6.9,22.5,18.2,25.4,31.8c3.4,16.1,4,34.2-5.2,47.9c-4,6.2-7.7,12.8-10.5,19.7c11.8-9.8,24.8-18.5,33-31.6
			c14.4-23.1,14-46.4,0-70.6c-14.8-25.8-45-41.2-73.6-40.8C-153-91.9-176.8-65.6-180.5-29.5"/>
		<path id="Fill-48_4_" class="st6" d="M-161.4,107c8.8,2.1,19,0.8,26-4.6c5.4-4.2,9.7-11.8,10.9-18.4c1.4-7.7-2.4-14.4,0.8-22.2
			c4.9-12,18.4-16.3,25.2-26.6c6.5-9.9,6.7-19.6,1.1-29.5c-6-10.6-18.7-16.6-31-16c-16.1,0.8-26.7,12.2-28.8,27.3
			c-1.7,12.1-0.1,26.1-9.6,35.6c-3.3,3.3-7.3,5.7-10.9,8.7c-15.5,13-6.3,34.9,8.8,43C-166.6,105.2-164.1,106.2-161.4,107"/>
	</g>
</g>
</svg>
