<?xml version="1.0" encoding="utf-8"?>
<!-- Generator: Adobe Illustrator 22.1.0, SVG Export Plug-In . SVG Version: 6.00 Build 0)  -->
<svg version="1.1" id="Layer_1" xmlns="http://www.w3.org/2000/svg" xmlns:xlink="http://www.w3.org/1999/xlink" x="0px" y="0px"
	 viewBox="0 0 504 482" style="enable-background:new 0 0 504 482;" xml:space="preserve">
<style type="text/css">
	.st0{opacity:0.4394;}
	.st1{fill:#90CCFF;}
	.st2{filter:url(#Adobe_OpacityMaskFilter);}
	.st3{fill:#FFFFFF;}
	.st4{mask:url(#mask-2_1_);fill:#4DBCFF;}
	.st5{fill:none;stroke:#FFF0DE;stroke-width:1.33;}
	.st6{fill:#D640E2;}
	.st7{filter:url(#Adobe_OpacityMaskFilter_1_);}
	.st8{mask:url(#mask-4_1_);fill:#D640E2;}
	.st9{filter:url(#Adobe_OpacityMaskFilter_2_);}
	.st10{mask:url(#mask-6_1_);fill:#D640E2;}
	.st11{filter:url(#Adobe_OpacityMaskFilter_3_);}
	.st12{mask:url(#mask-8_1_);fill:#D640E2;}
	.st13{fill:#F646FF;}
	.st14{opacity:0.5543;}
	.st15{filter:url(#Adobe_OpacityMaskFilter_4_);}
	.st16{mask:url(#mask-10_1_);fill:#D640E2;}
	.st17{filter:url(#Adobe_OpacityMaskFilter_5_);}
	.st18{mask:url(#mask-12_1_);fill:#D640E2;}
	.st19{filter:url(#Adobe_OpacityMaskFilter_6_);}
	.st20{mask:url(#mask-14_1_);fill:#D640E2;}
	.st21{filter:url(#Adobe_OpacityMaskFilter_7_);}
	.st22{mask:url(#mask-16_1_);fill:#D640E2;}
	.st23{filter:url(#Adobe_OpacityMaskFilter_8_);}
	.st24{mask:url(#mask-18_1_);fill:#D640E2;}
	.st25{filter:url(#Adobe_OpacityMaskFilter_9_);}
	.st26{mask:url(#mask-20_1_);fill:#D640E2;}
	.st27{filter:url(#Adobe_OpacityMaskFilter_10_);}
	.st28{mask:url(#mask-16_2_);fill:#D640E2;}
	.st29{filter:url(#Adobe_OpacityMaskFilter_11_);}
	.st30{mask:url(#mask-18_2_);fill:#D640E2;}
	.st31{filter:url(#Adobe_OpacityMaskFilter_12_);}
	.st32{mask:url(#mask-20_2_);fill:#D640E2;}
</style>
<title>Group 27</title>
<desc>Created with Sketch.</desc>
<g id="Group-4" transform="translate(0.000000, 10.000000)">
	<g id="Group-2" class="st0">
		<g id="Group-12-Copy" transform="translate(0.851955, 0.473282)">
			<path id="Fill-1" class="st1" d="M28.3,91.8c0.6-12,2.3-24.3,8.9-34.4c9.7-14.8,28.3-21.6,46.1-22.4c28-1.1,55,10.5,79.3,24.6
				c24.2,14.1,47,30.9,72.8,42c47.2,20.3,100.4,19.7,151.6,23.7c16.9,1.3,34.9,3.6,48,14.4c10.9,9,16.9,22.9,19,36.8
				c5.7,36.8-13,74.4-41.3,98.6c-28.3,24.2-64.8,36.7-101.4,44c-40.7,8-83.1,10.1-123.4,0.2c-75.5-18.6-129.6-78-150.7-151.2
				C30.1,143.4,27,117.5,28.3,91.8"/>
			<g id="Group-5">
				<g id="Clip-4">
				</g>
				<defs>
					<filter id="Adobe_OpacityMaskFilter" filterUnits="userSpaceOnUse" x="0" y="35.4" width="483.9" height="371.5">
						<feColorMatrix  type="matrix" values="1 0 0 0 0  0 1 0 0 0  0 0 1 0 0  0 0 0 1 0"/>
					</filter>
				</defs>
				<mask maskUnits="userSpaceOnUse" x="0" y="35.4" width="483.9" height="371.5" id="mask-2_1_">
					<g class="st2">
						<polygon id="path-1_1_" class="st3" points="0,35.4 483.9,35.4 483.9,406.9 0,406.9 						"/>
					</g>
				</mask>
				<path id="Fill-3" class="st4" d="M266.1,93.5c38.4-24.1,76.7-53,121.8-57.6c14.8-1.5,30.3-0.2,43.7,6.3
					c18.9,9.1,31.8,27.5,39.7,46.9c17.4,42.7,13.8,90.8,7.2,136.5c-4.7,32.5-11,65.5-27.6,93.9c-22.4,38.4-62.1,64.8-104.8,77.3
					c-42.7,12.5-88.3,12.1-132.4,5.9c-43.2-6.1-86.2-18.1-123.6-40.4c-37.4-22.4-69.1-56-83.9-96.9c-5.4-15-8.5-31.6-4-46.9
					c12.7-43,82.3-44.6,117-56C170.7,145.5,220.2,122.3,266.1,93.5"/>
			</g>
			<path id="Stroke-6" class="st5" d="M269.3,364c-15.7,0-32.7-1.3-50.6-3.8c-43.7-6.2-78.9-17.6-107.7-34.9
				c-18.6-11.2-35.5-25.6-48.4-43.1c-9.6-13.1-31.4-44.1-14.3-58.3c5.1-4.3,11.9-6.1,18.4-7.4c10.1-2,20.1-3.7,30.1-5.8
				c12.4-2.6,24.1-5,34.7-8.5c54.9-18.1,107.5-42.8,156.2-73.4c5.8-3.7,11.6-7.4,17.3-11.1c29.7-19.2,57.8-37.4,86.2-40.3
				c2.2-0.2,4.4-0.3,6.5-0.3c5.8,0,10.7,0.9,14.2,2.6c16.5,8,23.1,34.1,25.7,50.5c8.5,52.7,1.7,134.5-32,178.3
				C373.9,349.9,319.3,364,269.3,364z"/>
			<path id="Stroke-8" class="st5" d="M270.5,323c-32.2-0.1-66.5-5.9-96.6-15c-15.3-4.6-30.3-10.6-43.7-19.2
				c-3.1-2-36.3-30.7-33-32.7c6.3-3.7,13.6-4.9,20.8-6.4c51.4-10.3,100-31.1,145.7-56.1c19.4-10.7,38.2-22.8,57.2-34
				c8.1-4.8,63.9-44.2,71.7-37.8c1.8,1.4,2.4,3.9,2.8,6.1c5.7,27.7,3.5,61.3,0,89.3c-3.4,27.3-12.6,55-32.1,74.4
				c-19.9,20-48.6,29.2-76.8,31C281.3,322.9,276,323,270.5,323z"/>
			<path id="Stroke-10" class="st5" d="M270,280c-22.5,0-47.6-3.4-72-9.7c27.6-10.3,56-23.4,85.6-39.5c13.5-7.3,26.4-15.2,38.9-22.8
				c6.8-4.1,13.2-8,19.7-11.8c2.3-1.3,5-3.1,10.3-6.6c0.9-0.6,1.7-1.1,2.5-1.6c-0.5,7.5-1.3,15.4-2.4,23.8
				c-1.9,15.3-6.9,36.3-20,49.3c-10.7,10.6-28.2,17.2-49.4,18.5c-4.1,0.3-8.5,0.4-13,0.4L270,280z"/>
		</g>
	</g>
	<path id="Path-2" class="st5" d="M0,35"/>
</g>
<g id="Group-50-Copy" transform="translate(348.500000, 40.500000) scale(1, -1) rotate(43.000000) translate(-348.500000, -40.500000) translate(323.000000, 10.000000)">
	<path id="Fill-1_1_" class="st6" d="M7.3-94.2c0.9-2,3.5-2.6,5.5-3.2c0.8-0.2,0.5-1.5-0.4-1.3c-2.5,0.7-5.4,1.5-6.4,4.1
		C5.6-93.7,6.9-93.4,7.3-94.2"/>
	<path id="Fill-3_1_" class="st6" d="M4.8-99.5c-0.8-1.8,0.3-3.9,1-5.5c0.3-0.7-0.6-1.3-1-0.6c-1,2.1-2,4.4-1,6.7
		C4.1-98.2,5.1-98.8,4.8-99.5"/>
	<g id="Group-7" transform="translate(17.000000, 0.000000)">
		<g id="Clip-6">
		</g>
		<defs>
			<filter id="Adobe_OpacityMaskFilter_1_" filterUnits="userSpaceOnUse" x="-26.9" y="103.1" width="7.8" height="0.8">
				<feColorMatrix  type="matrix" values="1 0 0 0 0  0 1 0 0 0  0 0 1 0 0  0 0 0 1 0"/>
			</filter>
		</defs>
		<mask maskUnits="userSpaceOnUse" x="-26.9" y="103.1" width="7.8" height="0.8" id="mask-4_1_">
			<g class="st7">
				<polygon id="path-3_1_" class="st3" points="-24.5,-107.1 -22.1,-107.1 -22.1,-100 -24.5,-100 				"/>
			</g>
		</mask>
		<path id="Fill-5" class="st8" d="M-22.2-100.8c-1.5-1.6-0.7-3.8-0.2-5.6c0.2-0.7-1.1-1-1.3-0.3c-0.6,2.1-1.4,4.6,0.3,6.5
			C-22.9-99.6-21.7-100.2-22.2-100.8"/>
	</g>
	<path id="Fill-8" class="st6" d="M-13.8-98.4c-1.3-1.3-1.3-3.7-1.3-5.7c0-0.8-1-0.8-1,0c0,2.3,0,5,1.6,6.6
		C-14-97.1-13.3-97.9-13.8-98.4"/>
	<path id="Fill-10" class="st6" d="M-20.3-92.7c-2-0.2-3.3-2.6-4.3-4.4c-0.4-0.7-1.5,0-1.1,0.7c1.3,2.3,2.8,4.8,5.4,5.1
		C-19.5-91.2-19.5-92.7-20.3-92.7"/>
	<path id="Fill-12" class="st6" d="M-21.7-86.3c-2,0.5-4-0.5-5.7-1.3c-0.7-0.3-1.3,0.5-0.6,0.8c2,0.9,4.2,2,6.6,1.4
		C-20.6-85.6-20.9-86.5-21.7-86.3"/>
	<path id="Fill-14" class="st6" d="M-19.7-80c-1.1,2.3-3.6,2.6-5.6,3.1c-0.8,0.2-0.5,1.6,0.3,1.4c2.4-0.5,5.2-1.1,6.4-3.8
		C-18.2-80.1-19.3-80.8-19.7-80"/>
	<path id="Fill-16" class="st6" d="M-14.8-72.6c-1.1,2.3-3.6,2.6-5.6,3.1c-0.8,0.2-0.5,1.6,0.3,1.4c2.4-0.5,5.2-1.1,6.4-3.8
		C-13.3-72.7-14.4-73.5-14.8-72.6"/>
	<path id="Fill-18" class="st6" d="M-7.5-67.8c-1.1,2.3-3.6,2.6-5.6,3.1c-0.8,0.2-0.5,1.6,0.3,1.4c2.4-0.5,5.2-1.1,6.4-3.8
		C-6-67.9-7.1-68.6-7.5-67.8"/>
	<path id="Fill-20" class="st6" d="M-5.9-58.3c-1.7,0.8-3.9,0.3-5.7,0c-0.7-0.1-1.1,0.6-0.3,0.7c2.2,0.3,4.7,0.8,6.6-0.1
		C-4.7-57.9-5.3-58.6-5.9-58.3"/>
	<path id="Fill-22" class="st6" d="M-7.4-45.6c0.3-2.1,2.7-3.3,4.4-4.3c0.7-0.4,0.1-1.5-0.7-1.1c-2.2,1.3-4.8,2.7-5.1,5.4
		C-8.8-44.7-7.5-44.8-7.4-45.6"/>
	<path id="Fill-24" class="st6" d="M-2.3-38.4c-0.5-2.1,1.6-3.9,3.1-5.4c0.6-0.6-0.5-1.5-1.1-0.9c-1.9,1.9-4.1,4-3.5,6.6
		C-3.6-37.3-2.1-37.6-2.3-38.4"/>
	<g id="Group-28" transform="translate(29.000000, 55.000000)">
		<g id="Clip-27">
		</g>
		<defs>
			<filter id="Adobe_OpacityMaskFilter_2_" filterUnits="userSpaceOnUse" x="-24.3" y="91" width="7.9" height="0.7">
				<feColorMatrix  type="matrix" values="1 0 0 0 0  0 1 0 0 0  0 0 1 0 0  0 0 0 1 0"/>
			</filter>
		</defs>
		<mask maskUnits="userSpaceOnUse" x="-24.3" y="91" width="7.9" height="0.7" id="mask-6_1_">
			<g class="st9">
				<polygon id="path-5_1_" class="st3" points="-21.8,-95 -19.5,-95 -19.5,-87.8 -21.8,-87.8 				"/>
			</g>
		</mask>
		<path id="Fill-26" class="st10" d="M-19.6-88.6c-1.5-1.7-0.7-3.8-0.2-5.7c0.2-0.7-1.1-1.1-1.3-0.3c-0.6,2.1-1.4,4.7,0.3,6.6
			C-20.3-87.4-19.1-88-19.6-88.6"/>
	</g>
	<path id="Fill-29" class="st6" d="M21.2-36.4c-2.4-0.6-3.3-2.9-4.1-4.5c-0.3-0.7-1.8-0.4-1.4,0.3c1,2.1,2.1,4.6,5.1,5.4
		C21.8-35,22.1-36.1,21.2-36.4"/>
	<path id="Fill-31" class="st6" d="M30.9-46.4c-2-0.1-3.3-2.5-4.4-4.3c-0.4-0.8-1.5,0-1,0.7c1.4,2.3,2.9,4.9,5.4,5
		C31.7-44.9,31.7-46.4,30.9-46.4"/>
	<path id="Fill-33" class="st6" d="M8.5-85.6c0.9-2,3.5-2.6,5.5-3.2c0.8-0.2,0.5-1.5-0.4-1.3c-2.5,0.7-5.4,1.5-6.4,4.1
		C6.8-85.2,8.2-84.9,8.5-85.6"/>
	<path id="Fill-35" class="st6" d="M12.1-77.1c0.9-2,3.5-2.6,5.5-3.2c0.8-0.2,0.5-1.5-0.4-1.3c-2.5,0.7-5.4,1.5-6.4,4.1
		C10.5-76.7,11.8-76.3,12.1-77.1"/>
	<path id="Fill-37" class="st6" d="M19.5-69.9c0.3-2.1,2.7-3.3,4.4-4.3c0.7-0.4,0.1-1.5-0.7-1.1c-2.2,1.3-4.8,2.7-5.1,5.4
		C18-69.1,19.4-69.1,19.5-69.9"/>
	<path id="Fill-39" class="st6" d="M25.4-63.6c1.1-2.3,3.7-2.6,5.7-3c0.8-0.2,0.5-1.6-0.3-1.5c-2.4,0.5-5.1,1-6.4,3.7
		C23.9-63.5,25-62.8,25.4-63.6"/>
	<g id="Group-43" transform="translate(45.000000, 39.000000)">
		<g id="Clip-42">
		</g>
		<defs>
			<filter id="Adobe_OpacityMaskFilter_3_" filterUnits="userSpaceOnUse" x="-18.5" y="-97.6" width="7.7" height="0.8">
				<feColorMatrix  type="matrix" values="1 0 0 0 0  0 1 0 0 0  0 0 1 0 0  0 0 0 1 0"/>
			</filter>
		</defs>
		<mask maskUnits="userSpaceOnUse" x="-18.5" y="-97.6" width="7.7" height="0.8" id="mask-8_1_">
			<g class="st11">
				<polygon id="path-7_1_" class="st3" points="-18.3,-98.6 -11.1,-98.6 -11.1,-96.2 -18.3,-96.2 				"/>
			</g>
		</mask>
		<path id="Fill-41" class="st12" d="M-17.3-96.4c1.5-1.4,3.7-0.9,5.4-0.6c0.7,0.1,1-1.1,0.3-1.2c-2.2-0.4-4.7-0.8-6.5,0.9
			C-18.7-96.7-17.8-95.9-17.3-96.4"/>
	</g>
	<path id="Fill-44" class="st13" d="M-16-97c-3.7,3.1-6.3,7.9-6.1,12.5c0.1,3.6,2.2,7.7,4.7,10.2c2.9,2.9,7.1,3.4,9.5,7.1
		c3.7,5.7,1.4,12.8,3.8,18.8c2.3,5.8,6.5,8.8,12.6,9.4c6.5,0.7,13.1-2.9,16.7-8.3c4.7-7.1,3-15-3-20.6c-4.8-4.4-11.4-8-12.6-14.9
		c-0.4-2.4-0.2-4.9-0.4-7.3c-0.8-10.6-13.3-13.3-21.6-9.3C-13.6-98.7-14.8-97.9-16-97"/>
	<path id="Fill-46" class="st6" d="M22.1-67.4c-4.9-4.3-11.6-7.8-12.9-14.7c-0.4-2.4-0.2-4.8-0.4-7.2c-0.5-6-5-9.5-10.3-10.5
		c2.6,1.9,4.6,4.7,5,7.2c1.3,10.3,6,18.6,13.8,25.4c7,6,3.6,16.6-4.2,20.1c-2.6,1-6.2,1.8-9.1,0.5c-3.4-1.5-6.8-3.8-8.1-7.3
		c-0.6-1.6-1.3-3.1-2.2-4.5c0.2,3.5,0.1,7,1.5,10.3c2.3,5.7,6.7,8.7,12.9,9.3c6.6,0.7,13.4-2.9,17-8.2C29.9-54.1,28.2-62,22.1-67.4"
		/>
	<path id="Fill-48" class="st6" d="M-5-82.2c-1.5,1.3-2.6,3.4-2.5,5.4c0.1,1.5,0.9,3.3,1.9,4.4c1.2,1.3,2.9,1.5,3.9,3.1
		c1.6,2.5,0.6,5.5,1.6,8.1c1,2.5,2.7,3.8,5.2,4.1c2.7,0.3,5.4-1.3,6.9-3.6c1.9-3.1,1.3-6.5-1.2-8.9c-2-1.9-4.7-3.4-5.2-6.4
		c-0.2-1-0.1-2.1-0.2-3.1c-0.3-4.6-5.5-5.7-9-4C-4-83-4.5-82.6-5-82.2"/>
</g>
<g id="Group-50-Copy-4" transform="translate(50.500000, 202.500000) scale(1, -1) rotate(-52.000000) translate(-50.500000, -202.500000) translate(33.000000, 182.000000)" class="st14">
	<path id="Fill-1_2_" class="st6" d="M47.8-13.8c0.5-1.2,1.9-1.6,3-1.9c0.5-0.1,0.3-0.9-0.2-0.8c-1.4,0.4-2.9,0.9-3.5,2.5
		C46.9-13.6,47.6-13.3,47.8-13.8"/>
	<path id="Fill-3_2_" class="st6" d="M46.6-17c-0.3-1,0.1-2.1,0.4-3c0.1-0.4-0.3-0.7-0.4-0.3c-0.4,1.1-0.8,2.4-0.4,3.7
		C46.4-16.3,46.8-16.7,46.6-17"/>
	<g id="Group-7_1_" transform="translate(12.500000, 0.000000)">
		<g id="Clip-6_1_">
		</g>
		<defs>
			<filter id="Adobe_OpacityMaskFilter_4_" filterUnits="userSpaceOnUse" x="28.2" y="17.5" width="0" height="4.1">
				<feColorMatrix  type="matrix" values="1 0 0 0 0  0 1 0 0 0  0 0 1 0 0  0 0 0 1 0"/>
			</filter>
		</defs>
		<mask maskUnits="userSpaceOnUse" x="28.2" y="17.5" width="0" height="4.1" id="mask-10_1_">
			<g class="st15">
				<polygon id="path-9_1_" class="st3" points="27.6,-21.5 28.6,-21.5 28.6,-17.6 27.6,-17.6 				"/>
			</g>
		</mask>
		<path id="Fill-5_1_" class="st16" d="M28.5-18.1c-0.6-0.9-0.3-2.1-0.1-3c0.1-0.4-0.5-0.6-0.5-0.2c-0.2,1.2-0.6,2.5,0.1,3.5
			C28.2-17.4,28.7-17.7,28.5-18.1"/>
	</g>
	<path id="Fill-8_1_" class="st6" d="M36-17.1c-0.6-0.7-0.5-2-0.5-3.1c0-0.4-0.4-0.4-0.4,0c0,1.3,0,2.7,0.6,3.6
		C35.9-16.4,36.2-16.8,36-17.1"/>
	<path id="Fill-10_1_" class="st6" d="M32.8-13.2c-1-0.1-1.6-1.3-2.1-2.1c-0.2-0.4-0.7,0-0.5,0.4c0.7,1.1,1.4,2.4,2.7,2.5
		C33.2-12.5,33.2-13.2,32.8-13.2"/>
	<path id="Fill-12_1_" class="st6" d="M31.7-10c-1.1,0.2-2.2-0.2-3.1-0.5c-0.4-0.1-0.7,0.2-0.3,0.3c1.1,0.4,2.3,0.8,3.6,0.6
		C32.3-9.7,32.1-10.1,31.7-10"/>
	<path id="Fill-14_1_" class="st6" d="M33.4-6.3c-0.6,1.4-2,1.6-3.1,1.9c-0.4,0.1-0.3,1,0.2,0.9c1.3-0.3,2.8-0.7,3.5-2.3
		C34.2-6.4,33.6-6.8,33.4-6.3"/>
	<path id="Fill-16_1_" class="st6" d="M35.4-2.3c-0.6,1.4-2,1.6-3.1,1.9c-0.4,0.1-0.3,1,0.2,0.9c1.3-0.3,2.8-0.7,3.5-2.3
		C36.2-2.4,35.6-2.8,35.4-2.3"/>
	<path id="Fill-18_1_" class="st6" d="M39.4-0.3c-0.6,1.4-2,1.6-3.1,1.9c-0.4,0.1-0.3,1,0.2,0.9c1.3-0.3,2.8-0.7,3.5-2.3
		C40.2-0.4,39.6-0.8,39.4-0.3"/>
	<path id="Fill-20_1_" class="st6" d="M40.6,5.5c-0.9,0.6-2.1,0.3-3.1,0c-0.4-0.1-0.6,0.5-0.2,0.6c1.2,0.3,2.6,0.6,3.6-0.1
		C41.3,5.8,41,5.3,40.6,5.5"/>
	<path id="Fill-22_1_" class="st6" d="M39.8,12.2c0.1-1,1.3-1.6,2.2-2.1c0.4-0.2,0-0.7-0.3-0.5c-1.1,0.6-2.3,1.4-2.5,2.7
		C39,12.6,39.7,12.5,39.8,12.2"/>
	<path id="Fill-24_1_" class="st6" d="M43.1,16c-0.3-1.1,1-2.1,1.9-3c0.4-0.3-0.3-0.8-0.7-0.5c-1.2,1-2.5,2.2-2.1,3.6
		C42.3,16.6,43.2,16.5,43.1,16"/>
	<g id="Group-28_1_" transform="translate(20.500000, 37.000000)">
		<g id="Clip-27_1_">
		</g>
		<defs>
			<filter id="Adobe_OpacityMaskFilter_5_" filterUnits="userSpaceOnUse" x="28.2" y="17.4" width="0" height="4.2">
				<feColorMatrix  type="matrix" values="1 0 0 0 0  0 1 0 0 0  0 0 1 0 0  0 0 0 1 0"/>
			</filter>
		</defs>
		<mask maskUnits="userSpaceOnUse" x="28.2" y="17.4" width="0" height="4.2" id="mask-12_1_">
			<g class="st17">
				<polygon id="path-11_1_" class="st3" points="27.6,-21.5 28.6,-21.5 28.6,-17.5 27.6,-17.5 				"/>
			</g>
		</mask>
		<path id="Fill-26_1_" class="st18" d="M28.5-18c-0.6-0.9-0.3-2.1-0.1-3.1c0.1-0.4-0.5-0.6-0.5-0.2c-0.3,1.2-0.6,2.5,0.1,3.6
			C28.2-17.4,28.7-17.7,28.5-18"/>
	</g>
	<path id="Fill-29_1_" class="st6" d="M55.8,16.9c-1.2-0.3-1.6-1.4-2-2.2c-0.2-0.3-0.9-0.2-0.7,0.2c0.5,1,1,2.3,2.5,2.6
		C56.1,17.6,56.3,17,55.8,16.9"/>
	<path id="Fill-31_1_" class="st6" d="M60.8,11.7c-1-0.1-1.6-1.2-2.2-2.1c-0.2-0.4-0.7,0-0.5,0.4c0.7,1.1,1.4,2.4,2.7,2.5
		C61.2,12.5,61.2,11.8,60.8,11.7"/>
	<path id="Fill-33_1_" class="st6" d="M48.8-9.8c0.5-1.2,1.9-1.6,3-1.9c0.5-0.1,0.3-0.9-0.2-0.8c-1.4,0.4-2.9,0.9-3.5,2.5
		C47.9-9.6,48.6-9.3,48.8-9.8"/>
	<path id="Fill-35_1_" class="st6" d="M50.8-4.8c0.5-1.2,1.9-1.6,3-1.9c0.5-0.1,0.3-0.9-0.2-0.8c-1.4,0.4-2.9,0.9-3.5,2.5
		C49.9-4.6,50.6-4.3,50.8-4.8"/>
	<path id="Fill-37_1_" class="st6" d="M54.8-0.8c0.1-1,1.3-1.6,2.2-2.1c0.4-0.2,0-0.7-0.3-0.5c-1.1,0.6-2.3,1.4-2.5,2.7
		C54-0.4,54.7-0.5,54.8-0.8"/>
	<path id="Fill-39_1_" class="st6" d="M57.7,2.2c0.6-1.4,2-1.6,3.1-1.9c0.4-0.1,0.3-1-0.2-0.9c-1.3,0.3-2.8,0.6-3.5,2.3
		C56.9,2.3,57.5,2.7,57.7,2.2"/>
	<g id="Group-43_1_" transform="translate(30.500000, 26.000000)">
		<g id="Clip-42_1_">
		</g>
		<defs>
			<filter id="Adobe_OpacityMaskFilter_6_" filterUnits="userSpaceOnUse">
				<feColorMatrix  type="matrix" values="1 0 0 0 0  0 1 0 0 0  0 0 1 0 0  0 0 0 1 0"/>
			</filter>
		</defs>
		<mask maskUnits="userSpaceOnUse" id="mask-14_1_">
			<g class="st19">
				<polygon id="path-13_1_" class="st3" points="27.6,-21.5 31.5,-21.5 31.5,-20.6 27.6,-20.6 				"/>
			</g>
		</mask>
		<path id="Fill-41_1_" class="st20" d="M28.2-20.6c0.8-0.6,2-0.4,3-0.3c0.4,0,0.6-0.4,0.2-0.5c-1.2-0.2-2.6-0.3-3.6,0.4
			C27.4-20.8,27.9-20.4,28.2-20.6"/>
	</g>
	<path id="Fill-44_1_" class="st13" d="M35.4-16.3c-2,1.7-3.4,4.3-3.3,6.8c0.1,2,1.2,4.2,2.5,5.6c1.6,1.6,3.8,1.8,5.1,3.9
		c2,3.1,0.8,7,2,10.3c1.2,3.2,3.5,4.8,6.8,5.2c3.5,0.4,7.1-1.6,9-4.5C60.2,7,59.2,2.6,56-0.4c-2.6-2.4-6.2-4.3-6.8-8.2
		c-0.2-1.3-0.1-2.7-0.2-4c-0.4-5.8-7.2-7.2-11.7-5.1C36.7-17.2,36-16.8,35.4-16.3"/>
	<path id="Fill-46_1_" class="st6" d="M55.9,0.5c-2.7-2.4-6.5-4.4-7.2-8.2c-0.2-1.3-0.1-2.7-0.2-4c-0.3-3.4-2.8-5.3-5.7-5.9
		c1.5,1.1,2.6,2.6,2.8,4c0.7,5.7,3.3,10.4,7.7,14.1c3.9,3.4,2,9.2-2.3,11.2c-1.4,0.6-3.5,1-5.1,0.3C43.9,11.2,42,10,41.3,8
		c-0.3-0.9-0.7-1.7-1.2-2.5c0.1,1.9,0.1,3.9,0.8,5.7c1.3,3.2,3.7,4.8,7.2,5.2c3.7,0.4,7.4-1.6,9.5-4.6C60.2,7.9,59.3,3.6,55.9,0.5"
		/>
	<path id="Fill-48_1_" class="st6" d="M41.4-7.6c-0.8,0.7-1.4,1.9-1.3,3c0,0.9,0.5,1.9,1,2.5c0.6,0.7,1.6,0.8,2.1,1.7
		C44,1,43.5,2.7,44,4.2c0.5,1.4,1.4,2.1,2.8,2.3c1.4,0.2,2.9-0.7,3.7-2c1-1.7,0.7-3.6-0.7-5c-1.1-1.1-2.5-1.9-2.8-3.6
		C47-4.7,47-5.3,47-5.9c-0.2-2.5-2.9-3.2-4.8-2.3C42-8,41.7-7.8,41.4-7.6"/>
</g>
<g id="Group-50-Copy-2" transform="translate(446.000000, 224.000000) scale(1, -1) translate(-446.000000, -224.000000) translate(388.000000, 155.000000)">
	<path id="Fill-1_3_" class="st6" d="M60.8-85c1.5-3,6.1-3.8,9.4-4.7c1.4-0.4,0.8-2.2-0.6-1.8c-4.3,1.1-9.2,2.2-11.1,6
		C57.9-84.4,60.2-83.9,60.8-85"/>
	<path id="Fill-3_3_" class="st6" d="M56.9-93.2c-1.7-3.1,0.7-6.7,2.3-9.5c0.7-1.2-1.4-2.2-2.1-1c-2.1,3.6-4.4,7.6-2.3,11.5
		C55.4-90.9,57.5-92,56.9-93.2"/>
	<g id="Group-7_2_" transform="translate(38.000000, 0.000000)">
		<g id="Clip-6_2_">
		</g>
		<defs>
			<filter id="Adobe_OpacityMaskFilter_7_" filterUnits="userSpaceOnUse" x="-2" y="94.5" width="5.3" height="12.3">
				<feColorMatrix  type="matrix" values="1 0 0 0 0  0 1 0 0 0  0 0 1 0 0  0 0 0 1 0"/>
			</filter>
		</defs>
		<mask maskUnits="userSpaceOnUse" x="-2" y="94.5" width="5.3" height="12.3" id="mask-16_1_">
			<g class="st21">
				<polygon id="path-15_1_" class="st3" points="-2,-106.7 3.3,-106.7 3.3,-94.5 -2,-94.5 				"/>
			</g>
		</mask>
		<path id="Fill-5_2_" class="st22" d="M3-95.9c-3.3-2.8-1.6-6.5-0.5-9.6c0.5-1.2-2.5-1.8-3-0.5c-1.3,3.6-3,7.9,0.8,11.1
			C1.5-93.9,4.2-94.9,3-95.9"/>
	</g>
	<path id="Fill-8_2_" class="st6" d="M26.6-91.5c-3-2.3-2.8-6.4-2.9-9.8c0-1.4-2.2-1.4-2.2,0c0,3.9,0,8.6,3.5,11.3
		C26.1-89.2,27.7-90.7,26.6-91.5"/>
	<path id="Fill-10_2_" class="st6" d="M16.1-82.2c-3.3-0.3-5.4-4.2-7.1-7.1c-0.7-1.2-2.4-0.1-1.7,1.2c2.2,3.7,4.6,7.9,8.8,8.2
		C17.4-79.8,17.4-82.1,16.1-82.2"/>
	<path id="Fill-12_2_" class="st6" d="M13.1-71.5c-3.5,1.2-6.9-1.1-9.7-2.9c-1.2-0.7-2.2,1.1-1.1,1.8c3.4,2,7.3,4.4,11.4,3.1
		C14.9-69.9,14.4-71.9,13.1-71.5"/>
	<path id="Fill-14_2_" class="st6" d="M16.8-61.4c-1.8,3.3-6.2,3.9-9.7,4.6c-1.4,0.3-0.8,2.3,0.6,2.1c4.1-0.8,8.9-1.7,11-5.5
		C19.4-61.5,17.4-62.6,16.8-61.4"/>
	<path id="Fill-16_2_" class="st6" d="M24.9-48.8c-1.8,3.3-6.2,3.9-9.7,4.6c-1.4,0.3-0.8,2.3,0.6,2.1c4.1-0.8,8.9-1.7,11-5.5
		C27.5-48.9,25.5-50,24.9-48.8"/>
	<path id="Fill-18_2_" class="st6" d="M37.5-41.6c-1.8,3.3-6.2,3.9-9.7,4.6c-1.4,0.3-0.8,2.3,0.6,2.1c4.1-0.8,8.9-1.7,11-5.5
		C40.1-41.7,38.1-42.8,37.5-41.6"/>
	<path id="Fill-20_2_" class="st6" d="M39.9-24.9c-2.9,1.7-6.7,0.7-9.8,0.1c-1.3-0.3-1.8,1.3-0.5,1.6c3.7,0.8,8,1.7,11.4-0.2
		C41.9-24.1,40.9-25.5,39.9-24.9"/>
	<path id="Fill-22_2_" class="st6" d="M36.4-3.5c0.4-3.4,4.4-5.4,7.2-7c1.2-0.7,0.1-2.5-1.1-1.8c-3.6,2.1-7.7,4.5-8.3,8.8
		C34-2.2,36.2-2.2,36.4-3.5"/>
	<path id="Fill-24_2_" class="st6" d="M46.4,8.7c-0.7-3.6,2.3-6.8,4.6-9.3c0.9-1.1-0.7-2.6-1.6-1.5c-2.9,3.3-6,6.9-5.1,11.4
		C44.5,10.6,46.7,10,46.4,8.7"/>
	<g id="Group-28_2_" transform="translate(66.000000, 124.000000)">
		<g id="Clip-27_2_">
		</g>
		<defs>
			<filter id="Adobe_OpacityMaskFilter_8_" filterUnits="userSpaceOnUse" x="-4.7" y="106.8" width="5.2" height="12.5">
				<feColorMatrix  type="matrix" values="1 0 0 0 0  0 1 0 0 0  0 0 1 0 0  0 0 0 1 0"/>
			</filter>
		</defs>
		<mask maskUnits="userSpaceOnUse" x="-4.7" y="106.8" width="5.2" height="12.5" id="mask-18_1_">
			<g class="st23">
				<polygon id="path-17_1_" class="st3" points="-4.7,-119.2 0.5,-119.2 0.5,-106.8 -4.7,-106.8 				"/>
			</g>
		</mask>
		<path id="Fill-26_2_" class="st24" d="M0.2-108.2c-3.2-2.9-1.5-6.6-0.4-9.8c0.5-1.3-2.5-1.8-3-0.5c-1.4,3.7-3.1,8,0.7,11.3
			C-1.3-106.2,1.4-107.2,0.2-108.2"/>
	</g>
	<path id="Fill-29_2_" class="st6" d="M85.5,9.9c-3.9-1-5.3-4.6-6.6-7.3c-0.5-1.1-2.9-0.6-2.3,0.5c1.6,3.4,3.5,7.4,8.3,8.7
		C86.3,12.2,86.9,10.3,85.5,9.9"/>
	<path id="Fill-31_2_" class="st6" d="M99.8-4.9c-3.3-0.2-5.4-4.1-7.1-7c-0.7-1.2-2.4,0-1.7,1.2c2.2,3.7,4.7,8,8.8,8.2
		C101-2.5,101-4.8,99.8-4.9"/>
	<path id="Fill-33_2_" class="st6" d="M63.5-70.6c1.5-3,6.1-3.8,9.4-4.7c1.4-0.4,0.8-2.2-0.6-1.8c-4.3,1.1-9.2,2.2-11.1,6
		C60.6-70,62.9-69.5,63.5-70.6"/>
	<path id="Fill-35_2_" class="st6" d="M68.9-58.1c1.5-3,6.1-3.8,9.4-4.7c1.4-0.4,0.8-2.2-0.6-1.8c-4.3,1.1-9.2,2.2-11.1,6
		C66-57.4,68.3-56.9,68.9-58.1"/>
	<path id="Fill-37_2_" class="st6" d="M81.3-45.8c0.4-3.4,4.4-5.4,7.2-7c1.2-0.7,0.1-2.5-1.1-1.8c-3.6,2.1-7.7,4.5-8.3,8.8
		C79-44.5,81.2-44.5,81.3-45.8"/>
	<path id="Fill-39_2_" class="st6" d="M91.1-35.5c1.9-3.4,6.3-3.9,9.7-4.5c1.4-0.2,0.8-2.4-0.6-2.2c-4.1,0.7-8.8,1.5-11.1,5.5
		C88.5-35.3,90.4-34.2,91.1-35.5"/>
	<g id="Group-43_2_" transform="translate(102.000000, 88.000000)">
		<g id="Clip-42_2_">
		</g>
		<defs>
			<filter id="Adobe_OpacityMaskFilter_9_" filterUnits="userSpaceOnUse" x="-8.4" y="110.5" width="12.3" height="5.1">
				<feColorMatrix  type="matrix" values="1 0 0 0 0  0 1 0 0 0  0 0 1 0 0  0 0 0 1 0"/>
			</filter>
		</defs>
		<mask maskUnits="userSpaceOnUse" x="-8.4" y="110.5" width="12.3" height="5.1" id="mask-20_1_">
			<g class="st25">
				<polygon id="path-19_1_" class="st3" points="-8.4,-115.7 3.9,-115.7 3.9,-110.5 -8.4,-110.5 				"/>
			</g>
		</mask>
		<path id="Fill-41_2_" class="st26" d="M-6.6-110.9c2.5-3.1,6.3-2,9.3-1.4c1.3,0.3,1.8-2.4,0.5-2.7c-3.8-0.8-8.1-1.8-11.3,2.1
			C-9-111.6-7.6-109.7-6.6-110.9"/>
	</g>
	<path id="Fill-44_2_" class="st13" d="M22-90.2C15.8-85,11.4-77,11.7-69.2c0.2,6,3.7,12.9,7.9,17.2c5,4.9,11.9,5.7,16,11.9
		C42-30.5,38-18.7,42-8.6c3.9,9.7,11,14.8,21.3,15.8c11,1.1,22.2-4.9,28.3-14c7.9-11.9,5.1-25.2-5-34.5c-8.1-7.4-19.3-13.3-21.3-25
		c-0.7-4-0.4-8.2-0.7-12.2c-1.4-17.7-22.5-22.2-36.5-15.7C26.1-93,24.1-91.6,22-90.2"/>
	<path id="Fill-46_2_" class="st6" d="M86.5-40.2c-8.2-7.2-19.6-13.1-21.7-24.5c-0.7-3.9-0.4-8-0.7-12c-0.8-10-8.4-15.8-17.3-17.5
		c4.4,3.2,7.7,7.8,8.4,12c2.2,17.2,10.1,31,23.2,42.2c11.8,10,6.1,27.6-7,33.5C66.9-4.9,60.8-3.6,56-5.7C50.3-8.2,44.6-12,42.4-17.9
		c-1-2.6-2.3-5.2-3.7-7.6c0.4,5.8,0.2,11.7,2.5,17.1C45.1,1.2,52.3,6.2,62.8,7.2C74,8.3,85.4,2.4,91.5-6.5
		C99.6-18.1,96.7-31.2,86.5-40.2"/>
	<path id="Fill-48_2_" class="st6" d="M40.2-64.4c-2.6,2.2-4.4,5.7-4.3,9c0.1,2.6,1.5,5.6,3.3,7.4c2.1,2.1,5,2.4,6.7,5.1
		c2.6,4.1,1,9.2,2.7,13.6c1.6,4.2,4.6,6.4,8.9,6.8c4.6,0.5,9.2-2.1,11.7-6c3.3-5.1,2.1-10.9-2.1-14.9c-3.4-3.2-8-5.8-8.9-10.8
		c-0.3-1.7-0.2-3.5-0.3-5.3c-0.6-7.6-9.4-9.6-15.2-6.7C41.9-65.6,41.1-65,40.2-64.4"/>
</g>
<g id="Group-50-Copy-2_1_" transform="translate(446.000000, 224.000000) scale(1, -1) translate(-446.000000, -224.000000) translate(388.000000, 155.000000)">
	<path id="Fill-1_4_" class="st6" d="M-242.4,124.3c-8.6,1.4-17.6-7.2-24.5-13.1c-3-2.6-6,1.6-3,4.2c9,7.7,19,16.4,29.9,14.6
		C-236.7,129.4-239.1,123.8-242.4,124.3"/>
	<path id="Fill-3_4_" class="st6" d="M-254,145.1c-4.1,8.5-15.3,8.8-23.9,9.6c-3.6,0.3-2.6,6.5,1,6.1c11-1,23.1-2.1,28.3-12.8
		C-246.9,144.8-252.4,141.9-254,145.1"/>
	<g id="Group-7_3_" transform="translate(38.000000, 0.000000)">
		<g id="Clip-6_3_">
		</g>
		<defs>
			<filter id="Adobe_OpacityMaskFilter_10_" filterUnits="userSpaceOnUse" x="-294.8" y="-206.5" width="27.6" height="24.7">
				<feColorMatrix  type="matrix" values="1 0 0 0 0  0 1 0 0 0  0 0 1 0 0  0 0 0 1 0"/>
			</filter>
		</defs>
		<mask maskUnits="userSpaceOnUse" x="-294.8" y="-206.5" width="27.6" height="24.7" id="mask-16_2_">
			<g class="st27">
				<polygon id="path-15_2_" class="st3" points="-289.2,210.9 -297.3,199.6 -270.8,180.7 -262.7,192 				"/>
			</g>
		</mask>
		<path id="Fill-5_3_" class="st28" d="M-273.5,183.5c-1,11.4-11.5,13.4-20,15.7c-3.4,0.9,0,8.1,3.4,7.2c9.9-2.7,21.6-5.6,22.8-18.8
			C-266.8,183.6-273.1,179.4-273.5,183.5"/>
	</g>
	<path id="Fill-8_3_" class="st6" d="M-203.8,207.9c-0.4,10-9.5,15.9-16.7,21.2c-2.9,2.1,0.4,6.8,3.3,4.7c8.4-6.2,18.5-13.4,19-24.9
		C-198.1,205.3-203.7,204.3-203.8,207.9"/>
	<path id="Fill-10_3_" class="st6" d="M-167.6,216.1c4.5,7.6-0.8,18-4.4,26.1c-1.5,3.4,3.6,5.3,5.1,1.9c4.6-10.3,9.9-22,4.2-31.5
		C-164.4,209.7-169.4,213.2-167.6,216.1"/>
	<path id="Fill-12_3_" class="st6" d="M-139.9,206.2c7.9,5.8,8.1,16.5,8.8,25.3c0.3,3.6,5.7,3.1,5.5-0.4
		c-0.8-10.4-1.7-22.4-10.9-29.2C-139.4,199.8-142.8,204-139.9,206.2"/>
	<path id="Fill-14_3_" class="st6" d="M-123.9,182.6c9.9-1.2,18,7.4,24.7,13.9c2.8,2.6,6.3-1.8,3.5-4.5c-8-7.6-17.3-16.7-28.9-15.3
		C-128.2,177.2-127.5,183.1-123.9,182.6"/>
	<path id="Fill-16_3_" class="st6" d="M-109.2,145.8c9.9-1.2,18,7.4,24.7,13.9c2.8,2.6,6.3-1.8,3.5-4.5c-8-7.6-17.3-16.7-28.9-15.3
		C-113.5,140.5-112.9,146.3-109.2,145.8"/>
	<path id="Fill-18_3_" class="st6" d="M-113.1,107.7c9.9-1.2,18,7.4,24.7,13.9c2.8,2.6,6.3-1.8,3.5-4.5c-8-7.6-17.3-16.7-28.9-15.3
		C-117.4,102.3-116.7,108.1-113.1,107.7"/>
	<path id="Fill-20_3_" class="st6" d="M-80.8,76.9c8.1,3.7,11.8,13.2,15.3,21.1c1.4,3.2,5.6,1.9,4.2-1.2c-4-9.1-8.7-19.9-18.1-24.2
		C-82.3,71.1-83.8,75.5-80.8,76.9"/>
	<path id="Fill-22_3_" class="st6" d="M-29.5,51.6c-7.9,4.3-18.3-1.1-26-4.7c-3.3-1.5-5.5,3.6-2.1,5.1c10.1,4.6,21.5,9.8,31.5,4.3
		C-23,54.6-26.4,49.9-29.5,51.6"/>
	<path id="Fill-24_3_" class="st6" d="M-18.6,11.2c-6.7,7.1-18.1,5.4-27,4.5c-3.8-0.4-4.6,5.5-0.9,5.9c11.4,1.1,24.1,2.4,32.5-6.5
		C-11.4,12.3-16.1,8.5-18.6,11.2"/>
	<g id="Group-28_3_" transform="translate(66.000000, 124.000000)">
		<g id="Clip-27_3_">
		</g>
		<defs>
			<filter id="Adobe_OpacityMaskFilter_11_" filterUnits="userSpaceOnUse" x="-121.7" y="143.3" width="28.2" height="24.8">
				<feColorMatrix  type="matrix" values="1 0 0 0 0  0 1 0 0 0  0 0 1 0 0  0 0 0 1 0"/>
			</filter>
		</defs>
		<mask maskUnits="userSpaceOnUse" x="-121.7" y="143.3" width="28.2" height="24.8" id="mask-18_2_">
			<g class="st29">
				<polygon id="path-17_2_" class="st3" points="-115.9,-138.8 -124,-150 -97.1,-169.2 -89.1,-158 				"/>
			</g>
		</mask>
		<path id="Fill-26_3_" class="st30" d="M-99.8-166.3c-1.2,11.4-11.8,13.4-20.5,15.8c-3.5,0.9-0.1,8.1,3.4,7.2
			c10-2.7,22-5.7,23.4-18.8C-93.1-166.3-99.3-170.5-99.8-166.3"/>
	</g>
	<path id="Fill-29_3_" class="st6" d="M-75.9-74.8c3.8,9.9-1.8,18.6-5.6,25.5c-1.6,2.9,3.1,7.2,4.7,4.3c4.9-8.8,10.7-18.9,5.9-31.3
		C-72.5-80.1-77.4-78.6-75.9-74.8"/>
	<path id="Fill-31_3_" class="st6" d="M-129.9-82.8c4.6,7.3-0.6,17.9-4.2,26c-1.5,3.4,3.6,5.3,5.2,1.8c4.5-10.4,9.9-22.3,4.1-31.5
		C-126.6-89.2-131.7-85.6-129.9-82.8"/>
	<path id="Fill-33_3_" class="st6" d="M-215.6,96.4c-8.6,1.4-17.6-7.2-24.5-13.1c-3-2.6-6,1.6-3,4.2c9,7.7,19,16.4,29.9,14.6
		C-209.9,101.5-212.3,95.8-215.6,96.4"/>
	<path id="Fill-35_3_" class="st6" d="M-196.8,65.4c-8.6,1.4-17.6-7.2-24.5-13.1c-3-2.6-6,1.6-3,4.2c9,7.7,19,16.4,29.9,14.6
		C-191.1,70.5-193.5,64.9-196.8,65.4"/>
	<path id="Fill-37_3_" class="st6" d="M-189.6,19.8c-7.9,4.3-18.3-1.1-26-4.7c-3.3-1.5-5.5,3.6-2.1,5.1c10.1,4.6,21.5,9.8,31.5,4.3
		C-183.1,22.8-186.5,18.1-189.6,19.8"/>
	<path id="Fill-39_3_" class="st6" d="M-182.3-17.1c-10.2,1.2-18-7.6-24.6-14.1c-2.7-2.6-6.4,1.9-3.7,4.6
		c7.8,7.7,16.8,16.7,28.8,15.3C-178-11.7-178.5-17.5-182.3-17.1"/>
	<g id="Group-43_3_" transform="translate(102.000000, 88.000000)">
		<g id="Clip-42_3_">
		</g>
		<defs>
			<filter id="Adobe_OpacityMaskFilter_12_" filterUnits="userSpaceOnUse" x="-287.9" y="127.7" width="26.2" height="25.3">
				<feColorMatrix  type="matrix" values="1 0 0 0 0  0 1 0 0 0  0 0 1 0 0  0 0 0 1 0"/>
			</filter>
		</defs>
		<mask maskUnits="userSpaceOnUse" x="-287.9" y="127.7" width="26.2" height="25.3" id="mask-20_2_">
			<g class="st31">
				<polygon id="path-19_2_" class="st3" points="-271.5,-122.6 -290.4,-149.1 -279.3,-157 -260.4,-130.5 				"/>
			</g>
		</mask>
		<path id="Fill-41_3_" class="st32" d="M-263.8-133.7c-10.5-0.6-14.1-10.5-17.3-17.9c-1.4-3.1-7.9-0.2-6.5,2.9
			c4.1,9.5,8.6,20.3,21.8,21C-261.8-127.4-259.8-133.5-263.8-133.7"/>
	</g>
	<path id="Fill-44_3_" class="st13" d="M-193.9,215.6c20.7,5.5,44.7,2.6,61-9.9c12.6-9.7,22.2-27.8,24.8-43.4
		c3-18.2-6.2-34.4,1-52.8c11-28.4,42.5-38,58-62.3c14.9-23.2,14.9-46.5,1.3-70.3c-14.5-25.4-44.6-40.3-73.5-39.4
		c-37.7,1.2-62.1,27.8-66.5,63.7c-3.5,28.7,0.9,62-21,84.4c-7.6,7.7-17,13.3-25.3,20.3c-36,30.2-13.2,82.7,22.5,102.7
		C-206.2,211.1-200.2,213.4-193.9,215.6"/>
	<path id="Fill-46_3_" class="st6" d="M-185.5,0.2c-3,28.8,2,62.3-19.4,84.4c-7.4,7.6-16.6,13.1-24.7,19.9
		c-20.4,17.2-21.1,42.2-11.1,64.2c0.1-14.4,5-28.7,13-36.5c33.5-31.1,51.1-69.3,55.2-115c3.4-40.9,50-55.7,82.8-36.3
		c10.3,6.9,22.5,18.2,25.4,31.8c3.4,16.1,4,34.2-5.2,47.9c-4,6.2-7.7,12.8-10.5,19.7c11.8-9.8,24.8-18.5,33-31.6
		c14.4-23.1,14-46.4,0-70.6c-14.8-25.8-45-41.2-73.6-40.8C-158-62.2-181.8-35.9-185.5,0.2"/>
	<path id="Fill-48_3_" class="st6" d="M-166.4,136.7c8.8,2.1,19,0.8,26-4.6c5.4-4.2,9.7-11.8,10.9-18.4c1.4-7.7-2.4-14.4,0.8-22.2
		c4.9-12,18.4-16.3,25.2-26.6c6.5-9.9,6.7-19.6,1.1-29.5c-6-10.6-18.7-16.6-31-16c-16.1,0.8-26.7,12.2-28.8,27.3
		c-1.7,12.1-0.1,26.1-9.6,35.6c-3.3,3.3-7.3,5.7-10.9,8.7c-15.5,13-6.3,34.9,8.8,43C-171.6,134.9-169.1,135.9-166.4,136.7"/>
</g>
</svg>
