<?xml version="1.0" encoding="utf-8"?>
<!-- Generator: Adobe Illustrator 22.1.0, SVG Export Plug-In . SVG Version: 6.00 Build 0)  -->
<svg version="1.1" id="Layer_1" xmlns="http://www.w3.org/2000/svg" xmlns:xlink="http://www.w3.org/1999/xlink" x="0px" y="0px"
	 viewBox="0 0 335 329" style="enable-background:new 0 0 335 329;" xml:space="preserve">
<style type="text/css">
	.st0{opacity:0.2;}
	.st1{fill:#BF3AC9;}
	.st2{fill:#F646FF;}
	.st3{filter:url(#Adobe_OpacityMaskFilter);}
	.st4{fill:#FFFFFF;}
	.st5{mask:url(#mask-2_1_);fill:#BF3AC9;}
	.st6{filter:url(#Adobe_OpacityMaskFilter_1_);}
	.st7{mask:url(#mask-4_1_);fill:#BF3AC9;}
</style>
<title>Group 103 Copy 2</title>
<desc>Created with Sketch.</desc>
<g class="st0">
	<path id="Fill-1" class="st1" d="M158,62h17c-1.9-15-1.9-30,0-45h-17C159.9,32,159.9,47,158,62"/>
	<path id="Fill-3" class="st1" d="M104,77l15-8.4c-9.3-11.9-17-24.8-23-38.6l-15,8.4C90.3,50.4,98,63.2,104,77"/>
	<path id="Fill-5" class="st1" d="M70.6,122l8.4-15c-13.8-6-26.7-13.6-38.6-23L32,99C45.8,105,58.6,112.7,70.6,122"/>
	<path id="Fill-7" class="st1" d="M60,175l0-17c-15.7,1.9-31.3,1.9-47,0l0,17C28.7,173.1,44.3,173.1,60,175"/>
	<path id="Fill-9" class="st1" d="M79,229l-8.4-15c-11.9,9.3-24.8,17-38.6,23l8.4,15C52.4,242.7,65.2,235,79,229"/>
	<path id="Fill-11" class="st1" d="M119,262.4l-15-8.4c-6,13.8-13.6,26.6-23,38.6l15,8.4C102,287.2,109.7,274.3,119,262.4"/>
	<path id="Fill-13" class="st1" d="M175,273l-17,0c1.9,15,1.9,30,0,45l17,0C173.1,303,173.1,288,175,273"/>
	<path id="Fill-15" class="st1" d="M231.1,254l-15.1,8.4c9.3,11.9,17,24.8,23,38.6l15-8.4C244.7,280.6,237,267.8,231.1,254"/>
	<path id="Fill-17" class="st1" d="M264.4,214l-8.4,15c13.8,6,26.6,13.6,38.6,23l8.4-15C289.2,231,276.4,223.3,264.4,214"/>
	<path id="Fill-19" class="st1" d="M275,158l0,17c15.7-1.9,31.3-1.9,47,0v-17C306.3,159.9,290.7,159.9,275,158"/>
	<path id="Fill-21" class="st1" d="M256,107l8.4,15c11.9-9.3,24.8-17,38.6-23l-8.4-15C282.6,93.3,269.8,101,256,107"/>
	<path id="Fill-23" class="st1" d="M216,68.6l15,8.4c6-13.8,13.7-26.7,23-38.6L239,30C233,43.8,225.3,56.6,216,68.6"/>
	<path id="Fill-25" class="st1" d="M288,167.5c0,66.5-54.4,120.5-121.5,120.5C99.4,288,45,234.1,45,167.5S99.4,47,166.5,47
		C233.6,47,288,101,288,167.5"/>
	<path id="Fill-27" class="st1" d="M288,167.5c0,14.5-2.6,28.3-7.3,41.2c-3,8.1-6.8,15.9-11.5,23.1c-14.9,23.5-37.8,41.4-64.9,50.2
		c-11.9,3.9-24.6,6-37.9,6C99.4,288,45,234,45,167.5c0-13.1,2.1-25.7,6-37.6c8.9-26.8,27-49.5,50.6-64.3c7.3-4.6,15.1-8.4,23.3-11.4
		c13-4.7,26.9-7.2,41.6-7.2C233.6,47,288,100.9,288,167.5"/>
	<path id="Fill-29" class="st1" d="M211,244.7c0,13.3-2.1,26.2-6,38.3c-11.9,3.9-24.7,6.1-38,6.1c-67.4,0-122-54.9-122-122.7
		c0-13.3,2.1-26.2,6.1-38.3c12-3.9,24.7-6.1,38-6.1C156.4,122,211,176.9,211,244.7"/>
	<path id="Fill-31" class="st2" d="M290,166.4c0,14.6-2.6,28.6-7.3,41.5c-3,8.2-6.8,16-11.4,23.3c-18.8,11.9-41,18.7-64.8,18.7
		C139.4,250,85,195.6,85,128.6c0-23.8,6.9-46.1,18.7-64.8c7.3-4.6,15.1-8.5,23.3-11.5C140,47.6,154,45,168.6,45
		C235.6,45,290,99.4,290,166.4"/>
	<path id="Fill-33" class="st1" d="M196,97.5c0,5.3-4.3,9.5-9.5,9.5c-5.2,0-9.5-4.2-9.5-9.5c0-5.2,4.3-9.5,9.5-9.5
		C191.7,88,196,92.3,196,97.5"/>
	<path id="Fill-35" class="st1" d="M264,186.5c0,5.2-4.3,9.5-9.5,9.5c-5.2,0-9.5-4.3-9.5-9.5c0-5.2,4.2-9.5,9.5-9.5
		C259.7,177,264,181.3,264,186.5"/>
	<path id="Fill-37" class="st1" d="M104,159c0,9.9-8.1,18-18,18s-18-8.1-18-18s8.1-18,18-18S104,149.1,104,159"/>
	<path id="Fill-39" class="st1" d="M207,136c0,7.7-6.3,14-14,14c-7.7,0-14-6.3-14-14s6.3-14,14-14C200.7,122,207,128.3,207,136"/>
	<path id="Fill-41" class="st1" d="M226,240.5c0,4.1-3.4,7.5-7.5,7.5c-4.1,0-7.5-3.4-7.5-7.5c0-4.1,3.4-7.5,7.5-7.5
		C222.6,233,226,236.4,226,240.5"/>
	<path id="Fill-43" class="st1" d="M136,103c0,9.4-7.6,17-17,17c-9.4,0-17-7.6-17-17c0-9.4,7.6-17,17-17C128.4,86,136,93.6,136,103"
		/>
	<path id="Fill-45" class="st1" d="M169,75.5c0,4.1-3.4,7.5-7.5,7.5c-4.1,0-7.5-3.4-7.5-7.5c0-4.1,3.4-7.5,7.5-7.5
		C165.6,68,169,71.4,169,75.5"/>
	<path id="Fill-47" class="st1" d="M254,110.5c0,4.1-3.4,7.5-7.5,7.5c-4.1,0-7.5-3.4-7.5-7.5c0-4.1,3.4-7.5,7.5-7.5
		C250.6,103,254,106.4,254,110.5"/>
	<path id="Fill-49" class="st1" d="M154,233c0,9.4-7.6,17-17,17c-9.4,0-17-7.6-17-17c0-9.4,7.6-17,17-17
		C146.4,216,154,223.6,154,233"/>
	<path id="Fill-51" class="st1" d="M273,133.5c0,4.1-3.8,7.5-8.5,7.5c-4.7,0-8.5-3.4-8.5-7.5c0-4.1,3.8-7.5,8.5-7.5
		C269.2,126,273,129.4,273,133.5"/>
	<path id="Fill-53" class="st1" d="M192,12c0,6.6-11.9,12-26.5,12S139,18.6,139,12s11.9-12,26.5-12S192,5.4,192,12"/>
	<path id="Fill-55" class="st2" d="M181,11.5c0,3-7.2,5.5-16,5.5c-8.8,0-16-2.5-16-5.5S156.2,6,165,6C173.8,6,181,8.5,181,11.5"/>
	<g id="Group-59" transform="translate(139.000000, 305.000000)">
		<g id="Clip-58">
		</g>
		<defs>
			<filter id="Adobe_OpacityMaskFilter" filterUnits="userSpaceOnUse" x="0" y="0" width="53" height="24">
				<feColorMatrix  type="matrix" values="1 0 0 0 0  0 1 0 0 0  0 0 1 0 0  0 0 0 1 0"/>
			</filter>
		</defs>
		<mask maskUnits="userSpaceOnUse" x="0" y="0" width="53" height="24" id="mask-2_1_">
			<g class="st3">
				<polygon id="path-1_1_" class="st4" points="0,0 53,0 53,24 0,24 				"/>
			</g>
		</mask>
		<path id="Fill-57" class="st5" d="M53,12c0,6.6-11.9,12-26.5,12S0,18.6,0,12S11.9,0,26.5,0S53,5.4,53,12"/>
	</g>
	<path id="Fill-60" class="st2" d="M181,317.5c0,3-7.2,5.5-16,5.5c-8.8,0-16-2.5-16-5.5c0-3,7.2-5.5,16-5.5
		C173.8,312,181,314.5,181,317.5"/>
	<path id="Fill-62" class="st1" d="M268.3,47.6c-3.2,5.6-16,4-28.6-3.5c-12.6-7.5-20.2-18.2-16.9-23.8c3.2-5.6,16-4,28.6,3.5
		C263.9,31.4,271.5,42,268.3,47.6"/>
	<path id="Fill-64" class="st2" d="M257.6,41.4c-1.7,2.9-9.3,1.8-16.8-2.6c-7.5-4.3-12.2-10.3-10.5-13.2c1.7-2.9,9.3-1.8,16.8,2.6
		C254.7,32.5,259.4,38.4,257.6,41.4"/>
	<path id="Fill-66" class="st1" d="M112.3,310.6c-3.2,5.6-16,4-28.6-3.5c-12.6-7.5-20.2-18.2-16.9-23.8c3.2-5.6,16-4,28.6,3.5
		C107.9,294.4,115.5,305,112.3,310.6"/>
	<path id="Fill-68" class="st2" d="M102.6,303.4c-1.7,2.9-9.3,1.8-16.8-2.6c-7.5-4.3-12.2-10.2-10.5-13.2c1.7-2.9,9.3-1.8,16.8,2.6
		C99.7,294.5,104.4,300.4,102.6,303.4"/>
	<path id="Fill-70" class="st1" d="M316.4,112.3c-5.8,3.1-16.4-4.7-23.9-17.3c-7.4-12.6-8.7-25.3-3-28.4c5.8-3.1,16.4,4.6,23.9,17.3
		S322.2,109.2,316.4,112.3"/>
	<path id="Fill-72" class="st2" d="M309.3,104.7c-3,1.7-9-3.1-13.2-10.6c-4.3-7.5-5.3-15-2.3-16.7c3-1.7,9,3.1,13.2,10.6
		C311.3,95.5,312.3,103,309.3,104.7"/>
	<path id="Fill-74" class="st1" d="M45.4,262.3c-5.8,3.1-16.5-4.7-23.9-17.3c-7.4-12.6-8.7-25.3-3-28.4c5.8-3.1,16.5,4.6,23.9,17.3
		C49.9,246.5,51.2,259.2,45.4,262.3"/>
	<path id="Fill-76" class="st2" d="M38.3,253.7c-3,1.7-9-3.1-13.2-10.6c-4.3-7.5-5.3-15-2.3-16.7c3-1.7,9,3.1,13.2,10.6
		C40.3,244.5,41.3,252,38.3,253.7"/>
	<path id="Fill-78" class="st1" d="M323,194c-6.3-0.1-11.2-12.1-11-26.7c0.3-14.6,5.7-26.4,12-26.3c6.3,0.1,11.3,12.1,11,26.7
		C334.7,182.4,329.3,194.1,323,194"/>
	<path id="Fill-80" class="st2" d="M323.2,184c-3-0.1-5.4-7.3-5.2-16.1c0.2-8.8,2.7-15.9,5.8-15.9c3,0.1,5.4,7.3,5.2,16.1
		C328.8,177,326.3,184.1,323.2,184"/>
	<g id="Group-84" transform="translate(0.000000, 135.000000)">
		<g id="Clip-83">
		</g>
		<defs>
			<filter id="Adobe_OpacityMaskFilter_1_" filterUnits="userSpaceOnUse" x="0" y="0.1" width="23" height="52.8">
				<feColorMatrix  type="matrix" values="1 0 0 0 0  0 1 0 0 0  0 0 1 0 0  0 0 0 1 0"/>
			</filter>
		</defs>
		<mask maskUnits="userSpaceOnUse" x="0" y="0.1" width="23" height="52.8" id="mask-4_1_">
			<g class="st6">
				<polygon id="path-3_1_" class="st4" points="0,0.1 23,0.1 23,52.9 0,52.9 				"/>
			</g>
		</mask>
		<path id="Fill-82" class="st7" d="M11,52.9C4.6,52.8-0.3,40.8,0,26.3C0.3,11.7,5.7-0.1,12,0.1s11.2,12.1,10.9,26.6
			C22.7,41.3,17.3,53,11,52.9"/>
	</g>
	<path id="Fill-85" class="st2" d="M11.2,177c-3-0.1-5.4-7.3-5.2-16.1c0.2-8.8,2.7-15.9,5.8-15.9c3,0.1,5.4,7.3,5.2,16.1
		C16.8,170,14.3,177.1,11.2,177"/>
	<path id="Fill-87" class="st1" d="M287.5,264.3c-5.7-3.1-4.2-15.9,3.2-28.5c7.5-12.6,18.1-20.2,23.8-17.1
		c5.7,3.1,4.2,15.9-3.2,28.5C303.8,259.8,293.2,267.4,287.5,264.3"/>
	<path id="Fill-89" class="st2" d="M293.7,253.7c-3-1.7-1.9-9.2,2.4-16.7c4.3-7.5,10.2-12.3,13.2-10.6c3,1.7,1.9,9.2-2.4,16.7
		S296.7,255.4,293.7,253.7"/>
	<path id="Fill-91" class="st1" d="M18.5,112.3c-5.7-3.1-4.2-15.9,3.2-28.5c7.5-12.6,18.1-20.2,23.8-17.1c5.7,3.1,4.2,15.9-3.2,28.5
		C34.8,107.8,24.2,115.4,18.5,112.3"/>
	<path id="Fill-93" class="st2" d="M25.7,102.7c-3-1.7-1.9-9.2,2.4-16.7c4.3-7.5,10.2-12.3,13.2-10.6c3,1.7,1.9,9.2-2.4,16.7
		C34.6,99.6,28.7,104.4,25.7,102.7"/>
	<path id="Fill-95" class="st1" d="M222.7,310.7c-3.2-5.6,4.3-16.2,16.9-23.8c12.6-7.5,25.4-9.1,28.6-3.5
		c3.2,5.6-4.3,16.2-16.9,23.8C238.8,314.7,226,316.2,222.7,310.7"/>
	<path id="Fill-97" class="st2" d="M230.4,303.4c-1.8-2.9,2.9-8.8,10.5-13.2c7.5-4.4,15.1-5.5,16.8-2.6c1.8,2.9-2.9,8.8-10.5,13.2
		C239.6,305.2,232.1,306.3,230.4,303.4"/>
	<path id="Fill-99" class="st1" d="M66.7,47.7c-3.2-5.6,4.3-16.2,16.9-23.8c12.6-7.5,25.4-9.1,28.6-3.5c3.2,5.6-4.3,16.2-16.9,23.8
		C82.8,51.7,70,53.2,66.7,47.7"/>
	<path id="Fill-101" class="st2" d="M75.4,41.4c-1.8-2.9,2.9-8.8,10.5-13.2c7.5-4.4,15.1-5.5,16.8-2.6c1.8,2.9-2.9,8.8-10.5,13.2
		C84.6,43.2,77.1,44.3,75.4,41.4"/>
</g>
</svg>
