<?xml version="1.0" encoding="UTF-8"?>
<svg width="157px" height="154px" viewBox="0 0 157 154" version="1.1" xmlns="http://www.w3.org/2000/svg" xmlns:xlink="http://www.w3.org/1999/xlink">
    <!-- Generator: Sketch 61.1 (89650) - https://sketch.com -->
    <title>Group 103</title>
    <desc>Created with Sketch.</desc>
    <defs>
        <polygon id="path-1" points="0.00129021972 -0.000498323124 11.001 -0.000498323124 11.001 24.9995147 0.00129021972 24.9995147"></polygon>
    </defs>
    <g id="Page-1" stroke="none" stroke-width="1" fill="none" fill-rule="evenodd" opacity="0.42671131">
        <g id="Droplet-&amp;-Contact_2-Copy-12" transform="translate(-82.000000, -132.000000)">
            <g id="Group-103-Copy-5" transform="translate(82.000000, 132.000000)">
                <g id="Group-102" opacity="0.383928571">
                    <path d="M74.001,29 L82.001,29 C81.118,21.998 81.118,15 82.001,8 L74.001,8 C74.884,15 74.884,21.998 74.001,29" id="Fill-1" fill="#D18930"></path>
                    <path d="M48.8775,36 L56.0015,32.058 C51.5885,26.475 47.9645,20.453 45.1245,14 L38.0015,17.942 C42.4115,23.527 46.0375,29.549 48.8775,36" id="Fill-3" fill="#D18930"></path>
                    <path d="M33.0567,57 L37.0007,49.875 C30.5477,47.037 24.5257,43.411 18.9417,39 L15.0007,46.125 C21.4517,48.965 27.4737,52.589 33.0567,57" id="Fill-5" fill="#D18930"></path>
                    <path d="M27.9986,82 L28.0006,74 C20.6686,74.883 13.3346,74.883 6.0006,74 L6.0036,82 C13.3346,81.119 20.6686,81.117 27.9986,82" id="Fill-7" fill="#D18930"></path>
                    <path d="M37.001,107.124 L33.06,100 C27.475,104.411 21.455,108.035 15.001,110.875 L18.946,118 C24.527,113.589 30.549,109.963 37.001,107.124" id="Fill-9" fill="#D18930"></path>
                    <path d="M56.001,122.9424 L48.876,119.0004 C46.038,125.4514 42.412,131.4734 38.001,137.0594 L45.126,141.0004 C47.964,134.5474 51.59,128.5254 56.001,122.9424" id="Fill-11" fill="#D18930"></path>
                    <path d="M82.001,128.002 L74.001,128 C74.886,135.001 74.884,142.001 74.003,149 L82.001,148.998 C81.118,142.001 81.118,135.001 82.001,128.002" id="Fill-13" fill="#D18930"></path>
                    <path d="M108.1299,119 L101.0009,122.942 C105.4139,128.525 109.0379,134.548 111.8809,141 L119.0009,137.057 C114.5919,131.474 110.9659,125.451 108.1299,119" id="Fill-15" fill="#D18930"></path>
                    <path d="M123.9493,100 L120.0013,107.127 C126.4553,109.963 132.4733,113.591 138.0583,118 L142.0013,110.875 C135.5493,108.037 129.5273,104.413 123.9493,100" id="Fill-17" fill="#D18930"></path>
                    <path d="M129.0059,74 L129.0009,82 C136.3369,81.117 143.6709,81.117 151.0009,81.998 L151.0009,74.002 C143.6669,74.885 136.3349,74.885 129.0059,74" id="Fill-19" fill="#D18930"></path>
                    <path d="M120.001,49.8716 L123.942,56.9996 C129.525,52.5866 135.55,48.9616 142.001,46.1216 L138.059,38.9996 C132.474,43.4106 126.452,47.0366 120.001,49.8716" id="Fill-21" fill="#D18930"></path>
                    <path d="M101.001,32.0513 L108.128,36.0003 C110.964,29.5473 114.594,23.5243 119.001,17.9423 L111.881,14.0003 C109.04,20.4523 105.414,26.4733 101.001,32.0513" id="Fill-23" fill="#D18930"></path>
                    <path d="M135.001,78.501 C135.001,109.704 109.481,135 77.999,135 C46.522,135 21.001,109.704 21.001,78.501 C21.001,47.298 46.522,22 77.999,22 C109.481,22 135.001,47.298 135.001,78.501" id="Fill-25" fill="#D18930"></path>
                    <path d="M135.001,78.499 C135.001,85.279 133.796,91.787 131.586,97.81 C130.182,101.629 128.385,105.263 126.214,108.647 C119.208,119.645 108.475,128.067 95.772,132.199 C90.186,134.018 84.208,135 78.006,135 C46.523,135 21.001,109.703 21.001,78.499 C21.001,72.352 21.995,66.431 23.839,60.881 C27.993,48.303 36.491,37.678 47.577,30.722 C50.992,28.568 54.658,26.778 58.511,25.382 C64.588,23.194 71.152,22 78.006,22 C109.481,22 135.001,47.295 135.001,78.499" id="Fill-27" fill="#D18930"></path>
                    <path d="M99.001,114.294 C99.001,120.527 98.004,126.535 96.161,132.16 C90.546,134.003 84.54,135 78.306,135 C46.658,135 21.001,109.349 21.001,77.703 C21.001,71.47 22,65.467 23.856,59.837 C29.472,57.997 35.475,57 41.709,57 C73.349,57 99.001,82.651 99.001,114.294" id="Fill-29" fill="#D18A30"></path>
                    <path d="M136.001,77.8736 C136.001,84.6996 134.798,91.2496 132.594,97.3126 C131.191,101.1576 129.398,104.8146 127.232,108.2216 C118.452,113.7826 108.042,116.9996 96.883,116.9996 C65.467,116.9996 40.001,91.5406 40.001,60.1256 C40.001,48.9666 43.221,38.5606 48.769,29.7796 C52.177,27.6116 55.835,25.8106 59.68,24.4046 C65.743,22.2026 72.293,20.9996 79.132,20.9996 C110.537,20.9996 136.001,46.4626 136.001,77.8736" id="Fill-31" fill="#D1A267"></path>
                    <path d="M92.001,45.5 C92.001,47.987 89.984,50 87.501,50 C85.015,50 83.001,47.987 83.001,45.5 C83.001,43.015 85.015,41 87.501,41 C89.984,41 92.001,43.015 92.001,45.5" id="Fill-33" fill="#D1A267"></path>
                    <path d="M124.001,87.501 C124.001,89.984 121.982,92 119.5,92 C117.014,92 115.001,89.984 115.001,87.501 C115.001,85.015 117.014,83 119.5,83 C121.982,83 124.001,85.015 124.001,87.501" id="Fill-35" fill="#D18A30"></path>
                    <path d="M49.001,74.5 C49.001,79.195 45.196,83 40.501,83 C35.806,83 32.001,79.195 32.001,74.5 C32.001,69.805 35.806,66 40.501,66 C45.196,66 49.001,69.805 49.001,74.5" id="Fill-37" fill="#D18A30"></path>
                    <path d="M97.001,63.501 C97.001,67.092 94.091,70 90.5,70 C86.913,70 84.001,67.092 84.001,63.501 C84.001,59.91 86.913,57 90.5,57 C94.091,57 97.001,59.91 97.001,63.501" id="Fill-39" fill="#D18A30"></path>
                    <path d="M106.001,112.499 C106.001,114.433 104.435,116 102.501,116 C100.568,116 99.001,114.433 99.001,112.499 C99.001,110.565 100.568,109 102.501,109 C104.435,109 106.001,110.565 106.001,112.499" id="Fill-41" fill="#D18A30"></path>
                    <path d="M64.001,48.001 C64.001,52.42 60.419,56 56.003,56 C51.583,56 48.001,52.42 48.001,48.001 C48.001,43.58 51.583,40 56.003,40 C60.419,40 64.001,43.58 64.001,48.001" id="Fill-43" fill="#D1A267"></path>
                    <path d="M79.001,35.5 C79.001,37.431 77.432,39 75.501,39 C73.567,39 72.001,37.431 72.001,35.5 C72.001,33.566 73.567,32 75.501,32 C77.432,32 79.001,33.566 79.001,35.5" id="Fill-45" fill="#D18A30"></path>
                    <path d="M119.001,51.5 C119.001,53.432 117.436,55 115.502,55 C113.565,55 112.001,53.432 112.001,51.5 C112.001,49.565 113.565,48 115.502,48 C117.436,48 119.001,49.565 119.001,51.5" id="Fill-47" fill="#D18A30"></path>
                    <path d="M72.001,108.999 C72.001,113.418 68.42,117 64.003,117 C59.583,117 56.001,113.418 56.001,108.999 C56.001,104.579 59.583,101 64.003,101 C68.42,101 72.001,104.579 72.001,108.999" id="Fill-49" fill="#D1A267"></path>
                    <path d="M128.001,62.5 C128.001,64.434 126.212,66 124.002,66 C121.792,66 120.001,64.434 120.001,62.5 C120.001,60.565 121.792,59 124.002,59 C126.212,59 128.001,60.565 128.001,62.5" id="Fill-51" fill="#D1A267"></path>
                    <path d="M90.001,5.5 C90.001,8.538 84.403,11 77.501,11 C70.598,11 65.001,8.538 65.001,5.5 C65.001,2.462 70.598,0 77.501,0 C84.403,0 90.001,2.462 90.001,5.5" id="Fill-53" fill="#D18A30"></path>
                    <path d="M85.001,5.5 C85.001,6.879 81.644,8 77.503,8 C73.36,8 70.001,6.879 70.001,5.5 C70.001,4.121 73.36,3 77.503,3 C81.644,3 85.001,4.121 85.001,5.5" id="Fill-55" fill="#D18A30"></path>
                    <path d="M90.001,148.501 C90.001,151.538 84.403,154 77.501,154 C70.598,154 65.001,151.538 65.001,148.501 C65.001,145.464 70.598,143 77.501,143 C84.403,143 90.001,145.464 90.001,148.501" id="Fill-57" fill="#D18A30"></path>
                    <path d="M85.001,148.5 C85.001,149.879 81.644,151 77.503,151 C73.36,151 70.001,149.879 70.001,148.5 C70.001,147.119 73.36,146 77.503,146 C81.644,146 85.001,147.119 85.001,148.5" id="Fill-59" fill="#D18A30"></path>
                    <path d="M125.6553,22.419 C124.1523,25.055 118.1633,24.318 112.2793,20.775 C106.3923,17.227 102.8433,12.217 104.3443,9.581 C105.8473,6.944 111.8413,7.681 117.7233,11.227 C123.6083,14.773 127.1603,19.785 125.6553,22.419" id="Fill-61" fill="#D18A30"></path>
                    <path d="M120.8311,19.229 C120.0191,20.62 116.5291,20.077 113.0321,18.016 C109.5361,15.957 107.3571,13.16 108.1711,11.769 C108.9791,10.381 112.4731,10.923 115.9701,12.982 C119.4641,15.042 121.6431,17.838 120.8311,19.229" id="Fill-63" fill="#D18A30"></path>
                    <path d="M52.6563,145.4209 C51.1533,148.0549 45.1613,147.3169 39.2793,143.7749 C33.3923,140.2269 29.8433,135.2169 31.3453,132.5799 C32.8483,129.9439 38.8413,130.6809 44.7253,134.2269 C50.6093,137.7749 54.1593,142.7849 52.6563,145.4209" id="Fill-65" fill="#D18A30"></path>
                    <path d="M47.8321,142.2285 C47.0201,143.6205 43.5281,143.0775 40.0341,141.0155 C36.5371,138.9575 34.3601,136.1605 35.1701,134.7695 C35.9821,133.3805 39.4741,133.9225 42.9681,135.9825 C46.4651,138.0415 48.6421,140.8375 47.8321,142.2285" id="Fill-67" fill="#D18A30"></path>
                    <path d="M148.3116,52.6836 C145.5986,54.1236 140.5706,50.5046 137.0826,44.6056 C133.5986,38.7046 132.9756,32.7546 135.6906,31.3166 C138.4036,29.8756 143.4316,33.4906 146.9166,39.3916 C150.4036,45.2926 151.0266,51.2436 148.3116,52.6836" id="Fill-69" fill="#D18A30"></path>
                    <path d="M145.1758,48.8452 C143.7398,49.6192 140.9338,47.4092 138.9038,43.9052 C136.8748,40.4022 136.3918,36.9312 137.8258,36.1542 C139.2618,35.3802 142.0698,37.5902 144.0998,41.0952 C146.1278,44.6002 146.6088,48.0682 145.1758,48.8452" id="Fill-71" fill="#D18A30"></path>
                    <path d="M21.313,122.6836 C18.598,124.1236 13.571,120.5066 10.086,114.6086 C6.6,108.7066 5.975,102.7546 8.69,101.3166 C11.405,99.8756 16.432,103.4916 19.917,109.3936 C23.403,115.2926 24.026,121.2436 21.313,122.6836" id="Fill-73" fill="#D18A30"></path>
                    <path d="M18.1749,118.8447 C16.7419,119.6197 13.9329,117.4077 11.9029,113.9047 C9.8749,110.4027 9.3919,106.9337 10.8269,106.1547 C12.2609,105.3797 15.0709,107.5897 17.0989,111.0947 C19.1289,114.5997 19.6099,118.0707 18.1749,118.8447" id="Fill-75" fill="#D18A30"></path>
                    <g id="Group-79" transform="translate(146.000000, 66.000000)">
                        <mask id="mask-2" fill="white">
                            <use xlink:href="#path-1"></use>
                        </mask>
                        <g id="Clip-78"></g>
                        <path d="M5.25,24.999 C2.215,24.94 -0.13,19.295 0.007,12.391 C0.146,5.486 2.722,-0.061 5.754,0 C8.787,0.062 11.136,5.707 10.995,12.609 C10.855,19.514 8.284,25.061 5.25,24.999" id="Fill-77" fill="#D18A30" mask="url(#mask-2)"></path>
                    </g>
                    <path d="M151.3731,86 C149.9941,85.967 148.9341,82.583 149.0041,78.439 C149.0731,74.298 150.2491,70.967 151.6271,71 C153.0061,71.033 154.0651,74.417 153.9981,78.561 C153.9271,82.702 152.7531,86.033 151.3731,86" id="Fill-80" fill="#D18A30"></path>
                    <path d="M5.2398,87.9483 C2.2108,87.8893 -0.1302,82.2633 0.0058,75.3833 C0.1468,68.5033 2.7168,62.9753 5.7438,63.0363 C8.7708,63.0973 11.1158,68.7233 10.9748,75.6013 C10.8368,82.4793 8.2688,88.0103 5.2398,87.9483" id="Fill-82" fill="#D18A30"></path>
                    <path d="M5.3731,83 C3.9951,82.964 2.9341,79.583 3.0041,75.439 C3.0731,71.298 4.2491,67.967 5.6271,68 C7.0061,68.033 8.0661,71.417 7.9981,75.559 C7.9271,79.702 6.7531,83.033 5.3731,83" id="Fill-84" fill="#D18A30"></path>
                    <path d="M134.6367,123.6699 C131.9597,122.1979 132.6387,116.2299 136.1557,110.3369 C139.6687,104.4449 144.6877,100.8599 147.3657,102.3289 C150.0417,103.8009 149.3617,109.7699 145.8477,115.6599 C142.3317,121.5559 137.3107,125.1409 134.6367,123.6699" id="Fill-86" fill="#D18A30"></path>
                    <path d="M137.7998,118.8389 C136.3858,118.0459 136.8998,114.5659 138.9428,111.0649 C140.9878,107.5639 143.7898,105.3669 145.2018,106.1629 C146.6148,106.9559 146.1028,110.4359 144.0598,113.9369 C142.0168,117.4379 139.2138,119.6289 137.7998,118.8389" id="Fill-88" fill="#D18A30"></path>
                    <path d="M8.6353,52.6704 C5.9613,51.1984 6.6373,45.2294 10.1563,39.3364 C13.6693,33.4454 18.6883,29.8604 21.3663,31.3284 C24.0423,32.8004 23.3613,38.7694 19.8453,44.6604 C16.3323,50.5554 11.3113,54.1404 8.6353,52.6704" id="Fill-90" fill="#D18A30"></path>
                    <path d="M11.8003,47.8384 C10.3853,47.0454 10.8993,43.5664 12.9423,40.0654 C14.9863,36.5644 17.7873,34.3674 19.2023,35.1624 C20.6163,35.9554 20.1033,39.4354 18.0573,42.9364 C16.0163,46.4374 13.2143,48.6294 11.8003,47.8384" id="Fill-92" fill="#D18A30"></path>
                    <path d="M104.3487,145.4277 C102.8397,142.7977 106.3837,137.7907 112.2677,134.2397 C118.1527,130.6907 124.1437,129.9417 125.6527,132.5717 C127.1637,135.2007 123.6167,140.2097 117.7327,143.7617 C111.8507,147.3117 105.8567,148.0577 104.3487,145.4277" id="Fill-94" fill="#D18A30"></path>
                    <path d="M108.1719,142.2334 C107.3579,140.8474 109.5299,138.0494 113.0259,135.9904 C116.5219,133.9274 120.0149,133.3794 120.8299,134.7654 C121.6449,136.1504 119.4729,138.9474 115.9749,141.0114 C112.4799,143.0724 108.9839,143.6204 108.1719,142.2334" id="Fill-96" fill="#D18A30"></path>
                    <path d="M31.3482,22.4282 C29.8402,19.7982 33.3842,14.7892 39.2682,11.2382 C45.1522,7.6892 51.1442,6.9422 52.6522,9.5702 C54.1652,12.2012 50.6172,17.2112 44.7322,20.7602 C38.8502,24.3112 32.8562,25.0582 31.3482,22.4282" id="Fill-98" fill="#D18A30"></path>
                    <path d="M35.1714,19.2339 C34.3584,17.8479 36.5324,15.0509 40.0274,12.9889 C43.5234,10.9269 47.0154,10.3789 47.8304,11.7669 C48.6434,13.1509 46.4734,15.9479 42.9764,18.0099 C39.4794,20.0719 35.9864,20.6209 35.1714,19.2339" id="Fill-100" fill="#D18A30"></path>
                </g>
            </g>
        </g>
    </g>
</svg>